<?xml version="1.0" encoding="UTF-8"?>
<svg width="33px" height="25px" viewBox="0 0 33 25" version="1.1" xmlns="http://www.w3.org/2000/svg" xmlns:xlink="http://www.w3.org/1999/xlink">
    <!-- Generator: Sketch 52.6 (67491) - http://www.bohemiancoding.com/sketch -->
    <title></title>
    <desc>Created with Sketch.</desc>
    <g id="Symbols" stroke="none" stroke-width="1" fill="none" fill-rule="evenodd">
        <g id="" fill="#000000">
            <path d="M17.3020833,10.4352679 C17.3020833,10.9189012 17.1588556,11.2909213 16.8723958,11.5513393 C16.5859361,11.8117573 16.1753499,11.9419643 15.640625,11.9419643 L14.265625,11.9419643 L14.265625,8.92857143 L15.640625,8.92857143 C16.1753499,8.92857143 16.5859361,9.05877846 16.8723958,9.31919643 C17.1588556,9.5796144 17.3020833,9.95163449 17.3020833,10.4352679 Z M20.0520833,13.9508929 C20.0520833,13.4672595 20.434024,13.2068454 21.1979167,13.1696429 L22.515625,13.0580357 L22.515625,13.5044643 C22.515625,13.8392874 22.3819458,14.127603 22.1145833,14.3694196 C21.8472209,14.6112363 21.5034743,14.7321429 21.0833333,14.7321429 C20.7777763,14.7321429 20.5295148,14.6577388 20.3385417,14.5089286 C20.1475685,14.3601183 20.0520833,14.1741083 20.0520833,13.9508929 Z M33,2.67857143 L33,22.3214286 C33,23.0654799 32.7326416,23.6979141 32.1979167,24.21875 C31.6631918,24.7395859 31.0138927,25 30.25,25 L2.75,25 C1.98610729,25 1.33680823,24.7395859 0.802083333,24.21875 C0.267358437,23.6979141 0,23.0654799 0,22.3214286 L0,2.67857143 C0,1.93452009 0.267358437,1.30208594 0.802083333,0.78125 C1.33680823,0.260414063 1.98610729,0 2.75,0 L30.25,0 C31.0138927,0 31.6631918,0.260414063 32.1979167,0.78125 C32.7326416,1.30208594 33,1.93452009 33,2.67857143 Z M7.33333333,9.26339286 C7.79166896,9.30059542 8.20225513,9.11458538 8.56510417,8.70535714 C8.9279532,8.29612891 9.09027797,7.8497048 9.05208333,7.36607143 C8.82291552,7.36607143 8.59375115,7.43117494 8.36458333,7.56138393 C8.13541552,7.69159291 7.94444521,7.83110045 7.79166667,7.97991071 C7.40972031,8.38913895 7.25694406,8.81696205 7.33333333,9.26339286 Z M10.7708333,13.4486607 C10.5416655,13.337053 10.3506952,13.188245 10.1979167,13.0022321 C9.85416495,12.667409 9.68229167,12.2581869 9.68229167,11.7745536 C9.64409703,11.1049074 9.9305525,10.5840792 10.5416667,10.2120536 L10.5989583,10.2120536 C10.217012,9.69121763 9.6822951,9.41220257 8.99479167,9.375 C8.72742922,9.33779743 8.36458562,9.41220145 7.90625,9.59821429 C7.63888755,9.70982199 7.46701427,9.765625 7.390625,9.765625 C7.31423573,9.765625 7.14236245,9.70982199 6.875,9.59821429 C6.49305365,9.44940402 6.20659818,9.375 6.015625,9.375 C5.63367865,9.375 5.28993208,9.46800502 4.984375,9.65401786 C4.67881792,9.84003069 4.43055651,10.1004448 4.23958333,10.4352679 C3.89583161,11.0305089 3.80034646,11.7559481 3.953125,12.6116071 C4.10590354,13.3556585 4.39235901,14.0066936 4.8125,14.5647321 C5.30903026,15.2715809 5.74826198,15.625 6.13020833,15.625 C6.28298687,15.625 6.49305422,15.569197 6.76041667,15.4575893 C7.02777911,15.3459816 7.27604052,15.2901786 7.50520833,15.2901786 C7.73437615,15.2901786 7.98263755,15.3459816 8.25,15.4575893 C8.51736245,15.569197 8.75607534,15.625 8.96614583,15.625 C9.17621633,15.625 9.39583219,15.513394 9.625,15.2901786 C9.77777854,15.1785709 9.97829737,14.9460583 10.2265625,14.5926339 C10.4748276,14.2392095 10.6562494,13.857889 10.7708333,13.4486607 Z M18.5625,10.4352679 C18.5625,9.69121652 18.3237871,9.09598437 17.8463542,8.64955357 C17.3689212,8.20312277 16.7482677,7.97991071 15.984375,7.97991071 L13.0625,7.97991071 L13.0625,15.5691964 L14.265625,15.5691964 L14.265625,12.9464286 L15.9270833,12.9464286 C16.690976,12.9464286 17.3211781,12.713916 17.8177083,12.2488839 C18.3142386,11.7838518 18.5625,11.1793192 18.5625,10.4352679 Z M23.71875,11.7745536 C23.71875,11.2165151 23.5086827,10.7793915 23.0885417,10.4631696 C22.6684007,10.1469478 22.1241353,9.98883929 21.4557292,9.98883929 C20.787323,9.98883929 20.2430577,10.1469478 19.8229167,10.4631696 C19.4027757,10.7793915 19.1736113,11.1793131 19.1354167,11.6629464 L20.2239583,11.6629464 C20.262153,11.439731 20.3862837,11.253721 20.5963542,11.1049107 C20.8064247,10.9561004 21.0642346,10.8816964 21.3697917,10.8816964 C22.1336844,10.8816964 22.515625,11.1979135 22.515625,11.8303571 L22.515625,12.2767857 L21.0260417,12.3325893 C19.5746455,12.444197 18.8489583,13.0022271 18.8489583,14.0066964 C18.8489583,14.4903298 19.0303801,14.8809509 19.3932292,15.1785714 C19.7560782,15.476192 20.2239555,15.625 20.796875,15.625 C21.1788214,15.625 21.5321164,15.5412955 21.8567708,15.3738839 C22.1814252,15.2064724 22.4201381,14.9739598 22.5729167,14.6763393 L22.5729167,15.5691964 L23.71875,15.5691964 L23.71875,11.7745536 Z M29.5625,10.0446429 L28.359375,10.0446429 L26.9270833,14.5089286 L26.8697917,14.5089286 L25.4375,10.0446429 L24.1770833,10.0446429 L26.2395833,15.5691964 L26.125,15.9040179 C25.9722215,16.4248538 25.6284749,16.6852679 25.09375,16.6852679 L24.75,16.6852679 L24.75,17.578125 C24.7881946,17.6153276 24.9409709,17.6339286 25.2083333,17.6339286 C25.8194475,17.6339286 26.2873248,17.5037215 26.6119792,17.2433036 C26.9366336,16.9828856 27.2135405,16.5178605 27.4427083,15.8482143 L29.5625,10.0446429 Z"></path>
        </g>
    </g>
</svg>