<?xml version="1.0" encoding="UTF-8"?>
<svg width="36px" height="28px" viewBox="0 0 36 28" version="1.1" xmlns="http://www.w3.org/2000/svg" xmlns:xlink="http://www.w3.org/1999/xlink">
    <!-- Generator: Sketch 52.6 (67491) - http://www.bohemiancoding.com/sketch -->
    <title>applepay</title>
    <desc>Created with Sketch.</desc>
    <g id="Symbols" stroke="none" stroke-width="1" fill="none" fill-rule="evenodd">
        <g id="applepay" fill="#FFFFFF">
            <path d="M18.875,11.6875 C18.875,12.2291694 18.7187516,12.6458319 18.40625,12.9375 C18.0937484,13.2291681 17.6458363,13.375 17.0625,13.375 L15.5625,13.375 L15.5625,10 L17.0625,10 C17.6458363,10 18.0937484,10.1458319 18.40625,10.4375 C18.7187516,10.7291681 18.875,11.1458306 18.875,11.6875 Z M21.875,15.625 C21.875,15.0833306 22.2916625,14.7916669 23.125,14.75 L24.5625,14.625 L24.5625,15.125 C24.5625,15.5000019 24.4166681,15.8229153 24.125,16.09375 C23.8333319,16.3645847 23.4583356,16.5 23,16.5 C22.666665,16.5 22.3958344,16.4166675 22.1875,16.25 C21.9791656,16.0833325 21.875,15.8750013 21.875,15.625 Z M36,3 L36,25 C36,25.8333375 35.7083363,26.5416637 35.125,27.125 C34.5416637,27.7083363 33.8333375,28 33,28 L3,28 C2.1666625,28 1.45833625,27.7083363 0.875,27.125 C0.29166375,26.5416637 0,25.8333375 0,25 L0,3 C0,2.1666625 0.29166375,1.45833625 0.875,0.875 C1.45833625,0.29166375 2.1666625,0 3,0 L33,0 C33.8333375,0 34.5416637,0.29166375 35.125,0.875 C35.7083363,1.45833625 36,2.1666625 36,3 Z M8,10.375 C8.5000025,10.4166669 8.94791469,10.2083356 9.34375,9.75 C9.73958531,9.29166437 9.91666687,8.79166937 9.875,8.25 C9.62499875,8.25 9.37500125,8.32291594 9.125,8.46875 C8.87499875,8.61458406 8.6666675,8.7708325 8.5,8.9375 C8.08333125,9.39583563 7.91666625,9.8749975 8,10.375 Z M11.75,15.0625 C11.4999987,14.9374994 11.2916675,14.7708344 11.125,14.5625 C10.7499981,14.1874981 10.5625,13.7291694 10.5625,13.1875 C10.5208331,12.4374962 10.83333,11.8541687 11.5,11.4375 L11.5625,11.4375 C11.1458313,10.8541637 10.5625038,10.5416669 9.8125,10.5 C9.52083187,10.4583331 9.1250025,10.5416656 8.625,10.75 C8.33333187,10.8750006 8.14583375,10.9375 8.0625,10.9375 C7.97916625,10.9375 7.79166813,10.8750006 7.5,10.75 C7.08333125,10.5833325 6.77083437,10.5 6.5625,10.5 C6.14583125,10.5 5.770835,10.6041656 5.4375,10.8125 C5.104165,11.0208344 4.83333437,11.3124981 4.625,11.6875 C4.24999812,12.35417 4.1458325,13.1666619 4.3125,14.125 C4.4791675,14.9583375 4.79166438,15.6874969 5.25,16.3125 C5.79166937,17.1041706 6.27083125,17.5 6.6875,17.5 C6.8541675,17.5 7.08333187,17.4375006 7.375,17.3125 C7.66666813,17.1874994 7.93749875,17.125 8.1875,17.125 C8.43750125,17.125 8.70833187,17.1874994 9,17.3125 C9.29166813,17.4375006 9.55208219,17.5 9.78125,17.5 C10.0104178,17.5 10.2499987,17.3750013 10.5,17.125 C10.6666675,16.9999994 10.8854153,16.7395853 11.15625,16.34375 C11.4270847,15.9479147 11.6249994,15.5208356 11.75,15.0625 Z M20.25,11.6875 C20.25,10.8541625 19.9895859,10.1875025 19.46875,9.6875 C18.9479141,9.1874975 18.2708375,8.9375 17.4375,8.9375 L14.25,8.9375 L14.25,17.4375 L15.5625,17.4375 L15.5625,14.5 L17.375,14.5 C18.2083375,14.5 18.8958306,14.2395859 19.4375,13.71875 C19.9791694,13.1979141 20.25,12.5208375 20.25,11.6875 Z M25.875,13.1875 C25.875,12.5624969 25.6458356,12.0729184 25.1875,11.71875 C24.7291644,11.3645816 24.1354203,11.1875 23.40625,11.1875 C22.6770797,11.1875 22.0833356,11.3645816 21.625,11.71875 C21.1666644,12.0729184 20.9166669,12.5208306 20.875,13.0625 L22.0625,13.0625 C22.1041669,12.8124987 22.2395822,12.6041675 22.46875,12.4375 C22.6979178,12.2708325 22.979165,12.1875 23.3125,12.1875 C24.1458375,12.1875 24.5625,12.5416631 24.5625,13.25 L24.5625,13.75 L22.9375,13.8125 C21.3541588,13.9375006 20.5625,14.5624944 20.5625,15.6875 C20.5625,16.2291694 20.7604147,16.666665 21.15625,17 C21.5520853,17.333335 22.0624969,17.5 22.6875,17.5 C23.1041687,17.5 23.4895816,17.4062509 23.84375,17.21875 C24.1979184,17.0312491 24.4583325,16.770835 24.625,16.4375 L24.625,17.4375 L25.875,17.4375 L25.875,13.1875 Z M32.25,11.25 L30.9375,11.25 L29.375,16.25 L29.3125,16.25 L27.75,11.25 L26.375,11.25 L28.625,17.4375 L28.5,17.8125 C28.3333325,18.3958363 27.9583363,18.6875 27.375,18.6875 L27,18.6875 L27,19.6875 C27.0416669,19.7291669 27.2083319,19.75 27.5,19.75 C28.16667,19.75 28.6770816,19.6041681 29.03125,19.3125 C29.3854184,19.0208319 29.6874987,18.5000038 29.9375,17.75 L32.25,11.25 Z"></path>
        </g>
    </g>
</svg>