<?xml version="1.0" encoding="UTF-8"?>
<svg width="14px" height="9px" viewBox="0 0 14 9" version="1.1" xmlns="http://www.w3.org/2000/svg" xmlns:xlink="http://www.w3.org/1999/xlink">
    <!-- Generator: Sketch 52.6 (67491) - http://www.bohemiancoding.com/sketch -->
    <title></title>
    <desc>Created with Sketch.</desc>
    <g id="Desktop" stroke="none" stroke-width="1" fill="none" fill-rule="evenodd">
        <g id="d-Desktop-HD---Kosik" transform="translate(-246.000000, -1124.000000)" fill="#fff">
            <g id="Group" transform="translate(216.000000, 1106.000000)">
                <path d="M34.4531144,26.6344609 C34.3945208,26.7125858 34.3163958,26.7516481 34.2187399,26.7516481 C34.1210841,26.7516481 34.0429591,26.7125858 33.9843655,26.6344609 L30.1171872,22.7672826 C30.0390623,22.708689 30,22.630564 30,22.5329081 C30,22.4352523 30.0390623,22.3571273 30.1171872,22.2985337 L33.9843655,18.4313554 C34.0429591,18.3532305 34.1210841,18.3141682 34.2187399,18.3141682 C34.3163958,18.3141682 34.3945208,18.3532305 34.4531144,18.4313554 L35.0390505,18.9879947 C35.1171754,19.0661197 35.1562377,19.1540101 35.1562377,19.251666 C35.1562377,19.3493218 35.1171754,19.4274468 35.0390505,19.4860404 L32.6660093,21.7711912 L42.773407,21.7711912 C42.8710629,21.7711912 42.9540708,21.805371 43.0224299,21.87373 C43.090789,21.9420891 43.1249687,22.025097 43.1249687,22.1227529 L43.1249687,22.9430634 C43.1249687,23.0407193 43.090789,23.1237272 43.0224299,23.1920863 C42.9540708,23.2604453 42.8710629,23.2946251 42.773407,23.2946251 L32.6660093,23.2946251 L35.0390505,25.5797759 C35.1171754,25.6383695 35.1562377,25.7164945 35.1562377,25.8141503 C35.1562377,25.9118062 35.1171754,25.9996966 35.0390505,26.0778216 L34.4531144,26.6344609 Z" id=""></path>
            </g>
        </g>
    </g>
</svg>