<?xml version="1.0" encoding="UTF-8"?>
<svg width="14px" height="8px" viewBox="0 0 14 8" version="1.1" xmlns="http://www.w3.org/2000/svg" xmlns:xlink="http://www.w3.org/1999/xlink">
    <!-- Generator: Sketch 52.6 (67491) - http://www.bohemiancoding.com/sketch -->
    <title></title>
    <desc>Created with Sketch.</desc>
    <g id="Symbols" stroke="none" stroke-width="1" fill="none" fill-rule="evenodd">
        <g id="footer" transform="translate(-449.000000, -151.000000)" fill="#FFFFFF">
            <g id="">
                <path d="M458.718727,151.125024 C458.80206,151.04169 458.890601,151.000024 458.984351,151.000024 C459.078101,151.000024 459.166642,151.04169 459.249976,151.125024 L462.874967,154.750015 C462.9583,154.812515 462.999967,154.895848 462.999967,155.000014 C462.999967,155.104181 462.9583,155.187514 462.874967,155.250014 L459.249976,158.875005 C459.166642,158.958338 459.078101,159.000005 458.984351,159.000005 C458.890601,159.000005 458.80206,158.958338 458.718727,158.875005 L458.499977,158.656256 C458.416644,158.593756 458.374978,158.510422 458.374978,158.406256 C458.374978,158.30209 458.416644,158.20834 458.499977,158.125007 L461.124971,155.531263 L449.374999,155.531263 C449.270833,155.531263 449.182291,155.494805 449.109375,155.421888 C449.036458,155.348972 449,155.26043 449,155.156264 L449,154.843765 C449,154.739598 449.036458,154.651057 449.109375,154.57814 C449.182291,154.505224 449.270833,154.468766 449.374999,154.468766 L461.124971,154.468766 L458.499977,151.875022 C458.416644,151.791688 458.374978,151.697939 458.374978,151.593772 C458.374978,151.489606 458.416644,151.406273 458.499977,151.343773 L458.718727,151.125024 Z"></path>
            </g>
        </g>
    </g>
</svg>