<?xml version="1.0" encoding="UTF-8"?>
<svg width="18px" height="10px" viewBox="0 0 18 10" version="1.1" xmlns="http://www.w3.org/2000/svg" xmlns:xlink="http://www.w3.org/1999/xlink">
    <!-- Generator: Sketch 52.6 (67491) - http://www.bohemiancoding.com/sketch -->
    <title> copy 2</title>
    <desc>Created with Sketch.</desc>
    <g id="Mobile" stroke="none" stroke-width="1" fill="none" fill-rule="evenodd">
        <g id="d-Mobile-Lookbook-Hero-Product" transform="translate(-179.000000, -505.000000)" fill="#FFFFFF">
            <path d="M179.117187,513.984354 C179.039062,513.906229 179,513.802062 179,513.671854 C179,513.541647 179.039062,513.424459 179.117187,513.320293 L187.320293,505.15625 C187.398417,505.052083 187.502584,505 187.632792,505 C187.763,505 187.867166,505.052083 187.945291,505.15625 L196.148397,513.320293 C196.226521,513.424459 196.265584,513.541647 196.265584,513.671854 C196.265584,513.802062 196.226521,513.906229 196.148397,513.984354 L195.367148,514.765602 C195.289024,514.869768 195.184857,514.921851 195.054649,514.921851 C194.924441,514.921851 194.807254,514.869768 194.703088,514.765602 L187.632792,507.695306 L180.562496,514.765602 C180.45833,514.869768 180.341142,514.921851 180.210935,514.921851 C180.080727,514.921851 179.97656,514.869768 179.898435,514.765602 L179.117187,513.984354 Z" id="-copy-2" transform="translate(187.632792, 509.960926) scale(1, -1) translate(-187.632792, -509.960926) "></path>
        </g>
    </g>
</svg>