<?xml version="1.0" encoding="UTF-8"?>
<svg width="5px" height="9px" viewBox="0 0 5 9" version="1.1" xmlns="http://www.w3.org/2000/svg" xmlns:xlink="http://www.w3.org/1999/xlink">
    <!-- Generator: Sketch 52.6 (67491) - http://www.bohemiancoding.com/sketch -->
    <title></title>
    <desc>Created with Sketch.</desc>
    <g id="Symbols" stroke="none" stroke-width="1" fill="none" fill-rule="evenodd">
        <g id="arrow" fill="#000000">
            <path d="M4.84935978,4.85091743 L1.19633441,8.85550459 C1.10846085,8.95183497 1.00175755,9 0.876223939,9 C0.750690325,9 0.643987027,8.95183497 0.556113469,8.85550459 L0.14185286,8.40137615 C0.0539793014,8.30504577 0.00690423221,8.1880735 0.000627652095,8.05045872 C-0.00564892802,7.91284393 0.0351492737,7.79587166 0.123022832,7.69954128 L3.04167712,4.5 L0.123022832,1.30045872 C0.0351492737,1.20412834 -0.00564892802,1.08715607 0.000627652095,0.949541284 C0.00690423221,0.811926501 0.0539793014,0.694954233 0.14185286,0.598623853 L0.556113469,0.144495413 C0.643987027,0.0481650326 0.750690325,0 0.876223939,0 C1.00175755,0 1.10846085,0.0481650326 1.19633441,0.144495413 L4.84935978,4.14908257 C4.9497865,4.24541295 5,4.36238522 5,4.5 C5,4.63761478 4.9497865,4.75458705 4.84935978,4.85091743 Z" id=""></path>
        </g>
    </g>
</svg>