<?xml version="1.0" encoding="UTF-8"?>
<svg width="7px" height="12px" viewBox="0 0 7 12" version="1.1" xmlns="http://www.w3.org/2000/svg" xmlns:xlink="http://www.w3.org/1999/xlink">
    <!-- Generator: Sketch 52.6 (67491) - http://www.bohemiancoding.com/sketch -->
    <title></title>
    <desc>Created with Sketch.</desc>
    <g id="Symbols" stroke="none" stroke-width="1" fill="none" fill-rule="evenodd">
        <g id="arror" fill="#000000">
            <path d="M6.78910369,6.46788991 L1.67486817,11.8073394 C1.55184519,11.93578 1.40246057,12 1.22671351,12 C1.05096646,12 0.901581838,11.93578 0.778558856,11.8073394 L0.198594004,11.2018349 C0.075571022,11.0733944 0.0096659251,10.9174313 0.000878712933,10.733945 C-0.00790849923,10.5504586 0.0492089832,10.3944956 0.172231965,10.266055 L4.25834797,6 L0.172231965,1.73394495 C0.0492089832,1.60550445 -0.00790849923,1.44954142 0.000878712933,1.26605505 C0.0096659251,1.08256867 0.075571022,0.926605645 0.198594004,0.798165138 L0.778558856,0.19266055 C0.901581838,0.0642200435 1.05096646,0 1.22671351,0 C1.40246057,0 1.55184519,0.0642200435 1.67486817,0.19266055 L6.78910369,5.53211009 C6.9297011,5.6605506 7,5.81651362 7,6 C7,6.18348638 6.9297011,6.3394494 6.78910369,6.46788991 Z" id=""></path>
        </g>
    </g>
</svg>