<?xml version="1.0" encoding="UTF-8"?>
<svg width="12px" height="8px" viewBox="0 0 12 8" version="1.1" xmlns="http://www.w3.org/2000/svg" xmlns:xlink="http://www.w3.org/1999/xlink">
    <!-- Generator: Sketch 52.6 (67491) - http://www.bohemiancoding.com/sketch -->
    <title> copy 3</title>
    <desc>Created with Sketch.</desc>
    <g id="Desktop" stroke="none" stroke-width="1" fill="none" fill-rule="evenodd">
        <g id="d-Desktop-HD---Products-Filter" transform="translate(-1201.000000, -194.000000)" fill="#000000">
            <path d="M1207.43163,194.951191 L1212.3574,199.876961 C1212.47588,199.99545 1212.53513,200.13933 1212.53513,200.3086 C1212.53513,200.477871 1212.47588,200.62175 1212.3574,200.74024 L1211.7988,201.298832 C1211.68031,201.417322 1211.53643,201.480798 1211.36716,201.489261 C1211.19789,201.497725 1211.05401,201.442712 1210.93552,201.324223 L1206.99999,197.388685 L1203.06445,201.324223 C1202.94596,201.442712 1202.80208,201.497725 1202.63281,201.489261 C1202.46354,201.480798 1202.31966,201.417322 1202.20117,201.298832 L1201.64258,200.74024 C1201.52409,200.62175 1201.46484,200.477871 1201.46484,200.3086 C1201.46484,200.13933 1201.52409,199.99545 1201.64258,199.876961 L1206.56835,194.951191 C1206.68684,194.815775 1206.83072,194.748067 1206.99999,194.748067 C1207.16926,194.748067 1207.31314,194.815775 1207.43163,194.951191 Z" id="-copy-3" transform="translate(1206.999986, 198.119087) scale(1, -1) translate(-1206.999986, -198.119087) "></path>
        </g>
    </g>
</svg>