<?xml version="1.0" encoding="UTF-8"?>
<svg width="12px" height="8px" viewBox="0 0 12 8" version="1.1" xmlns="http://www.w3.org/2000/svg" xmlns:xlink="http://www.w3.org/1999/xlink">
    <!-- Generator: Sketch 52.6 (67491) - http://www.bohemiancoding.com/sketch -->
    <title> copy 2</title>
    <desc>Created with Sketch.</desc>
    <g id="Desktop" stroke="none" stroke-width="1" fill="none" fill-rule="evenodd">
        <g id="d-Desktop-HD---Products-Filter" transform="translate(-1334.000000, -193.000000)" fill="#FFFFFF">
            <path d="M1340.43163,193.951191 L1345.3574,198.876961 C1345.47588,198.99545 1345.53513,199.13933 1345.53513,199.3086 C1345.53513,199.477871 1345.47588,199.62175 1345.3574,199.74024 L1344.7988,200.298832 C1344.68031,200.417322 1344.53643,200.480798 1344.36716,200.489261 C1344.19789,200.497725 1344.05401,200.442712 1343.93552,200.324223 L1339.99999,196.388685 L1336.06445,200.324223 C1335.94596,200.442712 1335.80208,200.497725 1335.63281,200.489261 C1335.46354,200.480798 1335.31966,200.417322 1335.20117,200.298832 L1334.64258,199.74024 C1334.52409,199.62175 1334.46484,199.477871 1334.46484,199.3086 C1334.46484,199.13933 1334.52409,198.99545 1334.64258,198.876961 L1339.56835,193.951191 C1339.68684,193.815775 1339.83072,193.748067 1339.99999,193.748067 C1340.16926,193.748067 1340.31314,193.815775 1340.43163,193.951191 Z" id="-copy-2" transform="translate(1339.999986, 197.119087) scale(1, -1) translate(-1339.999986, -197.119087) "></path>
        </g>
    </g>
</svg>