<?xml version="1.0" encoding="UTF-8"?>
<svg width="11px" height="6px" viewBox="0 0 11 6" version="1.1" xmlns="http://www.w3.org/2000/svg" xmlns:xlink="http://www.w3.org/1999/xlink">
    <!-- Generator: Sketch 52.6 (67491) - http://www.bohemiancoding.com/sketch -->
    <title>arrow up</title>
    <desc>Created with Sketch.</desc>
    <g id="arrow-up" stroke="none" stroke-width="1" fill="none" fill-rule="evenodd">
        <path d="M0.0746606335,5.43307087 C0.0248868778,5.38582677 0,5.32283453 0,5.24409449 C0,5.16535445 0.0248868778,5.09448831 0.0746606335,5.03149606 L5.30090498,0.094488189 C5.35067873,0.0314959428 5.41704387,0 5.5,0 C5.58295613,0 5.64932127,0.0314959428 5.69909502,0.094488189 L10.9253394,5.03149606 C10.9751131,5.09448831 11,5.16535445 11,5.24409449 C11,5.32283453 10.9751131,5.38582677 10.9253394,5.43307087 L10.4276018,5.90551181 C10.3778281,5.96850406 10.3114629,6 10.2285068,6 C10.1455507,6 10.07089,5.96850406 10.0045249,5.90551181 L5.5,1.62992126 L0.995475113,5.90551181 C0.929109979,5.96850406 0.854449346,6 0.771493213,6 C0.68853708,6 0.622171946,5.96850406 0.57239819,5.90551181 L0.0746606335,5.43307087 Z" id="ï·" fill="#FFFFFF"></path>
    </g>
</svg>