<?xml version="1.0" encoding="UTF-8"?>
<svg width="15px" height="16px" viewBox="0 0 15 16" version="1.1" xmlns="http://www.w3.org/2000/svg" xmlns:xlink="http://www.w3.org/1999/xlink">
    <!-- Generator: Sketch 52.6 (67491) - http://www.bohemiancoding.com/sketch -->
    <title></title>
    <desc>Created with Sketch.</desc>
    <g id="Symbols" stroke="none" stroke-width="1" fill="none" fill-rule="evenodd">
        <g id="menu" transform="translate(-1333.000000, -7.000000)" fill="#000000">
            <path d="M1344.49997,11.0000238 L1347.49997,11.0000238 L1347.49997,20.5000012 C1347.49997,21.1874996 1347.25518,21.7760397 1346.76559,22.265622 C1346.27601,22.7552043 1345.68747,22.9999952 1344.99997,22.9999952 L1335.99999,22.9999952 C1335.3125,22.9999952 1334.72396,22.7552043 1334.23437,22.265622 C1333.74479,21.7760397 1333.5,21.1874996 1333.5,20.5000012 L1333.5,11.0000238 L1336.49999,11.0000238 C1336.49999,10.2708591 1336.67708,9.59898567 1337.03124,8.98440365 C1337.38541,8.36982162 1337.86978,7.88544778 1338.48436,7.53128211 C1339.09895,7.17711645 1339.77082,7.00003338 1340.49998,7.00003338 C1341.22915,7.00003338 1341.90102,7.17711645 1342.5156,7.53128211 C1343.13019,7.88544778 1343.61456,8.36982162 1343.96873,8.98440365 C1344.32289,9.59898567 1344.49997,10.2708591 1344.49997,11.0000238 Z M1340.49998,8.5000298 C1339.81248,8.5000298 1339.22394,8.74482073 1338.73436,9.23440305 C1338.24478,9.72398538 1337.99999,10.3125255 1337.99999,11.0000238 L1342.99998,11.0000238 C1342.99998,10.3125255 1342.75519,9.72398538 1342.2656,9.23440305 C1341.77602,8.74482073 1341.18748,8.5000298 1340.49998,8.5000298 Z M1345.99997,20.5000012 L1345.99997,12.5000203 L1344.49997,12.5000203 L1344.49997,13.7500173 C1344.49997,13.9583503 1344.42706,14.1354329 1344.28122,14.281266 C1344.13539,14.4270992 1343.95831,14.5000155 1343.74998,14.5000155 C1343.54164,14.5000155 1343.36456,14.4270992 1343.21873,14.281266 C1343.07289,14.1354329 1342.99998,13.9583503 1342.99998,13.7500173 L1342.99998,12.5000203 L1337.99999,12.5000203 L1337.99999,13.7500173 C1337.99999,13.9583503 1337.92707,14.1354329 1337.78124,14.281266 C1337.63541,14.4270992 1337.45832,14.5000155 1337.24999,14.5000155 C1337.04166,14.5000155 1336.86458,14.4270992 1336.71874,14.281266 C1336.57291,14.1354329 1336.49999,13.9583503 1336.49999,13.7500173 L1336.49999,12.5000203 L1335,12.5000203 L1335,20.5000012 C1335,20.770834 1335.09895,21.0052085 1335.29687,21.2031245 C1335.49479,21.4010406 1335.72916,21.4999988 1335.99999,21.4999988 L1344.99997,21.4999988 C1345.27081,21.4999988 1345.50518,21.4010406 1345.7031,21.2031245 C1345.90101,21.0052085 1345.99997,20.770834 1345.99997,20.5000012 Z" id="" transform="translate(1340.499983, 15.000014) scale(-1, 1) translate(-1340.499983, -15.000014) "></path>
        </g>
    </g>
</svg>