<?xml version="1.0" encoding="UTF-8"?>
<svg width="18px" height="18px" viewBox="0 0 18 18" version="1.1" xmlns="http://www.w3.org/2000/svg" xmlns:xlink="http://www.w3.org/1999/xlink">
    <!-- Generator: Sketch 52.6 (67491) - http://www.bohemiancoding.com/sketch -->
    <title>Group 4</title>
    <desc>Created with Sketch.</desc>
    <g id="Desktop" stroke="none" stroke-width="1" fill="none" fill-rule="evenodd">
        <g id="Hoverstates" transform="translate(-106.000000, -1265.000000)">
            <g id="Group-4" transform="translate(106.000000, 1265.000000)">
                <g id="Rectangle-2" fill="#D8D9D9" fill-rule="nonzero">
                    <path d="M2,2 L2,16 L16,16 L16,2 L2,2 Z M18,0 L18,18 L0,18 L0,0 L18,0 Z" id="Rectangle"></path>
                </g>
                <path id="checksvg" d="M7.41795822,13.7714849 L3.17773395,9.55665122 C3.05924452,9.43816179 3,9.2858184 3,9.09962106 C3,8.91342371 3.05924452,8.76108033 3.17773395,8.6425909 L4.11718484,7.72853058 C4.23567427,7.59311436 4.38378576,7.52540606 4.56151971,7.52540606 C4.73925367,7.52540606 4.89582894,7.59311436 5.03124516,7.72853058 L7.87498838,10.5722738 L13.9687238,4.47853833 C14.1041401,4.34312211 14.2607153,4.27541381 14.4384493,4.27541381 C14.6161832,4.27541381 14.7642947,4.34312211 14.8827842,4.47853833 L15.8222351,5.39259865 C15.9407245,5.51108808 15.999969,5.66343146 15.999969,5.84962881 C15.999969,6.03582615 15.9407245,6.18816954 15.8222351,6.30665897 L8.33201854,13.7714849 C8.21352911,13.9069011 8.06118572,13.9746094 7.87498838,13.9746094 C7.68879103,13.9746094 7.53644765,13.9069011 7.41795822,13.7714849 Z" fill="#000000"></path>
            </g>
        </g>
    </g>
</svg>