<?xml version="1.0" encoding="UTF-8"?>
<svg width="21px" height="21px" viewBox="0 0 21 21" version="1.1" xmlns="http://www.w3.org/2000/svg" xmlns:xlink="http://www.w3.org/1999/xlink">
    <!-- Generator: Sketch 52.6 (67491) - http://www.bohemiancoding.com/sketch -->
    <title>Group 5</title>
    <desc>Created with Sketch.</desc>
    <g id="Desktop" stroke="none" stroke-width="1" fill="none" fill-rule="evenodd">
        <g id="Hoverstates" transform="translate(-115.000000, -1115.000000)" fill="#000000">
            <g id="Group-5" transform="translate(115.000000, 1115.000000)">
                <path d="M1,1 L1,20 L20,20 L20,1 L1,1 Z M21,0 L21,21 L0,21 L0,0 L21,0 Z" id="Rectangle-Copy-42" fill-rule="nonzero"></path>
                <path d="M7.77734375,16.7277487 L2.23242188,11.078534 C2.07747379,10.9197206 2,10.7155321 2,10.4659686 C2,10.2164051 2.07747379,10.0122166 2.23242188,9.85340314 L3.4609375,8.62827225 C3.61588559,8.44677155 3.80957031,8.35602094 4.04199219,8.35602094 C4.27441406,8.35602094 4.47916684,8.44677155 4.65625,8.62827225 L8.375,12.4397906 L16.34375,4.27225131 C16.5208332,4.09075061 16.7255859,4 16.9580078,4 C17.1904297,4 17.3841144,4.09075061 17.5390625,4.27225131 L18.7675781,5.4973822 C18.9225262,5.65619564 19,5.86038412 19,6.10994764 C19,6.35951117 18.9225262,6.56369965 18.7675781,6.72251309 L8.97265625,16.7277487 C8.81770816,16.9092494 8.61848941,17 8.375,17 C8.13151059,17 7.93229184,16.9092494 7.77734375,16.7277487 Z" id=""></path>
            </g>
        </g>
    </g>
</svg>