<?xml version="1.0" encoding="UTF-8"?>
<svg width="4px" height="17px" viewBox="0 0 4 17" version="1.1" xmlns="http://www.w3.org/2000/svg" xmlns:xlink="http://www.w3.org/1999/xlink">
    <!-- Generator: Sketch 52.6 (67491) - http://www.bohemiancoding.com/sketch -->
    <title></title>
    <desc>Created with Sketch.</desc>
    <g id="Mobile" stroke="none" stroke-width="1" fill="none" fill-rule="evenodd">
        <g id="d-Mobile-Kosik" transform="translate(-336.000000, -134.000000)" fill="#000000">
            <g id="Group-3" transform="translate(15.000000, 65.000000)">
                <path d="M322.999994,75.6250224 C323.520826,75.6250224 323.963534,75.8073138 324.328116,76.171896 C324.692698,76.5364783 324.87499,76.979186 324.87499,77.5000179 C324.87499,78.0208498 324.692698,78.4635574 324.328116,78.8281397 C323.963534,79.192722 323.520826,79.3750134 322.999994,79.3750134 C322.479162,79.3750134 322.036454,79.192722 321.671872,78.8281397 C321.30729,78.4635574 321.124999,78.0208498 321.124999,77.5000179 C321.124999,76.979186 321.30729,76.5364783 321.671872,76.171896 C322.036454,75.8073138 322.479162,75.6250224 322.999994,75.6250224 Z M321.124999,71.562532 C321.124999,71.0417001 321.30729,70.5989925 321.671872,70.2344102 C322.036454,69.8698279 322.479162,69.6875365 322.999994,69.6875365 C323.520826,69.6875365 323.963534,69.8698279 324.328116,70.2344102 C324.692698,70.5989925 324.87499,71.0417001 324.87499,71.562532 C324.87499,72.0833639 324.692698,72.5260716 324.328116,72.8906539 C323.963534,73.2552361 323.520826,73.4375276 322.999994,73.4375276 C322.479162,73.4375276 322.036454,73.2552361 321.671872,72.8906539 C321.30729,72.5260716 321.124999,72.0833639 321.124999,71.562532 Z M321.124999,83.4375037 C321.124999,82.9166718 321.30729,82.4739642 321.671872,82.1093819 C322.036454,81.7447996 322.479162,81.5625082 322.999994,81.5625082 C323.520826,81.5625082 323.963534,81.7447996 324.328116,82.1093819 C324.692698,82.4739642 324.87499,82.9166718 324.87499,83.4375037 C324.87499,83.9583356 324.692698,84.4010433 324.328116,84.7656256 C323.963534,85.1302078 323.520826,85.3124993 322.999994,85.3124993 C322.479162,85.3124993 322.036454,85.1302078 321.671872,84.7656256 C321.30729,84.4010433 321.124999,83.9583356 321.124999,83.4375037 Z" id="" transform="translate(322.999994, 77.500018) scale(-1, 1) translate(-322.999994, -77.500018) "></path>
            </g>
        </g>
    </g>
</svg>