<?xml version="1.0" encoding="UTF-8"?>
<svg width="42px" height="42px" viewBox="0 0 42 42" version="1.1" xmlns="http://www.w3.org/2000/svg" xmlns:xlink="http://www.w3.org/1999/xlink">
    <!-- Generator: Sketch 52.6 (67491) - http://www.bohemiancoding.com/sketch -->
    <title>Group 3</title>
    <desc>Created with Sketch.</desc>
    <g id="Mobile" stroke="none" stroke-width="1" fill="none" fill-rule="evenodd">
        <g id="d-Mobile-menu" transform="translate(-54.000000, -593.000000)" fill="#000000">
            <g id="Group-3" transform="translate(55.000000, 594.000000)">
                <path d="M18.0078125,29.5 L18.0078125,20.5546875 L15,20.5546875 L15,17 L18.0078125,17 L18.0078125,14.1875 C18.0078125,12.7031176 18.424475,11.5507854 19.2578125,10.7304688 C20.09115,9.91015215 21.1979098,9.5 22.578125,9.5 C23.6979223,9.5 24.6093715,9.55208281 25.3125,9.65625 L25.3125,12.8203125 L23.4375,12.8203125 C22.7343715,12.8203125 22.2526055,12.9765609 21.9921875,13.2890625 C21.7838531,13.5494805 21.6796875,13.966143 21.6796875,14.5390625 L21.6796875,17 L25,17 L24.53125,20.5546875 L21.6796875,20.5546875 L21.6796875,29.5 L18.0078125,29.5 Z" id=""></path>
                <path d="M20,41 C8.40202025,41 -1,31.5979797 -1,20 C-1,8.40202025 8.40202025,-1 20,-1 C31.5979797,-1 41,8.40202025 41,20 C41,31.5979797 31.5979797,41 20,41 Z M20,39 C30.4934102,39 39,30.4934102 39,20 C39,9.50658975 30.4934102,1 20,1 C9.50658975,1 1,9.50658975 1,20 C1,30.4934102 9.50658975,39 20,39 Z" id="Oval" fill-rule="nonzero"></path>
            </g>
        </g>
    </g>
</svg>