<?xml version="1.0" encoding="UTF-8"?>
<svg width="8px" height="16px" viewBox="0 0 8 16" version="1.1" xmlns="http://www.w3.org/2000/svg" xmlns:xlink="http://www.w3.org/1999/xlink">
    <!-- Generator: Sketch 52.6 (67491) - http://www.bohemiancoding.com/sketch -->
    <title></title>
    <desc>Created with Sketch.</desc>
    <g id="Desktop" stroke="none" stroke-width="1" fill="none" fill-rule="evenodd">
        <g id="style-guide-copy" transform="translate(-92.000000, -358.000000)" fill="#FFFFFF">
            <path d="M94.3886719,373.875 L94.3886719,367.166016 L92.1328125,367.166016 L92.1328125,364.5 L94.3886719,364.5 L94.3886719,362.390625 C94.3886719,361.277338 94.7011687,360.413089 95.3261719,359.797852 C95.951175,359.182614 96.7812448,358.875 97.8164062,358.875 C98.6562542,358.875 99.3398411,358.914062 99.8671875,358.992188 L99.8671875,361.365234 L98.4609375,361.365234 C97.9335911,361.365234 97.5722666,361.482421 97.3769531,361.716797 C97.2207023,361.91211 97.1425781,362.224607 97.1425781,362.654297 L97.1425781,364.5 L99.6328125,364.5 L99.28125,367.166016 L97.1425781,367.166016 L97.1425781,373.875 L94.3886719,373.875 Z" id=""></path>
        </g>
    </g>
</svg>