<?xml version="1.0" encoding="UTF-8"?>
<svg width="17px" height="14px" viewBox="0 0 17 14" version="1.1" xmlns="http://www.w3.org/2000/svg" xmlns:xlink="http://www.w3.org/1999/xlink">
    <!-- Generator: Sketch 52.6 (67491) - http://www.bohemiancoding.com/sketch -->
    <title></title>
    <desc>Created with Sketch.</desc>
    <g id="Symbols" stroke="none" stroke-width="1" fill="none" fill-rule="evenodd">
        <g id="menu" transform="translate(-1293.000000, -8.000000)" fill="#000000">
            <path d="M1307.81247,9.00002861 C1308.56246,9.64586056 1309.07288,10.4166917 1309.34371,11.3125231 C1309.57288,12.1250212 1309.57288,12.9531442 1309.34371,13.7968922 C1309.11455,14.6406402 1308.71871,15.35418 1308.15622,15.9375121 L1302.68748,21.4999988 C1302.35415,21.8333315 1301.95831,21.9999976 1301.49998,21.9999976 C1301.04165,21.9999976 1300.64582,21.8333315 1300.31248,21.4999988 L1294.84375,15.9375121 C1294.28125,15.35418 1293.88542,14.6406402 1293.65625,13.7968922 C1293.42708,12.9531442 1293.4375,12.1250212 1293.6875,11.3125231 C1293.9375,10.4166917 1294.4375,9.64586056 1295.1875,9.00002861 C1295.77083,8.5000298 1296.44791,8.18753055 1297.21874,8.06253085 C1297.98957,7.93753114 1298.7552,8.00003099 1299.51561,8.2500304 C1300.27603,8.5000298 1300.93748,8.90627883 1301.49998,9.46877749 C1302.06248,8.90627883 1302.72394,8.5000298 1303.48435,8.2500304 C1304.24477,8.00003099 1305.01039,7.93753114 1305.78122,8.06253085 C1306.55205,8.18753055 1307.22913,8.5000298 1307.81247,9.00002861 Z M1307.09372,14.8750146 C1307.46872,14.4791821 1307.73434,13.9948082 1307.89059,13.4218931 C1308.04684,12.8489779 1308.04163,12.2812708 1307.87497,11.7187721 C1307.7083,11.1146071 1307.36455,10.5937748 1306.84372,10.1562759 C1306.23955,9.65627705 1305.52601,9.43752757 1304.7031,9.50002742 C1303.88018,9.56252727 1303.17706,9.89585997 1302.59373,10.500025 L1301.49998,11.5937724 L1300.40623,10.500025 C1299.8229,9.89585997 1299.11978,9.56252727 1298.29686,9.50002742 C1297.47395,9.43752757 1296.76041,9.65627705 1296.15624,10.1562759 C1295.63541,10.5937748 1295.29166,11.1146071 1295.125,11.7187721 C1294.95833,12.2812708 1294.95312,12.8489779 1295.10937,13.4218931 C1295.26562,13.9948082 1295.53125,14.4791821 1295.90624,14.8750146 L1301.40623,20.4375013 C1301.46873,20.5208346 1301.53123,20.5208346 1301.59373,20.4375013 L1307.09372,14.8750146 Z" id="" transform="translate(1301.503717, 15.000014) scale(-1, 1) translate(-1301.503717, -15.000014) "></path>
        </g>
    </g>
</svg>