<?xml version="1.0" encoding="UTF-8"?>
<svg width="31px" height="31px" viewBox="0 0 31 31" version="1.1" xmlns="http://www.w3.org/2000/svg" xmlns:xlink="http://www.w3.org/1999/xlink">
    <!-- Generator: Sketch 52.6 (67491) - http://www.bohemiancoding.com/sketch -->
    <title>Group</title>
    <desc>Created with Sketch.</desc>
    <g id="Symbols" stroke="none" stroke-width="1" fill="none" fill-rule="evenodd">
        <g id="ico-add-to-wishlist">
            <g id="Group-Copy">
                <g id="Group">
                    <circle id="Oval-Copy-2" fill="#ffffff" cx="15.5" cy="15.5" r="15.5"></circle>
                    <path d="M5.45625,4.5 L8.94375,7.9875 C8.98124986,8.02499986 9,8.07656264 9,8.1421875 C9,8.20781236 8.98124986,8.25937514 8.94375,8.296875 L8.296875,8.94375 C8.25937514,8.98124986 8.20781236,9 8.1421875,9 C8.07656264,9 8.02499986,8.98124986 7.9875,8.94375 L4.5,5.45625 L1.0125,8.94375 C0.975000143,8.98124986 0.923437357,9 0.8578125,9 C0.792187643,9 0.740624857,8.98124986 0.703125,8.94375 L0.05625,8.296875 C0.0187501431,8.25937514 0,8.20781236 0,8.1421875 C0,8.07656264 0.0187501431,8.02499986 0.05625,7.9875 L3.54375,4.5 L0.05625,1.0125 C0.0187501431,0.975000143 0,0.923437357 0,0.8578125 C0,0.792187643 0.0187501431,0.740624857 0.05625,0.703125 L0.703125,0.05625 C0.740624857,0.0187501431 0.792187643,0 0.8578125,0 C0.923437357,0 0.975000143,0.0187501431 1.0125,0.05625 L4.5,3.54375 L7.9875,0.05625 C8.02499986,0.0187501431 8.07656264,0 8.1421875,0 C8.20781236,0 8.25937514,0.0187501431 8.296875,0.05625 L8.94375,0.703125 C8.98124986,0.740624857 9,0.792187643 9,0.8578125 C9,0.923437357 8.98124986,0.975000143 8.94375,1.0125 L5.45625,4.5 Z" id="ï€" fill="#000000" transform="translate(4.500000, 4.500000) scale(-1, 1) translate(-4.500000, -4.500000) "></path>
                </g>
            </g>
        </g>
    </g>
</svg>