<?xml version="1.0" encoding="UTF-8"?>
<svg width="31px" height="31px" viewBox="0 0 31 31" version="1.1" xmlns="http://www.w3.org/2000/svg" xmlns:xlink="http://www.w3.org/1999/xlink">
    <!-- Generator: Sketch 52.6 (67491) - http://www.bohemiancoding.com/sketch -->
    <title>Group Copy 2</title>
    <desc>Created with Sketch.</desc>
    <g id="Desktop" stroke="none" stroke-width="1" fill="none" fill-rule="evenodd">
        <g id="style-guide" transform="translate(-121.000000, -1682.000000)">
            <g id="Group-Copy-2" transform="translate(121.000000, 1682.000000)">
                <g id="Group-Copy">
                    <g id="Group">
                        <circle id="Oval-Copy-2" fill="#FFFFFF" cx="15.5" cy="15.5" r="15.5"></circle>
                        <path d="M22.7421488,10.464876 C23.4687097,11.0742494 23.9726146,11.824248 24.2538639,12.7148707 C24.5351133,13.6054934 24.576129,14.5019756 24.3769105,15.4043174 C24.177692,16.3066591 23.7499591,17.0859538 23.0937104,17.7422024 L16.3085704,24.7734357 C16.0741957,25.0078103 15.8046655,25.1249973 15.4999785,25.1249973 C15.1952916,25.1249973 14.9257613,25.0078103 14.6913867,24.7734357 L7.90624665,17.7773586 C7.24999803,17.0976729 6.82226504,16.3066591 6.62304658,15.4043174 C6.42382813,14.5019756 6.46484383,13.6054934 6.74609316,12.7148707 C7.02734249,11.824248 7.53124736,11.0742494 8.25780831,10.464876 C8.8906193,9.92581498 9.60546117,9.58597187 10.4023344,9.4453472 C11.1992077,9.30472254 11.9843619,9.36331633 12.7577976,9.62112803 C13.5312332,9.87893974 14.2109189,10.3125328 14.7968552,10.9219062 L15.4999785,11.6250295 L16.2031019,10.9219062 C16.7890381,10.3125328 17.4687238,9.87893974 18.2421595,9.62112803 C19.0155952,9.36331633 19.8007494,9.30472254 20.5976226,9.4453472 C21.3944959,9.58597187 22.1093378,9.92581498 22.7421488,10.464876 Z" id="-copy-2" fill="#000000" transform="translate(15.499979, 17.247948) scale(-1, 1) translate(-15.499979, -17.247948) "></path>
                    </g>
                </g>
            </g>
        </g>
    </g>
</svg>