<?xml version="1.0" encoding="UTF-8"?>
<svg width="31px" height="31px" viewBox="0 0 31 31" version="1.1" xmlns="http://www.w3.org/2000/svg" xmlns:xlink="http://www.w3.org/1999/xlink">
    <!-- Generator: Sketch 52.6 (67491) - http://www.bohemiancoding.com/sketch -->
    <title>ico-remove</title>
    <desc>Created with Sketch.</desc>
    <g id="Desktop" stroke="none" stroke-width="1" fill="none" fill-rule="evenodd">
        <g id="d-Desktop-HD---seznam-prani" transform="translate(-162.000000, -972.000000)">
            <g id="ico-remove" transform="translate(162.000000, 972.000000)">
                <g id="Group-Copy-14" transform="translate(0.000000, 0.000000)">
                    <circle id="Oval-Copy-2" fill="#FFFFFF" cx="15.5" cy="15.5" r="15.5"></circle>
                    <path d="M16.8945123,16.1250188 L21.9804377,21.2109441 C22.0351248,21.2656313 22.0624687,21.3408269 22.0624687,21.4365295 C22.0624687,21.5322322 22.0351248,21.6074278 21.9804377,21.6621149 L21.0370805,22.6054721 C20.9823934,22.6601592 20.9071978,22.6875031 20.8114951,22.6875031 C20.7157924,22.6875031 20.6405969,22.6601592 20.5859097,22.6054721 L15.4999844,17.5195467 L10.414059,22.6054721 C10.3593718,22.6601592 10.2841763,22.6875031 10.1884736,22.6875031 C10.0927709,22.6875031 10.0175753,22.6601592 9.96288818,22.6054721 L9.01953105,21.6621149 C8.96484389,21.6074278 8.9375,21.5322322 8.9375,21.4365295 C8.9375,21.3408269 8.96484389,21.2656313 9.01953105,21.2109441 L14.1054564,16.1250188 L9.01953105,11.0390934 C8.96484389,10.9844062 8.9375,10.9092107 8.9375,10.813508 C8.9375,10.7178053 8.96484389,10.6426098 9.01953105,10.5879226 L9.96288818,9.64456548 C10.0175753,9.58987832 10.0927709,9.56253442 10.1884736,9.56253442 C10.2841763,9.56253442 10.3593718,9.58987832 10.414059,9.64456548 L15.4999844,14.7304909 L20.5859097,9.64456548 C20.6405969,9.58987832 20.7157924,9.56253442 20.8114951,9.56253442 C20.9071978,9.56253442 20.9823934,9.58987832 21.0370805,9.64456548 L21.9804377,10.5879226 C22.0351248,10.6426098 22.0624687,10.7178053 22.0624687,10.813508 C22.0624687,10.9092107 22.0351248,10.9844062 21.9804377,11.0390934 L16.8945123,16.1250188 Z" id="ï€" fill="#000000" transform="translate(15.499984, 16.125019) scale(-1, 1) translate(-15.499984, -16.125019) "></path>
                </g>
            </g>
        </g>
    </g>
</svg>