<?xml version="1.0" encoding="UTF-8"?>
<svg width="345px" height="81px" viewBox="0 0 345 81" version="1.1" xmlns="http://www.w3.org/2000/svg" xmlns:xlink="http://www.w3.org/1999/xlink">
    <!-- Generator: Sketch 52.6 (67491) - http://www.bohemiancoding.com/sketch -->
    <title>Group 2</title>
    <desc>Created with Sketch.</desc>
    <g id="Mobile" stroke="none" stroke-width="1" fill="none" fill-rule="evenodd">
        <g id="d-Mobile-About" transform="translate(-15.000000, -2234.000000)" fill="#000000">
            <g id="Group-2" transform="translate(15.000000, 2234.000000)">
                <g id="1606779" transform="translate(22.000000, 22.000000)" fill-rule="nonzero">
                    <path d="M2.48226925,23.4806134 C0.0539245234,25.9094329 -0.668548547,29.5596065 0.652023297,32.7274305 C1.97288511,35.895544 5.0761566,37.9568866 8.51428223,37.9496527 C11.9521179,37.942419 15.0466919,35.8680556 16.3542175,32.6947338 L29.802887,19.2719907 L29.8176727,19.2879051 C30.064972,19.5347222 30.4659271,19.5347222 30.7132263,19.2879051 L36.2735443,13.7390046 C38.5635986,11.4473379 38.5635986,7.73813659 36.2735443,5.44646993 L32.5669556,1.74739585 C30.2711029,-0.539062519 26.5537872,-0.539062519 24.2579346,1.74739585 L18.6984863,7.2962963 C18.4511872,7.54311341 18.4511872,7.94328704 18.6984863,8.19010415 L18.7144318,8.20543985 L5.25590513,21.6374421 C4.2180023,22.0619213 3.27519224,22.6886574 2.48226925,23.4806134 Z M13.6020355,34.578125 C11.1632538,37.0118634 7.34185791,37.3871527 4.47457882,35.4748264 C1.6072998,33.5625 0.492858887,29.8949653 1.81285093,26.7152778 C3.13255308,23.5353009 6.51907352,21.7288773 9.90124512,22.400463 C13.2837067,23.0717593 15.7195892,26.0344329 15.7198792,29.4762732 C15.7187194,31.389757 14.9571076,33.224537 13.6020355,34.578125 Z M22.7010804,9.71354163 C23.4609528,9.58130785 24.1582031,9.20949074 24.6902008,8.65219911 C27.0628815,6.2855903 27.9497376,5.4019097 30.2815399,7.72800926 C31.7256165,9.16927081 31.7282257,9.97366896 31.5693512,10.5127315 C31.3249512,11.3411459 30.4552002,12.2092014 29.3543854,13.3078704 C28.7965851,13.8376736 28.4252015,14.5326967 28.2953186,15.2899305 L16.6047058,26.9571759 C15.7740936,24.291956 13.6803131,22.2065972 11.0078583,21.3833912 L22.7010804,9.71354163 Z M16.9453583,30.3171296 C16.9726105,30.0393519 16.9862366,29.7592593 16.9865265,29.4762732 C16.9842072,29.1281829 16.9604339,28.7803819 16.9157868,28.4348959 L28.4191131,16.953993 C28.5582733,17.4172453 28.7594757,17.859375 29.0172119,18.2688079 L16.9453583,30.3171296 Z M25.1534881,2.64149304 C26.9544525,0.84837963 29.8698578,0.84837963 31.671112,2.64149304 L35.3777008,6.34056711 C37.1737366,8.13831022 37.1737366,11.047743 35.3777008,12.8454861 L30.3038636,17.9085648 C30.2989349,17.9030671 30.2971955,17.8961227 30.2919769,17.890625 L30.2890778,17.8885996 C29.7133026,17.1032986 28.9044342,15.5445601 30.249939,14.2019676 C31.4786071,12.9756944 32.4492493,12.0075231 32.7843933,10.8697917 C33.1621551,9.5882523 32.6513214,8.30584489 31.1768036,6.83449074 C29.9301605,5.5894097 28.891098,5.09866896 27.9523468,5.09866896 C26.4598541,5.09866896 25.2192993,6.33680556 23.7949372,7.75868059 C22.4476929,9.10271993 20.8656159,8.27546296 20.0825501,7.7025463 L25.1534881,2.64149304 Z M19.7288513,8.98061341 C20.0010834,9.15277778 20.2875213,9.301794 20.5849762,9.42563659 C20.7345734,9.48553244 20.8870697,9.5376157 21.0418854,9.58188659 L9.5292816,21.0720486 C8.902771,20.9933449 8.26959229,20.984375 7.64105225,21.0445601 L19.7288513,8.98061341 Z" id="Shape"></path>
                    <path d="M12.6441498,25.3301504 C10.6616974,23.348669 7.55320738,23.0407986 5.21966553,24.5951967 C2.88612368,26.1493056 1.97781376,29.1325231 3.05021666,31.7199074 C4.12290953,34.3070023 6.87741085,35.7774884 9.62930302,35.2317708 C12.3809051,34.6860533 14.3627777,32.2760416 14.3627777,29.4762732 C14.3677063,27.9204282 13.7487335,26.4276621 12.6441498,25.3301504 Z M11.7485962,32.728588 C10.1937713,34.2841436 7.75440981,34.526331 5.92271421,33.3070023 C4.09130859,32.087963 3.37811279,29.7471065 4.21945187,27.7164352 C5.06050112,25.6860533 7.22212221,24.5318287 9.38142397,24.9597801 C11.5407257,25.3877315 13.0964203,27.2789352 13.0964203,29.4762732 C13.1004791,30.6964699 12.6151581,31.8674769 11.7485962,32.728588 Z" id="Shape"></path>
                </g>
                <path d="M40.5,0.920000017 C18.6405696,0.920000017 0.920000017,18.6405696 0.920000017,40.5 C0.920000017,62.3594304 18.6405696,80.08 40.5,80.08 C62.3594304,80.08 80.08,62.3594304 80.08,40.5 C80.08,18.6405696 62.3594304,0.920000017 40.5,0.920000017 Z M40.5,0 C62.8675324,0 81,18.1324676 81,40.5 C81,62.8675324 62.8675324,81 40.5,81 C18.1324676,81 3.55271368e-15,62.8675324 0,40.5 C-3.55271368e-15,18.1324676 18.1324676,0 40.5,0 Z" id="Rectangle-Copy-10" fill-rule="nonzero"></path>
                <path d="M172.5,0.920000017 C150.64057,0.920000017 132.92,18.6405696 132.92,40.5 C132.92,62.3594304 150.64057,80.08 172.5,80.08 C194.35943,80.08 212.08,62.3594304 212.08,40.5 C212.08,18.6405696 194.35943,0.920000017 172.5,0.920000017 Z M172.5,0 C194.867532,0 213,18.1324676 213,40.5 C213,62.8675324 194.867532,81 172.5,81 C150.132468,81 132,62.8675324 132,40.5 C132,18.1324676 150.132468,0 172.5,0 Z" id="Rectangle-Copy-11" fill-rule="nonzero"></path>
                <path d="M304.5,0.920000017 C282.64057,0.920000017 264.92,18.6405696 264.92,40.5 C264.92,62.3594304 282.64057,80.08 304.5,80.08 C326.35943,80.08 344.08,62.3594304 344.08,40.5 C344.08,18.6405696 326.35943,0.920000017 304.5,0.920000017 Z M304.5,0 C326.867532,0 345,18.1324676 345,40.5 C345,62.8675324 326.867532,81 304.5,81 C282.132468,81 264,62.8675324 264,40.5 C264,18.1324676 282.132468,0 304.5,0 Z" id="Rectangle-Copy-12" fill-rule="nonzero"></path>
                <polygon id="Line-2" fill-rule="nonzero" points="83.5347437 40.7018261 83.545317 39.7818869 128.465256 40.2981739 128.454683 41.2181131"></polygon>
                <polygon id="Line-2-Copy" fill-rule="nonzero" points="216.54 40.96 216.54 40.04 261.46 40.04 261.46 40.96"></polygon>
                <g id="854996" transform="translate(151.000000, 19.000000)">
                    <path d="M10.3169063,12.6247734 C4.63870313,12.6247734 0.0191132813,17.2443633 0.0191132813,22.9225664 C0.0191132813,26.4480234 1.69616016,30.2385234 5.00374219,34.1888203 C5.49519141,34.7757539 5.98491797,35.3196211 6.454875,35.8158281 C4.31927344,36.3987422 3.03704297,37.4460352 3.03704297,38.6683828 C3.03704297,40.8322852 6.78767578,41.999918 10.3165781,41.999918 C13.8455625,41.999918 17.5961133,40.8322031 17.5961133,38.6683828 C17.5961133,37.4470195 16.314293,36.3994805 14.1800859,35.8163203 C15.0327188,34.9161914 15.9501563,33.857168 16.8206719,32.675918 C17.0224688,32.4020156 16.9640625,32.0165508 16.6902422,31.8147539 C16.4165859,31.6132031 16.030875,31.6714453 15.8290781,31.9452656 C14.7780938,33.371543 13.6404844,34.6249805 12.6478242,35.6205938 C12.5340469,35.6786719 12.4388906,35.770875 12.3792539,35.8871133 C11.4900352,36.7609922 10.7417461,37.4092852 10.3171523,37.7634961 C9.89723438,37.4127305 9.16034766,36.7732148 8.28253125,35.9107383 C8.21953125,35.7726797 8.10887109,35.6643984 7.97384766,35.6040234 C5.18421094,32.7981445 1.2508125,27.9504258 1.2508125,22.9227305 C1.2508125,17.9237461 5.31783984,13.8567188 10.3168242,13.8567188 C15.3158086,13.8567188 19.3828359,17.9237461 19.3828359,22.9227305 C19.3828359,25.1058281 18.6389766,27.4634063 17.1719297,29.9300039 C16.9981055,30.2224453 17.094082,30.6003633 17.3864414,30.7741875 C17.6788008,30.9480117 18.0568008,30.8520352 18.230625,30.5596758 C19.8125156,27.8998945 20.6146172,25.3305117 20.6146172,22.9227305 C20.6146992,17.2443633 15.9951094,12.6247734 10.3169063,12.6247734 Z M9.93997266,39.0444961 C10.0508789,39.1303828 10.1839336,39.1732852 10.3169062,39.1732852 C10.4498789,39.1732852 10.5828516,39.1303828 10.6938398,39.0444961 C10.7693906,38.9860078 11.7985547,38.1834141 13.1703633,36.8421211 C15.2475586,37.2657305 16.3644961,38.0813672 16.3644961,38.6684648 C16.3644961,39.1069219 15.7635352,39.6242109 14.7961406,40.0183711 C13.6096406,40.5019453 12.0188086,40.7683008 10.3166602,40.7683008 C6.62476172,40.7683008 4.26882422,39.524543 4.26882422,38.6684648 C4.26882422,38.0805469 5.38608984,37.2653203 7.46443359,36.8417109 C8.84387109,38.1909609 9.87451172,38.9938008 9.93997266,39.0444961 Z" id="Shape" fill-rule="nonzero"></path>
                    <path d="M10.3169063,12.6247734 C4.63870313,12.6247734 0.0191132813,17.2443633 0.0191132813,22.9225664 C0.0191132813,26.4480234 1.69616016,30.2385234 5.00374219,34.1888203 C5.49519141,34.7757539 5.98491797,35.3196211 6.454875,35.8158281 C4.31927344,36.3987422 3.03704297,37.4460352 3.03704297,38.6683828 C3.03704297,40.8322852 6.78767578,41.999918 10.3165781,41.999918 C13.8455625,41.999918 17.5961133,40.8322031 17.5961133,38.6683828 C17.5961133,37.4470195 16.314293,36.3994805 14.1800859,35.8163203 C15.0327188,34.9161914 15.9501563,33.857168 16.8206719,32.675918 C17.0224688,32.4020156 16.9640625,32.0165508 16.6902422,31.8147539 C16.4165859,31.6132031 16.030875,31.6714453 15.8290781,31.9452656 C14.7780938,33.371543 13.6404844,34.6249805 12.6478242,35.6205938 C12.5340469,35.6786719 12.4388906,35.770875 12.3792539,35.8871133 C11.4900352,36.7609922 10.7417461,37.4092852 10.3171523,37.7634961 C9.89723438,37.4127305 9.16034766,36.7732148 8.28253125,35.9107383 C8.21953125,35.7726797 8.10887109,35.6643984 7.97384766,35.6040234 C5.18421094,32.7981445 1.2508125,27.9504258 1.2508125,22.9227305 C1.2508125,17.9237461 5.31783984,13.8567188 10.3168242,13.8567188 C15.3158086,13.8567188 19.3828359,17.9237461 19.3828359,22.9227305 C19.3828359,25.1058281 18.6389766,27.4634063 17.1719297,29.9300039 C16.9981055,30.2224453 17.094082,30.6003633 17.3864414,30.7741875 C17.6788008,30.9480117 18.0568008,30.8520352 18.230625,30.5596758 C19.8125156,27.8998945 20.6146172,25.3305117 20.6146172,22.9227305 C20.6146992,17.2443633 15.9951094,12.6247734 10.3169063,12.6247734 Z M9.93997266,39.0444961 C10.0508789,39.1303828 10.1839336,39.1732852 10.3169063,39.1732852 C10.4498789,39.1732852 10.5828516,39.1303828 10.6938398,39.0444961 C10.7693906,38.9860078 11.7985547,38.1834141 13.1703633,36.8421211 C15.2475586,37.2657305 16.3644961,38.0813672 16.3644961,38.6684648 C16.3644961,39.1069219 15.7635352,39.6242109 14.7961406,40.0183711 C13.6096406,40.5019453 12.0188086,40.7683008 10.3166602,40.7683008 C6.62476172,40.7683008 4.26882422,39.524543 4.26882422,38.6684648 C4.26882422,38.0805469 5.38608984,37.2653203 7.46443359,36.8417109 C8.84387109,38.1909609 9.87451172,38.9938008 9.93997266,39.0444961 Z" id="Shape" fill-rule="nonzero" transform="translate(10.316865, 27.312346) scale(-1, 1) translate(-10.316865, -27.312346) "></path>
                    <path d="M10.3169062,18.4450547 C9.34278516,18.4450547 8.41648828,18.7525898 7.63817578,19.3344375 C7.36583203,19.5381211 8.103375,20.5245469 8.37571875,20.3210273 C8.93935547,19.8996328 9.61061719,19.6768359 10.3168242,19.6768359 C12.1065,19.6768359 13.5624727,21.1328086 13.5624727,22.9225664 C13.5624727,24.7122422 12.1065,26.1682148 10.3168242,26.1682148 C8.52714844,26.1682148 7.07117578,24.7121602 7.07117578,22.9225664 C7.07117578,22.6171641 7.11342187,22.315207 7.19668359,22.0253086 C7.29052734,21.6984141 6.10673437,21.3585586 6.01280859,21.6854531 C5.89788281,22.0860117 5.83955859,22.5021563 5.83955859,22.9225664 C5.83955859,25.3913789 7.84809375,27.3999961 10.3169883,27.3999961 C12.7858008,27.3999961 14.794418,25.3914609 14.794418,22.9225664 C14.7943359,20.4536719 12.7857187,18.4450547 10.3169062,18.4450547 Z" id="Path"></path>
                    <path d="M10.3169063,18.4450547 C9.34278516,18.4450547 8.41648828,18.7525898 7.63817578,19.3344375 C7.36583203,19.5381211 8.103375,20.5245469 8.37571875,20.3210273 C8.93935547,19.8996328 9.61061719,19.6768359 10.3168242,19.6768359 C12.1065,19.6768359 13.5624727,21.1328086 13.5624727,22.9225664 C13.5624727,24.7122422 12.1065,26.1682148 10.3168242,26.1682148 C8.52714844,26.1682148 7.07117578,24.7121602 7.07117578,22.9225664 C7.07117578,22.6171641 7.11342188,22.315207 7.19668359,22.0253086 C7.29052734,21.6984141 6.10673438,21.3585586 6.01280859,21.6854531 C5.89788281,22.0860117 5.83955859,22.5021563 5.83955859,22.9225664 C5.83955859,25.3913789 7.84809375,27.3999961 10.3169883,27.3999961 C12.7858008,27.3999961 14.794418,25.3914609 14.794418,22.9225664 C14.7943359,20.4536719 12.7857188,18.4450547 10.3169063,18.4450547 Z" id="Path" transform="translate(10.316988, 22.922525) rotate(-315.000000) translate(-10.316988, -22.922525) "></path>
                    <path d="M37.1567109,17.8927383 C37.4700703,17.5564922 37.7928633,17.1942422 38.1165586,16.8075469 C40.6806914,13.7450742 41.9808047,10.8010547 41.9808047,8.05702734 C41.9808047,3.61446094 38.3664258,0 33.9237773,0 C30.678375,0 27.7643789,1.93150781 26.5001953,4.92072656 C26.3676328,5.23400391 26.5142227,5.59543359 26.827418,5.72783203 C27.1406133,5.86023047 27.502125,5.71380469 27.6345234,5.40060938 C28.7056875,2.86814062 31.1743359,1.23169922 33.9237773,1.23169922 C37.6872891,1.23169922 40.7491055,4.29359766 40.7491055,8.05710937 C40.7491055,13.1465742 35.4057539,18.0225937 33.9235312,19.2769336 C33.5968828,19.0008984 33.0827109,18.5490703 32.4798633,17.9581172 C32.4197344,17.8389258 32.3226094,17.7444258 32.2059609,17.6859375 C30.0794648,15.5448398 27.0984492,11.8643437 27.0984492,8.05710937 C27.0984492,7.71692578 26.8228242,7.44121875 26.4825586,7.44121875 C26.142457,7.44121875 25.866668,7.71692578 25.866668,8.05710937 C25.866668,10.8010547 27.1667812,13.7450742 29.7309961,16.8076289 C30.0546094,17.1940781 30.3771562,17.5561641 30.6903516,17.8923281 C29.1027187,18.3693398 28.1861836,19.1812852 28.1861836,20.1590156 C28.1861836,20.9835938 28.8550664,21.7103086 30.0697852,22.2052031 C31.1091211,22.6287305 32.4778125,22.8620273 33.9236953,22.8620273 C35.3694961,22.8620273 36.7381875,22.6287305 37.7776055,22.2052031 C38.9920781,21.7102266 39.6609609,20.9835117 39.6609609,20.1589336 C39.6608789,19.1830078 38.7436875,18.3703242 37.1567109,17.8927383 Z M33.9236133,21.6301641 C31.0083047,21.6301641 29.4179648,20.6582578 29.4179648,20.1588516 C29.4179648,19.8335156 30.1413984,19.2381328 31.6862109,18.9096797 C32.7256289,19.921043 33.4971328,20.5220039 33.5469258,20.5606406 C33.6579141,20.6465273 33.7908867,20.6894297 33.9238594,20.6894297 C34.056832,20.6894297 34.1897227,20.6465273 34.300793,20.5606406 C34.3505859,20.522168 35.1219258,19.921125 36.1613438,18.9098438 C36.8495859,19.0565977 37.4457891,19.2716016 37.863,19.5255703 C38.2176211,19.7416406 38.4293438,19.9783828 38.4293438,20.1588516 C38.4291797,20.6582578 36.8388398,21.6301641 33.9236133,21.6301641 Z" id="Shape" fill-rule="nonzero"></path>
                    <path d="M37.1567109,17.8927383 C37.4700703,17.5564922 37.7928633,17.1942422 38.1165586,16.8075469 C40.6806914,13.7450742 41.9808047,10.8010547 41.9808047,8.05702734 C41.9808047,3.61446094 38.3664258,0 33.9237773,0 C30.678375,0 27.7643789,1.93150781 26.5001953,4.92072656 C26.3676328,5.23400391 26.5142227,5.59543359 26.827418,5.72783203 C27.1406133,5.86023047 27.502125,5.71380469 27.6345234,5.40060938 C28.7056875,2.86814062 31.1743359,1.23169922 33.9237773,1.23169922 C37.6872891,1.23169922 40.7491055,4.29359766 40.7491055,8.05710937 C40.7491055,13.1465742 35.4057539,18.0225937 33.9235312,19.2769336 C33.5968828,19.0008984 33.0827109,18.5490703 32.4798633,17.9581172 C32.4197344,17.8389258 32.3226094,17.7444258 32.2059609,17.6859375 C30.0794648,15.5448398 27.0984492,11.8643437 27.0984492,8.05710937 C27.0984492,7.71692578 26.8228242,7.44121875 26.4825586,7.44121875 C26.142457,7.44121875 25.866668,7.71692578 25.866668,8.05710937 C25.866668,10.8010547 27.1667812,13.7450742 29.7309961,16.8076289 C30.0546094,17.1940781 30.3771562,17.5561641 30.6903516,17.8923281 C29.1027187,18.3693398 28.1861836,19.1812852 28.1861836,20.1590156 C28.1861836,20.9835938 28.8550664,21.7103086 30.0697852,22.2052031 C31.1091211,22.6287305 32.4778125,22.8620273 33.9236953,22.8620273 C35.3694961,22.8620273 36.7381875,22.6287305 37.7776055,22.2052031 C38.9920781,21.7102266 39.6609609,20.9835117 39.6609609,20.1589336 C39.6608789,19.1830078 38.7436875,18.3703242 37.1567109,17.8927383 Z M33.9236133,21.6301641 C31.0083047,21.6301641 29.4179648,20.6582578 29.4179648,20.1588516 C29.4179648,19.8335156 30.1413984,19.2381328 31.6862109,18.9096797 C32.7256289,19.921043 33.4971328,20.5220039 33.5469258,20.5606406 C33.6579141,20.6465273 33.7908867,20.6894297 33.9238594,20.6894297 C34.056832,20.6894297 34.1897227,20.6465273 34.300793,20.5606406 C34.3505859,20.522168 35.1219258,19.921125 36.1613437,18.9098438 C36.8495859,19.0565977 37.4457891,19.2716016 37.863,19.5255703 C38.2176211,19.7416406 38.4293437,19.9783828 38.4293437,20.1588516 C38.4291797,20.6582578 36.8388398,21.6301641 33.9236133,21.6301641 Z" id="Shape" fill-rule="nonzero" transform="translate(33.923736, 11.431014) scale(-1, 1) translate(-33.923736, -11.431014) "></path>
                    <path d="M33.9237773,4.47332812 C31.9477266,4.47332812 30.3399961,6.08097656 30.3399961,8.05719141 C30.3399961,10.0332422 31.9476445,11.6408906 33.9237773,11.6408906 C35.8999102,11.6408906 37.5075586,10.0333242 37.5075586,8.05719141 C37.5075586,6.08105859 35.8999102,4.47332812 33.9237773,4.47332812 Z M33.9238594,10.4091094 C32.6267813,10.4091094 31.5717773,9.35402344 31.5717773,8.05710937 C31.5717773,6.76019531 32.6268633,5.70502734 33.9238594,5.70502734 C35.2207734,5.70502734 36.2759414,6.76011328 36.2759414,8.05710937 C36.2758594,9.35402344 35.2207734,10.4091094 33.9238594,10.4091094 Z" id="Shape" fill-rule="nonzero"></path>
                    <path d="M25.9347539,19.543043 L25.6535508,19.543043 C25.4488008,19.543043 25.2430664,19.5565781 25.0417617,19.5834023 C24.7046953,19.6282734 24.467707,19.9378594 24.5124961,20.2751719 C24.5537578,20.5848398 24.8182266,20.8099336 25.1222344,20.8099336 C25.1493047,20.8099336 25.1767031,20.8082109 25.2042656,20.8045195 C25.3518398,20.7849141 25.5030234,20.7749883 25.6536328,20.7749883 L25.9347539,20.7749883 L25.9347539,20.7749062 C26.2749375,20.7749062 26.5506445,20.4992812 26.5506445,20.1590156 C26.5506445,19.81875 26.2749375,19.543043 25.9347539,19.543043 Z" id="Path"></path>
                    <path d="M23.8986562,38.0211562 C23.8976719,38.0211562 23.8967695,38.0211562 23.8957852,38.0211562 L23.0823633,38.0248477 C22.7422617,38.0264063 22.4677852,38.3034258 22.4692617,38.6435273 C22.4707383,38.9827266 22.7462812,39.2566289 23.0850703,39.2566289 C23.0860547,39.2566289 23.086957,39.2566289 23.0879414,39.2566289 L23.9013633,39.2529375 C24.2414648,39.2513789 24.5159414,38.9743594 24.5144648,38.6342578 C24.5129883,38.2949766 24.2375273,38.0211562 23.8986562,38.0211562 Z" id="Path"></path>
                    <path d="M26.6655703,27.520582 L25.8521484,27.520582 C25.5119648,27.520582 25.2362578,27.7963711 25.2362578,28.1364727 C25.2362578,28.4766562 25.5118828,28.7523633 25.8521484,28.7523633 L26.6655703,28.7523633 C27.0057539,28.7523633 27.2814609,28.4767383 27.2814609,28.1364727 C27.2814609,27.7963711 27.0058359,27.520582 26.6655703,27.520582 Z" id="Path"></path>
                    <path d="M23.4022031,20.797875 C23.1716133,20.5480078 22.7821289,20.5322578 22.5319336,20.7627656 C22.3023281,20.9744883 22.0934766,21.2104922 21.9112031,21.4642969 C21.7127695,21.7406602 21.7759336,22.1254687 22.0522148,22.3239023 C22.1609062,22.4019961 22.2865781,22.4395664 22.4110195,22.4395664 C22.6025625,22.4395664 22.7913984,22.3503984 22.9117383,22.1828906 C23.0454492,21.9967617 23.1986836,21.8235117 23.3670937,21.6681445 C23.617125,21.4375547 23.632793,21.0479062 23.4022031,20.797875 Z" id="Path"></path>
                    <path d="M27.1525078,38.0062266 C27.1515234,38.0062266 27.1506211,38.0062266 27.1496367,38.0062266 L26.3362969,38.009918 C25.9961953,38.0113945 25.7217187,38.2884961 25.7231953,38.6285977 C25.7246719,38.9677969 26.0002148,39.2416992 26.3390039,39.2416992 C26.3399883,39.2416992 26.3408906,39.2416992 26.341875,39.2416992 L27.1552148,39.2380078 C27.4953164,39.2365313 27.769793,38.9594297 27.7683164,38.6193281 C27.7667578,38.2801289 27.4912969,38.0062266 27.1525078,38.0062266 Z" id="Path"></path>
                    <path d="M20.6448867,38.0358398 C20.6439023,38.0358398 20.643,38.0358398 20.6420156,38.0358398 L19.8285937,38.0395312 C19.4884922,38.0410898 19.2140156,38.3181094 19.2154922,38.6582109 C19.2170508,38.9974102 19.4923477,39.2713125 19.8313008,39.2713125 C19.8322852,39.2713125 19.8331875,39.2713125 19.8341719,39.2713125 L20.6475938,39.2676211 C20.9876953,39.2660625 21.2621719,38.989043 21.2606953,38.6489414 C21.2592188,38.3096602 20.9837578,38.0358398 20.6448867,38.0358398 Z" id="Path"></path>
                    <path d="M23.8570664,27.0028828 C23.6635547,26.8808203 23.4815273,26.73825 23.3162344,26.5793555 C23.071043,26.3435156 22.6810664,26.3513086 22.4453906,26.5962539 C22.2095508,26.8413633 22.2171797,27.2312578 22.4622891,27.4670156 C22.6877109,27.6838242 22.9358555,27.8781563 23.199832,28.0446797 C23.3018789,28.1090742 23.4154922,28.1397539 23.527875,28.1397539 C23.7322969,28.1397539 23.932207,28.0381172 24.0494297,27.8523164 C24.2309648,27.5647148 24.14475,27.1843359 23.8570664,27.0028828 Z" id="Path"></path>
                    <path d="M22.3430977,24.7969805 C22.3017539,24.5846836 22.2807539,24.3663164 22.2807539,24.1477852 L22.280918,24.1135781 C22.2849375,23.7734766 22.0124297,23.4945703 21.6722461,23.4906328 C21.6698672,23.4905508 21.6674063,23.4905508 21.6649453,23.4905508 C21.328125,23.4905508 21.0531563,23.761582 21.0492188,24.0993047 L21.0489727,24.1478672 C21.0489727,24.4453125 21.0776016,24.7430039 21.1340391,25.0326563 C21.1912969,25.3267383 21.4490391,25.53075 21.7378711,25.53075 C21.7768359,25.53075 21.8165391,25.5270586 21.8562422,25.5192656 C22.1901914,25.4542148 22.4080664,25.1308477 22.3430977,24.7969805 Z" id="Path"></path>
                    <path d="M29.9195039,27.520582 L29.106082,27.520582 C28.7658984,27.520582 28.4901914,27.7963711 28.4901914,28.1364727 C28.4901914,28.4766562 28.7658984,28.7523633 29.106082,28.7523633 L29.9195039,28.7523633 C30.2596875,28.7523633 30.5353945,28.4767383 30.5353945,28.1364727 C30.5353945,27.7963711 30.2596875,27.520582 29.9195039,27.520582 Z" id="Path"></path>
                    <path d="M39.8076328,28.7745117 C39.5703164,28.5872344 39.3166758,28.4171016 39.0536016,28.2690352 C38.7575508,28.1020195 38.3817656,28.2069375 38.21475,28.5033164 C38.0478164,28.7996133 38.1526523,29.1753164 38.4490312,29.342168 C38.6565703,29.4592266 38.8568906,29.5934297 39.044168,29.741332 C39.1573711,29.8306641 39.2917383,29.8738945 39.4254492,29.8738945 C39.6073945,29.8738945 39.7876992,29.7935039 39.9092695,29.6396133 C40.1200898,29.3726016 40.0746445,28.98525 39.8076328,28.7745117 Z" id="Path"></path>
                    <path d="M37.5215039,38.4475547 C37.4747461,38.1106523 37.1633555,37.8748125 36.8271094,37.9217344 C36.6253945,37.949625 36.4188398,37.9643086 36.2128594,37.9651289 L36.0976055,37.9657031 C35.7574219,37.9674258 35.4830273,38.2445273 35.484668,38.5845469 C35.4863906,38.9236641 35.7617695,39.1974844 36.1004766,39.1974844 C36.101543,39.1974844 36.1025273,39.1974844 36.1035117,39.1974844 L36.2185195,39.1969102 C36.4786406,39.1957617 36.7401562,39.1773047 36.9956836,39.1419492 C37.33275,39.0953555 37.5680977,38.784375 37.5215039,38.4475547 Z" id="Path"></path>
                    <path d="M40.2396094,36.7156289 C40.004918,36.469207 39.6150234,36.4597734 39.3689297,36.6944648 C39.1960898,36.8591016 39.0090586,37.0115156 38.8129219,37.1475234 C38.5334414,37.3412812 38.4639609,37.7250234 38.6576367,38.004668 C38.7773203,38.1771797 38.9691914,38.2697109 39.1643437,38.2697109 C39.2854219,38.2697109 39.4076484,38.2341094 39.5146992,38.1599531 C39.7629258,37.9877695 39.99975,37.794832 40.2185273,37.5863906 C40.4648672,37.3516992 40.4742187,36.9618047 40.2396094,36.7156289 Z" id="Path"></path>
                    <path d="M41.43825,33.7245234 C41.1044648,33.6616055 40.782082,33.8814492 40.719082,34.2157266 C40.6748672,34.4500898 40.6120312,34.6826484 40.5320508,34.9070859 C40.4178633,35.227418 40.5849609,35.5797422 40.905375,35.6940117 C40.973707,35.718375 41.0435977,35.7299414 41.1122578,35.7299414 C41.3652422,35.7299414 41.6024766,35.5727695 41.6923828,35.3207695 C41.7938555,35.0361211 41.8736719,34.7410547 41.9296992,34.4436914 C41.9924531,34.1094141 41.7724453,33.7873594 41.43825,33.7245234 Z" id="Path"></path>
                    <path d="M41.8041094,31.7447812 C41.7206016,31.4539805 41.6134687,31.1675273 41.4853359,30.8929687 C41.3414531,30.5846953 40.9752656,30.4514766 40.6667461,30.5951953 C40.3585547,30.7390781 40.2252539,31.1055117 40.3690547,31.4137852 C40.4699531,31.6299375 40.5544453,31.8556875 40.6201523,32.0845547 C40.6976719,32.3546836 40.9440937,32.5307227 41.2118437,32.5307227 C41.2681992,32.5307227 41.325293,32.5229297 41.3820586,32.5066875 C41.7089531,32.4127617 41.8978711,32.0716758 41.8041094,31.7447812 Z" id="Path"></path>
                    <path d="M33.1733555,27.520582 L32.3599336,27.520582 C32.01975,27.520582 31.744043,27.7963711 31.744043,28.1364727 C31.744043,28.4766562 32.019668,28.7523633 32.3599336,28.7523633 L33.1733555,28.7523633 C33.5135391,28.7523633 33.7892461,28.4767383 33.7892461,28.1364727 C33.7892461,27.7963711 33.5135391,27.520582 33.1733555,27.520582 Z" id="Path"></path>
                    <path d="M30.4063594,37.9914609 C30.405375,37.9914609 30.4044727,37.9914609 30.4034883,37.9914609 L29.5900664,37.9951523 C29.2499648,37.9966289 28.9754883,38.2737305 28.9769648,38.613832 C28.9785234,38.9530312 29.2539844,39.2269336 29.5927734,39.2269336 C29.5937578,39.2269336 29.5946602,39.2269336 29.5956445,39.2269336 L30.4090664,39.2232422 C30.749168,39.2216836 31.0236445,38.9446641 31.022168,38.6045625 C31.0206914,38.2653633 30.7451484,37.9914609 30.4063594,37.9914609 Z" id="Path"></path>
                    <path d="M36.4542773,27.5264883 C36.3671602,27.5225508 36.2788945,27.5206641 36.1921055,27.5206641 L35.6137031,27.5206641 C35.2735195,27.5206641 34.9978125,27.7964531 34.9978125,28.1365547 C34.9978125,28.4767383 35.2734375,28.7524453 35.6137031,28.7524453 L36.1921055,28.7524453 L36.1921055,28.7523633 C36.26175,28.7523633 36.3309844,28.7539219 36.3998086,28.756957 C36.4090781,28.7574492 36.4183477,28.7576133 36.4275352,28.7576133 C36.7550859,28.7576133 37.0277578,28.499543 37.0422773,28.1690391 C37.0572891,27.8291016 36.7940508,27.5415 36.4542773,27.5264883 Z" id="Path"></path>
                    <path d="M33.6601289,37.9767773 C33.6591445,37.9767773 33.6582422,37.9767773 33.6572578,37.9767773 L32.8438359,37.9804687 C32.5037344,37.9819453 32.2292578,38.2590469 32.2307344,38.5991484 C32.232293,38.9383477 32.5077539,39.21225 32.846543,39.21225 C32.8475273,39.21225 32.8485117,39.21225 32.8494141,39.21225 L33.6628359,39.2085586 C34.0029375,39.207 34.2774141,38.9299805 34.2759375,38.5898789 C34.2744609,38.2505977 33.999,37.9767773 33.6601289,37.9767773 Z" id="Path"></path>
                </g>
                <g id="861071" transform="translate(289.000000, 23.000000)" fill-rule="nonzero">
                    <path d="M30.2646957,0.471532663 C30.2186087,0.300226131 30.103913,0.156092965 29.9481739,0.0740452261 C29.6408696,-0.0904020101 29.259913,0.0282286432 29.0972174,0.339007538 C29.0967826,0.339798995 29.0963478,0.340590452 29.096,0.34138191 C29.096,0.358969849 25.9064348,6.61675879 16.1151304,7.70721106 C14.837913,7.84501256 13.5894783,8.18199749 12.4142609,8.70620603 C10.3106957,9.63106784 8.5733913,11.2407161 7.4786087,13.2790704 C6.45652174,15.1937814 6.03321739,17.3771482 6.26469565,19.5403769 C6.43521739,21.1173116 6.956,22.6348869 7.78817391,23.9795729 C6.04904348,25.2423869 0.532521739,29.6077136 0.0351304348,34.2931407 C-0.00139130435,34.6427889 0.249391304,34.956206 0.595130435,34.9931407 C0.940956522,35.0300754 1.25078261,34.7764573 1.28730435,34.426809 C1.74295652,30.244397 6.9186087,26.1886181 8.53252174,25.0137437 C10.469913,27.4197739 13.3707826,28.7775628 16.4838261,28.9991709 C18.5790435,29.1359171 20.6767826,28.7745729 22.6090435,27.9438945 C24.7066087,27.0538568 26.5591304,25.6620352 28.0073043,23.8881156 C31.7394783,19.3152513 33.5168696,11.6293216 30.2646957,0.471532663 Z M8.89426087,23.3499246 C8.65426087,22.9676508 8.44269565,22.5678769 8.26121739,22.1539447 C7.87930435,21.2804397 7.63295652,20.3526759 7.53078261,19.403191 C7.31773913,17.4979774 7.68156522,15.5721859 8.57426087,13.8805779 C9.53913043,12.0871357 11.0696522,10.6718342 12.922087,9.85997487 C13.9811304,9.39363065 15.1051304,9.09586683 16.2542609,8.9770603 C22.7168696,8.27354271 26.5186087,5.36449749 28.4803478,3.25394472 C27.3277391,7.09154523 25.3433043,10.6209171 22.6716522,13.5851005 L22.2890435,9.68761307 C22.2695652,9.33655779 21.9723478,9.06790201 21.6252174,9.0876005 C21.278087,9.10729899 21.0124348,9.40787688 21.031913,9.75893216 C21.0328696,9.77625628 21.0345217,9.7935804 21.0368696,9.81072864 L21.5273043,14.8197739 C18.602087,17.8202764 14.536,20.8348492 8.89426087,23.3499246 Z M27.0333913,23.0720352 L27.0333913,23.0755528 C25.7175652,24.6956658 24.032087,25.9680653 22.122087,26.7830905 C20.3656522,27.5337437 18.4593043,27.8566583 16.5568696,27.725804 C13.9084348,27.5901131 11.4231304,26.3909673 9.65252174,24.3946482 C11.7274783,23.466093 13.7337391,22.3881281 15.656,21.1690201 L21.1829565,22.2242965 C21.5264348,22.2787312 21.8485217,22.041206 21.9023478,21.6938442 C21.9542609,21.358794 21.7373043,21.0413317 21.4090435,20.9720352 L17.162087,20.1594724 C19.1230435,18.7974623 20.9484348,17.2459422 22.6125217,15.526809 C22.6430435,15.5002513 22.6709565,15.4707915 22.696,15.4388693 C27.0855652,10.8167588 28.9533913,6.24389447 29.7325217,3.42982412 C31.882087,12.7021859 30.2368696,19.1534422 27.0333913,23.0720352 Z" id="Shape"></path>
                </g>
            </g>
        </g>
    </g>
</svg>