<?xml version="1.0" encoding="UTF-8"?>
<svg width="448px" height="88px" viewBox="0 0 448 88" version="1.1" xmlns="http://www.w3.org/2000/svg" xmlns:xlink="http://www.w3.org/1999/xlink">
    <!-- Generator: Sketch 52.6 (67491) - http://www.bohemiancoding.com/sketch -->
    <title>info</title>
    <desc>Created with Sketch.</desc>
    <g id="Desktop" stroke="none" stroke-width="1" fill="none" fill-rule="evenodd">
        <g id="d-Desktop-HD---About" transform="translate(-496.000000, -2464.000000)" fill="#000000">
            <g id="Group" transform="translate(496.000000, 2464.000000)">
                <g id="info">
                    <g id="Group-2">
                        <g id="1606779" transform="translate(24.000000, 24.000000)" fill-rule="nonzero">
                            <path d="M2.67823788,25.334346 C0.0581817227,27.9549144 -0.721328695,31.8932597 0.70349882,35.311175 C2.1286392,38.7294027 5.4769058,40.9534829 9.1864624,40.945678 C12.8957061,40.9378731 16.2345886,38.6997442 17.6453399,35.275897 L32.1557465,20.7934637 L32.1716995,20.8106345 C32.4385224,21.0769371 32.8711319,21.0769371 33.1379547,20.8106345 L39.1372452,14.8236628 C41.6080933,12.3510751 41.6080933,8.34904211 39.1372452,5.87645439 L35.138031,1.88534816 C32.6609268,-0.581620086 28.6501389,-0.581620086 26.1730347,1.88534816 L20.1746826,7.87231969 C19.9078598,8.13862236 19.9078598,8.57038865 20.1746826,8.83669132 L20.1918869,8.85323773 L5.67084501,23.3456613 C4.55100248,23.803652 3.53376005,24.4798672 2.67823787,25.334346 Z M14.6758804,37.307977 C12.0445633,39.9338526 7.92147827,40.3387701 4.82783504,38.2754706 C1.73419189,36.2121711 0.531768799,32.2550941 1.95597074,28.8243787 C3.3798599,25.393351 7.03373722,23.444315 10.6829224,24.1689206 C14.3324204,24.8932139 16.9606094,28.0897829 16.9609223,31.8033474 C16.959671,33.8678957 16.1379318,35.8475268 14.6758804,37.307977 Z M24.4932709,10.4804002 C25.3131333,10.3377269 26.0654297,9.9365558 26.6394272,9.33526746 C29.1994248,6.78182111 30.1562958,5.82837626 32.6721878,8.33811525 C34.2302704,9.89316062 34.2330857,10.7610639 34.0616684,11.342684 C33.7979736,12.2364995 32.8595581,13.1730857 31.6718369,14.3584917 C31.0699997,14.9301215 30.6692963,15.6800149 30.5291596,16.4970303 L17.9156036,29.085374 C17.0194168,26.209742 14.7603378,23.9597496 11.8768997,23.0715536 L24.4932709,10.4804002 Z M18.2831497,32.7105872 C18.3125534,32.4108796 18.3272553,32.1086745 18.3275681,31.8033474 C18.3250656,31.4277763 18.2994156,31.0525173 18.2512436,30.6797561 L30.6627273,18.2924662 C30.8128738,18.792291 31.0299607,19.2693256 31.3080444,19.7110822 L18.2831497,32.7105872 Z M27.1392898,2.85003196 C29.0824356,0.915356969 32.2280044,0.915356969 34.171463,2.85003196 L38.1706772,6.8411382 C40.1085053,8.7808084 40.1085053,11.9199333 38.1706772,13.8596034 L32.6962738,19.3223989 C32.6909561,19.3164671 32.6890793,19.3089745 32.6834488,19.3030428 L32.6803208,19.3008574 C32.0590896,18.453559 31.1863632,16.7717623 32.638092,15.3231755 C33.9637603,14.0000914 35.0110321,12.9554855 35.3726348,11.7279332 C35.78022,10.3452196 35.2290573,8.96156949 33.6381302,7.3740558 C32.2930679,6.03067889 31.1719742,5.50119546 30.159111,5.50119546 C28.54879,5.50119546 27.2102966,6.83707968 25.6734848,8.37120801 C24.2198792,9.82135571 22.5129013,8.92878899 21.6680146,8.31064206 L27.1392898,2.85003196 Z M21.2863922,9.6896092 C21.5801163,9.8753655 21.8891678,10.0361462 22.2101059,10.1697658 C22.3715134,10.2343903 22.5360489,10.2905854 22.7030869,10.3383513 L10.2815933,22.7356314 C9.60562134,22.6507142 8.92245483,22.6410361 8.24429321,22.7059728 L21.2863922,9.6896092 Z" id="Shape"></path>
                            <path d="M13.6423721,27.3298992 C11.5034104,25.1919849 8.14951322,24.859809 5.63174438,26.5369228 C3.11397554,28.2137244 2.13395695,31.4324591 3.29102323,34.2241106 C4.44840238,37.0154498 7.42036434,38.602027 10.3895111,38.0132264 C13.358345,37.4244259 15.4966812,34.8241502 15.4966812,31.8033474 C15.5019989,30.1246726 14.8341599,28.5140564 13.6423721,27.3298992 Z M12.6761169,35.3124239 C10.9985428,36.9907865 8.36660006,37.252094 6.39029692,35.9365025 C4.41430664,34.6212232 3.64480591,32.0955623 4.55256649,29.9045748 C5.46001436,27.7138996 7.79228975,26.4685521 10.1220627,26.930289 C12.4518357,27.3920261 14.1303482,29.4325353 14.1303482,31.8033474 C14.1347275,33.1198754 13.6110916,34.3833303 12.6761169,35.3124239 Z" id="Shape"></path>
                        </g>
                        <path d="M44,1 C20.2517558,1 1,20.2517558 1,44 C1,67.7482442 20.2517558,87 44,87 C67.7482442,87 87,67.7482442 87,44 C87,20.2517558 67.7482442,1 44,1 Z M44,0 C68.300529,-4.46393476e-15 88,19.699471 88,44 C88,68.300529 68.300529,88 44,88 C19.699471,88 2.9759565e-15,68.300529 0,44 C-2.9759565e-15,19.699471 19.699471,4.46393476e-15 44,0 Z" id="Rectangle-Copy-10" fill-rule="nonzero"></path>
                        <path d="M224,1 C200.251756,1 181,20.2517558 181,44 C181,67.7482442 200.251756,87 224,87 C247.748244,87 267,67.7482442 267,44 C267,20.2517558 247.748244,1 224,1 Z M224,0 C248.300529,-4.46393476e-15 268,19.699471 268,44 C268,68.300529 248.300529,88 224,88 C199.699471,88 180,68.300529 180,44 C180,19.699471 199.699471,4.46393476e-15 224,0 Z" id="Rectangle-Copy-11" fill-rule="nonzero"></path>
                        <path d="M404,1 C380.251756,1 361,20.2517558 361,44 C361,67.7482442 380.251756,87 404,87 C427.748244,87 447,67.7482442 447,44 C447,20.2517558 427.748244,1 404,1 Z M404,0 C428.300529,-4.46393476e-15 448,19.699471 448,44 C448,68.300529 428.300529,88 404,88 C379.699471,88 360,68.300529 360,44 C360,19.699471 379.699471,4.46393476e-15 404,0 Z" id="Rectangle-Copy-12" fill-rule="nonzero"></path>
                        <polygon id="Line-2" fill-rule="nonzero" points="107 44.5 107 43.5 157.670938 43.5 157.670938 44.5"></polygon>
                        <polygon id="Line-2-Copy" fill-rule="nonzero" points="290 44.5 290 43.5 340.670938 43.5 340.670938 44.5"></polygon>
                        <g id="854996" transform="translate(200.000000, 21.000000)">
                            <path d="M11.2994688,13.8271328 C5.08048438,13.8271328 0.0209335938,18.8866836 0.0209335938,25.105668 C0.0209335938,28.9668828 1.85769922,33.1183828 5.48028906,37.4448984 C6.01854297,38.0877305 6.55491016,38.6833945 7.069625,39.2268594 C4.73063281,39.8652891 3.32628516,41.0123242 3.32628516,42.3510859 C3.32628516,44.7210742 7.43412109,45.9999102 11.2991094,45.9999102 C15.1641875,45.9999102 19.2719336,44.7209844 19.2719336,42.3510859 C19.2719336,41.0134023 17.8680352,39.8660977 15.5305703,39.2273984 C16.4644063,38.241543 17.4692188,37.0816602 18.4226406,35.7879102 C18.6436563,35.4879219 18.5796875,35.0657461 18.2797891,34.8447305 C17.9800703,34.6239844 17.557625,34.6877734 17.3366094,34.9876719 C16.1855313,36.5497852 14.9395781,37.9225977 13.8523789,39.0130313 C13.7277656,39.0766406 13.6235469,39.177625 13.5582305,39.3049336 C12.5843242,40.2620391 11.7647695,40.9720742 11.2997383,41.3600195 C10.8398281,40.9758477 10.0327617,40.2754258 9.07134375,39.3308086 C9.00234375,39.1796016 8.88114453,39.0610078 8.73326172,38.9948828 C5.67794531,35.9217773 1.3699375,30.6123711 1.3699375,25.1058477 C1.3699375,19.6307695 5.82430078,15.1764063 11.2993789,15.1764063 C16.774457,15.1764063 21.2288203,19.6307695 21.2288203,25.1058477 C21.2288203,27.4968594 20.4141172,30.0789688 18.8073516,32.7804805 C18.6169727,33.1007734 18.7220898,33.5146836 19.042293,33.7050625 C19.3624961,33.8954414 19.7764961,33.7903242 19.966875,33.4701211 C21.6994219,30.5570273 22.5779141,27.7429414 22.5779141,25.1058477 C22.5780039,18.8866836 17.5184531,13.8271328 11.2994688,13.8271328 Z M10.8866367,42.7630195 C11.0081055,42.8570859 11.153832,42.9040742 11.2994687,42.9040742 C11.4451055,42.9040742 11.5907422,42.8570859 11.7123008,42.7630195 C11.7950469,42.6989609 12.9222266,41.8199297 14.4246836,40.3508945 C16.699707,40.8148477 17.9230195,41.7081641 17.9230195,42.3511758 C17.9230195,42.8313906 17.2648242,43.3979453 16.2052969,43.8296445 C14.9057969,44.3592734 13.163457,44.6509961 11.2991992,44.6509961 C7.25569141,44.6509961 4.67537891,43.2887852 4.67537891,42.3511758 C4.67537891,41.7072656 5.89905078,40.8143984 8.17533203,40.3504453 C9.68614453,41.8281953 10.8149414,42.7074961 10.8866367,42.7630195 Z" id="Shape" fill-rule="nonzero"></path>
                            <path d="M11.2994688,13.8271328 C5.08048438,13.8271328 0.0209335938,18.8866836 0.0209335938,25.105668 C0.0209335938,28.9668828 1.85769922,33.1183828 5.48028906,37.4448984 C6.01854297,38.0877305 6.55491016,38.6833945 7.069625,39.2268594 C4.73063281,39.8652891 3.32628516,41.0123242 3.32628516,42.3510859 C3.32628516,44.7210742 7.43412109,45.9999102 11.2991094,45.9999102 C15.1641875,45.9999102 19.2719336,44.7209844 19.2719336,42.3510859 C19.2719336,41.0134023 17.8680352,39.8660977 15.5305703,39.2273984 C16.4644063,38.241543 17.4692188,37.0816602 18.4226406,35.7879102 C18.6436563,35.4879219 18.5796875,35.0657461 18.2797891,34.8447305 C17.9800703,34.6239844 17.557625,34.6877734 17.3366094,34.9876719 C16.1855313,36.5497852 14.9395781,37.9225977 13.8523789,39.0130313 C13.7277656,39.0766406 13.6235469,39.177625 13.5582305,39.3049336 C12.5843242,40.2620391 11.7647695,40.9720742 11.2997383,41.3600195 C10.8398281,40.9758477 10.0327617,40.2754258 9.07134375,39.3308086 C9.00234375,39.1796016 8.88114453,39.0610078 8.73326172,38.9948828 C5.67794531,35.9217773 1.3699375,30.6123711 1.3699375,25.1058477 C1.3699375,19.6307695 5.82430078,15.1764063 11.2993789,15.1764063 C16.774457,15.1764063 21.2288203,19.6307695 21.2288203,25.1058477 C21.2288203,27.4968594 20.4141172,30.0789688 18.8073516,32.7804805 C18.6169727,33.1007734 18.7220898,33.5146836 19.042293,33.7050625 C19.3624961,33.8954414 19.7764961,33.7903242 19.966875,33.4701211 C21.6994219,30.5570273 22.5779141,27.7429414 22.5779141,25.1058477 C22.5780039,18.8866836 17.5184531,13.8271328 11.2994688,13.8271328 Z M10.8866367,42.7630195 C11.0081055,42.8570859 11.153832,42.9040742 11.2994688,42.9040742 C11.4451055,42.9040742 11.5907422,42.8570859 11.7123008,42.7630195 C11.7950469,42.6989609 12.9222266,41.8199297 14.4246836,40.3508945 C16.699707,40.8148477 17.9230195,41.7081641 17.9230195,42.3511758 C17.9230195,42.8313906 17.2648242,43.3979453 16.2052969,43.8296445 C14.9057969,44.3592734 13.163457,44.6509961 11.2991992,44.6509961 C7.25569141,44.6509961 4.67537891,43.2887852 4.67537891,42.3511758 C4.67537891,41.7072656 5.89905078,40.8143984 8.17533203,40.3504453 C9.68614453,41.8281953 10.8149414,42.7074961 10.8866367,42.7630195 Z" id="Shape" fill-rule="nonzero" transform="translate(11.299424, 29.913521) scale(-1, 1) translate(-11.299424, -29.913521) "></path>
                            <path d="M11.2994687,20.2017266 C10.2325742,20.2017266 9.21805859,20.5385508 8.36562109,21.1758125 C8.06733984,21.3988945 8.875125,22.4792656 9.17340625,22.2563633 C9.79072266,21.7948359 10.5259141,21.5508203 11.2993789,21.5508203 C13.2595,21.5508203 14.8541367,23.145457 14.8541367,25.105668 C14.8541367,27.0657891 13.2595,28.6604258 11.2993789,28.6604258 C9.33925781,28.6604258 7.74462109,27.0656992 7.74462109,25.105668 C7.74462109,24.7711797 7.79089062,24.4404648 7.88208203,24.122957 C7.98486328,23.7649297 6.68832812,23.392707 6.58545703,23.7507344 C6.45958594,24.1894414 6.39570703,24.6452188 6.39570703,25.105668 C6.39570703,27.8096055 8.59553125,30.0095195 11.2995586,30.0095195 C14.0034961,30.0095195 16.2034102,27.8096953 16.2034102,25.105668 C16.2033203,22.4016406 14.0034062,20.2017266 11.2994687,20.2017266 Z" id="Path"></path>
                            <path d="M11.2994687,20.2017266 C10.2325742,20.2017266 9.21805859,20.5385508 8.36562109,21.1758125 C8.06733984,21.3988945 8.875125,22.4792656 9.17340625,22.2563633 C9.79072266,21.7948359 10.5259141,21.5508203 11.2993789,21.5508203 C13.2595,21.5508203 14.8541367,23.145457 14.8541367,25.105668 C14.8541367,27.0657891 13.2595,28.6604258 11.2993789,28.6604258 C9.33925781,28.6604258 7.74462109,27.0656992 7.74462109,25.105668 C7.74462109,24.7711797 7.79089062,24.4404648 7.88208203,24.122957 C7.98486328,23.7649297 6.68832812,23.392707 6.58545703,23.7507344 C6.45958594,24.1894414 6.39570703,24.6452187 6.39570703,25.105668 C6.39570703,27.8096055 8.59553125,30.0095195 11.2995586,30.0095195 C14.0034961,30.0095195 16.2034102,27.8096953 16.2034102,25.105668 C16.2033203,22.4016406 14.0034062,20.2017266 11.2994687,20.2017266 Z" id="Path" transform="translate(11.299559, 25.105623) rotate(-315.000000) translate(-11.299559, -25.105623) "></path>
                            <path d="M40.6954453,19.5968086 C41.0386484,19.2285391 41.3921836,18.8317891 41.746707,18.4082656 C44.555043,15.0541289 45.9789766,11.8297266 45.9789766,8.82436328 C45.9789766,3.95869531 42.0203711,0 37.1546133,0 C33.600125,0 30.4086055,2.11546094 29.0240234,5.38936719 C28.8788359,5.73248047 29.0393867,6.12833203 29.3824102,6.27333984 C29.7254336,6.41834766 30.121375,6.25797656 30.2663828,5.91495313 C31.4395625,3.14129687 34.1433203,1.34900391 37.1546133,1.34900391 C41.2765547,1.34900391 44.6299727,4.70251172 44.6299727,8.82445312 C44.6299727,14.3986289 38.7777305,19.7390313 37.1543437,21.112832 C36.7965859,20.8105078 36.2334453,20.3156484 35.5731836,19.6684141 C35.5073281,19.5378711 35.4009531,19.4343711 35.2731953,19.3703125 C32.9441758,17.0253008 29.6792539,12.9942813 29.6792539,8.82445312 C29.6792539,8.45187109 29.3773789,8.14990625 29.004707,8.14990625 C28.6322148,8.14990625 28.3301602,8.45187109 28.3301602,8.82445312 C28.3301602,11.8297266 29.7540937,15.0541289 32.5625195,18.4083555 C32.9169531,18.8316094 33.2702187,19.2281797 33.6132422,19.5963594 C31.8744062,20.1188008 30.870582,21.0080742 30.870582,22.0789219 C30.870582,22.9820313 31.603168,23.777957 32.9335742,24.3199844 C34.0718945,24.7838477 35.5709375,25.0393633 37.1545234,25.0393633 C38.7380195,25.0393633 40.2370625,24.7838477 41.3754727,24.3199844 C42.7056094,23.7778672 43.4381953,22.9819414 43.4381953,22.078832 C43.4381055,21.0099609 42.4335625,20.1198789 40.6954453,19.5968086 Z M37.1544336,23.6901797 C33.9614766,23.6901797 32.2196758,22.6257109 32.2196758,22.0787422 C32.2196758,21.7224219 33.0120078,21.0703359 34.7039453,20.7106016 C35.8423555,21.8182852 36.6873359,22.4764805 36.7418711,22.5187969 C36.8634297,22.6128633 37.0090664,22.6598516 37.1547031,22.6598516 C37.3003398,22.6598516 37.4458867,22.6128633 37.5675352,22.5187969 C37.6220703,22.4766602 38.4668711,21.818375 39.6052812,20.7107813 C40.3590703,20.8715117 41.0120547,21.1069922 41.469,21.3851484 C41.8573945,21.6217969 42.0892812,21.8810859 42.0892812,22.0787422 C42.0891016,22.6257109 40.3473008,23.6901797 37.1544336,23.6901797 Z" id="Shape" fill-rule="nonzero"></path>
                            <path d="M40.6954453,19.5968086 C41.0386484,19.2285391 41.3921836,18.8317891 41.746707,18.4082656 C44.555043,15.0541289 45.9789766,11.8297266 45.9789766,8.82436328 C45.9789766,3.95869531 42.0203711,0 37.1546133,0 C33.600125,0 30.4086055,2.11546094 29.0240234,5.38936719 C28.8788359,5.73248047 29.0393867,6.12833203 29.3824102,6.27333984 C29.7254336,6.41834766 30.121375,6.25797656 30.2663828,5.91495313 C31.4395625,3.14129687 34.1433203,1.34900391 37.1546133,1.34900391 C41.2765547,1.34900391 44.6299727,4.70251172 44.6299727,8.82445312 C44.6299727,14.3986289 38.7777305,19.7390313 37.1543437,21.112832 C36.7965859,20.8105078 36.2334453,20.3156484 35.5731836,19.6684141 C35.5073281,19.5378711 35.4009531,19.4343711 35.2731953,19.3703125 C32.9441758,17.0253008 29.6792539,12.9942813 29.6792539,8.82445312 C29.6792539,8.45187109 29.3773789,8.14990625 29.004707,8.14990625 C28.6322148,8.14990625 28.3301602,8.45187109 28.3301602,8.82445312 C28.3301602,11.8297266 29.7540937,15.0541289 32.5625195,18.4083555 C32.9169531,18.8316094 33.2702187,19.2281797 33.6132422,19.5963594 C31.8744062,20.1188008 30.870582,21.0080742 30.870582,22.0789219 C30.870582,22.9820313 31.603168,23.777957 32.9335742,24.3199844 C34.0718945,24.7838477 35.5709375,25.0393633 37.1545234,25.0393633 C38.7380195,25.0393633 40.2370625,24.7838477 41.3754727,24.3199844 C42.7056094,23.7778672 43.4381953,22.9819414 43.4381953,22.078832 C43.4381055,21.0099609 42.4335625,20.1198789 40.6954453,19.5968086 Z M37.1544336,23.6901797 C33.9614766,23.6901797 32.2196758,22.6257109 32.2196758,22.0787422 C32.2196758,21.7224219 33.0120078,21.0703359 34.7039453,20.7106016 C35.8423555,21.8182852 36.6873359,22.4764805 36.7418711,22.5187969 C36.8634297,22.6128633 37.0090664,22.6598516 37.1547031,22.6598516 C37.3003398,22.6598516 37.4458867,22.6128633 37.5675352,22.5187969 C37.6220703,22.4766602 38.4668711,21.818375 39.6052812,20.7107813 C40.3590703,20.8715117 41.0120547,21.1069922 41.469,21.3851484 C41.8573945,21.6217969 42.0892812,21.8810859 42.0892812,22.0787422 C42.0891016,22.6257109 40.3473008,23.6901797 37.1544336,23.6901797 Z" id="Shape" fill-rule="nonzero" transform="translate(37.154568, 12.519682) scale(-1, 1) translate(-37.154568, -12.519682) "></path>
                            <path d="M37.1546133,4.89935937 C34.9903672,4.89935937 33.2295195,6.66011719 33.2295195,8.82454297 C33.2295195,10.9887891 34.9902773,12.7495469 37.1546133,12.7495469 C39.3189492,12.7495469 41.079707,10.9888789 41.079707,8.82454297 C41.079707,6.66020703 39.3189492,4.89935937 37.1546133,4.89935937 Z M37.1547031,11.4004531 C35.7340938,11.4004531 34.5786133,10.2448828 34.5786133,8.82445312 C34.5786133,7.40402344 35.7341836,6.24836328 37.1547031,6.24836328 C38.5751328,6.24836328 39.730793,7.40393359 39.730793,8.82445312 C39.7307031,10.2448828 38.5751328,11.4004531 37.1547031,11.4004531 Z" id="Shape" fill-rule="nonzero"></path>
                            <path d="M28.4047305,21.4042852 L28.0967461,21.4042852 C27.8724961,21.4042852 27.647168,21.4191094 27.4266914,21.4484883 C27.0575234,21.4976328 26.7979648,21.8367031 26.8470195,22.2061406 C26.8922109,22.5453008 27.1818672,22.791832 27.5148281,22.791832 C27.5444766,22.791832 27.5744844,22.7899453 27.6046719,22.7859023 C27.7663008,22.7644297 27.9318828,22.7535586 28.0968359,22.7535586 L28.4047305,22.7535586 L28.4047305,22.7534687 C28.7773125,22.7534687 29.0792773,22.4515937 29.0792773,22.0789219 C29.0792773,21.70625 28.7773125,21.4042852 28.4047305,21.4042852 Z" id="Path"></path>
                            <path d="M26.1747187,41.6422187 C26.1736406,41.6422187 26.1726523,41.6422187 26.1715742,41.6422187 L25.2806836,41.6462617 C24.9081914,41.6479687 24.6075742,41.9513711 24.6091914,42.3238633 C24.6108086,42.6953672 24.9125938,42.9953555 25.2836484,42.9953555 C25.2847266,42.9953555 25.2857148,42.9953555 25.286793,42.9953555 L26.1776836,42.9913125 C26.5501758,42.9896055 26.850793,42.6862031 26.8491758,42.3137109 C26.8475586,41.9421172 26.5458633,41.6422187 26.1747187,41.6422187 Z" id="Path"></path>
                            <path d="M29.2051484,30.1415898 L28.3142578,30.1415898 C27.9416758,30.1415898 27.6397109,30.4436445 27.6397109,30.8161367 C27.6397109,31.1887187 27.9415859,31.4906836 28.3142578,31.4906836 L29.2051484,31.4906836 C29.5777305,31.4906836 29.8796953,31.1888086 29.8796953,30.8161367 C29.8796953,30.4436445 29.5778203,30.1415898 29.2051484,30.1415898 Z" id="Path"></path>
                            <path d="M25.6309844,22.778625 C25.3784336,22.5049609 24.9518555,22.4877109 24.677832,22.7401719 C24.4263594,22.9720586 24.1976172,23.2305391 23.9979844,23.5085156 C23.7806523,23.8111992 23.849832,24.2326562 24.1524258,24.4499883 C24.2714687,24.5355195 24.4091094,24.576668 24.5454023,24.576668 C24.7551875,24.576668 24.9620078,24.4790078 25.0938086,24.2955469 C25.2402539,24.0916914 25.408082,23.9019414 25.5925312,23.7317773 C25.866375,23.4792266 25.8835352,23.0524687 25.6309844,22.778625 Z" id="Path"></path>
                            <path d="M29.7384609,41.6258672 C29.7373828,41.6258672 29.7363945,41.6258672 29.7353164,41.6258672 L28.8445156,41.6299102 C28.4720234,41.6315273 28.1714062,41.9350195 28.1730234,42.3075117 C28.1746406,42.6790156 28.4764258,42.9790039 28.8474805,42.9790039 C28.8485586,42.9790039 28.8495469,42.9790039 28.850625,42.9790039 L29.7414258,42.9749609 C30.113918,42.9733437 30.4145352,42.6698516 30.412918,42.2973594 C30.4112109,41.9258555 30.1095156,41.6258672 29.7384609,41.6258672 Z" id="Path"></path>
                            <path d="M22.6110664,41.6583008 C22.6099883,41.6583008 22.609,41.6583008 22.6079219,41.6583008 L21.7170312,41.6623438 C21.3445391,41.6640508 21.0439219,41.9674531 21.0455391,42.3399453 C21.0472461,42.7114492 21.3487617,43.0114375 21.7199961,43.0114375 C21.7210742,43.0114375 21.7220625,43.0114375 21.7231406,43.0114375 L22.6140313,43.0073945 C22.9865234,43.0056875 23.2871406,42.7022852 23.2855234,42.329793 C23.2839063,41.9581992 22.9822109,41.6583008 22.6110664,41.6583008 Z" id="Path"></path>
                            <path d="M26.129168,29.5745859 C25.9172266,29.4408984 25.7178633,29.28475 25.5368281,29.1107227 C25.2682852,28.8524219 24.841168,28.860957 24.5830469,29.1292305 C24.3247461,29.3976836 24.3331016,29.8247109 24.6015547,30.0829219 C24.8484453,30.3203789 25.1202227,30.5332187 25.4093398,30.7156016 C25.5211055,30.7861289 25.6455391,30.8197305 25.768625,30.8197305 C25.9925156,30.8197305 26.2114648,30.7084141 26.3398516,30.504918 C26.5386758,30.1899258 26.44425,29.7733203 26.129168,29.5745859 Z" id="Path"></path>
                            <path d="M24.4710117,27.1585977 C24.4257305,26.926082 24.4027305,26.686918 24.4027305,26.4475742 L24.4029102,26.4101094 C24.4073125,26.0376172 24.1088516,25.7321484 23.7362695,25.7278359 C23.7336641,25.7277461 23.7309688,25.7277461 23.7282734,25.7277461 C23.359375,25.7277461 23.0582188,26.0245898 23.0539063,26.3944766 L23.0536367,26.4476641 C23.0536367,26.7734375 23.0849922,27.0994805 23.1468047,27.4167188 C23.2095156,27.7388086 23.4918047,27.96225 23.8081445,27.96225 C23.8508203,27.96225 23.8943047,27.958207 23.9377891,27.9496719 C24.303543,27.8784258 24.542168,27.5242617 24.4710117,27.1585977 Z" id="Path"></path>
                            <path d="M32.7689805,30.1415898 L31.8780898,30.1415898 C31.5055078,30.1415898 31.203543,30.4436445 31.203543,30.8161367 C31.203543,31.1887187 31.5055078,31.4906836 31.8780898,31.4906836 L32.7689805,31.4906836 C33.1415625,31.4906836 33.4435273,31.1888086 33.4435273,30.8161367 C33.4435273,30.4436445 33.1415625,30.1415898 32.7689805,30.1415898 Z" id="Path"></path>
                            <path d="M43.5988359,31.5149414 C43.338918,31.3098281 43.0611211,31.1234922 42.7729922,30.9613242 C42.4487461,30.7784023 42.0371719,30.8933125 41.85425,31.217918 C41.671418,31.5424336 41.7862383,31.953918 42.1108437,32.1366602 C42.3381484,32.2648672 42.5575469,32.4118516 42.7626602,32.5738398 C42.8866445,32.6716797 43.0338086,32.7190273 43.1802539,32.7190273 C43.3795273,32.7190273 43.5770039,32.6309805 43.7101523,32.4624336 C43.9410508,32.1699922 43.8912773,31.74575 43.5988359,31.5149414 Z" id="Path"></path>
                            <path d="M41.0949805,42.1092266 C41.0437695,41.7402383 40.7027227,41.4819375 40.3344531,41.5333281 C40.1135273,41.563875 39.8873008,41.579957 39.6617031,41.5808555 L39.5354727,41.5814844 C39.1628906,41.5833711 38.8623633,41.8868633 38.8641602,42.2592656 C38.8660469,42.6306797 39.1676523,42.9305781 39.5386172,42.9305781 C39.5397852,42.9305781 39.5408633,42.9305781 39.5419414,42.9305781 L39.6679023,42.9299492 C39.9527969,42.9286914 40.2392187,42.9084766 40.519082,42.8697539 C40.88825,42.8187227 41.1460117,42.478125 41.0949805,42.1092266 Z" id="Path"></path>
                            <path d="M44.0719531,40.2123555 C43.8149102,39.9424648 43.3878828,39.9321328 43.1183516,40.1891758 C42.9290508,40.3694922 42.724207,40.5364219 42.5093906,40.6853828 C42.203293,40.8975937 42.1271953,41.3178828 42.3393164,41.6241602 C42.4703984,41.8131016 42.680543,41.9144453 42.8942812,41.9144453 C43.0268906,41.9144453 43.1607578,41.8754531 43.2780039,41.7942344 C43.5498711,41.6056523 43.80925,41.3943398 44.0488633,41.1660469 C44.3186641,40.9090039 44.3289062,40.4819766 44.0719531,40.2123555 Z" id="Path"></path>
                            <path d="M45.38475,36.9363828 C45.0191758,36.8674727 44.6660898,37.1082539 44.5970898,37.4743672 C44.5486641,37.7310508 44.4798437,37.9857578 44.3922461,38.2315703 C44.2671836,38.5824102 44.4501953,38.9682891 44.801125,39.0934414 C44.8759648,39.120125 44.9525117,39.132793 45.0277109,39.132793 C45.3047891,39.132793 45.5646172,38.9606523 45.6630859,38.6846523 C45.7742227,38.3728945 45.8616406,38.0497266 45.9230039,37.724043 C45.9917344,37.3579297 45.7507734,37.0052031 45.38475,36.9363828 Z" id="Path"></path>
                            <path d="M45.7854531,34.7680937 C45.6939922,34.4495977 45.5766562,34.1358633 45.4363203,33.8351562 C45.2787344,33.4975234 44.8776719,33.3516172 44.5397695,33.5090234 C44.2022266,33.6666094 44.0562305,34.0679414 44.2137266,34.4055742 C44.3242344,34.6423125 44.4167734,34.8895625 44.4887383,35.1402266 C44.5736406,35.436082 44.8435312,35.6288867 45.1367812,35.6288867 C45.1985039,35.6288867 45.2610352,35.6203516 45.323207,35.6025625 C45.6812344,35.4996914 45.8881445,35.1261211 45.7854531,34.7680937 Z" id="Path"></path>
                            <path d="M36.3327227,30.1415898 L35.441832,30.1415898 C35.06925,30.1415898 34.7672852,30.4436445 34.7672852,30.8161367 C34.7672852,31.1887187 35.0691602,31.4906836 35.441832,31.4906836 L36.3327227,31.4906836 C36.7053047,31.4906836 37.0072695,31.1888086 37.0072695,30.8161367 C37.0072695,30.4436445 36.7053047,30.1415898 36.3327227,30.1415898 Z" id="Path"></path>
                            <path d="M33.3022031,41.6096953 C33.301125,41.6096953 33.3001367,41.6096953 33.2990586,41.6096953 L32.408168,41.6137383 C32.0356758,41.6153555 31.7350586,41.9188477 31.7366758,42.2913398 C31.7383828,42.6628437 32.0400781,42.962832 32.4111328,42.962832 C32.4122109,42.962832 32.4131992,42.962832 32.4142773,42.962832 L33.305168,42.9587891 C33.6776602,42.957082 33.9782773,42.6536797 33.9766602,42.2811875 C33.975043,41.9096836 33.6732578,41.6096953 33.3022031,41.6096953 Z" id="Path"></path>
                            <path d="M39.9261133,30.1480586 C39.8306992,30.1437461 39.7340273,30.1416797 39.6389727,30.1416797 L39.0054844,30.1416797 C38.6329023,30.1416797 38.3309375,30.4437344 38.3309375,30.8162266 C38.3309375,31.1888086 38.6328125,31.4907734 39.0054844,31.4907734 L39.6389727,31.4907734 L39.6389727,31.4906836 C39.71525,31.4906836 39.7910781,31.4923906 39.866457,31.4957148 C39.8766094,31.4962539 39.8867617,31.4964336 39.8968242,31.4964336 C40.2555703,31.4964336 40.5542109,31.2137852 40.5701133,30.8518047 C40.5865547,30.4794922 40.2982461,30.1645 39.9261133,30.1480586 Z" id="Path"></path>
                            <path d="M36.8658555,41.5936133 C36.8647773,41.5936133 36.8637891,41.5936133 36.8627109,41.5936133 L35.9718203,41.5976562 C35.5993281,41.5992734 35.2987109,41.9027656 35.3003281,42.2752578 C35.3020352,42.6467617 35.6037305,42.94675 35.9747852,42.94675 C35.9758633,42.94675 35.9769414,42.94675 35.9779297,42.94675 L36.8688203,42.942707 C37.2413125,42.941 37.5419297,42.6375977 37.5403125,42.2651055 C37.5386953,41.8935117 37.237,41.5936133 36.8658555,41.5936133 Z" id="Path"></path>
                        </g>
                        <g id="861071" transform="translate(387.000000, 25.000000)" fill-rule="nonzero">
                            <path d="M33.1020109,0.509765041 C33.0516033,0.32456879 32.9261549,0.168749151 32.7558152,0.0800488931 C32.4197011,-0.0977319028 32.0030299,0.0305174521 31.8250815,0.366494635 C31.824606,0.367350265 31.8241304,0.368205894 31.82375,0.369061524 C31.82375,0.388075513 28.335163,7.15325275 17.6259239,8.33212006 C16.2289674,8.48109466 14.8634918,8.84540269 13.5780978,9.41211463 C11.2773234,10.4119652 9.37714674,12.1521255 8.17972826,14.3557517 C7.06182065,16.4257096 6.59883152,18.7861062 6.85201087,21.1247318 C7.03851902,22.829526 7.608125,24.470148 8.51831522,25.9238626 C6.6161413,27.289067 0.582445652,32.008339 0.038423913,37.0736656 C-0.00152173913,37.4516637 0.272771739,37.790493 0.650923913,37.8304224 C1.0291712,37.8703518 1.36804348,37.59617 1.40798913,37.2181719 C1.9063587,32.6966454 7.56722826,28.3120196 9.33244565,27.0418851 C11.4514674,29.6429988 14.6242935,31.1108787 18.0291848,31.350455 C20.3208288,31.4982887 22.615231,31.1076463 24.7286413,30.2096156 C27.0228533,29.2474127 29.0490489,27.7427407 30.6329891,25.8249898 C34.7150543,20.8813527 36.6590761,12.5722396 33.1020109,0.509765041 Z M9.72809783,25.2431618 C9.46559783,24.8298927 9.23419837,24.3977047 9.03570652,23.9502105 C8.61798913,23.0058808 8.3485462,22.0028928 8.23679348,20.9764227 C8.00377717,18.9167323 8.40171196,16.8347956 9.37809783,15.0060302 C10.4334239,13.0671737 12.1074321,11.537118 14.1335326,10.6594323 C15.2918614,10.1552764 16.5212364,9.83336955 17.7780978,9.70493006 C24.8465761,8.9443705 29.0047283,5.79945674 31.1503804,3.51777808 C29.8897147,7.66653538 27.7192391,11.4820725 24.7971196,14.6865951 L24.3786413,10.4730952 C24.357337,10.093576 24.0322554,9.80313731 23.6525815,9.82443298 C23.2729076,9.84572864 22.9823505,10.1706777 23.0036549,10.5501969 C23.0047011,10.5689257 23.0065082,10.5876545 23.0090761,10.6061931 L23.5454891,16.0213772 C20.3460326,19.2651637 15.89875,22.5241613 9.72809783,25.2431618 Z M29.5677717,24.9427407 L29.5677717,24.9465435 C28.128587,26.6980171 26.2850951,28.0735841 24.1960326,28.9546924 C22.2749321,29.7662094 20.1898641,30.1153063 18.1090761,29.9738422 C15.2123505,29.8271493 12.4940489,28.5307755 10.5574457,26.3725927 C12.8269293,25.3687492 15.0212772,24.2033818 17.12375,22.8854271 L23.1688587,24.0262665 C23.544538,24.0851148 23.8968207,23.8283308 23.9556929,23.4528046 C24.0124728,23.0905881 23.7751766,22.7473856 23.4161413,22.6724705 L18.7710326,21.7940242 C20.9158288,20.3215809 22.9123505,18.6442618 24.7324457,16.7857395 C24.7658288,16.7570284 24.7963587,16.72518 24.82375,16.6906696 C29.624837,11.6937933 31.6677717,6.75015619 32.5199457,3.70791797 C34.8710326,13.7320929 33.0715761,20.706424 29.5677717,24.9427407 Z" id="Shape"></path>
                        </g>
                    </g>
                </g>
            </g>
        </g>
    </g>
</svg>