<?xml version="1.0" encoding="UTF-8"?>
<svg width="42px" height="42px" viewBox="0 0 42 42" version="1.1" xmlns="http://www.w3.org/2000/svg" xmlns:xlink="http://www.w3.org/1999/xlink">
    <!-- Generator: Sketch 52.6 (67491) - http://www.bohemiancoding.com/sketch -->
    <title>Group 2</title>
    <desc>Created with Sketch.</desc>
    <g id="Mobile" stroke="none" stroke-width="1" fill="none" fill-rule="evenodd">
        <g id="d-Mobile-menu" transform="translate(-167.000000, -593.000000)" fill="#000000">
            <g id="Group-2" transform="translate(168.000000, 594.000000)">
                <path d="M19.75,15.0078125 C20.5572957,15.0078125 21.3059861,15.2096334 21.9960938,15.6132812 C22.6862014,16.0169291 23.2330709,16.5637986 23.6367188,17.2539062 C24.0403666,17.9440139 24.2421875,18.6927043 24.2421875,19.5 C24.2421875,20.3072957 24.0403666,21.0559861 23.6367188,21.7460938 C23.2330709,22.4362014 22.6862014,22.9830709 21.9960938,23.3867188 C21.3059861,23.7903666 20.5572957,23.9921875 19.75,23.9921875 C18.9427043,23.9921875 18.1940139,23.7903666 17.5039062,23.3867188 C16.8137986,22.9830709 16.2669291,22.4362014 15.8632812,21.7460938 C15.4596334,21.0559861 15.2578125,20.3072957 15.2578125,19.5 C15.2578125,18.6927043 15.4596334,17.9440139 15.8632812,17.2539062 C16.2669291,16.5637986 16.8137986,16.0169291 17.5039062,15.6132812 C18.1940139,15.2096334 18.9427043,15.0078125 19.75,15.0078125 Z M19.75,22.4296875 C20.5572957,22.4296875 21.247393,22.143232 21.8203125,21.5703125 C22.393232,20.997393 22.6796875,20.3072957 22.6796875,19.5 C22.6796875,18.6927043 22.393232,18.002607 21.8203125,17.4296875 C21.247393,16.856768 20.5572957,16.5703125 19.75,16.5703125 C18.9427043,16.5703125 18.252607,16.856768 17.6796875,17.4296875 C17.106768,18.002607 16.8203125,18.6927043 16.8203125,19.5 C16.8203125,20.3072957 17.106768,20.997393 17.6796875,21.5703125 C18.252607,22.143232 18.9427043,22.4296875 19.75,22.4296875 Z M25.4921875,14.8125 C25.4661457,15.0989598 25.3554697,15.3463531 25.1601562,15.5546875 C24.9648428,15.7630219 24.7239598,15.8671875 24.4375,15.8671875 C24.1510402,15.8671875 23.9036469,15.7630219 23.6953125,15.5546875 C23.4869781,15.3463531 23.3828125,15.0989598 23.3828125,14.8125 C23.3828125,14.5260402 23.4869781,14.2786469 23.6953125,14.0703125 C23.9036469,13.8619781 24.1510402,13.7578125 24.4375,13.7578125 C24.7239598,13.7578125 24.9713531,13.8619781 25.1796875,14.0703125 C25.3880219,14.2786469 25.4921875,14.5260402 25.4921875,14.8125 Z M28.4609375,15.8671875 C28.4869793,16.5963578 28.5,17.8072832 28.5,19.5 C28.5,21.1927168 28.4804689,22.4101525 28.4414062,23.1523438 C28.4023436,23.894535 28.2916676,24.5390598 28.109375,25.0859375 C27.8749988,25.7369824 27.5169295,26.303383 27.0351562,26.7851562 C26.553383,27.2669295 25.9869824,27.6249988 25.3359375,27.859375 C24.7890598,28.0416676 24.144535,28.1523436 23.4023438,28.1914062 C22.6601525,28.2304689 21.4427168,28.25 19.75,28.25 C18.0572832,28.25 16.8398475,28.2304689 16.0976562,28.1914062 C15.355465,28.1523436 14.7109402,28.0286469 14.1640625,27.8203125 C13.5130176,27.6119781 12.946617,27.2669295 12.4648438,26.7851562 C11.9830705,26.303383 11.6250012,25.7369824 11.390625,25.0859375 C11.2083324,24.5390598 11.0976564,23.894535 11.0585938,23.1523438 C11.0195311,22.4101525 11,21.1927168 11,19.5 C11,17.8072832 11.0195311,16.5898475 11.0585938,15.8476562 C11.0976564,15.105465 11.2083324,14.4609402 11.390625,13.9140625 C11.6250012,13.2630176 11.9830705,12.696617 12.4648438,12.2148438 C12.946617,11.7330705 13.5130176,11.3750012 14.1640625,11.140625 C14.7109402,10.9583324 15.355465,10.8476564 16.0976562,10.8085938 C16.8398475,10.7695311 18.0572832,10.75 19.75,10.75 C21.4427168,10.75 22.6601525,10.7695311 23.4023438,10.8085938 C24.144535,10.8476564 24.7890598,10.9583324 25.3359375,11.140625 C25.9869824,11.3750012 26.553383,11.7330705 27.0351562,12.2148438 C27.5169295,12.696617 27.8749988,13.2630176 28.109375,13.9140625 C28.2916676,14.4609402 28.4088539,15.1119754 28.4609375,15.8671875 Z M26.5859375,24.65625 C26.7421883,24.2135395 26.8463539,23.5104215 26.8984375,22.546875 C26.9244793,21.9739555 26.9375,21.1666719 26.9375,20.125 L26.9375,18.875 C26.9375,17.8072863 26.9244793,17.0000027 26.8984375,16.453125 C26.8463539,15.4635367 26.7421883,14.7604187 26.5859375,14.34375 C26.2734359,13.5364543 25.7135457,12.9765641 24.90625,12.6640625 C24.4895813,12.5078117 23.7864633,12.4036461 22.796875,12.3515625 C22.2239555,12.3255207 21.4166719,12.3125 20.375,12.3125 L19.125,12.3125 C18.0833281,12.3125 17.2760445,12.3255207 16.703125,12.3515625 C15.7395785,12.4036461 15.0364605,12.5078117 14.59375,12.6640625 C13.7864543,12.9765641 13.2265641,13.5364543 12.9140625,14.34375 C12.7578117,14.7604187 12.6536461,15.4635367 12.6015625,16.453125 C12.5755207,17.0260445 12.5625,17.8333281 12.5625,18.875 L12.5625,20.125 C12.5625,21.1666719 12.5755207,21.9739555 12.6015625,22.546875 C12.6536461,23.5104215 12.7578117,24.2135395 12.9140625,24.65625 C13.2526059,25.4635457 13.8124961,26.0234359 14.59375,26.3359375 C15.0364605,26.4921883 15.7395785,26.5963539 16.703125,26.6484375 C17.2760445,26.6744793 18.0833281,26.6875 19.125,26.6875 L20.375,26.6875 C21.4427137,26.6875 22.2499973,26.6744793 22.796875,26.6484375 C23.7864633,26.5963539 24.4895813,26.4921883 24.90625,26.3359375 C25.7135457,25.9973941 26.2734359,25.4375039 26.5859375,24.65625 Z" id=""></path>
                <path d="M20,41 C8.40202025,41 -1,31.5979797 -1,20 C-1,8.40202025 8.40202025,-1 20,-1 C31.5979797,-1 41,8.40202025 41,20 C41,31.5979797 31.5979797,41 20,41 Z M20,39 C30.4934102,39 39,30.4934102 39,20 C39,9.50658975 30.4934102,1 20,1 C9.50658975,1 1,9.50658975 1,20 C1,30.4934102 9.50658975,39 20,39 Z" id="Oval-Copy" fill-rule="nonzero"></path>
            </g>
        </g>
    </g>
</svg>