<?xml version="1.0" encoding="UTF-8"?>
<svg width="56px" height="29px" viewBox="0 0 56 29" version="1.1" xmlns="http://www.w3.org/2000/svg" xmlns:xlink="http://www.w3.org/1999/xlink">
    <!-- Generator: Sketch 52.6 (67491) - http://www.bohemiancoding.com/sketch -->
    <title>Group 6</title>
    <desc>Created with Sketch.</desc>
    <g id="Mobile" stroke="none" stroke-width="1" fill="none" fill-rule="evenodd">
        <g id="d-Mobile-Kosik-fixed-panel" transform="translate(-54.000000, -10.000000)" fill="#000000">
            <g id="Group" transform="translate(0.000000, -1.000000)">
                <g id="Group-6" transform="translate(54.000000, 11.000000)">
                    <path d="M16.9586924,23.758877 C9.97993379,23.758877 5.9541131,20.3866473 5.9541131,14.5357014 C5.9541131,8.7960527 9.98070621,5.31174189 16.9586924,5.31174189 C23.8586648,5.31174189 27.9636579,8.76195811 27.9636579,14.5357014 C27.9636579,20.4211338 23.8582786,23.758877 16.9586924,23.758877 M16.9586924,0.391931081 C6.20437517,0.391931081 -3.86206902e-05,5.73380946 -3.86206902e-05,14.5357014 C-3.86206902e-05,23.5080662 6.20437517,28.6790797 16.9586924,28.6794716 C27.5913545,28.6794716 33.9178097,23.5597959 33.9178097,14.5357014 C33.9178097,5.68247162 27.5913545,0.391931081 16.9586924,0.391931081" id="Fill-1"></path>
                    <polygon id="Fill-4" points="45.632469 14.094 55.1238897 1.65025676 48.3841931 1.65025676 38.9352552 14.094 48.9839724 27.4210676 55.8294897 27.4210676"></polygon>
                </g>
            </g>
        </g>
    </g>
</svg>