<?xml version="1.0" encoding="UTF-8"?>
<svg width="129px" height="18px" viewBox="0 0 129 18" version="1.1" xmlns="http://www.w3.org/2000/svg" xmlns:xlink="http://www.w3.org/1999/xlink">
    <!-- Generator: Sketch 52.6 (67491) - http://www.bohemiancoding.com/sketch -->
    <title>Group 16</title>
    <desc>Created with Sketch.</desc>
    <g id="Symbols" stroke="none" stroke-width="1" fill="none" fill-rule="evenodd">
        <g id="footer" transform="translate(-656.000000, -43.000000)" fill="#FFFFFF">
            <g id="Group-16">
                <g transform="translate(656.000000, 42.000000)">
                    <g id="Group-3" transform="translate(59.538462, 0.183000)">
                        <path d="M10.6817954,15.0107 C6.29281846,15.0107 3.76044923,12.9627 3.76044923,9.4077 C3.76044923,5.9217 6.29281846,3.8057 10.6817954,3.8057 C15.0211569,3.8057 17.6031415,5.9017 17.6031415,9.4077 C17.6031415,12.9837 15.0201646,15.0107 10.6817954,15.0107 M10.6817954,0.8167 C3.91921846,0.8167 0.016472308,4.0617 0.016472308,9.4077 C0.016472308,14.8587 3.91921846,17.9997 10.6817954,17.9997 C17.3679646,17.9997 21.3471185,14.8897 21.3471185,9.4077 C21.3471185,4.0307 17.3679646,0.8167 10.6817954,0.8167" id="Fill-1"></path>
                    </g>
                    <g id="Group-6" transform="translate(107.169231, 0.183000)">
                        <path d="M10.8038492,15.0107 C6.41487231,15.0107 3.88250308,12.9627 3.88250308,9.4077 C3.88250308,5.9217 6.41487231,3.8057 10.8038492,3.8057 C15.1422185,3.8057 17.7251954,5.9017 17.7251954,9.4077 C17.7251954,12.9837 15.1422185,15.0107 10.8038492,15.0107 M10.8038492,0.8167 C4.04028,0.8167 0.138526154,4.0617 0.138526154,9.4077 C0.138526154,14.8587 4.04028,17.9997 10.8038492,17.9997 C17.4900185,17.9997 21.4691723,14.8897 21.4691723,9.4077 C21.4691723,4.0307 17.4900185,0.8167 10.8038492,0.8167" id="Fill-4"></path>
                    </g>
                    <polygon id="Fill-7" points="39.8249792 17.4183 36.2070254 17.4183 36.2070254 1.7643 40.5573023 1.7643 50.3176408 13.1853 50.3176408 1.7643 53.9355946 1.7643 53.9355946 17.4183 49.5843254 17.4183 39.8249792 5.9973"></polygon>
                    <polygon id="Fill-9" points="17.3516908 1.764 13.1135446 1.764 6.91162154 9.323 13.4896292 17.418 17.7952523 17.418 11.1239677 9.323"></polygon>
                    <polygon id="Fill-11" points="0.991315385 17.419 4.60926923 17.419 4.60926923 1.765 0.991315385 1.765"></polygon>
                    <polygon id="Fill-13" points="24.6826615 17.418 28.3006154 17.418 28.3006154 1.764 24.6826615 1.764"></polygon>
                    <polygon id="Fill-14" points="86.5044231 17.418 90.1223769 17.418 90.1223769 1.764 86.5044231 1.764"></polygon>
                    <polygon id="Fill-15" points="102.8646 1.764 98.6264538 1.764 92.4245308 9.323 99.0025385 17.418 103.308162 17.418 96.6378692 9.323"></polygon>
                </g>
            </g>
        </g>
    </g>
</svg>