<?xml version="1.0" encoding="UTF-8"?>
<svg width="142px" height="20px" viewBox="0 0 142 20" version="1.1" xmlns="http://www.w3.org/2000/svg" xmlns:xlink="http://www.w3.org/1999/xlink">
    <!-- Generator: Sketch 52.6 (67491) - http://www.bohemiancoding.com/sketch -->
    <title>Group 16</title>
    <desc>Created with Sketch.</desc>
    <g id="Symbols" stroke="none" stroke-width="1" fill="none" fill-rule="evenodd">
        <g id="menu" transform="translate(-609.000000, -5.000000)" fill="#000000">
            <g id="Group-16" transform="translate(609.000000, 4.000000)">
                <g id="Group-3" transform="translate(65.000000, 0.202263)">
                    <path d="M11.84106,16.5907737 C6.97576,16.5907737 4.16856,14.3271947 4.16856,10.3979842 C4.16856,6.54503684 6.97576,4.2063 11.84106,4.2063 C16.65136,4.2063 19.51356,6.52293158 19.51356,10.3979842 C19.51356,14.3504053 16.65026,16.5907737 11.84106,16.5907737 M11.84106,0.902668421 C4.34456,0.902668421 0.0182600004,4.48924737 0.0182600004,10.3979842 C0.0182600004,16.4227737 4.34456,19.8944053 11.84106,19.8944053 C19.25286,19.8944053 23.66386,16.4570368 23.66386,10.3979842 C23.66386,4.45498421 19.25286,0.902668421 11.84106,0.902668421" id="Fill-1"></path>
                </g>
                <g id="Group-6" transform="translate(117.800000, 0.202263)">
                    <path d="M11.97636,16.5907737 C7.11106,16.5907737 4.30386,14.3271947 4.30386,10.3979842 C4.30386,6.54503684 7.11106,4.2063 11.97636,4.2063 C16.78556,4.2063 19.64886,6.52293158 19.64886,10.3979842 C19.64886,14.3504053 16.78556,16.5907737 11.97636,16.5907737 M11.97636,0.902668421 C4.47876,0.902668421 0.15356,4.48924737 0.15356,10.3979842 C0.15356,16.4227737 4.47876,19.8944053 11.97636,19.8944053 C19.38816,19.8944053 23.79916,16.4570368 23.79916,10.3979842 C23.79916,4.45498421 19.38816,0.902668421 11.97636,0.902668421" id="Fill-4"></path>
                </g>
                <polygon id="Fill-7" points="43.14707 19.2518053 39.13647 19.2518053 39.13647 1.95001579 43.95887 1.95001579 54.77847 14.5732263 54.77847 1.95001579 58.78907 1.95001579 58.78907 19.2518053 53.96557 19.2518053 43.14707 6.62859474"></polygon>
                <polygon id="Fill-9" points="18.23482 1.94968421 13.53672 1.94968421 6.66172 10.3043684 13.95362 19.2514737 18.72652 19.2514737 11.33122 10.3043684"></polygon>
                <polygon id="Fill-11" points="0.0989 19.2525789 4.1095 19.2525789 4.1095 1.95078947 0.0989 1.95078947"></polygon>
                <polygon id="Fill-13" points="26.3614 19.2514737 30.372 19.2514737 30.372 1.94968421 26.3614 1.94968421"></polygon>
                <polygon id="Fill-14" points="94.8925 19.2514737 98.9031 19.2514737 98.9031 1.94968421 94.8925 1.94968421"></polygon>
                <polygon id="Fill-15" points="113.0282 1.94968421 108.3301 1.94968421 101.4551 10.3043684 108.747 19.2514737 113.5199 19.2514737 106.1257 10.3043684"></polygon>
            </g>
        </g>
    </g>
</svg>