<?xml version="1.0" encoding="UTF-8"?>
<svg width="36px" height="28px" viewBox="0 0 36 28" version="1.1" xmlns="http://www.w3.org/2000/svg" xmlns:xlink="http://www.w3.org/1999/xlink">
    <!-- Generator: Sketch 52.6 (67491) - http://www.bohemiancoding.com/sketch -->
    <title>mastercard</title>
    <desc>Created with Sketch.</desc>
    <g id="Symbols" stroke="none" stroke-width="1" fill="none" fill-rule="evenodd">
        <g id="mastercard" fill="#FFFFFF">
            <path d="M30.1875,23.5625 C30.1875,23.7708344 30.1250006,23.9479159 30,24.09375 C29.8749994,24.2395841 29.7083344,24.3125 29.5,24.3125 C29.2916656,24.3125 29.1250006,24.2395841 29,24.09375 C28.8749994,23.9479159 28.8125,23.7708344 28.8125,23.5625 C28.8125,23.3541656 28.8749994,23.1875006 29,23.0625 C29.1250006,22.9374994 29.2916656,22.875 29.5,22.875 C29.7083344,22.875 29.8749994,22.9374994 30,23.0625 C30.1250006,23.1875006 30.1875,23.3541656 30.1875,23.5625 Z M10.75,22.875 C10.9583344,22.875 11.1249994,22.9374994 11.25,23.0625 C11.3750006,23.1875006 11.4375,23.3541656 11.4375,23.5625 C11.4375,23.7708344 11.3750006,23.9479159 11.25,24.09375 C11.1249994,24.2395841 10.9583344,24.3125 10.75,24.3125 C10.5416656,24.3125 10.3750006,24.2395841 10.25,24.09375 C10.1249994,23.9479159 10.0625,23.7708344 10.0625,23.5625 C10.0625,23.3541656 10.1249994,23.1875006 10.25,23.0625 C10.3750006,22.9374994 10.5416656,22.875 10.75,22.875 Z M18.125,22.8125 C18.458335,22.8125 18.6458331,22.9999981 18.6875,23.375 L17.5,23.375 C17.5416669,22.9999981 17.7499981,22.8125 18.125,22.8125 Z M24.8125,22.875 C25.0208344,22.875 25.1979159,22.9374994 25.34375,23.0625 C25.4895841,23.1875006 25.5625,23.3541656 25.5625,23.5625 C25.5625,23.7708344 25.4895841,23.9479159 25.34375,24.09375 C25.1979159,24.2395841 25.0208344,24.3125 24.8125,24.3125 C24.6041656,24.3125 24.4479172,24.2395841 24.34375,24.09375 C24.2395828,23.9479159 24.1770834,23.7708344 24.15625,23.5625 C24.1354166,23.3541656 24.1874994,23.1875006 24.3125,23.0625 C24.4375006,22.9374994 24.6041656,22.875 24.8125,22.875 Z M31.4375,24.5 L31.4375,24.625 L31.3125,24.75 L31.125,24.5625 L31.1875,24.4375 L31.3125,24.375 L31.375,24.375 L31.4375,24.5 Z M31.3125,24.5625 L31.375,24.5625 L31.375,24.4375 L31.1875,24.4375 L31.1875,24.625 L31.25,24.625 L31.25,24.5625 L31.3125,24.625 L31.375,24.625 L31.3125,24.5625 Z M36,3 L36,25 C36,25.8333375 35.7083363,26.5416637 35.125,27.125 C34.5416637,27.7083363 33.8333375,28 33,28 L3,28 C2.1666625,28 1.45833625,27.7083363 0.875,27.125 C0.29166375,26.5416637 0,25.8333375 0,25 L0,3 C0,2.1666625 0.29166375,1.45833625 0.875,0.875 C1.45833625,0.29166375 2.1666625,0 3,0 L33,0 C33.8333375,0 34.5416637,0.29166375 35.125,0.875 C35.7083363,1.45833625 36,2.1666625 36,3 Z M4,11.75 C4,13.2916744 4.38541281,14.72916 5.15625,16.0625 C5.92708719,17.39584 6.97916,18.4479128 8.3125,19.21875 C9.64584,19.9895872 11.0833256,20.375 12.625,20.375 C14.3750088,20.375 15.9791594,19.8958381 17.4375,18.9375 C15.9374925,17.7291606 14.9270859,16.2291756 14.40625,14.4375 C13.8854141,12.6458244 13.8958306,10.8541756 14.4375,9.0625 C14.9791694,7.27082438 15.9791594,5.77083937 17.4375,4.5625 C15.9791594,3.562495 14.3750088,3.0625 12.625,3.0625 C11.0833256,3.0625 9.64584,3.45832938 8.3125,4.25 C6.97916,5.04167062 5.92708719,6.09374344 5.15625,7.40625 C4.38541281,8.71875656 4,10.1666588 4,11.75 Z M18,18.5 C19.4166738,17.4166613 20.3854141,16.0208419 20.90625,14.3125 C21.4270859,12.6041581 21.4270859,10.8958419 20.90625,9.1875 C20.3854141,7.47915813 19.4166738,6.06250562 18,4.9375 C16.5833262,6.06250562 15.6145859,7.47915813 15.09375,9.1875 C14.5729141,10.8958419 14.5729141,12.6041581 15.09375,14.3125 C15.6145859,16.0208419 16.5833262,17.4166613 18,18.5 Z M9.125,23.3125 C9.125,23.0208319 9.0416675,22.7916675 8.875,22.625 C8.7083325,22.4583325 8.458335,22.375 8.125,22.375 C7.791665,22.375 7.5416675,22.5208319 7.375,22.8125 C7.2083325,22.5208319 6.96875156,22.375 6.65625,22.375 C6.34374844,22.375 6.1041675,22.4791656 5.9375,22.6875 L5.9375,22.4375 L5.4375,22.4375 L5.4375,24.75 L5.9375,24.75 L5.9375,24.1875 C5.9375,23.6874975 5.96874969,23.3333344 6.03125,23.125 C6.09375031,22.9166656 6.24999875,22.8229166 6.5,22.84375 C6.75000125,22.8645834 6.90624969,22.9687491 6.96875,23.15625 C7.03125031,23.3437509 7.0625,23.6874975 7.0625,24.1875 L7.0625,24.75 L7.5625,24.75 L7.5,24.1875 C7.5,23.6874975 7.53124969,23.3333344 7.59375,23.125 C7.65625031,22.9166656 7.81249875,22.8229166 8.0625,22.84375 C8.31250125,22.8645834 8.46874969,22.9687491 8.53125,23.15625 C8.59375031,23.3437509 8.625,23.6874975 8.625,24.1875 L8.625,24.75 L9.125,24.75 L9.125,23.3125 Z M11.9375,22.4375 L11.4375,22.4375 L11.4375,22.6875 C11.2291656,22.4791656 10.9687516,22.375 10.65625,22.375 C10.3437484,22.375 10.0833344,22.4895822 9.875,22.71875 C9.66666563,22.9479178 9.5625,23.2395816 9.5625,23.59375 C9.5625,23.9479184 9.66666563,24.2395822 9.875,24.46875 C10.0833344,24.6979178 10.354165,24.8125 10.6875,24.8125 C11.020835,24.8125 11.2708325,24.6875013 11.4375,24.4375 L11.4375,24.75 L11.9375,24.75 L11.9375,22.4375 Z M14.4375,24.0625 C14.4375,23.8124987 14.3333344,23.6250006 14.125,23.5 C13.9999994,23.4583331 13.7812516,23.4062503 13.46875,23.34375 C13.1562484,23.2812497 13,23.1770841 13,23.03125 C13,22.8854159 13.1354153,22.8125 13.40625,22.8125 C13.6770847,22.8125 13.9374988,22.8749994 14.1875,23 L14.375,22.625 C14.041665,22.4166656 13.6458356,22.3437497 13.1875,22.40625 C12.7291644,22.4687503 12.5,22.7083313 12.5,23.125 C12.5,23.3750013 12.6041656,23.5416662 12.8125,23.625 C12.8958338,23.7083338 13.104165,23.7708331 13.4375,23.8125 C13.770835,23.8541669 13.9375,23.9583325 13.9375,24.125 C13.9375,24.2916675 13.7812516,24.375 13.46875,24.375 C13.1562484,24.375 12.8750012,24.2916675 12.625,24.125 L12.4375,24.5 C12.770835,24.7500013 13.1874975,24.8333338 13.6875,24.75 C14.1875025,24.6666662 14.4375,24.4375019 14.4375,24.0625 Z M16.6875,24.625 L16.5,24.1875 C16.3333325,24.2708338 16.1666675,24.3125 16,24.3125 C15.8333325,24.3125 15.75,24.1875013 15.75,23.9375 L15.75,22.875 L16.5625,22.875 L16.5625,22.4375 L15.75,22.4375 L15.75,21.75 L15.25,21.75 L15.25,22.4375 L14.75,22.4375 L14.75,22.875 L15.25,22.875 L15.25,23.9375 C15.25,24.4375025 15.4270816,24.7187497 15.78125,24.78125 C16.1354184,24.8437503 16.4374988,24.7916675 16.6875,24.625 Z M17.5,23.8125 L19.1875,23.8125 C19.1875,22.8541619 18.8333369,22.375 18.125,22.375 C17.791665,22.375 17.5208344,22.4895822 17.3125,22.71875 C17.1041656,22.9479178 17,23.229165 17,23.5625 C17,24.1875031 17.2499975,24.5729159 17.75,24.71875 C18.2500025,24.8645841 18.7083313,24.770835 19.125,24.4375 L18.875,24.0625 C18.6249988,24.2708344 18.3437516,24.3541669 18.03125,24.3125 C17.7187484,24.2708331 17.5416669,24.1041681 17.5,23.8125 Z M21.1875,22.4375 C21.0208325,22.3541662 20.8437509,22.3333331 20.65625,22.375 C20.4687491,22.4166669 20.3333338,22.5208325 20.25,22.6875 L20.25,22.4375 L19.75,22.4375 L19.75,24.75 L20.25,24.75 L20.25,23.4375 C20.25,23.104165 20.3437491,22.9166669 20.53125,22.875 C20.7187509,22.8333331 20.8958325,22.8541662 21.0625,22.9375 L21.1875,22.4375 Z M21.875,23.5625 C21.875,23.229165 22.0104153,23.0104172 22.28125,22.90625 C22.5520847,22.8020828 22.8333319,22.8541656 23.125,23.0625 L23.375,22.625 C22.9999981,22.3333319 22.5625025,22.2812491 22.0625,22.46875 C21.5624975,22.6562509 21.3125,23.0208306 21.3125,23.5625 C21.3125,23.9791687 21.4374988,24.2916656 21.6875,24.5 C21.9375012,24.7083344 22.229165,24.8125 22.5625,24.8125 C22.895835,24.8125 23.1666656,24.7083344 23.375,24.5 L23.125,24.125 C22.8333319,24.3333344 22.5520847,24.3854172 22.28125,24.28125 C22.0104153,24.1770828 21.875,23.9375019 21.875,23.5625 Z M26,22.4375 L25.5,22.4375 L25.5,22.6875 C25.3333325,22.4791656 25.0937516,22.375 24.78125,22.375 C24.4687484,22.375 24.1979178,22.4791656 23.96875,22.6875 C23.7395822,22.8958344 23.625,23.1874981 23.625,23.5625 C23.625,23.9375019 23.7499988,24.2395822 24,24.46875 C24.2500012,24.6979178 24.5208319,24.8125 24.8125,24.8125 C25.1041681,24.8125 25.3333325,24.6875013 25.5,24.4375 L25.5,24.75 L26,24.75 L26,22.4375 Z M28.125,22.4375 C27.9999994,22.3958331 27.8333344,22.3854166 27.625,22.40625 C27.4166656,22.4270834 27.2708338,22.5208325 27.1875,22.6875 L27.1875,22.4375 L26.6875,22.4375 L26.6875,24.75 L27.1875,24.75 L27.1875,23.4375 C27.1875,23.1458319 27.2812491,22.9687503 27.46875,22.90625 C27.6562509,22.8437497 27.8333325,22.8541662 28,22.9375 L28.125,22.4375 Z M30.625,21.5 L30.125,21.5 L30.125,22.6875 C29.9583325,22.4791656 29.7291681,22.375 29.4375,22.375 C29.1458319,22.375 28.8750012,22.4791656 28.625,22.6875 C28.3749988,22.8958344 28.25,23.1874981 28.25,23.5625 C28.25,23.9375019 28.3749988,24.2395822 28.625,24.46875 C28.8750012,24.6979178 29.1562484,24.8125 29.46875,24.8125 C29.7812516,24.8125 29.9999994,24.6875013 30.125,24.4375 L30.125,24.75 L30.625,24.75 L30.625,21.5 Z M31.125,16.8125 L31.125,17.125 L31.1875,17.125 L31.1875,16.8125 L31.3125,16.8125 L31.3125,16.75 L31,16.75 L31,16.8125 L31.125,16.8125 Z M31.5,24.5625 L31.5,24.4375 L31.3125,24.3125 L31.125,24.375 L31.0625,24.4375 L31.0625,24.625 C31.0625,24.6666669 31.0833331,24.6875 31.125,24.6875 L31.1875,24.75 L31.375,24.75 L31.5,24.5625 Z M31.375,16.96875 L31.375,16.8125 L31.5,17.0625 L31.5625,17.0625 L31.6875,16.8125 L31.6875,17.125 L31.75,17.125 L31.75,16.75 L31.625,16.75 L31.5625,17 L31.4375,16.75 L31.375,16.75 L31.375,16.96875 Z M32,11.75 C32,10.1666588 31.6145872,8.71875656 30.84375,7.40625 C30.0729128,6.09374344 29.02084,5.04167062 27.6875,4.25 C26.35416,3.45832938 24.9166744,3.0625 23.375,3.0625 C21.6249912,3.0625 20.0208406,3.54166187 18.5625,4.5 C20.0208406,5.70833937 21.0208306,7.21874094 21.5625,9.03125 C22.1041694,10.8437591 22.1145859,12.6458244 21.59375,14.4375 C21.0729141,16.2291756 20.0625075,17.7291606 18.5625,18.9375 C20.0208406,19.8958381 21.6249912,20.375 23.375,20.375 C24.9166744,20.375 26.35416,19.9895872 27.6875,19.21875 C29.02084,18.4479128 30.0729128,17.39584 30.84375,16.0625 C31.6145872,14.72916 32,13.2916744 32,11.75 Z"></path>
        </g>
    </g>
</svg>