<?xml version="1.0" encoding="UTF-8"?>
<svg width="33px" height="25px" viewBox="0 0 33 25" version="1.1" xmlns="http://www.w3.org/2000/svg" xmlns:xlink="http://www.w3.org/1999/xlink">
    <!-- Generator: Sketch 52.6 (67491) - http://www.bohemiancoding.com/sketch -->
    <title></title>
    <desc>Created with Sketch.</desc>
    <g id="Symbols" stroke="none" stroke-width="1" fill="none" fill-rule="evenodd">
        <g id="mastercard-2-copy" fill="#D8D9D9">
            <path d="M27.671875,21.0379464 C27.671875,21.2239593 27.6145839,21.3820678 27.5,21.5122768 C27.3854161,21.6424858 27.2326398,21.7075893 27.0416667,21.7075893 C26.8506935,21.7075893 26.6979172,21.6424858 26.5833333,21.5122768 C26.4687494,21.3820678 26.4114583,21.2239593 26.4114583,21.0379464 C26.4114583,20.8519336 26.4687494,20.7031256 26.5833333,20.5915179 C26.6979172,20.4799102 26.8506935,20.4241071 27.0416667,20.4241071 C27.2326398,20.4241071 27.3854161,20.4799102 27.5,20.5915179 C27.6145839,20.7031256 27.671875,20.8519336 27.671875,21.0379464 Z M9.85416667,20.4241071 C10.0451398,20.4241071 10.1979161,20.4799102 10.3125,20.5915179 C10.4270839,20.7031256 10.484375,20.8519336 10.484375,21.0379464 C10.484375,21.2239593 10.4270839,21.3820678 10.3125,21.5122768 C10.1979161,21.6424858 10.0451398,21.7075893 9.85416667,21.7075893 C9.66319349,21.7075893 9.51041724,21.6424858 9.39583333,21.5122768 C9.28124943,21.3820678 9.22395833,21.2239593 9.22395833,21.0379464 C9.22395833,20.8519336 9.28124943,20.7031256 9.39583333,20.5915179 C9.51041724,20.4799102 9.66319349,20.4241071 9.85416667,20.4241071 Z M16.6145833,20.3683036 C16.9201404,20.3683036 17.0920137,20.5357126 17.1302083,20.8705357 L16.0416667,20.8705357 C16.0798613,20.5357126 16.2708316,20.3683036 16.6145833,20.3683036 Z M22.7447917,20.4241071 C22.9357648,20.4241071 23.0980896,20.4799102 23.2317708,20.5915179 C23.3654521,20.7031256 23.4322917,20.8519336 23.4322917,21.0379464 C23.4322917,21.2239593 23.3654521,21.3820678 23.2317708,21.5122768 C23.0980896,21.6424858 22.9357648,21.7075893 22.7447917,21.7075893 C22.5538185,21.7075893 22.4105908,21.6424858 22.3151042,21.5122768 C22.2196176,21.3820678 22.1623265,21.2239593 22.1432292,21.0379464 C22.1241318,20.8519336 22.1718744,20.7031256 22.2864583,20.5915179 C22.4010422,20.4799102 22.5538185,20.4241071 22.7447917,20.4241071 Z M28.8177083,21.875 L28.8177083,21.9866071 L28.703125,22.0982143 L28.53125,21.9308036 L28.5885417,21.8191964 L28.703125,21.7633929 L28.7604167,21.7633929 L28.8177083,21.875 Z M28.703125,21.9308036 L28.7604167,21.9308036 L28.7604167,21.8191964 L28.5885417,21.8191964 L28.5885417,21.9866071 L28.6458333,21.9866071 L28.6458333,21.9308036 L28.703125,21.9866071 L28.7604167,21.9866071 L28.703125,21.9308036 Z M33,2.67857143 L33,22.3214286 C33,23.0654799 32.7326416,23.6979141 32.1979167,24.21875 C31.6631918,24.7395859 31.0138927,25 30.25,25 L2.75,25 C1.98610729,25 1.33680823,24.7395859 0.802083333,24.21875 C0.267358437,23.6979141 0,23.0654799 0,22.3214286 L0,2.67857143 C0,1.93452009 0.267358437,1.30208594 0.802083333,0.78125 C1.33680823,0.260414063 1.98610729,0 2.75,0 L30.25,0 C31.0138927,0 31.6631918,0.260414063 32.1979167,0.78125 C32.7326416,1.30208594 33,1.93452009 33,2.67857143 Z M3.66666667,10.4910714 C3.66666667,11.8675664 4.01996174,13.1510357 4.7265625,14.3415179 C5.43316326,15.532 6.39756333,16.4713507 7.61979167,17.1595982 C8.84202,17.8478457 10.1597152,18.1919643 11.5729167,18.1919643 C13.1770914,18.1919643 14.6475628,17.7641412 15.984375,16.9084821 C14.6093681,15.8296077 13.6831621,14.4903354 13.2057292,12.890625 C12.7282962,11.2909146 12.7378447,9.69122824 13.234375,8.09151786 C13.7309053,6.49180748 14.6475628,5.15253516 15.984375,4.07366071 C14.6475628,3.18079911 13.1770914,2.734375 11.5729167,2.734375 C10.1597152,2.734375 8.84202,3.08779408 7.61979167,3.79464286 C6.39756333,4.50149163 5.43316326,5.44084235 4.7265625,6.61272321 C4.01996174,7.78460407 3.66666667,9.07737388 3.66666667,10.4910714 Z M16.5,16.5178571 C17.7986176,15.5505904 18.6866296,14.3043231 19.1640625,12.7790179 C19.6414954,11.2537126 19.6414954,9.72843025 19.1640625,8.203125 C18.6866296,6.67781975 17.7986176,5.41295145 16.5,4.40848214 C15.2013824,5.41295145 14.3133704,6.67781975 13.8359375,8.203125 C13.3585046,9.72843025 13.3585046,11.2537126 13.8359375,12.7790179 C14.3133704,14.3043231 15.2013824,15.5505904 16.5,16.5178571 Z M8.36458333,20.8147321 C8.36458333,20.5543142 8.28819521,20.3497031 8.13541667,20.2008929 C7.98263813,20.0520826 7.75347375,19.9776786 7.44791667,19.9776786 C7.14235958,19.9776786 6.91319521,20.1078856 6.76041667,20.3683036 C6.60763813,20.1078856 6.38802227,19.9776786 6.1015625,19.9776786 C5.81510273,19.9776786 5.59548687,20.0706836 5.44270833,20.2566964 L5.44270833,20.0334821 L4.984375,20.0334821 L4.984375,22.0982143 L5.44270833,22.0982143 L5.44270833,21.5959821 C5.44270833,21.1495513 5.47135388,20.8333343 5.52864583,20.6473214 C5.58593779,20.4613086 5.72916552,20.3776041 5.95833333,20.3962054 C6.18750115,20.4148066 6.33072888,20.5078117 6.38802083,20.6752232 C6.44531279,20.8426348 6.47395833,21.1495513 6.47395833,21.5959821 L6.47395833,22.0982143 L6.93229167,22.0982143 L6.875,21.5959821 C6.875,21.1495513 6.90364555,20.8333343 6.9609375,20.6473214 C7.01822945,20.4613086 7.16145719,20.3776041 7.390625,20.3962054 C7.61979281,20.4148066 7.76302055,20.5078117 7.8203125,20.6752232 C7.87760445,20.8426348 7.90625,21.1495513 7.90625,21.5959821 L7.90625,22.0982143 L8.36458333,22.0982143 L8.36458333,20.8147321 Z M10.9427083,20.0334821 L10.484375,20.0334821 L10.484375,20.2566964 C10.2934018,20.0706836 10.0546889,19.9776786 9.76822917,19.9776786 C9.4817694,19.9776786 9.24305651,20.0799841 9.05208333,20.2845982 C8.86111016,20.4892123 8.765625,20.7496264 8.765625,21.0658482 C8.765625,21.38207 8.86111016,21.6424841 9.05208333,21.8470982 C9.24305651,22.0517123 9.49131792,22.1540179 9.796875,22.1540179 C10.1024321,22.1540179 10.3315965,22.0424118 10.484375,21.8191964 L10.484375,22.0982143 L10.9427083,22.0982143 L10.9427083,20.0334821 Z M13.234375,21.484375 C13.234375,21.2611596 13.1388898,21.0937506 12.9479167,20.9821429 C12.8333328,20.9449403 12.6328139,20.8984378 12.3463542,20.8426339 C12.0598944,20.7868301 11.9166667,20.6938251 11.9166667,20.5636161 C11.9166667,20.4334071 12.0407974,20.3683036 12.2890625,20.3683036 C12.5373276,20.3683036 12.7760405,20.4241066 13.0052083,20.5357143 L13.1770833,20.2008929 C12.8715263,20.01488 12.5086827,19.9497765 12.0885417,20.0055804 C11.6684007,20.0613842 11.4583333,20.2752958 11.4583333,20.6473214 C11.4583333,20.8705368 11.5538185,21.0193449 11.7447917,21.09375 C11.8211809,21.1681551 12.0121513,21.2239581 12.3177083,21.2611607 C12.6232654,21.2983633 12.7760417,21.3913683 12.7760417,21.5401786 C12.7760417,21.6889888 12.6328139,21.7633929 12.3463542,21.7633929 C12.0598944,21.7633929 11.8020845,21.6889888 11.5729167,21.5401786 L11.4010417,21.875 C11.7065987,22.0982154 12.0885394,22.1726194 12.546875,22.0982143 C13.0052106,22.0238092 13.234375,21.8191981 13.234375,21.484375 Z M15.296875,21.9866071 L15.125,21.5959821 C14.9722215,21.6703873 14.8194452,21.7075893 14.6666667,21.7075893 C14.5138881,21.7075893 14.4375,21.5959833 14.4375,21.3727679 L14.4375,20.4241071 L15.1822917,20.4241071 L15.1822917,20.0334821 L14.4375,20.0334821 L14.4375,19.4196429 L13.9791667,19.4196429 L13.9791667,20.0334821 L13.5208333,20.0334821 L13.5208333,20.4241071 L13.9791667,20.4241071 L13.9791667,21.3727679 C13.9791667,21.8191987 14.1414914,22.0703122 14.4661458,22.1261161 C14.7908002,22.1819199 15.0677072,22.1354174 15.296875,21.9866071 Z M16.0416667,21.2611607 L17.5885417,21.2611607 C17.5885417,20.4055017 17.2638921,19.9776786 16.6145833,19.9776786 C16.3090263,19.9776786 16.0607648,20.0799841 15.8697917,20.2845982 C15.6788185,20.4892123 15.5833333,20.7403259 15.5833333,21.0379464 C15.5833333,21.5959849 15.8124977,21.9401035 16.2708333,22.0703125 C16.729169,22.2005215 17.1493036,22.116817 17.53125,21.8191964 L17.3020833,21.484375 C17.0729155,21.6703878 16.8151056,21.7447919 16.5286458,21.7075893 C16.2421861,21.6703867 16.0798613,21.5215787 16.0416667,21.2611607 Z M19.421875,20.0334821 C19.2690965,19.959077 19.1067717,19.940476 18.9348958,19.9776786 C18.76302,20.0148811 18.6388893,20.1078862 18.5625,20.2566964 L18.5625,20.0334821 L18.1041667,20.0334821 L18.1041667,22.0982143 L18.5625,22.0982143 L18.5625,20.9263393 C18.5625,20.6287188 18.6484366,20.4613097 18.8203125,20.4241071 C18.9921884,20.3869046 19.1545131,20.4055056 19.3072917,20.4799107 L19.421875,20.0334821 Z M20.0520833,21.0379464 C20.0520833,20.7403259 20.176214,20.5450153 20.4244792,20.4520089 C20.6727443,20.3590025 20.9305542,20.405505 21.1979167,20.5915179 L21.4270833,20.2008929 C21.0833316,19.9404749 20.682294,19.8939724 20.2239583,20.0613839 C19.7656227,20.2287955 19.5364583,20.5543131 19.5364583,21.0379464 C19.5364583,21.4099721 19.6510405,21.6889872 19.8802083,21.875 C20.1093761,22.0610128 20.3767346,22.1540179 20.6822917,22.1540179 C20.9878487,22.1540179 21.2361102,22.0610128 21.4270833,21.875 L21.1979167,21.5401786 C20.9305542,21.7261914 20.6727443,21.7726939 20.4244792,21.6796875 C20.176214,21.5866811 20.0520833,21.3727695 20.0520833,21.0379464 Z M23.8333333,20.0334821 L23.375,20.0334821 L23.375,20.2566964 C23.2222215,20.0706836 23.0026056,19.9776786 22.7161458,19.9776786 C22.4296861,19.9776786 22.1814247,20.0706836 21.9713542,20.2566964 C21.7612837,20.4427093 21.65625,20.7031233 21.65625,21.0379464 C21.65625,21.3727695 21.7708322,21.6424841 22,21.8470982 C22.2291678,22.0517123 22.4774292,22.1540179 22.7447917,22.1540179 C23.0121541,22.1540179 23.2222215,22.0424118 23.375,21.8191964 L23.375,22.0982143 L23.8333333,22.0982143 L23.8333333,20.0334821 Z M25.78125,20.0334821 C25.6666661,19.9962796 25.5138898,19.9869791 25.3229167,20.0055804 C25.1319435,20.0241816 24.9982643,20.1078862 24.921875,20.2566964 L24.921875,20.0334821 L24.4635417,20.0334821 L24.4635417,22.0982143 L24.921875,22.0982143 L24.921875,20.9263393 C24.921875,20.6659213 25.0078116,20.5078128 25.1796875,20.4520089 C25.3515634,20.3962051 25.5138881,20.4055056 25.6666667,20.4799107 L25.78125,20.0334821 Z M28.0729167,19.1964286 L27.6145833,19.1964286 L27.6145833,20.2566964 C27.4618048,20.0706836 27.2517374,19.9776786 26.984375,19.9776786 C26.7170126,19.9776786 26.4687511,20.0706836 26.2395833,20.2566964 C26.0104155,20.4427093 25.8958333,20.7031233 25.8958333,21.0379464 C25.8958333,21.3727695 26.0104155,21.6424841 26.2395833,21.8470982 C26.4687511,22.0517123 26.7265611,22.1540179 27.0130208,22.1540179 C27.2994806,22.1540179 27.4999994,22.0424118 27.6145833,21.8191964 L27.6145833,22.0982143 L28.0729167,22.0982143 L28.0729167,19.1964286 Z M28.53125,15.0111607 L28.53125,15.2901786 L28.5885417,15.2901786 L28.5885417,15.0111607 L28.703125,15.0111607 L28.703125,14.9553571 L28.4166667,14.9553571 L28.4166667,15.0111607 L28.53125,15.0111607 Z M28.875,21.9308036 L28.875,21.8191964 L28.703125,21.7075893 L28.53125,21.7633929 L28.4739583,21.8191964 L28.4739583,21.9866071 C28.4739583,22.0238097 28.4930554,22.0424107 28.53125,22.0424107 L28.5885417,22.0982143 L28.7604167,22.0982143 L28.875,21.9308036 Z M28.7604167,15.1506696 L28.7604167,15.0111607 L28.875,15.234375 L28.9322917,15.234375 L29.046875,15.0111607 L29.046875,15.2901786 L29.1041667,15.2901786 L29.1041667,14.9553571 L28.9895833,14.9553571 L28.9322917,15.1785714 L28.8177083,14.9553571 L28.7604167,14.9553571 L28.7604167,15.1506696 Z M29.3333333,10.4910714 C29.3333333,9.07737388 28.9800383,7.78460407 28.2734375,6.61272321 C27.5668367,5.44084235 26.6024367,4.50149163 25.3802083,3.79464286 C24.15798,3.08779408 22.8402848,2.734375 21.4270833,2.734375 C19.8229086,2.734375 18.3524372,3.1621981 17.015625,4.01785714 C18.3524372,5.09673158 19.2690947,6.44530441 19.765625,8.06361607 C20.2621553,9.68192773 20.2717038,11.2909146 19.7942708,12.890625 C19.3168379,14.4903354 18.3906319,15.8296077 17.015625,16.9084821 C18.3524372,17.7641412 19.8229086,18.1919643 21.4270833,18.1919643 C22.8402848,18.1919643 24.15798,17.8478457 25.3802083,17.1595982 C26.6024367,16.4713507 27.5668367,15.532 28.2734375,14.3415179 C28.9800383,13.1510357 29.3333333,11.8675664 29.3333333,10.4910714 Z" id=""></path>
        </g>
    </g>
</svg>