<?xml version="1.0" encoding="UTF-8"?>
<svg width="18px" height="15px" viewBox="0 0 18 15" version="1.1" xmlns="http://www.w3.org/2000/svg" xmlns:xlink="http://www.w3.org/1999/xlink">
    <!-- Generator: Sketch 52.6 (67491) - http://www.bohemiancoding.com/sketch -->
    <title></title>
    <desc>Created with Sketch.</desc>
    <g id="Mobile" stroke="none" stroke-width="1" fill="none" fill-rule="evenodd">
        <g id="d-Mobile-Kosik-fixed-panel" transform="translate(-16.000000, -17.000000)" fill="#000000">
            <g id="Group" transform="translate(0.000000, -1.000000)">
                <path d="M33.0312094,20.3437802 L16.4687489,20.3437802 C16.3385411,20.3437802 16.2278638,20.2982072 16.1367184,20.2070618 C16.045573,20.1159163 16,20.0052391 16,19.8750313 L16,18.6250343 C16,18.4948264 16.045573,18.3841492 16.1367184,18.2930038 C16.2278638,18.2018584 16.3385411,18.1562854 16.4687489,18.1562854 L33.0312094,18.1562854 C33.1614172,18.1562854 33.2720944,18.2018584 33.3632399,18.2930038 C33.4543853,18.3841492 33.4999583,18.4948264 33.4999583,18.6250343 L33.4999583,19.8750313 C33.4999583,20.0052391 33.4543853,20.1159163 33.3632399,20.2070618 C33.2720944,20.2982072 33.1614172,20.3437802 33.0312094,20.3437802 Z M33.0312094,26.5937653 L16.4687489,26.5937653 C16.3385411,26.5937653 16.2278638,26.5481923 16.1367184,26.4570468 C16.045573,26.3659014 16,26.2552242 16,26.1250164 L16,24.8750194 C16,24.7448115 16.045573,24.6341343 16.1367184,24.5429889 C16.2278638,24.4518435 16.3385411,24.4062705 16.4687489,24.4062705 L33.0312094,24.4062705 C33.1614172,24.4062705 33.2720944,24.4518435 33.3632399,24.5429889 C33.4543853,24.6341343 33.4999583,24.7448115 33.4999583,24.8750194 L33.4999583,26.1250164 C33.4999583,26.2552242 33.4543853,26.3659014 33.3632399,26.4570468 C33.2720944,26.5481923 33.1614172,26.5937653 33.0312094,26.5937653 Z M33.0312094,32.8437504 L16.4687489,32.8437504 C16.3385411,32.8437504 16.2278638,32.7981774 16.1367184,32.7070319 C16.045573,32.6158865 16,32.5052093 16,32.3750015 L16,31.1250045 C16,30.9947966 16.045573,30.8841194 16.1367184,30.792974 C16.2278638,30.7018286 16.3385411,30.6562556 16.4687489,30.6562556 L33.0312094,30.6562556 C33.1614172,30.6562556 33.2720944,30.7018286 33.3632399,30.792974 C33.4543853,30.8841194 33.4999583,30.9947966 33.4999583,31.1250045 L33.4999583,32.3750015 C33.4999583,32.5052093 33.4543853,32.6158865 33.3632399,32.7070319 C33.2720944,32.7981774 33.1614172,32.8437504 33.0312094,32.8437504 Z" id=""></path>
            </g>
        </g>
    </g>
</svg>