<?xml version="1.0" encoding="UTF-8"?>
<svg width="16px" height="16px" viewBox="0 0 16 16" version="1.1" xmlns="http://www.w3.org/2000/svg" xmlns:xlink="http://www.w3.org/1999/xlink">
    <!-- Generator: Sketch 52.6 (67491) - http://www.bohemiancoding.com/sketch -->
    <title>messenger</title>
    <desc>Created with Sketch.</desc>
    <g id="messenger" stroke="none" stroke-width="1" fill="none" fill-rule="evenodd">
        <path d="M7.99367782,0 C9.43626561,0 10.7706393,0.33333 11.9968389,1 C13.2230385,1.66667 14.1967707,2.56547054 14.9180646,3.69642857 C15.6393585,4.82738661 16,6.05951714 16,7.39285714 C16,9.01191286 15.4830805,10.4642793 14.4492259,11.75 C13.4875007,12.9881014 12.2132339,13.869045 10.6263874,14.3928571 C9.01549767,14.9166693 7.36856799,14.9523832 5.6855489,14.5 L2.98071033,16 L2.98071033,13.1785714 C1.56216567,12.1071375 0.648540446,10.7976268 0.23980724,9.25 C-0.144882836,7.82142143 -0.0667438368,6.38691196 0.474226583,4.94642857 C1.015197,3.50594518 1.93483292,2.33333786 3.23316193,1.42857143 C4.60362033,0.476185714 6.19044309,0 7.99367782,0 Z M8.82316165,9.92857143 L13.2230324,5.35714286 L9.21987131,7.53571429 L7.16419399,5.39285714 L2.80038776,10 L6.76748433,7.78571429 L8.82316165,9.92857143 Z" id="" fill="#FFFFFF"></path>
    </g>
</svg>