<?xml version="1.0" encoding="UTF-8"?>
<svg width="20px" height="21px" viewBox="0 0 20 21" version="1.1" xmlns="http://www.w3.org/2000/svg" xmlns:xlink="http://www.w3.org/1999/xlink">
    <!-- Generator: Sketch 52.6 (67491) - http://www.bohemiancoding.com/sketch -->
    <title></title>
    <desc>Created with Sketch.</desc>
    <g id="Mobile" stroke="none" stroke-width="1" fill="none" fill-rule="evenodd">
        <g id="d-Mobile-menu---rozbalene" transform="translate(-340.000000, -1240.000000)" fill="#000000">
            <g id="Group-4" transform="translate(0.000000, 862.000000)">
                <path d="M345.468737,389.203141 C345.338529,389.203141 345.227852,389.157568 345.136707,389.066423 C345.045561,388.975277 344.999988,388.8646 344.999988,388.734392 L344.999988,388.265643 C344.999988,388.135436 345.045561,388.024758 345.136707,387.933613 C345.227852,387.842468 345.338529,387.796895 345.468737,387.796895 L354.531215,387.796895 C354.661423,387.796895 354.7721,387.842468 354.863246,387.933613 C354.954391,388.024758 354.999964,388.135436 354.999964,388.265643 L354.999964,388.734392 C354.999964,388.8646 354.954391,388.975277 354.863246,389.066423 C354.7721,389.157568 354.661423,389.203141 354.531215,389.203141 L345.468737,389.203141 Z M359.687453,388.500018 C359.687453,390.244806 359.251256,391.859385 358.378862,393.343756 C357.506469,394.828128 356.328086,396.006511 354.843715,396.878904 C353.359343,397.751298 351.744764,398.187495 349.999976,398.187495 C348.255188,398.187495 346.640609,397.751298 345.156238,396.878904 C343.671866,396.006511 342.493483,394.828128 341.62109,393.343756 C340.748696,391.859385 340.312499,390.244806 340.312499,388.500018 C340.312499,386.75523 340.748696,385.140651 341.62109,383.656279 C342.493483,382.171908 343.671866,380.993525 345.156238,380.121132 C346.640609,379.248738 348.255188,378.812541 349.999976,378.812541 C351.744764,378.812541 353.359343,379.248738 354.843715,380.121132 C356.328086,380.993525 357.506469,382.171908 358.378862,383.656279 C359.251256,385.140651 359.687453,386.75523 359.687453,388.500018 Z M358.437456,388.500018 C358.437456,386.963563 358.059853,385.550806 357.304646,384.261747 C356.54944,382.972687 355.520796,381.950554 354.218716,381.195348 C352.916636,380.440141 351.503879,380.062538 349.980445,380.062538 C348.457011,380.062538 347.050764,380.440141 345.761705,381.195348 C344.472646,381.950554 343.450512,382.979198 342.695306,384.281278 C341.9401,385.583358 341.562496,386.996115 341.562496,388.519549 C341.562496,390.042983 341.9401,391.44923 342.695306,392.738289 C343.450512,394.027348 344.479156,395.049482 345.781236,395.804688 C347.083316,396.559894 348.496073,396.937498 350.019507,396.937498 C351.542941,396.937498 352.949188,396.559894 354.238247,395.804688 C355.527307,395.049482 356.54944,394.020838 357.304646,392.718758 C358.059853,391.416678 358.437456,390.010431 358.437456,388.500018 Z" id=""></path>
            </g>
        </g>
    </g>
</svg>