<?xml version="1.0" encoding="UTF-8"?>
<svg width="20px" height="21px" viewBox="0 0 20 21" version="1.1" xmlns="http://www.w3.org/2000/svg" xmlns:xlink="http://www.w3.org/1999/xlink">
    <!-- Generator: Sketch 52.6 (67491) - http://www.bohemiancoding.com/sketch -->
    <title></title>
    <desc>Created with Sketch.</desc>
    <g id="Mobile" stroke="none" stroke-width="1" fill="none" fill-rule="evenodd">
        <g id="d-Mobile-menu" transform="translate(-24.000000, -461.000000)" fill="#000000">
            <path d="M43.9218275,468.726587 C43.9739105,468.908878 43.9999523,469.10419 43.9999523,469.312523 L43.9999523,479.624999 C43.9999523,480.14583 43.8176609,480.588538 43.4530786,480.95312 C43.0884964,481.317703 42.6457887,481.499994 42.1249568,481.499994 L25.8749955,481.499994 C25.3541636,481.499994 24.911456,481.317703 24.5468737,480.95312 C24.1822914,480.588538 24,480.14583 24,479.624999 L24,469.312523 C24,469.10419 24.0390624,468.908878 24.1171872,468.726587 L26.0703076,462.789101 C26.2005154,462.398477 26.4283798,462.085978 26.7538997,461.851603 C27.0794195,461.617229 27.4505124,461.500042 27.8671783,461.500042 L40.132774,461.500042 C40.5494399,461.500042 40.9205328,461.617229 41.2460526,461.851603 C41.5715725,462.085978 41.7994369,462.398477 41.9296448,462.789101 L43.9218275,468.726587 Z M42.0077696,469.000024 L40.132774,463.375037 L34.9374739,463.375037 L34.9374739,469.000024 L42.0077696,469.000024 Z M27.8671783,463.375037 L25.9921828,469.000024 L33.0624784,469.000024 L33.0624784,463.375037 L27.8671783,463.375037 Z M25.8749955,479.624999 L42.1249568,479.624999 L42.1249568,470.875019 L25.8749955,470.875019 L25.8749955,479.624999 Z" id=""></path>
        </g>
    </g>
</svg>