<?xml version="1.0" encoding="UTF-8"?>
<svg width="33px" height="25px" viewBox="0 0 33 25" version="1.1" xmlns="http://www.w3.org/2000/svg" xmlns:xlink="http://www.w3.org/1999/xlink">
    <!-- Generator: Sketch 52.6 (67491) - http://www.bohemiancoding.com/sketch -->
    <title></title>
    <desc>Created with Sketch.</desc>
    <g id="Symbols" stroke="none" stroke-width="1" fill="none" fill-rule="evenodd">
        <g id="" fill="#000000">
            <path d="M10.65625,12.6116071 C10.65625,12.9464302 10.5416678,13.2347458 10.3125,13.4765625 C10.0833322,13.7183792 9.80642523,13.8392857 9.48177083,13.8392857 C9.15711643,13.8392857 8.90885503,13.7648817 8.73697917,13.6160714 C8.56510331,13.4672612 8.47916667,13.2440491 8.47916667,12.9464286 C8.47916667,12.648808 8.60329737,12.3790935 8.8515625,12.1372768 C9.09982763,11.8954601 9.37673458,11.7745536 9.68229167,11.7745536 C9.98784875,11.7745536 10.2265616,11.8489576 10.3984375,11.9977679 C10.5703134,12.1465781 10.65625,12.3511892 10.65625,12.6116071 Z M4.640625,9.93303571 C5.02257135,9.93303571 5.29947831,9.97953823 5.47135417,10.0725446 C5.64323003,10.1655511 5.70052112,10.3794626 5.64322917,10.7142857 C5.58593721,11.0491088 5.45225799,11.2723209 5.2421875,11.3839286 C5.03211701,11.4955363 4.75521005,11.5513393 4.41145833,11.5513393 L3.89583333,11.5513393 L4.18229167,10.0446429 C4.18229167,9.97023772 4.23958276,9.93303571 4.35416667,9.93303571 L4.640625,9.93303571 Z M20.9114583,9.93303571 C21.2170154,9.93303571 21.4461798,9.95163672 21.5989583,9.98883929 C21.8281261,10.100447 21.9427083,10.286457 21.9427083,10.546875 C21.9427083,10.9189007 21.8281261,11.1793147 21.5989583,11.328125 C21.3697905,11.4769353 21.064238,11.5513393 20.6822917,11.5513393 L20.2239583,11.5513393 L20.453125,10.0446429 C20.453125,9.97023772 20.5104161,9.93303571 20.625,9.93303571 L20.9114583,9.93303571 Z M33,2.67857143 L33,22.3214286 C33,23.0654799 32.7326416,23.6979141 32.1979167,24.21875 C31.6631918,24.7395859 31.0138927,25 30.25,25 L2.75,25 C1.98610729,25 1.33680823,24.7395859 0.802083333,24.21875 C0.267358437,23.6979141 0,23.0654799 0,22.3214286 L0,2.67857143 C0,1.93452009 0.267358437,1.30208594 0.802083333,0.78125 C1.33680823,0.260414063 1.98610729,0 2.75,0 L30.25,0 C31.0138927,0 31.6631918,0.260414063 32.1979167,0.78125 C32.7326416,1.30208594 33,1.93452009 33,2.67857143 Z M7.33333333,10.2120536 C7.33333333,9.69121763 7.15191154,9.30059654 6.7890625,9.04017857 C6.42621346,8.7797606 5.9583362,8.64955357 5.38541667,8.64955357 L3.09375,8.64955357 C2.90277682,8.64955357 2.78819464,8.74255859 2.75,8.92857143 L1.83333333,14.6205357 C1.83333333,14.6949408 1.85243036,14.7507439 1.890625,14.7879464 C1.92881964,14.825149 1.9670137,14.84375 2.00520833,14.84375 L3.09375,14.84375 C3.17013927,14.84375 3.23697888,14.8158485 3.29427083,14.7600446 C3.35156279,14.7042408 3.39930536,14.6205363 3.4375,14.5089286 L3.66666667,13.0580357 C3.7048613,12.8348203 3.99131677,12.7418153 4.52604167,12.7790179 L4.69791667,12.7790179 C5.53819865,12.7790179 6.18749771,12.5558058 6.64583333,12.109375 C7.10416896,11.6629442 7.33333333,11.03051 7.33333333,10.2120536 Z M12.1744792,10.7142857 L11.1145833,10.7142857 C10.9618048,10.7142857 10.8663196,10.8630938 10.828125,11.1607143 C10.5607626,10.7886886 10.1024338,10.6026786 9.453125,10.6026786 C8.8038162,10.6026786 8.23090526,10.8537921 7.734375,11.3560268 C7.23784474,11.8582614 6.98958333,12.4627941 6.98958333,13.1696429 C6.98958333,13.6904788 7.16145661,14.1183019 7.50520833,14.453125 C7.84896005,14.7879481 8.28819177,14.9553571 8.82291667,14.9553571 C9.09027911,14.9553571 9.36718607,14.8902536 9.65364583,14.7600446 C9.94009722,14.6298395 10.1788045,14.4717364 10.3697749,14.2857306 C10.3309935,14.4011762 10.3125,14.5203026 10.3125,14.6484375 C10.3125,14.7786465 10.3697911,14.84375 10.484375,14.84375 L11.4583333,14.84375 C11.6111119,14.84375 11.7256941,14.732144 11.8020833,14.5089286 L12.375,10.9375 C12.375,10.9002974 12.355903,10.8537949 12.3177083,10.7979911 C12.2795137,10.7421872 12.2222226,10.7142857 12.1458333,10.7142857 L12.1744792,10.7142857 Z M14.4947917,16.1830357 L18.1614583,10.9933036 L18.1614583,10.9375 C18.1614583,10.7886897 18.1041672,10.7142857 17.9895833,10.7142857 L16.9010417,10.7142857 C16.7864578,10.7142857 16.6909726,10.7700887 16.6145833,10.8816964 L15.125,13.0580357 L14.4947917,10.9375 C14.4184024,10.7886897 14.3038202,10.7142857 14.1510417,10.7142857 L13.1197917,10.7142857 C12.9670131,10.7142857 12.890625,10.7886897 12.890625,10.9375 L14.1510417,14.3973214 L14.09375,14.453125 C13.3298573,15.4947969 12.9479167,16.071428 12.9479167,16.1830357 C12.9479167,16.2946434 13.0052078,16.3504464 13.1197917,16.3504464 L14.265625,16.3504464 C14.3420143,16.3504464 14.4184024,16.2946434 14.4947917,16.1830357 Z M23.6041667,10.2120536 C23.6041667,9.69121763 23.4227449,9.30059654 23.0598958,9.04017857 C22.6970468,8.7797606 22.2291695,8.64955357 21.65625,8.64955357 L19.3645833,8.64955357 C19.1736102,8.64955357 19.059028,8.74255859 19.0208333,8.92857143 L18.1041667,14.6205357 C18.1041667,14.6949408 18.1232637,14.7507439 18.1614583,14.7879464 C18.199653,14.825149 18.237847,14.84375 18.2760417,14.84375 L19.4791667,14.84375 C19.5937506,14.84375 19.6701387,14.787947 19.7083333,14.6763393 L19.9375,13.0580357 C19.9756946,12.8348203 20.2621501,12.7418153 20.796875,12.7790179 L20.96875,12.7790179 C21.809032,12.7790179 22.458331,12.5558058 22.9166667,12.109375 C23.3750023,11.6629442 23.6041667,11.03051 23.6041667,10.2120536 Z M28.4739583,10.7142857 L27.3854167,10.7142857 C27.2326381,10.7142857 27.137153,10.8630938 27.0989583,11.1607143 C26.8697905,10.7886886 26.4114618,10.6026786 25.7239583,10.6026786 C25.0364549,10.6026786 24.4539954,10.8537921 23.9765625,11.3560268 C23.4991296,11.8582614 23.2604167,12.4627941 23.2604167,13.1696429 C23.2604167,13.6904788 23.4227414,14.1183019 23.7473958,14.453125 C24.0720502,14.7879481 24.5208305,14.9553571 25.09375,14.9553571 C25.3611124,14.9553571 25.6380194,14.8902536 25.9244792,14.7600446 C26.2109389,14.6298357 26.4305548,14.4717271 26.5833333,14.2857143 L26.5833333,14.6205357 C26.5833333,14.769346 26.6406244,14.84375 26.7552083,14.84375 L27.7291667,14.84375 C27.8819452,14.84375 27.9965274,14.732144 28.0729167,14.5089286 L28.6458333,10.9375 C28.6458333,10.9002974 28.6267363,10.8537949 28.5885417,10.7979911 C28.550347,10.7421872 28.512153,10.7142857 28.4739583,10.7142857 Z M31.1666667,8.87276786 C31.1666667,8.72395759 31.1093756,8.64955357 30.9947917,8.64955357 L29.90625,8.64955357 C29.7916661,8.64955357 29.734375,8.70535658 29.734375,8.81696429 L28.8177083,14.6763393 C28.8177083,14.787947 28.8749994,14.84375 28.9895833,14.84375 L29.9635417,14.84375 C30.0017363,14.84375 30.0590274,14.8158485 30.1354167,14.7600446 C30.2118059,14.7042408 30.25,14.6205363 30.25,14.5089286 L31.1666667,8.87276786 Z M26.0104167,11.7745536 C26.2777791,11.7745536 26.497395,11.8489576 26.6692708,11.9977679 C26.8411467,12.1465781 26.9270833,12.3697902 26.9270833,12.6674107 C26.9270833,12.9650312 26.8125011,13.2347458 26.5833333,13.4765625 C26.3541655,13.7183792 26.0772586,13.8392857 25.7526042,13.8392857 C25.4279498,13.8392857 25.1796884,13.7648817 25.0078125,13.6160714 C24.8359366,13.4672612 24.75,13.2347486 24.75,12.9185268 C24.75,12.602305 24.8741307,12.3325904 25.1223958,12.109375 C25.370661,11.8861596 25.6666649,11.7745536 26.0104167,11.7745536 Z"></path>
        </g>
    </g>
</svg>