<?xml version="1.0" encoding="UTF-8"?>
<svg width="36px" height="28px" viewBox="0 0 36 28" version="1.1" xmlns="http://www.w3.org/2000/svg" xmlns:xlink="http://www.w3.org/1999/xlink">
    <!-- Generator: Sketch 52.6 (67491) - http://www.bohemiancoding.com/sketch -->
    <title>paypal</title>
    <desc>Created with Sketch.</desc>
    <g id="Symbols" stroke="none" stroke-width="1" fill="none" fill-rule="evenodd">
        <g id="footer" transform="translate(-203.000000, -290.000000)" fill="#FFFFFF">
            <g id="paypal">
                <path d="M214.625,304.125 C214.625,304.500002 214.500001,304.822915 214.25,305.09375 C213.999999,305.364585 213.697918,305.5 213.34375,305.5 C212.989582,305.5 212.718751,305.416668 212.53125,305.25 C212.343749,305.083332 212.25,304.833335 212.25,304.5 C212.25,304.166665 212.385415,303.864585 212.65625,303.59375 C212.927085,303.322915 213.229165,303.1875 213.5625,303.1875 C213.895835,303.1875 214.156249,303.270832 214.34375,303.4375 C214.531251,303.604168 214.625,303.833332 214.625,304.125 Z M208.0625,301.125 C208.479169,301.125 208.781249,301.177083 208.96875,301.28125 C209.156251,301.385417 209.21875,301.624998 209.15625,302 C209.09375,302.375002 208.947918,302.624999 208.71875,302.75 C208.489582,302.875001 208.187502,302.9375 207.8125,302.9375 L207.25,302.9375 L207.5625,301.25 C207.5625,301.166666 207.624999,301.125 207.75,301.125 L208.0625,301.125 Z M225.8125,301.125 C226.145835,301.125 226.395833,301.145833 226.5625,301.1875 C226.812501,301.312501 226.9375,301.520832 226.9375,301.8125 C226.9375,302.229169 226.812501,302.520832 226.5625,302.6875 C226.312499,302.854168 225.979169,302.9375 225.5625,302.9375 L225.0625,302.9375 L225.3125,301.25 C225.3125,301.166666 225.374999,301.125 225.5,301.125 L225.8125,301.125 Z M239,293 L239,315 C239,315.833337 238.708336,316.541664 238.125,317.125 C237.541664,317.708336 236.833337,318 236,318 L206,318 C205.166663,318 204.458336,317.708336 203.875,317.125 C203.291664,316.541664 203,315.833337 203,315 L203,293 C203,292.166663 203.291664,291.458336 203.875,290.875 C204.458336,290.291664 205.166663,290 206,290 L236,290 C236.833337,290 237.541664,290.291664 238.125,290.875 C238.708336,291.458336 239,292.166663 239,293 Z M211,301.4375 C211,300.854164 210.802085,300.416668 210.40625,300.125 C210.010415,299.833332 209.500003,299.6875 208.875,299.6875 L206.375,299.6875 C206.166666,299.6875 206.041667,299.791666 206,300 L205,306.375 C205,306.458334 205.020833,306.520833 205.0625,306.5625 C205.104167,306.604167 205.145833,306.625 205.1875,306.625 L206.375,306.625 C206.458334,306.625 206.53125,306.59375 206.59375,306.53125 C206.65625,306.46875 206.708333,306.375001 206.75,306.25 L207,304.625 C207.041667,304.374999 207.354164,304.270833 207.9375,304.3125 L208.125,304.3125 C209.041671,304.3125 209.749998,304.062502 210.25,303.5625 C210.750002,303.062498 211,302.354171 211,301.4375 Z M214.310525,306.005981 C214.270175,306.129317 214.25,306.262739 214.25,306.40625 C214.25,306.552084 214.312499,306.625 214.4375,306.625 L215.5,306.625 C215.666667,306.625 215.791666,306.500001 215.875,306.25 L216.5,302.25 C216.5,302.208333 216.479167,302.15625 216.4375,302.09375 C216.395833,302.03125 216.333334,302 216.25,302 L216.3125,302 L215.125,302 C214.958333,302 214.854167,302.166665 214.8125,302.5 C214.520832,302.083331 214.020837,301.875 213.3125,301.875 C212.604163,301.875 211.979169,302.156247 211.4375,302.71875 C210.895831,303.281253 210.625,303.958329 210.625,304.75 C210.625,305.333336 210.812498,305.812498 211.1875,306.1875 C211.562502,306.562502 212.041664,306.75 212.625,306.75 C212.916668,306.75 213.218748,306.677084 213.53125,306.53125 C213.843742,306.38542 214.10415,306.208345 214.312482,306.000018 L214.310525,306.005981 Z M218.8125,308.125 L222.8125,302.3125 L222.8125,302.25 C222.8125,302.083332 222.750001,302 222.625,302 L221.4375,302 C221.312499,302 221.208334,302.062499 221.125,302.1875 L219.5,304.625 L218.8125,302.25 C218.729166,302.083332 218.604167,302 218.4375,302 L217.3125,302 C217.145833,302 217.0625,302.083332 217.0625,302.25 L218.4375,306.125 L218.375,306.1875 C217.541663,307.354173 217.125,307.999999 217.125,308.125 C217.125,308.250001 217.187499,308.3125 217.3125,308.3125 L218.5625,308.3125 C218.645834,308.3125 218.729166,308.250001 218.8125,308.125 Z M228.75,301.4375 C228.75,300.854164 228.552085,300.416668 228.15625,300.125 C227.760415,299.833332 227.250003,299.6875 226.625,299.6875 L224.125,299.6875 C223.916666,299.6875 223.791667,299.791666 223.75,300 L222.75,306.375 C222.75,306.458334 222.770833,306.520833 222.8125,306.5625 C222.854167,306.604167 222.895833,306.625 222.9375,306.625 L224.25,306.625 C224.375001,306.625 224.458333,306.562501 224.5,306.4375 L224.75,304.625 C224.791667,304.374999 225.104164,304.270833 225.6875,304.3125 L225.875,304.3125 C226.791671,304.3125 227.499998,304.062502 228,303.5625 C228.500002,303.062498 228.75,302.354171 228.75,301.4375 Z M234.0625,302 L232.875,302 C232.708332,302 232.604167,302.166665 232.5625,302.5 C232.312499,302.083331 231.812504,301.875 231.0625,301.875 C230.312496,301.875 229.677086,302.156247 229.15625,302.71875 C228.635414,303.281253 228.375,303.958329 228.375,304.75 C228.375,305.333336 228.552082,305.812498 228.90625,306.1875 C229.260418,306.562502 229.749997,306.75 230.375,306.75 C230.666668,306.75 230.968748,306.677084 231.28125,306.53125 C231.593752,306.385416 231.833333,306.208334 232,306 L232,306.375 C232,306.541668 232.062499,306.625 232.1875,306.625 L233.25,306.625 C233.416667,306.625 233.541666,306.500001 233.625,306.25 L234.25,302.25 C234.25,302.208333 234.229167,302.15625 234.1875,302.09375 C234.145833,302.03125 234.104167,302 234.0625,302 Z M237,299.9375 C237,299.770832 236.937501,299.6875 236.8125,299.6875 L235.625,299.6875 C235.499999,299.6875 235.4375,299.749999 235.4375,299.875 L234.4375,306.4375 C234.4375,306.562501 234.499999,306.625 234.625,306.625 L235.6875,306.625 C235.729167,306.625 235.791666,306.59375 235.875,306.53125 C235.958334,306.46875 236,306.375001 236,306.25 L237,299.9375 Z M231.375,303.1875 C231.666668,303.1875 231.906249,303.270832 232.09375,303.4375 C232.281251,303.604168 232.375,303.854165 232.375,304.1875 C232.375,304.520835 232.250001,304.822915 232,305.09375 C231.749999,305.364585 231.447918,305.5 231.09375,305.5 C230.739582,305.5 230.468751,305.416668 230.28125,305.25 C230.093749,305.083332 230,304.822918 230,304.46875 C230,304.114582 230.135415,303.812501 230.40625,303.5625 C230.677085,303.312499 230.999998,303.1875 231.375,303.1875 Z"></path>
            </g>
        </g>
    </g>
</svg>