<?xml version="1.0" encoding="UTF-8"?>
<svg width="20px" height="21px" viewBox="0 0 20 21" version="1.1" xmlns="http://www.w3.org/2000/svg" xmlns:xlink="http://www.w3.org/1999/xlink">
    <!-- Generator: Sketch 52.6 (67491) - http://www.bohemiancoding.com/sketch -->
    <title></title>
    <desc>Created with Sketch.</desc>
    <g id="Mobile" stroke="none" stroke-width="1" fill="none" fill-rule="evenodd">
        <g id="d-Mobile-menu" transform="translate(-340.000000, -87.000000)" fill="#000000">
            <path d="M354.999964,97.2656434 L354.999964,97.7343923 C354.999964,97.8646001 354.954391,97.9752774 354.863246,98.0664228 C354.7721,98.1575682 354.661423,98.2031412 354.531215,98.2031412 L350.703099,98.2031412 L350.703099,102.031257 C350.703099,102.161465 350.657526,102.272142 350.566381,102.363288 C350.475236,102.454433 350.364558,102.500006 350.234351,102.500006 L349.765602,102.500006 C349.635394,102.500006 349.524717,102.454433 349.433571,102.363288 C349.342426,102.272142 349.296853,102.161465 349.296853,102.031257 L349.296853,98.2031412 L345.468737,98.2031412 C345.338529,98.2031412 345.227852,98.1575682 345.136707,98.0664228 C345.045561,97.9752774 344.999988,97.8646001 344.999988,97.7343923 L344.999988,97.2656434 C344.999988,97.1354356 345.045561,97.0247584 345.136707,96.933613 C345.227852,96.8424676 345.338529,96.7968946 345.468737,96.7968946 L349.296853,96.7968946 L349.296853,92.9687787 C349.296853,92.8385709 349.342426,92.7278936 349.433571,92.6367482 C349.524717,92.5456028 349.635394,92.5000298 349.765602,92.5000298 L350.234351,92.5000298 C350.364558,92.5000298 350.475236,92.5456028 350.566381,92.6367482 C350.657526,92.7278936 350.703099,92.8385709 350.703099,92.9687787 L350.703099,96.7968946 L354.531215,96.7968946 C354.661423,96.7968946 354.7721,96.8424676 354.863246,96.933613 C354.954391,97.0247584 354.999964,97.1354356 354.999964,97.2656434 Z M359.687453,97.5000179 C359.687453,99.2448056 359.251256,100.859385 358.378862,102.343756 C357.506469,103.828128 356.328086,105.006511 354.843715,105.878904 C353.359343,106.751298 351.744764,107.187495 349.999976,107.187495 C348.255188,107.187495 346.640609,106.751298 345.156238,105.878904 C343.671866,105.006511 342.493483,103.828128 341.62109,102.343756 C340.748696,100.859385 340.312499,99.2448056 340.312499,97.5000179 C340.312499,95.7552302 340.748696,94.1406509 341.62109,92.6562794 C342.493483,91.171908 343.671866,89.9935252 345.156238,89.1211316 C346.640609,88.2487381 348.255188,87.812541 349.999976,87.812541 C351.744764,87.812541 353.359343,88.2487381 354.843715,89.1211316 C356.328086,89.9935252 357.506469,91.171908 358.378862,92.6562794 C359.251256,94.1406509 359.687453,95.7552302 359.687453,97.5000179 Z M358.437456,97.5000179 C358.437456,95.9635634 358.059853,94.5508062 357.304646,93.2617467 C356.54944,91.9726873 355.520796,90.9505541 354.218716,90.1953478 C352.916636,89.4401415 351.503879,89.062538 349.980445,89.062538 C348.457011,89.062538 347.050764,89.4401415 345.761705,90.1953478 C344.472646,90.9505541 343.450512,91.9791979 342.695306,93.2812779 C341.9401,94.583358 341.562496,95.9961152 341.562496,97.5195491 C341.562496,99.042983 341.9401,100.44923 342.695306,101.738289 C343.450512,103.027348 344.479156,104.049482 345.781236,104.804688 C347.083316,105.559894 348.496073,105.937498 350.019507,105.937498 C351.542941,105.937498 352.949188,105.559894 354.238247,104.804688 C355.527307,104.049482 356.54944,103.020838 357.304646,101.718758 C358.059853,100.416678 358.437456,99.0104311 358.437456,97.5000179 Z" id=""></path>
        </g>
    </g>
</svg>