<?xml version="1.0" encoding="UTF-8"?>
<svg width="27px" height="41px" viewBox="0 0 27 41" version="1.1" xmlns="http://www.w3.org/2000/svg" xmlns:xlink="http://www.w3.org/1999/xlink">
    <!-- Generator: Sketch 52.6 (67491) - http://www.bohemiancoding.com/sketch -->
    <title>Shape</title>
    <desc>Created with Sketch.</desc>
    <g id="Desktop" stroke="none" stroke-width="1" fill="none" fill-rule="evenodd">
        <g id="d-Desktop-HD---Kontakt" transform="translate(-579.000000, -865.000000)" fill="#000000" fill-rule="nonzero">
            <path d="M592.5,865 C585.070737,865 579.026289,871.131021 579.026289,878.666693 C579.026289,880.9289 579.583895,883.171889 580.643921,885.16135 L591.763184,905.55957 C591.911211,905.831516 592.193289,906 592.5,906 C592.806711,906 593.088789,905.831516 593.236816,905.55957 L604.360184,885.154623 C605.416105,883.171889 605.973711,880.92882 605.973711,878.666613 C605.973711,871.131021 599.929263,865 592.5,865 Z M592.5,885.5 C588.785368,885.5 585.763184,882.434529 585.763184,878.666693 C585.763184,874.898857 588.785368,871.833387 592.5,871.833387 C596.214632,871.833387 599.236816,874.898857 599.236816,878.666693 C599.236816,882.434529 596.214632,885.5 592.5,885.5 Z" id="Shape"></path>
        </g>
    </g>
</svg>