<?xml version="1.0" encoding="UTF-8"?>
<svg width="20px" height="21px" viewBox="0 0 20 21" version="1.1" xmlns="http://www.w3.org/2000/svg" xmlns:xlink="http://www.w3.org/1999/xlink">
    <!-- Generator: Sketch 52.6 (67491) - http://www.bohemiancoding.com/sketch -->
    <title></title>
    <desc>Created with Sketch.</desc>
    <g id="Mobile" stroke="none" stroke-width="1" fill="none" fill-rule="evenodd">
        <g id="d-Mobile-menu" transform="translate(-24.000000, -519.000000)" fill="#000000">
            <path d="M24.4687489,519.812541 L25.5624963,519.812541 C25.6927041,519.812541 25.8033813,519.858114 25.8945267,519.949259 C25.9856722,520.040405 26.0312452,520.151082 26.0312452,520.28129 L25.9140579,524.148468 C26.7994727,522.820346 27.9583237,521.765661 29.3906121,520.984413 C30.8229006,520.203165 32.3723757,519.812541 34.0390386,519.812541 C35.7838263,519.812541 37.3984056,520.248738 38.882777,521.121132 C40.3671485,521.993525 41.5390207,523.171908 42.3983936,524.656279 C43.2577666,526.140651 43.6874531,527.761741 43.6874531,529.519549 C43.6874531,531.277357 43.251256,532.891937 42.3788624,534.363288 C41.5064689,535.834638 40.3280861,537.006511 38.8437146,537.878904 C37.3593431,538.751298 35.7447639,539.187495 33.9999762,539.187495 C32.7760209,539.187495 31.6041487,538.966141 30.4843595,538.523434 C29.3645703,538.080727 28.3749896,537.468749 27.5156166,536.687501 C27.41145,536.609376 27.359367,536.498699 27.359367,536.35547 C27.359367,536.212241 27.3984294,536.101565 27.4765542,536.02344 L28.2578023,535.242192 C28.3359272,535.164067 28.4400938,535.118494 28.5703016,535.105473 C28.7005094,535.092453 28.8176966,535.125004 28.9218633,535.203129 C29.5989448,535.828128 30.3736829,536.309897 31.2460765,536.648438 C32.11847,536.986979 33.0364366,537.15625 33.9999762,537.15625 C35.380181,537.15625 36.6562198,536.811199 37.828092,536.121096 C38.9999642,535.430993 39.9309514,534.500006 40.6210541,533.328134 C41.3111568,532.156262 41.6562079,530.880223 41.6562079,529.500018 C41.6562079,528.119813 41.3111568,526.843774 40.6210541,525.671902 C39.9309514,524.50003 38.9999642,523.569043 37.828092,522.87894 C36.6562198,522.188837 35.380181,521.843786 33.9999762,521.843786 C32.4635217,521.843786 31.0702956,522.253941 29.8202986,523.074252 C28.5703016,523.894562 27.6328038,524.981799 27.0078053,526.335963 L31.968731,526.218776 C32.0989388,526.218776 32.209616,526.264349 32.3007615,526.355494 C32.3919069,526.44664 32.4374799,526.557317 32.4374799,526.687525 L32.4374799,527.781272 C32.4374799,527.91148 32.3919069,528.022157 32.3007615,528.113302 C32.209616,528.204448 32.0989388,528.250021 31.968731,528.250021 L24.4687489,528.250021 C24.3385411,528.250021 24.2278638,528.204448 24.1367184,528.113302 C24.045573,528.022157 24,527.91148 24,527.781272 L24,520.28129 C24,520.151082 24.045573,520.040405 24.1367184,519.949259 C24.2278638,519.858114 24.3385411,519.812541 24.4687489,519.812541 Z" id=""></path>
        </g>
    </g>
</svg>