<?xml version="1.0" encoding="UTF-8"?>
<svg width="16px" height="14px" viewBox="0 0 16 14" version="1.1" xmlns="http://www.w3.org/2000/svg" xmlns:xlink="http://www.w3.org/1999/xlink">
    <!-- Generator: Sketch 52.6 (67491) - http://www.bohemiancoding.com/sketch -->
    <title></title>
    <desc>Created with Sketch.</desc>
    <g id="Desktop" stroke="none" stroke-width="1" fill="none" fill-rule="evenodd">
        <g id="d-Desktop-HD---Product-Detail" transform="translate(-1019.000000, -558.000000)" fill="#000000">
            <path d="M1031.74997,565.375013 C1031.68747,565.458347 1031.60414,565.500013 1031.49997,565.500013 C1031.3958,565.500013 1031.30205,565.458347 1031.21872,565.375013 L1030.62497,564.781265 C1030.54164,564.697932 1030.49997,564.604182 1030.49997,564.500015 C1030.49997,564.395849 1030.54164,564.312516 1030.62497,564.250016 L1032.21872,562.75002 L1019.375,562.75002 C1019.27083,562.75002 1019.18229,562.713561 1019.10937,562.640645 C1019.03646,562.567729 1019,562.479187 1019,562.375021 L1019,561.625022 C1019,561.520856 1019.03646,561.432314 1019.10937,561.359398 C1019.18229,561.286482 1019.27083,561.250023 1019.375,561.250023 L1032.21872,561.250023 L1030.62497,559.750027 C1030.54164,559.687527 1030.49997,559.604194 1030.49997,559.500027 C1030.49997,559.395861 1030.54164,559.302111 1030.62497,559.218778 L1031.21872,558.62503 C1031.30205,558.541696 1031.3958,558.50003 1031.49997,558.50003 C1031.60414,558.50003 1031.68747,558.541696 1031.74997,558.62503 L1034.87496,561.750022 C1034.9583,561.812522 1034.99996,561.895855 1034.99996,562.000021 C1034.99996,562.104188 1034.9583,562.187521 1034.87496,562.250021 L1031.74997,565.375013 Z M1019.125,568.250007 C1019.04167,568.187507 1019,568.104173 1019,568.000007 C1019,567.895841 1019.04167,567.812508 1019.125,567.750008 L1022.24999,564.625015 C1022.31249,564.541682 1022.39583,564.500015 1022.49999,564.500015 C1022.60416,564.500015 1022.69791,564.541682 1022.78124,564.625015 L1023.37499,565.218764 C1023.45832,565.302097 1023.49999,565.395847 1023.49999,565.500013 C1023.49999,565.604179 1023.45832,565.687513 1023.37499,565.750013 L1021.78124,567.250009 L1034.62496,567.250009 C1034.72913,567.250009 1034.81767,567.286467 1034.89059,567.359384 C1034.9635,567.4323 1034.99996,567.520842 1034.99996,567.625008 L1034.99996,568.375006 C1034.99996,568.479173 1034.9635,568.567714 1034.89059,568.640631 C1034.81767,568.713547 1034.72913,568.750005 1034.62496,568.750005 L1021.78124,568.750005 L1023.37499,570.250002 C1023.45832,570.312502 1023.49999,570.395835 1023.49999,570.500001 C1023.49999,570.604167 1023.45832,570.697917 1023.37499,570.781251 L1022.78124,571.374999 C1022.69791,571.458332 1022.60416,571.499999 1022.49999,571.499999 C1022.39583,571.499999 1022.31249,571.458332 1022.24999,571.374999 L1019.125,568.250007 Z" id=""></path>
        </g>
    </g>
</svg>