<?xml version="1.0" encoding="UTF-8"?>
<svg width="24px" height="24px" viewBox="0 0 24 24" version="1.1" xmlns="http://www.w3.org/2000/svg" xmlns:xlink="http://www.w3.org/1999/xlink">
    <!-- Generator: Sketch 52.6 (67491) - http://www.bohemiancoding.com/sketch -->
    <title> copy</title>
    <desc>Created with Sketch.</desc>
    <g id="Desktop" stroke="none" stroke-width="1" fill="none" fill-rule="evenodd">
        <g id="d-Desktop-HD---menu---search" transform="translate(-475.000000, -100.000000)" fill="#000000">
            <path d="M498.859318,122.593746 C498.953068,122.687496 498.999943,122.812496 498.999943,122.968745 C498.999943,123.124995 498.953068,123.265619 498.859318,123.390619 L498.390569,123.812493 C498.265569,123.937493 498.124945,123.999993 497.968695,123.999993 C497.812446,123.999993 497.687446,123.937493 497.593696,123.812493 L491.546836,117.765633 C491.421836,117.671883 491.359336,117.546883 491.359336,117.390634 L491.359336,116.921885 C490.484338,117.734383 489.476528,118.367194 488.335906,118.820318 C487.195284,119.273442 485.999974,119.500004 484.749977,119.500004 C482.968731,119.500004 481.335923,119.062505 479.851551,118.187507 C478.367179,117.312509 477.187495,116.132824 476.312497,114.648453 C475.437499,113.164081 475,111.531273 475,109.750027 C475,107.968781 475.437499,106.335973 476.312497,104.851601 C477.187495,103.367229 478.367179,102.187545 479.851551,101.312547 C481.335923,100.437549 482.968731,100.00005 484.749977,100.00005 C486.531223,100.00005 488.164031,100.437549 489.648403,101.312547 C491.132774,102.187545 492.312458,103.367229 493.187457,104.851601 C494.062455,106.335973 494.499954,107.968781 494.499954,109.750027 C494.499954,111.000024 494.273392,112.195334 493.820268,113.335956 C493.367143,114.476578 492.734332,115.484388 491.921835,116.359386 L492.390584,116.359386 C492.546833,116.359386 492.687458,116.421886 492.812458,116.546886 L498.859318,122.593746 Z M484.749977,118.000007 C486.249973,118.000007 487.632782,117.632821 488.898404,116.898447 C490.164026,116.164074 491.164024,115.164076 491.898397,113.898454 C492.632771,112.632832 492.999957,111.250023 492.999957,109.750027 C492.999957,108.25003 492.632771,106.867221 491.898397,105.601599 C491.164024,104.335977 490.164026,103.33598 488.898404,102.601606 C487.632782,101.867233 486.249973,101.500046 484.749977,101.500046 C483.24998,101.500046 481.867171,101.867233 480.601549,102.601606 C479.335927,103.33598 478.33593,104.335977 477.601556,105.601599 C476.867183,106.867221 476.499996,108.25003 476.499996,109.750027 C476.499996,111.250023 476.867183,112.632832 477.601556,113.898454 C478.33593,115.164076 479.335927,116.164074 480.601549,116.898447 C481.867171,117.632821 483.24998,118.000007 484.749977,118.000007 Z" id="-copy"></path>
        </g>
    </g>
</svg>