<?xml version="1.0" encoding="UTF-8"?>
<svg width="16px" height="16px" viewBox="0 0 16 16" version="1.1" xmlns="http://www.w3.org/2000/svg" xmlns:xlink="http://www.w3.org/1999/xlink">
    <!-- Generator: Sketch 52.6 (67491) - http://www.bohemiancoding.com/sketch -->
    <title></title>
    <desc>Created with Sketch.</desc>
    <g id="Symbols" stroke="none" stroke-width="1" fill="none" fill-rule="evenodd">
        <g id="menu" transform="translate(-1220.000000, -7.000000)" fill="#000000">
            <path d="M1235.90621,21.6562484 C1235.96871,21.7187483 1235.99996,21.8020816 1235.99996,21.9062478 C1235.99996,22.0104141 1235.96871,22.1041639 1235.90621,22.1874972 L1235.18746,22.8749955 C1235.10413,22.9583288 1235.01038,22.9999952 1234.90621,22.9999952 C1234.80205,22.9999952 1234.71871,22.9583288 1234.65622,22.8749955 L1230.84372,19.0937545 C1230.78122,19.0104213 1230.74997,18.9270884 1230.74997,18.8437551 L1230.74997,18.4062562 C1230.16664,18.906255 1229.51039,19.2968791 1228.78123,19.5781284 C1228.05206,19.8593777 1227.29165,20.0000024 1226.49998,20.0000024 C1225.31249,20.0000024 1224.22395,19.7083366 1223.23437,19.1250045 C1222.24479,18.5416724 1221.45833,17.7552162 1220.875,16.7656351 C1220.29167,15.776054 1220,14.6875151 1220,13.5000179 C1220,12.3125207 1220.29167,11.2239818 1220.875,10.2344007 C1221.45833,9.24481953 1222.24479,8.45836339 1223.23437,7.87503129 C1224.22395,7.29169919 1225.31249,7.00003338 1226.49998,7.00003338 C1227.68748,7.00003338 1228.77602,7.29169919 1229.7656,7.87503129 C1230.75518,8.45836339 1231.54164,9.24481953 1232.12497,10.2344007 C1232.7083,11.2239818 1232.99997,12.3125207 1232.99997,13.5000179 C1232.99997,14.2916825 1232.85934,15.0520977 1232.5781,15.7812624 C1232.29685,16.5104272 1231.90622,17.1666756 1231.40622,17.7500077 L1231.84372,17.7500077 C1231.94789,17.7500077 1232.03122,17.7812577 1232.09372,17.8437575 L1235.90621,21.6562484 Z M1226.49998,18.500006 C1227.39582,18.500006 1228.22915,18.276048 1228.99998,17.8281326 C1229.77081,17.3802171 1230.38018,16.7708436 1230.8281,16.0000119 C1231.27601,15.2291803 1231.49997,14.3958492 1231.49997,13.5000179 C1231.49997,12.6041865 1231.27601,11.7708555 1230.8281,11.0000238 C1230.38018,10.2291922 1229.77081,9.61981864 1228.99998,9.1719032 C1228.22915,8.72398776 1227.39582,8.5000298 1226.49998,8.5000298 C1225.60415,8.5000298 1224.77082,8.72398776 1223.99999,9.1719032 C1223.22916,9.61981864 1222.61979,10.2291922 1222.17187,11.0000238 C1221.72395,11.7708555 1221.5,12.6041865 1221.5,13.5000179 C1221.5,14.3958492 1221.72395,15.2291803 1222.17187,16.0000119 C1222.61979,16.7708436 1223.22916,17.3802171 1223.99999,17.8281326 C1224.77082,18.276048 1225.60415,18.500006 1226.49998,18.500006 Z" id=""></path>
        </g>
    </g>
</svg>