<?xml version="1.0" encoding="UTF-8"?>
<svg width="66px" height="66px" viewBox="0 0 66 66" version="1.1" xmlns="http://www.w3.org/2000/svg" xmlns:xlink="http://www.w3.org/1999/xlink">
    <!-- Generator: Sketch 52.6 (67491) - http://www.bohemiancoding.com/sketch -->
    <title>Group 2</title>
    <desc>Created with Sketch.</desc>
    <g id="Symbols" stroke="none" stroke-width="1" fill="none" fill-rule="evenodd">
        <g id="tick" fill="#000000">
            <g id="Group-2">
                <path d="M47.1593056,20.9688097 C47.2999303,20.7813098 47.4874302,20.6875603 47.7218043,20.6875603 C47.9561784,20.6875603 48.1436783,20.7813098 48.284303,20.9688097 L49.128051,21.7422453 C49.2686756,21.9297452 49.338988,22.1406822 49.338988,22.3750563 C49.338988,22.6094304 49.2686756,22.7969303 49.128051,22.937555 L28.0343512,44.0312547 C27.8468513,44.2187546 27.6476334,44.312504 27.4366964,44.312504 C27.2257594,44.312504 27.0265415,44.2187546 26.8390416,44.0312547 L18.471874,35.6640871 C18.3312494,35.5234625 18.260937,35.3359626 18.260937,35.1015885 C18.260937,34.8672144 18.3312494,34.6562774 18.471874,34.4687775 L19.315622,33.6953418 C19.4562467,33.5078419 19.6437466,33.4140925 19.8781207,33.4140925 C20.1124948,33.4140925 20.2999947,33.5078419 20.4406194,33.6953418 L27.4015403,40.6562627 L47.1593056,20.9688097 Z" id=""></path>
                <path d="M33,66 C14.7746033,66 0,51.2253967 0,33 C0,14.7746033 14.7746033,0 33,0 C51.2253967,0 66,14.7746033 66,33 C66,51.2253967 51.2253967,66 33,66 Z M33,64 C50.1208272,64 64,50.1208272 64,33 C64,15.8791728 50.1208272,2 33,2 C15.8791728,2 2,15.8791728 2,33 C2,50.1208272 15.8791728,64 33,64 Z" id="Oval" fill-rule="nonzero"></path>
            </g>
        </g>
    </g>
</svg>