<?xml version="1.0" encoding="UTF-8"?>
<svg width="18px" height="15px" viewBox="0 0 18 15" version="1.1" xmlns="http://www.w3.org/2000/svg" xmlns:xlink="http://www.w3.org/1999/xlink">
    <!-- Generator: Sketch 52.6 (67491) - http://www.bohemiancoding.com/sketch -->
    <title></title>
    <desc>Created with Sketch.</desc>
    <g id="Desktop" stroke="none" stroke-width="1" fill="none" fill-rule="evenodd">
        <g id="d-Desktop-HD---Product-Detail" transform="translate(-1019.000000, -535.000000)" fill="#000000">
            <path d="M1036.06246,545.812505 C1036.19006,545.812505 1036.29488,545.853521 1036.37691,545.935552 C1036.45894,546.017583 1036.49996,546.1224 1036.49996,546.250004 L1036.49996,546.687503 C1036.49996,546.815107 1036.45894,546.919924 1036.37691,547.001956 C1036.29488,547.083987 1036.19006,547.125002 1036.06246,547.125002 L1034.74996,547.125002 C1034.74996,547.854167 1034.49475,548.473957 1033.98434,548.984373 C1033.47392,549.494788 1032.85413,549.749996 1032.12497,549.749996 C1031.3958,549.749996 1030.77601,549.494788 1030.2656,548.984373 C1029.75518,548.473957 1029.49997,547.854167 1029.49997,547.125002 L1025.99998,547.125002 C1025.99998,547.854167 1025.74478,548.473957 1025.23436,548.984373 C1024.72394,549.494788 1024.10415,549.749996 1023.37499,549.749996 C1022.64582,549.749996 1022.02603,549.494788 1021.51562,548.984373 C1021.0052,548.473957 1020.75,547.854167 1020.75,547.125002 L1020.53125,547.125002 C1020.11198,547.125002 1019.75195,546.974612 1019.45117,546.673831 C1019.15039,546.373051 1019,546.013025 1019,545.593756 L1019,537.281276 C1019,536.862006 1019.15039,536.501981 1019.45117,536.2012 C1019.75195,535.900419 1020.11198,535.750029 1020.53125,535.750029 L1028.84373,535.750029 C1029.263,535.750029 1029.62302,535.900419 1029.9238,536.2012 C1030.22458,536.501981 1030.37497,536.862006 1030.37497,537.281276 L1030.37497,538.375023 L1031.35935,538.375023 C1031.90622,538.375023 1032.37106,538.566429 1032.75387,538.94924 L1035.05074,541.24611 C1035.43355,541.628921 1035.62496,542.093764 1035.62496,542.640638 L1035.62496,545.812505 L1036.06246,545.812505 Z M1023.37499,548.437499 C1023.73957,548.437499 1024.04947,548.309895 1024.30467,548.054687 C1024.55988,547.79948 1024.68749,547.489584 1024.68749,547.125002 C1024.68749,546.76042 1024.55988,546.450524 1024.30467,546.195317 C1024.04947,545.940109 1023.73957,545.812505 1023.37499,545.812505 C1023.01041,545.812505 1022.70051,545.940109 1022.4453,546.195317 C1022.1901,546.450524 1022.06249,546.76042 1022.06249,547.125002 C1022.06249,547.489584 1022.1901,547.79948 1022.4453,548.054687 C1022.70051,548.309895 1023.01041,548.437499 1023.37499,548.437499 Z M1029.06248,545.812505 L1029.06248,537.281276 C1029.06248,537.226588 1029.03969,537.176458 1028.99412,537.130885 C1028.94854,537.085312 1028.89841,537.062526 1028.84373,537.062526 L1020.53125,537.062526 C1020.47656,537.062526 1020.42643,537.085312 1020.38086,537.130885 C1020.33528,537.176458 1020.3125,537.226588 1020.3125,537.281276 L1020.3125,545.593756 C1020.3125,545.648443 1020.33528,545.698573 1020.38086,545.744146 C1020.42643,545.789719 1020.47656,545.812505 1020.53125,545.812505 L1021.10546,545.812505 C1021.34244,545.411464 1021.66145,545.092455 1022.06249,544.855476 C1022.46353,544.618498 1022.90103,544.500008 1023.37499,544.500008 C1023.84895,544.500008 1024.28645,544.618498 1024.68749,544.855476 C1025.08853,545.092455 1025.40754,545.411464 1025.64452,545.812505 L1029.06248,545.812505 Z M1030.37497,539.68752 L1030.37497,541.875015 L1033.82028,541.875015 L1031.82419,539.878926 C1031.69658,539.751322 1031.54164,539.68752 1031.35935,539.68752 L1030.37497,539.68752 Z M1032.12497,548.437499 C1032.48955,548.437499 1032.79945,548.309895 1033.05465,548.054687 C1033.30986,547.79948 1033.43747,547.489584 1033.43747,547.125002 C1033.43747,546.76042 1033.30986,546.450524 1033.05465,546.195317 C1032.79945,545.940109 1032.48955,545.812505 1032.12497,545.812505 C1031.76039,545.812505 1031.45049,545.940109 1031.19528,546.195317 C1030.94008,546.450524 1030.81247,546.76042 1030.81247,547.125002 C1030.81247,547.489584 1030.94008,547.79948 1031.19528,548.054687 C1031.45049,548.309895 1031.76039,548.437499 1032.12497,548.437499 Z M1034.31246,545.675787 L1034.31246,543.187511 L1030.37497,543.187511 L1030.37497,545.1836 C1030.88539,544.727872 1031.46872,544.500008 1032.12497,544.500008 C1032.5807,544.500008 1032.99997,544.604826 1033.38278,544.814461 C1033.76559,545.024096 1034.07548,545.311204 1034.31246,545.675787 Z" id=""></path>
        </g>
    </g>
</svg>