<?xml version="1.0" encoding="UTF-8"?>
<svg width="42px" height="42px" viewBox="0 0 42 42" version="1.1" xmlns="http://www.w3.org/2000/svg" xmlns:xlink="http://www.w3.org/1999/xlink">
    <!-- Generator: Sketch 52.6 (67491) - http://www.bohemiancoding.com/sketch -->
    <title>Group</title>
    <desc>Created with Sketch.</desc>
    <g id="Mobile" stroke="none" stroke-width="1" fill="none" fill-rule="evenodd">
        <g id="d-Mobile-menu" transform="translate(-279.000000, -593.000000)" fill="#000000">
            <g id="Group" transform="translate(280.000000, 594.000000)">
                <path d="M28.9296875,16.4375 C28.9557293,16.5416672 28.96875,16.7109363 28.96875,16.9453125 C28.96875,18.8203219 28.5130254,20.6301996 27.6015625,22.375 C26.6640578,24.2239676 25.3489668,25.695307 23.65625,26.7890625 C21.8072824,28.013027 19.6849078,28.625 17.2890625,28.625 C14.9973844,28.625 12.9010512,28.013027 11,26.7890625 C11.2864598,26.8151043 11.6119773,26.828125 11.9765625,26.828125 C13.8776137,26.828125 15.5833258,26.2421934 17.09375,25.0703125 C16.1822871,25.0703125 15.3815139,24.8033881 14.6914062,24.2695312 C14.0012986,23.7356744 13.526043,23.0651082 13.265625,22.2578125 C13.526043,22.2838543 13.7734363,22.296875 14.0078125,22.296875 C14.3723977,22.296875 14.7369773,22.2578129 15.1015625,22.1796875 C14.1640578,21.9713531 13.3828156,21.4895871 12.7578125,20.734375 C12.1328094,19.9791629 11.8203125,19.1197965 11.8203125,18.15625 L11.8203125,18.078125 C12.393232,18.4166684 13.0052051,18.5989582 13.65625,18.625 C13.1093723,18.234373 12.6666684,17.7395863 12.328125,17.140625 C11.9895816,16.5416637 11.8203125,15.8841182 11.8203125,15.1679688 C11.8203125,14.4518193 12.015623,13.7682324 12.40625,13.1171875 C13.4218801,14.3932355 14.6653572,15.4088504 16.1367188,16.1640625 C17.6080803,16.9192746 19.177075,17.3359371 20.84375,17.4140625 C20.7916664,17.1015609 20.765625,16.7890641 20.765625,16.4765625 C20.765625,15.7473922 20.9479148,15.0638053 21.3125,14.4257812 C21.6770852,13.7877572 22.1718719,13.2864602 22.796875,12.921875 C23.4218781,12.5572898 24.0989547,12.375 24.828125,12.375 C25.4270863,12.375 25.9804662,12.4921863 26.4882812,12.7265625 C26.9960963,12.9609387 27.4453105,13.2734355 27.8359375,13.6640625 C28.7734422,13.4817699 29.6458293,13.1562523 30.453125,12.6875 C30.1406234,13.6510465 29.5416711,14.4062473 28.65625,14.953125 C29.4375039,14.8489578 30.2187461,14.6276059 31,14.2890625 C30.4270805,15.1224 29.7369832,15.8385387 28.9296875,16.4375 Z" id=""></path>
                <path d="M20,41 C8.40202025,41 -1,31.5979797 -1,20 C-1,8.40202025 8.40202025,-1 20,-1 C31.5979797,-1 41,8.40202025 41,20 C41,31.5979797 31.5979797,41 20,41 Z M20,39 C30.4934102,39 39,30.4934102 39,20 C39,9.50658975 30.4934102,1 20,1 C9.50658975,1 1,9.50658975 1,20 C1,30.4934102 9.50658975,39 20,39 Z" id="Oval-Copy-2" fill-rule="nonzero"></path>
            </g>
        </g>
    </g>
</svg>