<?xml version="1.0" encoding="UTF-8"?>
<svg width="18px" height="21px" viewBox="0 0 18 21" version="1.1" xmlns="http://www.w3.org/2000/svg" xmlns:xlink="http://www.w3.org/1999/xlink">
    <!-- Generator: Sketch 52.6 (67491) - http://www.bohemiancoding.com/sketch -->
    <title> copy</title>
    <desc>Created with Sketch.</desc>
    <g id="Mobile" stroke="none" stroke-width="1" fill="none" fill-rule="evenodd">
        <g id="d-Mobile-menu" transform="translate(-25.000000, -404.000000)" fill="#000000">
            <path d="M37.5155958,416.375013 C38.4530935,416.375013 39.3254871,416.609388 40.132777,417.078137 C40.940067,417.546886 41.5780861,418.184905 42.046835,418.992195 C42.5155838,419.799485 42.7499583,420.671878 42.7499583,421.609376 L42.7499583,422.624999 C42.7499583,423.14583 42.5676668,423.588538 42.2030846,423.95312 C41.8385023,424.317703 41.3957946,424.499994 40.8749627,424.499994 L27.1249955,424.499994 C26.6041636,424.499994 26.161456,424.317703 25.7968737,423.95312 C25.4322914,423.588538 25.25,423.14583 25.25,422.624999 L25.25,421.609376 C25.25,420.671878 25.4843744,419.799485 25.9531233,418.992195 C26.4218722,418.184905 27.0598913,417.546886 27.8671813,417.078137 C28.6744712,416.609388 29.5468648,416.375013 30.4843625,416.375013 C30.8229036,416.375013 31.2656107,416.466159 31.8124844,416.64845 C32.1770666,416.752617 32.4765453,416.830742 32.7109197,416.882825 C33.1015438,416.96095 33.5312303,417.000012 33.9999791,417.000012 C34.468728,417.000012 34.8984145,416.96095 35.2890386,416.882825 C35.523413,416.830742 35.8228917,416.752617 36.1874739,416.64845 C36.7343476,416.466159 37.1770547,416.375013 37.5155958,416.375013 Z M40.8749627,422.624999 L40.8749627,421.609376 C40.8749627,420.69792 40.5429323,419.910161 39.8788714,419.2461 C39.2148105,418.582039 38.4270517,418.250009 37.5155958,418.250009 C37.3593461,418.250009 37.0989299,418.302092 36.7343476,418.406259 C35.7968499,418.718758 34.8919039,418.875007 34.0195103,418.875007 C33.1471168,418.875007 32.2291502,418.718758 31.2656107,418.406259 C30.8749866,418.302092 30.6145703,418.250009 30.4843625,418.250009 C29.5729066,418.250009 28.7851478,418.582039 28.1210869,419.2461 C27.457026,419.910161 27.1249955,420.69792 27.1249955,421.609376 L27.1249955,422.624999 L40.8749627,422.624999 Z M33.9999791,415.750015 C32.9843566,415.750015 32.0468588,415.496109 31.1874858,414.988298 C30.3281129,414.480487 29.6445208,413.796895 29.1367095,412.937522 C28.6288982,412.078149 28.3749925,411.140651 28.3749925,410.125028 C28.3749925,409.109406 28.6288982,408.171908 29.1367095,407.312535 C29.6445208,406.453162 30.3281129,405.76957 31.1874858,405.261759 C32.0468588,404.753947 32.9843566,404.500042 33.9999791,404.500042 C35.0156017,404.500042 35.9530995,404.753947 36.8124724,405.261759 C37.6718454,405.76957 38.3554375,406.453162 38.8632488,407.312535 C39.3710601,408.171908 39.6249657,409.109406 39.6249657,410.125028 C39.6249657,411.140651 39.3710601,412.078149 38.8632488,412.937522 C38.3554375,413.796895 37.6718454,414.480487 36.8124724,414.988298 C35.9530995,415.496109 35.0156017,415.750015 33.9999791,415.750015 Z M33.9999791,406.375037 C32.9583148,406.375037 32.0729006,406.73962 31.3437355,407.468785 C30.6145703,408.19795 30.2499881,409.083364 30.2499881,410.125028 C30.2499881,411.166693 30.6145703,412.052107 31.3437355,412.781272 C32.0729006,413.510437 32.9583148,413.875019 33.9999791,413.875019 C35.0416435,413.875019 35.9270577,413.510437 36.6562228,412.781272 C37.3853879,412.052107 37.7499702,411.166693 37.7499702,410.125028 C37.7499702,409.083364 37.3853879,408.19795 36.6562228,407.468785 C35.9270577,406.73962 35.0416435,406.375037 33.9999791,406.375037 Z" id="-copy"></path>
        </g>
    </g>
</svg>