<?xml version="1.0" encoding="UTF-8"?>
<svg width="14px" height="16px" viewBox="0 0 14 16" version="1.1" xmlns="http://www.w3.org/2000/svg" xmlns:xlink="http://www.w3.org/1999/xlink">
    <!-- Generator: Sketch 52.6 (67491) - http://www.bohemiancoding.com/sketch -->
    <title></title>
    <desc>Created with Sketch.</desc>
    <g id="Symbols" stroke="none" stroke-width="1" fill="none" fill-rule="evenodd">
        <g id="menu" transform="translate(-1259.000000, -7.000000)" fill="#000000">
            <path d="M1268.81248,16.5000107 C1269.56247,16.5000107 1270.26039,16.6875103 1270.90622,17.0625094 C1271.55205,17.4375085 1272.06247,17.9479238 1272.43747,18.5937557 C1272.81247,19.2395877 1272.99997,19.9375025 1272.99997,20.6875007 L1272.99997,21.4999988 C1272.99997,21.9166643 1272.85413,22.2708305 1272.56247,22.5624963 C1272.2708,22.8541621 1271.91664,22.9999952 1271.49997,22.9999952 L1260.5,22.9999952 C1260.08333,22.9999952 1259.72916,22.8541621 1259.4375,22.5624963 C1259.14583,22.2708305 1259,21.9166643 1259,21.4999988 L1259,20.6875007 C1259,19.9375025 1259.1875,19.2395877 1259.5625,18.5937557 C1259.9375,17.9479238 1260.44791,17.4375085 1261.09375,17.0625094 C1261.73958,16.6875103 1262.43749,16.5000107 1263.18749,16.5000107 C1263.45832,16.5000107 1263.81249,16.5729271 1264.24999,16.7187602 C1264.54165,16.8020935 1264.78124,16.8645934 1264.96874,16.9062598 C1265.28124,16.9687596 1265.62498,17.0000095 1265.99998,17.0000095 C1266.37498,17.0000095 1266.71873,16.9687596 1267.03123,16.9062598 C1267.21873,16.8645934 1267.45831,16.8020935 1267.74998,16.7187602 C1268.18748,16.5729271 1268.54164,16.5000107 1268.81248,16.5000107 Z M1271.49997,21.4999988 L1271.49997,20.6875007 C1271.49997,19.958336 1271.23435,19.328129 1270.7031,18.7968803 C1270.17185,18.2656315 1269.54164,18.0000072 1268.81248,18.0000072 C1268.68748,18.0000072 1268.47914,18.0416736 1268.18748,18.1250069 C1267.43748,18.3750063 1266.71352,18.500006 1266.01561,18.500006 C1265.31769,18.500006 1264.58332,18.3750063 1263.81249,18.1250069 C1263.49999,18.0416736 1263.29166,18.0000072 1263.18749,18.0000072 C1262.45833,18.0000072 1261.82812,18.2656315 1261.29687,18.7968803 C1260.76562,19.328129 1260.5,19.958336 1260.5,20.6875007 L1260.5,21.4999988 L1271.49997,21.4999988 Z M1265.99998,16.0000119 C1265.18749,16.0000119 1264.43749,15.7968874 1263.74999,15.3906384 C1263.06249,14.9843893 1262.51562,14.4375156 1262.10937,13.7500173 C1261.70312,13.0625189 1261.49999,12.3125207 1261.49999,11.5000226 C1261.49999,10.6875246 1261.70312,9.93752638 1262.10937,9.25002801 C1262.51562,8.56252965 1263.06249,8.01565596 1263.74999,7.60940693 C1264.43749,7.20315789 1265.18749,7.00003338 1265.99998,7.00003338 C1266.81248,7.00003338 1267.56248,7.20315789 1268.24998,7.60940693 C1268.93748,8.01565596 1269.48435,8.56252965 1269.8906,9.25002801 C1270.29685,9.93752638 1270.49997,10.6875246 1270.49997,11.5000226 C1270.49997,12.3125207 1270.29685,13.0625189 1269.8906,13.7500173 C1269.48435,14.4375156 1268.93748,14.9843893 1268.24998,15.3906384 C1267.56248,15.7968874 1266.81248,16.0000119 1265.99998,16.0000119 Z M1265.99998,8.5000298 C1265.16665,8.5000298 1264.45832,8.79169561 1263.87499,9.37502772 C1263.29166,9.95835982 1262.99999,10.6666911 1262.99999,11.5000226 C1262.99999,12.3333542 1263.29166,13.0416855 1263.87499,13.6250176 C1264.45832,14.2083497 1265.16665,14.5000155 1265.99998,14.5000155 C1266.83331,14.5000155 1267.54165,14.2083497 1268.12498,13.6250176 C1268.70831,13.0416855 1268.99998,12.3333542 1268.99998,11.5000226 C1268.99998,10.6666911 1268.70831,9.95835982 1268.12498,9.37502772 C1267.54165,8.79169561 1266.83331,8.5000298 1265.99998,8.5000298 Z" id=""></path>
        </g>
    </g>
</svg>