<?xml version="1.0" encoding="UTF-8"?>
<svg width="33px" height="25px" viewBox="0 0 33 25" version="1.1" xmlns="http://www.w3.org/2000/svg" xmlns:xlink="http://www.w3.org/1999/xlink">
    <!-- Generator: Sketch 52.6 (67491) - http://www.bohemiancoding.com/sketch -->
    <title></title>
    <desc>Created with Sketch.</desc>
    <g id="Symbols" stroke="none" stroke-width="1" fill="none" fill-rule="evenodd">
        <g id="visa-2" fill="#000000">
            <path d="M26.9270833,11.1049107 C27.1180565,11.9605698 27.2899298,12.797615 27.4427083,13.6160714 L25.5520833,13.6160714 L26.46875,11.2165179 L26.5833333,10.9375 L26.7552083,10.3794643 L26.9270833,11.1049107 Z M33,2.67857143 L33,22.3214286 C33,23.0654799 32.7326416,23.6979141 32.1979167,24.21875 C31.6631918,24.7395859 31.0138927,25 30.25,25 L2.75,25 C1.98610729,25 1.33680823,24.7395859 0.802083333,24.21875 C0.267358438,23.6979141 0,23.0654799 0,22.3214286 L0,2.67857143 C0,1.93452009 0.267358438,1.30208594 0.802083333,0.78125 C1.33680823,0.260414063 1.98610729,0 2.75,0 L30.25,0 C31.0138927,0 31.6631918,0.260414063 32.1979167,0.78125 C32.7326416,1.30208594 33,1.93452009 33,2.67857143 Z M8.765625,16.6852679 L12.375,8.03571429 L9.91145833,8.03571429 L7.67708333,13.9508929 L6.64583333,8.76116071 C6.53124943,8.31472991 6.16840583,8.07291685 5.55729167,8.03571429 L1.890625,8.03571429 L1.83333333,8.203125 C2.71180995,8.4263404 3.51388526,8.74255748 4.23958333,9.15178571 L6.30208333,16.6852679 L8.765625,16.6852679 Z M14.1510417,16.6852679 L15.5833333,8.03571429 L13.2916667,8.03571429 L11.859375,16.6852679 L14.1510417,16.6852679 Z M22.171875,13.8950893 C22.171875,12.9278225 21.5225759,12.1279794 20.2239583,11.4955357 C19.7656227,11.2723203 19.4314247,11.0863103 19.2213542,10.9375 C19.0112837,10.7886897 18.9157985,10.6212807 18.9348958,10.4352679 C18.9539932,10.249255 19.0685753,10.081846 19.2786458,9.93303571 C19.4887163,9.78422545 19.8038173,9.70982143 20.2239583,9.70982143 C20.8350725,9.67261886 21.4079834,9.78422489 21.9427083,10.0446429 L22.171875,10.1004464 L22.515625,8.25892857 C21.8663162,7.9985106 21.1788231,7.86830357 20.453125,7.86830357 C19.3072859,7.86830357 18.3715314,8.13801814 17.6458333,8.67745536 C16.9201353,9.21689258 16.5477432,9.92373075 16.5286458,10.7979911 C16.5095485,11.6722514 17.1874931,12.4441931 18.5625,13.1138393 C18.982641,13.2998521 19.2881935,13.4765617 19.4791667,13.6439732 C19.6701398,13.8113848 19.765625,13.9880943 19.765625,14.1741071 C19.765625,14.4345251 19.6223973,14.6391362 19.3359375,14.7879464 C19.0494777,14.9367567 18.7057312,15.0111607 18.3046875,15.0111607 C17.9036438,15.0111607 17.5503487,14.9832592 17.2447917,14.9274554 C16.9392346,14.8716515 16.595488,14.750745 16.2135417,14.5647321 L15.9270833,14.3973214 L15.5833333,16.3504464 C16.2326421,16.648067 17.0920085,16.815476 18.1614583,16.8526786 C19.345492,16.8526786 20.3098921,16.582964 21.0546875,16.0435268 C21.7994829,15.5040896 22.171875,14.7879509 22.171875,13.8950893 Z M30.25,16.6852679 L28.4166667,8.03571429 L26.640625,8.03571429 C26.0295108,8.03571429 25.6284732,8.27752734 25.4375,8.76116071 L22,16.6852679 L24.40625,16.6852679 L24.8645833,15.4017857 L27.84375,15.4017857 L28.1302083,16.6852679 L30.25,16.6852679 Z" id=""></path>
        </g>
    </g>
</svg>