<?xml version="1.0" encoding="UTF-8"?>
<svg width="36px" height="28px" viewBox="0 0 36 28" version="1.1" xmlns="http://www.w3.org/2000/svg" xmlns:xlink="http://www.w3.org/1999/xlink">
    <!-- Generator: Sketch 52.6 (67491) - http://www.bohemiancoding.com/sketch -->
    <title>visa</title>
    <desc>Created with Sketch.</desc>
    <g id="Symbols" stroke="none" stroke-width="1" fill="none" fill-rule="evenodd">
        <g id="visa" fill="#FFFFFF">
            <path d="M29.375,12.4375 C29.5833344,13.3958381 29.7708325,14.3333288 29.9375,15.25 L27.875,15.25 L28.875,12.5625 L29,12.25 L29.1875,11.625 L29.375,12.4375 Z M36,3 L36,25 C36,25.8333375 35.7083363,26.5416637 35.125,27.125 C34.5416637,27.7083363 33.8333375,28 33,28 L3,28 C2.1666625,28 1.45833625,27.7083363 0.875,27.125 C0.29166375,26.5416637 0,25.8333375 0,25 L0,3 C0,2.1666625 0.29166375,1.45833625 0.875,0.875 C1.45833625,0.29166375 2.1666625,0 3,0 L33,0 C33.8333375,0 34.5416637,0.29166375 35.125,0.875 C35.7083363,1.45833625 36,2.1666625 36,3 Z M9.5625,18.6875 L13.5,9 L10.8125,9 L8.375,15.625 L7.25,9.8125 C7.12499938,9.3124975 6.72917,9.04166687 6.0625,9 L2.0625,9 L2,9.1875 C2.95833812,9.43750125 3.83332938,9.79166437 4.625,10.25 L6.875,18.6875 L9.5625,18.6875 Z M15.4375,18.6875 L17,9 L14.5,9 L12.9375,18.6875 L15.4375,18.6875 Z M24.1875,15.5625 C24.1875,14.4791613 23.4791738,13.5833369 22.0625,12.875 C21.5624975,12.6249987 21.1979178,12.4166675 20.96875,12.25 C20.7395822,12.0833325 20.6354166,11.8958344 20.65625,11.6875 C20.6770834,11.4791656 20.8020822,11.2916675 21.03125,11.125 C21.2604178,10.9583325 21.6041644,10.875 22.0625,10.875 C22.72917,10.8333331 23.3541637,10.9583319 23.9375,11.25 L24.1875,11.3125 L24.5625,9.25 C23.8541631,8.95833187 23.1041706,8.8125 22.3125,8.8125 C21.0624937,8.8125 20.0416706,9.11458031 19.25,9.71875 C18.4583294,10.3229197 18.0520834,11.1145784 18.03125,12.09375 C18.0104166,13.0729216 18.7499925,13.9374962 20.25,14.6875 C20.7083356,14.8958344 21.0416656,15.0937491 21.25,15.28125 C21.4583344,15.4687509 21.5625,15.6666656 21.5625,15.875 C21.5625,16.1666681 21.4062516,16.3958325 21.09375,16.5625 C20.7812484,16.7291675 20.4062522,16.8125 19.96875,16.8125 C19.5312478,16.8125 19.145835,16.7812503 18.8125,16.71875 C18.479165,16.6562497 18.1041687,16.5208344 17.6875,16.3125 L17.375,16.125 L17,18.3125 C17.7083369,18.645835 18.6458275,18.8333331 19.8125,18.875 C21.1041731,18.875 22.1562459,18.5729197 22.96875,17.96875 C23.7812541,17.3645803 24.1875,16.562505 24.1875,15.5625 Z M33,18.6875 L31,9 L29.0625,9 C28.39583,9 27.9583344,9.27083063 27.75,9.8125 L24,18.6875 L26.625,18.6875 L27.125,17.25 L30.375,17.25 L30.6875,18.6875 L33,18.6875 Z"></path>
        </g>
    </g>
</svg>