<?xml version="1.0" encoding="UTF-8"?>
<svg width="40px" height="40px" viewBox="0 0 40 40" version="1.1" xmlns="http://www.w3.org/2000/svg" xmlns:xlink="http://www.w3.org/1999/xlink">
    <!-- Generator: Sketch 52.6 (67491) - http://www.bohemiancoding.com/sketch -->
    <title>Group 3</title>
    <desc>Created with Sketch.</desc>
    <g id="Mobile" stroke="none" stroke-width="1" fill="none" fill-rule="evenodd">
        <g id="d-Mobile-Product-Detail" transform="translate(-319.000000, -443.000000)">
            <g id="Group-3" transform="translate(319.000000, 443.000000)">
                <circle id="Oval" fill="#FFFFFF" cx="20" cy="20" r="20"></circle>
                <path d="M19.4882634,22.3242299 L16.2187399,25.5937534 L17.3788934,26.6835945 C17.5429557,26.8476568 17.6249866,27.0468747 17.6249866,27.2812493 C17.6249866,27.5156239 17.5429557,27.7148419 17.3788934,27.8789042 C17.2148311,28.0429664 17.0156132,28.1249973 16.7812386,28.1249973 L12.843748,28.1249973 C12.6093734,28.1249973 12.4101555,28.0429664 12.2460932,27.8789042 C12.0820309,27.7148419 12,27.5156239 12,27.2812493 L12,23.3437587 C12,23.1093841 12.0820309,22.9101662 12.2460932,22.7461039 C12.4101555,22.5820416 12.6093734,22.5000107 12.843748,22.5000107 C13.0781226,22.5000107 13.2773405,22.5820416 13.4414028,22.7461039 L14.531244,23.9062574 L17.8007674,20.6367339 C17.8945174,20.542984 18.023423,20.4961093 18.1874852,20.4961093 C18.3515475,20.4961093 18.4804531,20.542984 18.5742031,20.6367339 L19.4882634,21.5507942 C19.5820134,21.6445442 19.6288881,21.7734498 19.6288881,21.9375121 C19.6288881,22.1015744 19.5820134,22.2304799 19.4882634,22.3242299 Z M20.2616991,18.1758023 L23.5312225,14.9062788 L22.371069,13.8164377 C22.2070067,13.6523754 22.1249759,13.4531575 22.1249759,13.2187829 C22.1249759,12.9844082 22.2070067,12.7851903 22.371069,12.621128 C22.5351313,12.4570657 22.7343492,12.3750349 22.9687238,12.3750349 L26.9062145,12.3750349 C27.1405891,12.3750349 27.339807,12.4570657 27.5038693,12.621128 C27.6679316,12.7851903 27.7499624,12.9844082 27.7499624,13.2187829 L27.7499624,17.1562735 C27.7499624,17.3906481 27.6679316,17.589866 27.5038693,17.7539283 C27.339807,17.9179906 27.1405891,18.0000215 26.9062145,18.0000215 C26.6718398,18.0000215 26.4726219,17.9179906 26.3085596,17.7539283 L25.2187185,16.5937748 L21.949195,19.8632983 C21.8554451,19.9570482 21.7265395,20.0039229 21.5624772,20.0039229 C21.3984149,20.0039229 21.2695093,19.9570482 21.1757594,19.8632983 L20.2616991,18.9492379 C20.1679491,18.855488 20.1210744,18.7265824 20.1210744,18.5625201 C20.1210744,18.3984578 20.1679491,18.2695522 20.2616991,18.1758023 Z" id="ï¤" fill="#000000"></path>
            </g>
        </g>
    </g>
</svg>