<?xml version="1.0" standalone="no"?>
<!DOCTYPE svg PUBLIC "-//W3C//DTD SVG 1.1//EN" "http://www.w3.org/Graphics/SVG/1.1/DTD/svg11.dtd" >
<svg>
<metadata>
Created by FontForge 20120731 at Tue Jun 19 10:45:45 2018
 By www
Copyright (c) 2014 by Andriy Konstantynov. All rights reserved.
</metadata>
<defs>
<font id="AngleciaProDisplayW01-Rg" horiz-adv-x="262" >
  <font-face 
    font-family="AngleciaProDisplayW01-Rg"
    font-weight="400"
    font-stretch="normal"
    units-per-em="1000"
    panose-1="2 5 0 3 8 0 0 0 0 0"
    ascent="800"
    descent="-200"
    x-height="500"
    cap-height="700"
    bbox="-160.469 -231 1181 889"
    underline-thickness="50"
    underline-position="-125"
    unicode-range="U+0020-2122"
  />
<missing-glyph horiz-adv-x="218" 
 />
    <glyph glyph-name=".notdef" horiz-adv-x="218" 
 />
    <glyph glyph-name=".null" horiz-adv-x="0" 
 />
    <glyph glyph-name="nonmarkingreturn" horiz-adv-x="333" 
 />
    <glyph glyph-name="space" unicode=" " horiz-adv-x="218" 
 />
    <glyph glyph-name="exclam" unicode="!" horiz-adv-x="212" 
d="M94 196q-7 95 -13.5 163t-12 115t-10.5 76t-8 46.5t-5 26.5t-2 17q0 27 18 45.5t45 18.5t45 -18.5t18 -45.5q0 -8 -2 -17t-5 -26.5t-8 -46.5t-10.5 -76t-12 -115t-13.5 -163h-24zM45 58q0 26 17.5 44t43.5 18t43.5 -18t17.5 -44t-17.5 -44t-43.5 -18t-43.5 18t-17.5 44z
" />
    <glyph glyph-name="quotedbl" unicode="&#x22;" horiz-adv-x="289" 
d="M74 499q-3 41 -8 68.5t-9.5 46t-7.5 30t-3 20.5q0 17 11 28.5t28 11.5t28 -11.5t11 -28.5q0 -9 -3.5 -20.5t-8 -30t-9 -46t-7.5 -68.5h-22zM199 499q-3 41 -8 68.5t-9.5 46t-8 30t-3.5 20.5q0 17 11 28.5t28 11.5t28.5 -11.5t11.5 -28.5q0 -9 -3.5 -20.5t-8 -30t-9.5 -46
t-8 -68.5h-21z" />
    <glyph glyph-name="numbersign" unicode="#" horiz-adv-x="566" 
d="M70 480h124l65 220h33l-65 -220h190l65 220h33l-65 -220h82v-30h-91l-60 -200h116v-31h-125l-65 -219h-33l65 219h-190l-65 -219h-33l65 219h-82v31h91l60 200h-115v30zM158 250h190l60 200h-190z" />
    <glyph glyph-name="dollar" unicode="$" horiz-adv-x="589" 
d="M275 -50v44q-98 3 -176 47h-49v122h18q11 -49 35 -79t53.5 -46.5t61 -22.5t57.5 -6l4 298q-42 12 -82 26t-71 35.5t-50 55t-19 84.5q0 41 13 76.5t41 62.5t71 42.5t102 16.5l1 44h24l-1 -45q45 -2 83 -14t73 -32h49v-123h-18q-10 48 -32 77.5t-49 46.5t-55.5 23.5
t-50.5 7.5l-4 -278h2q44 -14 86.5 -30t75.5 -40t53 -59t20 -87q0 -42 -14 -78.5t-43.5 -63.5t-75.5 -43.5t-110 -17.5v-44h-23zM456 161q0 33 -10.5 54.5t-30 37t-48.5 26t-65 21.5l-4 -290q75 5 116.5 44t41.5 107zM142 550q0 -30 10 -50t28 -34.5t43.5 -25t57.5 -20.5
l3 270q-66 -5 -104 -43.5t-38 -96.5z" />
    <glyph glyph-name="percent" unicode="%" horiz-adv-x="733" 
d="M44 525q0 84 41 132.5t106 48.5t105.5 -48.5t40.5 -132.5q0 -85 -40.5 -133t-105.5 -48t-106 48t-41 133zM114 525q0 -83 21.5 -124.5t55.5 -41.5t55.5 41.5t21.5 124.5t-21.5 124.5t-55.5 41.5t-55.5 -41.5t-21.5 -124.5zM139 0l416 700h39l-416 -700h-39zM395 175
q0 84 41 132.5t106 48.5t105.5 -48.5t40.5 -132.5q0 -85 -40.5 -133t-105.5 -48t-106 48t-41 133zM465 175q0 -83 21.5 -124.5t55.5 -41.5t55.5 41.5t21.5 124.5t-21.5 124.5t-55.5 41.5t-55.5 -41.5t-21.5 -124.5z" />
    <glyph glyph-name="ampersand" unicode="&#x26;" horiz-adv-x="719" 
d="M610 382q0 -66 -11.5 -125.5t-40.5 -110.5l97 -120l53 -16v-10h-164l-60 71q-35 -35 -82 -55.5t-114 -20.5q-56 0 -101 14.5t-76.5 41.5t-48 64t-16.5 82q0 44 14.5 76t39 55.5t56.5 40.5t66 32q-34 44 -49 82.5t-15 77.5q0 65 40 104.5t126 39.5q40 0 68.5 -9.5
t46.5 -26t26.5 -39t8.5 -47.5q0 -30 -11 -55t-29.5 -45.5t-43.5 -37t-52 -29.5l206 -252q24 48 33.5 99t9.5 119l-62 18v9h147v-9zM314 22q49 0 86.5 15.5t70.5 51.5l-216 265q-21 -12 -40.5 -27t-34 -35t-23 -46t-8.5 -61q0 -82 42.5 -122.5t122.5 -40.5zM255 589
q0 -36 14.5 -69.5t47.5 -76.5q26 12 50 26.5t42 32t29 38.5t11 48q0 45 -30.5 72t-76.5 27q-41 0 -64 -23.5t-23 -74.5z" />
    <glyph glyph-name="quotesingle" unicode="'" horiz-adv-x="170" 
d="M74 499q-3 41 -8 68.5t-9.5 46t-7.5 30t-3 20.5q0 17 11 28.5t28 11.5t28 -11.5t11 -28.5q0 -9 -3.5 -20.5t-8 -30t-9 -46t-7.5 -68.5h-22z" />
    <glyph glyph-name="parenleft" unicode="(" horiz-adv-x="268" 
d="M48 275q0 82 12 150t34.5 126t56 108t76.5 96l12 -11q-52 -101 -74 -214t-22 -255t22 -255t74 -214l-12 -11q-43 46 -76.5 96t-56 108t-34.5 126t-12 150z" />
    <glyph glyph-name="parenright" unicode=")" horiz-adv-x="268" 
d="M220 275q0 -82 -12 -150t-34.5 -126t-56 -108t-76.5 -96l-11 11q51 101 73.5 214t22.5 255t-22.5 255t-73.5 214l11 11q43 -46 76.5 -96t56 -108t34.5 -126t12 -150z" />
    <glyph glyph-name="asterisk" unicode="*" horiz-adv-x="432" 
d="M216 499q-20 -31 -31.5 -53.5t-18.5 -38t-10.5 -25t-7.5 -15.5q-8 -11 -20.5 -13t-23.5 6t-12.5 20.5t6.5 23.5q4 6 12 12.5t20.5 17.5t30 28.5t41.5 46.5q-36 9 -61 13.5t-41.5 6t-27 2t-17.5 2.5q-13 4 -19.5 15t-1.5 24t16 19t24 1q7 -2 16 -7.5t23.5 -14t36.5 -20
t57 -25.5q-2 37 -6 62t-7.5 41.5t-6 26t-2.5 17.5q0 14 8.5 23t22.5 9t22.5 -9t8.5 -23q0 -8 -2.5 -17.5t-6 -26t-7 -41.5t-6.5 -62q34 14 56.5 25.5t37 20t23 14t15.5 7.5q14 5 25 -0.5t16 -19.5q4 -12 -2 -24t-20 -16q-7 -2 -17 -2.5t-26.5 -2t-41.5 -5.5t-61 -13
q24 -29 41.5 -46.5t30.5 -29t21 -17.5t12 -12q8 -11 6.5 -24t-13.5 -21q-11 -8 -23.5 -5.5t-20.5 13.5q-5 6 -8.5 15.5t-10.5 25t-18.5 37.5t-30.5 54z" />
    <glyph glyph-name="plus" unicode="+" horiz-adv-x="453" 
d="M38 315h173v173h31v-173h173v-30h-173v-174h-31v174h-173v30z" />
    <glyph glyph-name="comma" unicode="," horiz-adv-x="201" 
d="M51 -104q22 22 37.5 49.5t15.5 43.5q0 8 -4 11q-26 0 -43.5 16.5t-17.5 42.5t17.5 43.5t43.5 17.5q24 0 43 -16.5t19 -51.5q0 -25 -10.5 -49t-25.5 -46t-32 -40.5t-31 -32.5z" />
    <glyph glyph-name="hyphen" unicode="-" horiz-adv-x="303" 
d="M38 303h227v-30h-227v30z" />
    <glyph glyph-name="period" unicode="." horiz-adv-x="201" 
d="M39 58q0 26 17.5 44t43.5 18q27 0 44.5 -18t17.5 -44t-17.5 -44t-44.5 -18q-26 0 -43.5 18t-17.5 44z" />
    <glyph glyph-name="slash" unicode="/" horiz-adv-x="344" 
d="M1 -100l308 850h33l-308 -850h-33z" />
    <glyph glyph-name="zero" unicode="0" horiz-adv-x="653" 
d="M48 350q0 82 20.5 147.5t57.5 112t88 71.5t113 25q61 0 112.5 -25t88.5 -71.5t57.5 -112t20.5 -147.5q0 -83 -20.5 -148.5t-57.5 -112t-88.5 -71t-112.5 -24.5q-62 0 -113 24.5t-88 71t-57.5 112t-20.5 148.5zM158 350q0 -85 12.5 -149t35 -106.5t53.5 -64t68 -21.5
t68 21.5t53.5 64t35 106.5t12.5 149q0 84 -12.5 148t-35 107t-53.5 64.5t-68 21.5t-68 -21.5t-53.5 -64.5t-35 -107t-12.5 -148z" />
    <glyph glyph-name="one" unicode="1" horiz-adv-x="356" 
d="M46 10l83 19v633h-96v15l187 30l13 -14v-664l84 -19v-10h-271v10z" />
    <glyph glyph-name="two" unicode="2" horiz-adv-x="528" 
d="M34 38q64 59 126 118t110.5 120.5t78 127.5t29.5 140q0 72 -34 108.5t-97 36.5q-26 0 -45.5 -6.5t-41.5 -22.5v-99q0 -31 -17.5 -48.5t-45.5 -17.5q-26 0 -43.5 15.5t-17.5 47.5q0 31 16 57.5t45 46t69.5 31t89.5 11.5q105 0 166.5 -44t61.5 -133q0 -68 -33.5 -129.5
t-87 -118.5t-121 -109.5t-134.5 -100.5h333l34 92h17v-161h-458v38z" />
    <glyph glyph-name="three" unicode="3" horiz-adv-x="591" 
d="M190 572q0 -32 -17.5 -49.5t-44.5 -17.5q-26 0 -44 16t-18 48q0 34 21 59.5t54 42.5t74 26t81 9q50 0 90.5 -12.5t69 -35.5t44 -56t15.5 -74q0 -68 -42.5 -111t-117.5 -58q86 -14 137 -59.5t51 -119.5q0 -43 -18 -77.5t-50 -58.5t-77 -37t-100 -13q-43 0 -85.5 8.5
t-76 26t-54.5 43t-21 59.5q0 32 17.5 47.5t43.5 15.5q28 0 45.5 -17.5t17.5 -48.5v-89q22 -14 45.5 -20t48.5 -6q69 0 113.5 42.5t44.5 123.5q0 44 -14 76t-39.5 52.5t-61 30.5t-77.5 10h-43v20h42q74 0 119.5 38.5t45.5 123.5q0 78 -36.5 117t-93.5 39q-21 0 -44.5 -5.5
t-44.5 -19.5v-89z" />
    <glyph glyph-name="four" unicode="4" horiz-adv-x="584" 
d="M301 10l60 19v121h-312v15q39 70 71.5 136t55.5 131t35.5 131t12.5 137h104q0 -77 -19.5 -145.5t-53.5 -133t-81 -126.5t-102 -125h289v246l90 91l14 -14v-323h72v-20h-72v-121l60 -19v-10h-224v10z" />
    <glyph glyph-name="five" unicode="5" horiz-adv-x="555" 
d="M174 36q42 -26 86 -26q70 0 109 52t39 143q0 93 -45.5 147.5t-135.5 54.5q-35 0 -67 -9t-57 -28l-11 12l28 315q93 0 174 3t170 14v-86h-312l-45 -237q34 21 72.5 31t87.5 10q63 0 109.5 -16t77 -44.5t46 -68.5t15.5 -88q0 -102 -65.5 -161t-185.5 -59q-41 0 -79.5 8.5
t-68.5 24.5t-48 40t-18 56t17.5 48t43.5 16q29 0 46 -17.5t17 -48.5v-86z" />
    <glyph glyph-name="six" unicode="6" horiz-adv-x="585" 
d="M153 368q26 26 65 40.5t89 14.5q52 0 94.5 -15t73 -42.5t47.5 -67t17 -88.5q0 -50 -17 -89.5t-48 -67.5t-74.5 -43t-96.5 -15q-64 0 -112 22t-80.5 62.5t-48.5 98.5t-16 130q0 94 27.5 165t80 119.5t127.5 76.5t170 36l10 -10q-82 -17 -138.5 -47t-92.5 -72t-54 -94.5
t-23 -113.5zM152 321q0 -67 8.5 -124t26.5 -98.5t45 -65t65 -23.5q62 0 99 53t37 147q0 46 -11 82t-30.5 61t-46.5 37.5t-58 12.5q-46 0 -82 -22.5t-53 -59.5z" />
    <glyph glyph-name="seven" unicode="7" horiz-adv-x="550" 
d="M189 0q0 96 27 175t67 152t86 145.5t84 155.5h-347l-40 -92h-16v164h444v-15q-30 -88 -65 -172.5t-65 -169t-50.5 -169.5t-20.5 -174h-104z" />
    <glyph glyph-name="eight" unicode="8" horiz-adv-x="575" 
d="M498 539q0 -35 -10 -60.5t-26.5 -44.5t-38.5 -32.5t-45 -23.5q33 -13 60.5 -29t48 -37.5t32 -50.5t11.5 -68q0 -42 -14 -78t-44 -63t-78 -42.5t-116 -15.5q-60 0 -104 13t-72.5 35.5t-42 54t-13.5 69.5q0 37 12.5 65.5t33 50t47 37t55.5 27.5q-27 11 -49.5 25t-39 33.5
t-25.5 46.5t-9 63q0 39 12 74t38.5 61.5t69 41.5t102.5 15q52 0 91 -12.5t64 -34.5t37.5 -53t12.5 -67zM278 316q-16 5 -30.5 10t-28.5 10q-20 -11 -36 -24.5t-27.5 -32t-18 -43.5t-6.5 -59q0 -86 40 -126.5t116 -40.5q78 0 120.5 39t42.5 111q0 36 -11.5 60t-33 41
t-53.5 29.5t-74 25.5zM307 404q9 -4 18.5 -7t18.5 -6q35 24 54 56.5t19 86.5q0 76 -34.5 116t-97.5 40q-65 0 -101 -38.5t-36 -98.5q0 -33 10.5 -55.5t30.5 -39t50 -29t68 -25.5z" />
    <glyph glyph-name="nine" unicode="9" horiz-adv-x="582" 
d="M427 332q-26 -26 -63.5 -40t-86.5 -14q-51 0 -93.5 14t-73 41t-47.5 66t-17 88q0 50 17.5 90t49.5 68.5t76 44t98 15.5q125 0 187 -80t62 -226q0 -100 -29.5 -173t-84 -122t-132 -75.5t-174.5 -32.5l-10 10q90 13 149 42t95.5 71t53.5 95.5t23 117.5zM430 379
q0 67 -7.5 124t-24.5 98.5t-43.5 65t-64.5 23.5q-32 0 -58 -14.5t-44.5 -41.5t-28.5 -65t-10 -84t11.5 -81t31 -58.5t46 -35.5t56.5 -12q47 0 82.5 22t53.5 59z" />
    <glyph glyph-name="colon" unicode=":" horiz-adv-x="201" 
d="M39 58q0 26 17.5 44t43.5 18q27 0 44.5 -18t17.5 -44t-17.5 -44t-44.5 -18q-26 0 -43.5 18t-17.5 44zM39 442q0 26 17.5 44t43.5 18q27 0 44.5 -18t17.5 -44t-17.5 -44t-44.5 -18q-26 0 -43.5 18t-17.5 44z" />
    <glyph glyph-name="semicolon" unicode=";" horiz-adv-x="201" 
d="M51 -104q22 22 37.5 49.5t15.5 43.5q0 8 -4 11q-26 0 -43.5 16.5t-17.5 42.5t17.5 43.5t43.5 17.5q24 0 43 -16.5t19 -51.5q0 -25 -10.5 -49t-25.5 -46t-32 -40.5t-31 -32.5zM39 442q0 26 17.5 44t43.5 18q27 0 44.5 -18t17.5 -44t-17.5 -44t-44.5 -18q-26 0 -43.5 18
t-17.5 44z" />
    <glyph glyph-name="less" unicode="&#x3c;" horiz-adv-x="453" 
d="M404 418l-307 -143l307 -143l-14 -27l-341 159v22l341 160z" />
    <glyph glyph-name="equal" unicode="=" horiz-adv-x="453" 
d="M38 387h377v-31h-377v31zM38 243h377v-30h-377v30z" />
    <glyph glyph-name="greater" unicode="&#x3e;" horiz-adv-x="453" 
d="M62 446l342 -160v-22l-342 -159l-13 27l306 143l-306 143z" />
    <glyph glyph-name="question" unicode="?" horiz-adv-x="507" 
d="M238 196q-6 53 0.5 89t20.5 62.5t32.5 47t35 42.5t27.5 49t11 66q0 61 -32.5 99t-91.5 38q-23 0 -42 -6.5t-39 -20.5v-94q0 -32 -17.5 -49.5t-45.5 -17.5q-26 0 -43.5 16t-17.5 49q0 29 16 54.5t44 44t67 29t84 10.5q103 0 163.5 -44t60.5 -124q0 -41 -15.5 -70
t-38.5 -52.5t-50.5 -44.5t-50.5 -45.5t-38.5 -55t-15.5 -72.5h-24zM191 58q0 26 17.5 44t43.5 18t44 -18t18 -44t-18 -44t-44 -18t-43.5 18t-17.5 44z" />
    <glyph glyph-name="at" unicode="@" horiz-adv-x="876" 
d="M766 -56q-26 -26 -60.5 -45t-75 -31.5t-85.5 -19t-91 -6.5q-95 0 -170 24.5t-127.5 71t-80.5 113.5t-28 151q0 81 26 146t77 111t125.5 70.5t171.5 24.5q99 0 170.5 -25t118 -69.5t69 -105t22.5 -131.5q0 -104 -47.5 -166t-140.5 -62q-42 0 -70 13.5t-35 42.5l-3 1
q-25 -26 -59.5 -41.5t-77.5 -15.5q-42 0 -73.5 15t-53 42t-32 64.5t-10.5 82.5q0 109 59.5 165.5t166.5 56.5q31 0 58 -5t54 -15l44 23l14 -15v-350q0 -25 10 -33t24 -8q38 0 61.5 50t23.5 141q0 161 -72 242.5t-221 81.5q-79 0 -137.5 -23.5t-97 -66.5t-57.5 -103.5
t-19 -134.5q0 -75 20 -136t62.5 -105t108 -68t155.5 -24q35 0 73 4.5t74 14t68 25.5t56 40zM531 385q-22 11 -41 16.5t-40 5.5q-63 0 -96 -50.5t-33 -144.5q0 -84 31.5 -135.5t85.5 -51.5q28 0 51 12.5t42 34.5v313z" />
    <glyph glyph-name="A" unicode="A" horiz-adv-x="755" 
d="M683 29l64 -19v-10h-241v10l66 19l-84 203h-302l-88 -203l88 -19v-10h-178v10l68 19l293 671h33zM195 253h284l-138 337z" />
    <glyph glyph-name="B" unicode="B" horiz-adv-x="654" 
d="M339 700q53 0 97 -12t76 -34.5t49.5 -54.5t17.5 -73q0 -67 -44 -110t-118 -57q87 -14 138.5 -59.5t51.5 -117.5q0 -42 -19.5 -76t-55 -57.5t-85 -36t-108.5 -12.5h-320v8l65 16v652l-65 15v9h320zM319 20q78 0 128 41t50 123t-50 123t-128 41h-127v-328h127zM192 680
v-312h127q66 0 108 39t42 117q0 77 -42.5 116.5t-107.5 39.5h-127z" />
    <glyph glyph-name="C" unicode="C" horiz-adv-x="704" 
d="M652 95q-99 -101 -259 -101q-79 0 -142.5 24.5t-108.5 71t-69.5 112t-24.5 148.5q0 82 24.5 148t69 112t107.5 71t140 25q57 0 112 -14.5t96 -45.5l42 25l10 -10v-138h-17q-11 52 -38 83.5t-60 48.5t-67 22.5t-58 5.5q-115 0 -181.5 -83t-66.5 -246q0 -74 16.5 -134.5
t49.5 -103.5t83.5 -66.5t119.5 -23.5q58 0 112.5 18t98.5 63z" />
    <glyph glyph-name="D" unicode="D" horiz-adv-x="726" 
d="M338 700q75 0 137.5 -24t107.5 -69t70 -110t25 -147q0 -83 -25 -148t-70 -110t-107.5 -68.5t-137.5 -23.5h-319v8l65 16v652l-65 15v9h319zM192 680v-660h146q49 0 91 20.5t72 61.5t47 102.5t17 144.5t-17 145t-47 103.5t-72 62t-91 20.5h-146z" />
    <glyph glyph-name="E" unicode="E" horiz-adv-x="619" 
d="M504 20l47 102h16v-122h-548v8l65 16v652l-65 15v9h538v-123h-16l-47 103h-302v-308h244l21 78h15v-177h-15l-21 78h-244v-331h312z" />
    <glyph glyph-name="F" unicode="F" horiz-adv-x="596" 
d="M192 351v-322l95 -19v-10h-268v10l65 19v647l-65 15v9h525v-123h-17l-46 103h-289v-308h222l21 78h16v-177h-16l-21 78h-222z" />
    <glyph glyph-name="G" unicode="G" horiz-adv-x="746" 
d="M664 36l-13 -13l-55 23q-43 -26 -93.5 -39t-107.5 -13q-80 0 -144 24.5t-109 71t-69.5 112t-24.5 148.5q0 82 24.5 148t69.5 112.5t108.5 71t140.5 24.5q57 0 112.5 -14.5t96.5 -45.5l43 25l10 -10v-138h-17q-11 52 -38.5 83.5t-60.5 48.5t-67.5 22.5t-59.5 5.5
q-116 0 -182.5 -84.5t-66.5 -250.5q0 -73 15.5 -133.5t47 -104t77.5 -67.5t108 -24q40 0 78 10.5t70 34.5v243l-65 18v10h234v-10l-62 -18v-271z" />
    <glyph glyph-name="H" unicode="H" horiz-adv-x="745" 
d="M84 29v642l-65 19v10h238v-10l-65 -19v-304h362v304l-65 19v10h237v-10l-65 -19v-642l65 -19v-10h-237v10l65 19v317h-362v-317l65 -19v-10h-238v10z" />
    <glyph glyph-name="I" unicode="I" horiz-adv-x="276" 
d="M191 29l62 -19v-10h-233v10l65 19v642l-65 19v10h233v-10l-62 -19v-642z" />
    <glyph glyph-name="J" unicode="J" horiz-adv-x="276" 
d="M85 671l-65 19v10h232v-10l-61 -19v-655q0 -76 -41 -127.5t-116 -93.5l-11 11q32 47 47 97t15 113v655z" />
    <glyph glyph-name="K" unicode="K" horiz-adv-x="689" 
d="M188 313l336 358l-81 19v10h180v-10l-71 -19l-212 -228l276 -417l58 -16v-10h-160l-248 370l-78 -84v-257l65 -19v-10h-237v10l65 19v642l-65 19v10h237v-10l-65 -19v-358z" />
    <glyph glyph-name="L" unicode="L" horiz-adv-x="587" 
d="M469 20l47 102h16v-122h-513v8l65 16v647l-65 19v10h238v-10l-65 -19v-651h277z" />
    <glyph glyph-name="M" unicode="M" horiz-adv-x="920" 
d="M843 29l62 -19v-10h-234v10l65 19l-42 579l-257 -608h-33l-261 609l-43 -582l61 -19v-8h-147v8l65 19l47 644l-65 19v10h153l250 -590l248 590h147v-10l-62 -19z" />
    <glyph glyph-name="N" unicode="N" horiz-adv-x="697" 
d="M84 27v644l-65 19v10h178l395 -550v523l-65 18v9h151v-9l-65 -18v-673h-31l-477 662v-635l65 -19v-8h-151v8z" />
    <glyph glyph-name="O" unicode="O" horiz-adv-x="769" 
d="M48 350q0 82 24.5 147.5t69 112t106.5 71.5t137 25q74 0 136 -25t106.5 -71.5t69.5 -112t25 -147.5q0 -83 -25 -148.5t-69.5 -112t-106.5 -71t-136 -24.5q-75 0 -137 24.5t-106.5 71t-69 112t-24.5 148.5zM161 349q0 -84 16.5 -148t46.5 -106.5t71 -64t90 -21.5t90 21.5
t70.5 64t46 106.5t16.5 148q0 85 -16.5 149t-46 107t-70.5 64.5t-90 21.5t-90 -21.5t-71 -64.5t-46.5 -107t-16.5 -149z" />
    <glyph glyph-name="P" unicode="P" horiz-adv-x="616" 
d="M192 680v-651l100 -19v-10h-273v10l65 19v647l-65 15v9h282q59 0 108.5 -13.5t85 -39.5t55 -63t19.5 -84t-19.5 -84t-55 -63t-85 -39.5t-108.5 -13.5h-81l-13 13v7h81q75 0 123 45t48 135t-48 135t-123 45h-96z" />
    <glyph glyph-name="Q" unicode="Q" horiz-adv-x="769" 
d="M769 -76q-29 -29 -64 -41t-76 -12q-45 0 -84 12.5t-74.5 31t-68.5 41t-66 43.5q-65 7 -118.5 34.5t-91 73t-58 106.5t-20.5 136q0 82 24.5 148.5t69 112.5t106.5 71t137 25q74 0 136 -25t106.5 -71.5t69.5 -112t25 -147.5q0 -70 -18.5 -128t-51.5 -102.5t-80 -73
t-104 -40.5q31 -12 58 -28.5t52.5 -32t51 -26t53.5 -10.5q17 0 40 5t37 19zM161 349q0 -85 16.5 -147.5t46.5 -104t71 -62t90 -20.5t90 20.5t70.5 62t46 104.5t16.5 147t-16.5 148t-46 107t-70.5 65t-90 22t-90 -21.5t-71 -64.5t-46.5 -107t-16.5 -149z" />
    <glyph glyph-name="R" unicode="R" horiz-adv-x="659" 
d="M567 510q0 -75 -49 -123t-132 -59q23 -8 39 -28t30 -44l132 -230l58 -16v-10h-155l-182 323h-116v-294l65 -19v-10h-238v10l65 19v647l-65 15v9h300q55 0 100.5 -13t78.5 -37t51 -59.5t18 -80.5zM192 680v-337h114q66 0 108.5 41.5t42.5 126.5t-42.5 127t-108.5 42h-114z
" />
    <glyph glyph-name="S" unicode="S" horiz-adv-x="589" 
d="M55 163h18q12 -49 36 -79.5t53 -47t60 -22t57 -5.5q83 0 130 40t47 112q0 35 -11.5 57.5t-34 38.5t-55 27t-74.5 23t-82.5 26t-72 35.5t-50.5 55t-19 84.5q0 41 13.5 77t42 63t71.5 42.5t103 15.5q51 0 92 -12t76 -35l42 29l10 -10v-142h-18q-11 49 -33 79t-49 47t-55 23
t-50 6q-74 0 -117 -39t-43 -102q0 -33 12 -54t33.5 -36t51.5 -25.5t67 -21.5q44 -14 86.5 -30t75.5 -40t53 -59t20 -87q0 -43 -14.5 -80t-45.5 -64.5t-78.5 -43t-113.5 -15.5q-54 0 -98.5 12t-82.5 35l-43 -30l-10 10v142z" />
    <glyph glyph-name="T" unicode="T" horiz-adv-x="672" 
d="M390 680v-651l65 -19v-10h-238v10l65 19v651h-186l-47 -103h-16v123h607v-123h-17l-46 103h-187z" />
    <glyph glyph-name="U" unicode="U" horiz-adv-x="719" 
d="M634 260q0 -62 -20 -111.5t-56 -84t-86.5 -52.5t-111.5 -18t-112 18.5t-87.5 53t-56.5 83.5t-20 111v411l-65 19v10h238v-10l-65 -19v-411q0 -56 15.5 -98t43.5 -71t66 -43.5t83 -14.5q47 0 86 15.5t67.5 44.5t44.5 71.5t16 95.5v413l-65 18v9h150v-9l-65 -18v-413z" />
    <glyph glyph-name="V" unicode="V" horiz-adv-x="755" 
d="M72 671l-64 19v10h241v-10l-66 -19l238 -561l236 561l-88 19v10h178v-10l-68 -19l-285 -671h-33z" />
    <glyph glyph-name="W" unicode="W" horiz-adv-x="1189" 
d="M593 508l-208 -508h-32l-281 671l-64 19v10h241v-10l-66 -19l230 -561l169 424l-58 137l-64 19v10h241v-10l-66 -19l230 -561l226 561l-88 19v10h178v-10l-68 -19l-275 -671h-33z" />
    <glyph glyph-name="X" unicode="X" horiz-adv-x="742" 
d="M335 331l-224 -302l84 -19v-10h-179v10l71 19l235 317l-233 325l-61 19v10h238v-10l-65 -19l199 -280l199 280l-85 19v10h179v-10l-70 -19l-210 -296l251 -346l62 -19v-10h-239v10l66 19z" />
    <glyph glyph-name="Y" unicode="Y" horiz-adv-x="724" 
d="M401 326l221 345l-84 19v10h178v-10l-71 -19l-234 -367v-275l62 -19v-10h-234v10l65 19v275l-234 367l-62 19v10h241v-10l-66 -19z" />
    <glyph glyph-name="Z" unicode="Z" horiz-adv-x="613" 
d="M41 15l415 665h-342l-48 -103h-17v123h519v-15l-413 -665h357l48 102h17v-122h-536v15z" />
    <glyph glyph-name="bracketleft" unicode="[" horiz-adv-x="285" 
d="M155 -171l112 -19v-10h-206v950h206v-10l-112 -19v-892z" />
    <glyph glyph-name="backslash" unicode="\" horiz-adv-x="344" 
d="M309 -100l-308 850h33l308 -850h-33z" />
    <glyph glyph-name="bracketright" unicode="]" horiz-adv-x="285" 
d="M130 721l-112 19v10h206v-950h-206v10l112 19v892z" />
    <glyph glyph-name="asciicircum" unicode="^" horiz-adv-x="405" 
d="M210 705l162 -198l-10 -11l-160 134l-159 -134l-10 11l162 198h15z" />
    <glyph glyph-name="underscore" unicode="_" horiz-adv-x="630" 
d="M1 -50h627v-31h-627v31z" />
    <glyph glyph-name="grave" unicode="`" horiz-adv-x="277" 
d="M236 563l-10 -11l-185 94l57 58z" />
    <glyph glyph-name="a" unicode="a" horiz-adv-x="546" 
d="M363 63q-35 -32 -81 -50.5t-98 -18.5q-70 0 -102.5 31.5t-32.5 84.5q0 44 21.5 71t62 44t98.5 28t132 23v94q0 52 -26.5 84.5t-77.5 32.5q-40 0 -74 -23v-81q0 -31 -17.5 -48.5t-43.5 -17.5t-43 16t-17 47q0 30 16.5 52.5t44.5 38.5t63 24t73 8q50 0 88.5 -11.5t64.5 -32
t39.5 -48.5t13.5 -60v-305q0 -14 6 -19.5t18 -5.5q8 0 17.5 2.5t15.5 8.5l7 -7q-14 -14 -37.5 -20.5t-53.5 -6.5q-32 0 -51 13.5t-23 48.5zM363 261q-53 -8 -92 -15.5t-65 -21t-38.5 -37.5t-12.5 -64q0 -47 22.5 -70.5t60.5 -23.5q34 0 67 15.5t58 41.5v175z" />
    <glyph glyph-name="b" unicode="b" horiz-adv-x="582" 
d="M79 687l-60 13v11l151 16l13 -14v-213l-3 -62l3 -3q30 32 71.5 50.5t92.5 18.5q50 0 87 -18t61 -50t36 -76.5t12 -98.5q0 -131 -68 -198.5t-203 -67.5q-42 0 -94.5 7.5t-98.5 25.5v659zM183 29q25 -8 48.5 -13.5t46.5 -5.5q78 0 118.5 61t40.5 174q0 51 -10 92
t-28.5 70.5t-44.5 45.5t-57 16q-34 0 -63 -15t-51 -41v-384z" />
    <glyph glyph-name="c" unicode="c" horiz-adv-x="555" 
d="M380 463q-42 26 -85 26q-71 0 -110 -61t-39 -163q0 -112 46 -176t140 -64q87 0 147 60l11 -12q-37 -37 -85 -57.5t-114 -20.5q-63 0 -110.5 18.5t-79 52t-47 80t-15.5 102.5q0 118 65 187t189 69q39 0 77 -8.5t68 -24.5t48 -40.5t18 -55.5q0 -32 -18 -48t-44 -16
q-28 0 -45 17.5t-17 48.5v86z" />
    <glyph glyph-name="d" unicode="d" horiz-adv-x="584" 
d="M564 20v-11l-150 -12l-13 13l3 50l-3 3q-30 -32 -71.5 -50t-92.5 -18t-88 18t-61.5 50t-36.5 76.5t-12 98.5q0 128 64.5 197t180.5 69q39 0 67 -8t50 -19v210l-60 13v11l150 16l13 -14v-680zM401 463q-26 13 -50 19.5t-49 6.5q-75 0 -115.5 -61.5t-40.5 -173.5
q0 -50 10 -91.5t28.5 -71t44.5 -46t58 -16.5q34 0 63 15.5t51 41.5v377z" />
    <glyph glyph-name="e" unicode="e" horiz-adv-x="558" 
d="M146 250q0 -106 48 -165t146 -59q42 0 78.5 13.5t68.5 45.5l11 -12q-37 -37 -86 -57.5t-115 -20.5q-65 0 -113.5 19t-80.5 52.5t-48 79t-16 98.5q0 60 19 108t52.5 81.5t79.5 52t100 18.5q49 0 90 -14.5t71 -41t46.5 -63.5t16.5 -82q0 -9 -1 -19.5t-4 -20.5l-14 -13h-349
zM294 489q-27 0 -53 -13t-46.5 -40.5t-34 -70t-14.5 -100.5l266 15q0 105 -31 157t-87 52z" />
    <glyph glyph-name="f" unicode="f" horiz-adv-x="357" 
d="M79 574q0 69 43.5 109.5t131.5 40.5q26 0 51 -5t45 -15.5t32 -27t12 -39.5q0 -24 -13.5 -39t-36.5 -15q-25 0 -42 17.5t-17 46.5v54q-6 3 -13 5.5t-16 2.5q-34 0 -53.5 -36.5t-19.5 -98.5v-74h162v-20h-162v-451l90 -19v-10h-254v10l60 19v451h-60v8l60 19v67z" />
    <glyph glyph-name="g" unicode="g" horiz-adv-x="562" 
d="M400 469q35 -21 55 -54t20 -76q0 -37 -15.5 -67t-43 -51t-66.5 -32t-85 -11q-79 0 -130 30q-15 -17 -21.5 -35t-6.5 -34q0 -55 79 -55h169q85 0 122.5 -32t37.5 -91q0 -78 -68.5 -121t-208.5 -43q-96 0 -150.5 22t-54.5 67q0 33 26.5 60t65.5 50q-70 20 -70 95
q0 36 17 63.5t51 60.5q-32 21 -49.5 52t-17.5 72q0 37 15.5 67.5t43 51.5t66 32.5t84.5 11.5q9 0 18 -0.5t18 -1.5h210v-10l-68 -21h-43zM155 340q0 -74 31 -110.5t79 -36.5q49 0 80 37t31 110q0 72 -31 109.5t-80 37.5q-48 0 -79 -37t-31 -110zM185 -11q-8 0 -15.5 0.5
t-14.5 1.5q-24 -27 -31.5 -46t-7.5 -38q0 -53 38.5 -73t104.5 -20q88 0 140 27.5t52 78.5q0 28 -19.5 48.5t-66.5 20.5h-180z" />
    <glyph glyph-name="h" unicode="h" horiz-adv-x="610" 
d="M183 29l53 -19v-10h-217v10l60 19v658l-60 13v11l151 16l13 -14v-213l-3 -68l3 -3q39 37 93 56t103 19q80 0 116 -47t36 -125v-303l60 -19v-10h-217v10l53 19v286q0 33 -5 61.5t-17 49t-31 32t-46 11.5q-17 0 -36 -4t-38.5 -12t-37.5 -19.5t-33 -26.5v-378z" />
    <glyph glyph-name="i" unicode="i" 
d="M19 10l60 19v438l-60 13v11l151 16l13 -14v-464l60 -19v-10h-224v10zM53 640q0 31 20 51t51 20t51.5 -20t20.5 -51t-20.5 -51t-51.5 -20t-51 20t-20 51z" />
    <glyph glyph-name="j" unicode="j" 
d="M79 467l-60 13v11l151 16l13 -14v-477q0 -76 -40.5 -127.5t-113.5 -93.5l-11 11q32 47 46.5 97t14.5 113v451zM53 640q0 31 20 51t51 20t51.5 -20t20.5 -51t-20.5 -51t-51.5 -20t-51 20t-20 51z" />
    <glyph glyph-name="k" unicode="k" horiz-adv-x="563" 
d="M244 262l-61 -66v-167l60 -19v-10h-224v10l60 19v658l-60 13v11l151 16l13 -14v-490l234 248l-77 19v10h170v-10l-66 -19l-130 -141l185 -304l53 -16v-10h-148z" />
    <glyph glyph-name="l" unicode="l" 
d="M19 10l60 19v658l-60 13v11l151 16l13 -14v-684l60 -19v-10h-224v10z" />
    <glyph glyph-name="m" unicode="m" horiz-adv-x="886" 
d="M183 29l51 -19v-10h-215v10l60 19v438l-60 13v11l151 16l13 -14l-3 -61l3 -3q35 37 83.5 56t91.5 19q48 0 77.5 -21t43.5 -57q39 38 91.5 58t98.5 20q74 0 106 -47t32 -125v-303l60 -19v-10h-215v10l51 19v286q0 33 -4.5 61t-15.5 49t-28.5 32.5t-42.5 11.5
q-30 0 -65.5 -15t-62.5 -45q11 -35 11 -77v-303l51 -19v-10h-206v10l51 19v286q0 33 -4.5 61t-15 48.5t-27 32.5t-40.5 12q-31 0 -64.5 -17t-56.5 -48v-375z" />
    <glyph glyph-name="n" unicode="n" horiz-adv-x="610" 
d="M183 29l53 -19v-10h-217v10l60 19v438l-60 13v11l151 16l13 -14l-3 -61l3 -3q19 18 43 32t50 23.5t52.5 14.5t50.5 5q79 0 115.5 -47.5t36.5 -124.5v-303l60 -19v-10h-217v10l53 19v286q0 33 -5.5 61t-18 48.5t-32 32.5t-47.5 12q-38 0 -76.5 -17t-64.5 -45v-378z" />
    <glyph glyph-name="o" unicode="o" horiz-adv-x="583" 
d="M39 249q0 58 18.5 105t52 80.5t80 51.5t102.5 18t102.5 -18t79.5 -51.5t51.5 -80.5t18.5 -105q0 -59 -18.5 -106t-51.5 -80t-79.5 -50.5t-102.5 -17.5t-102.5 17.5t-80 50.5t-52 80t-18.5 106zM146 249q0 -118 40.5 -178.5t105.5 -60.5q66 0 106 60.5t40 178.5
q0 119 -40 179.5t-106 60.5q-65 0 -105.5 -60.5t-40.5 -179.5z" />
    <glyph glyph-name="p" unicode="p" horiz-adv-x="582" 
d="M19 -190l60 19v638l-60 13v11l151 16l13 -14l-3 -55l3 -3q30 32 71.5 50.5t92.5 18.5q50 0 87 -18t61 -50t36 -76.5t12 -98.5q0 -128 -64 -197t-179 -69q-39 0 -67.5 8t-49.5 19v-193l90 -19v-10h-254v10zM183 37q51 -27 98 -27q75 0 115.5 61.5t40.5 173.5
q0 50 -10 91.5t-28 71t-44 45.5t-58 16q-67 0 -114 -56v-376z" />
    <glyph glyph-name="q" unicode="q" horiz-adv-x="572" 
d="M564 -190v-10h-223v10l60 19v171l3 60l-3 3q-30 -32 -71.5 -50t-92.5 -18t-88 18t-61.5 50t-36.5 76.5t-12 97.5q0 131 68.5 199t197.5 68q36 0 68 -6t66 -18l52 27l13 -14v-664zM401 462q-26 14 -49.5 20.5t-49.5 6.5q-75 0 -115.5 -61.5t-40.5 -173.5q0 -50 10 -91.5
t28.5 -71t44.5 -46t58 -16.5q34 0 63 15.5t51 41.5v376z" />
    <glyph glyph-name="r" unicode="r" horiz-adv-x="484" 
d="M79 467l-60 13v11l151 16l13 -14l-3 -88l3 -3q15 28 36 51q18 19 45 35t65 16q24 0 45 -7.5t37 -22t25 -34.5t9 -44q0 -35 -17.5 -51t-43.5 -16q-29 0 -46.5 18t-17.5 49v80q-5 4 -16 4q-30 0 -52.5 -18t-37.5 -39q-18 -26 -31 -57v-337l90 -19v-10h-254v10l60 19v438z
" />
    <glyph glyph-name="s" unicode="s" horiz-adv-x="457" 
d="M49 128h21q8 -36 23.5 -59t35.5 -36t43 -18t45 -5q58 0 93.5 26.5t35.5 74.5q0 23 -9 38t-25.5 25.5t-40.5 17.5t-53 15q-31 8 -60.5 17.5t-53 26t-38 42t-14.5 65.5q0 31 10 58t31.5 46.5t55 30.5t80.5 11q35 0 68 -8t60 -22l21 17l10 -10v-108h-20q-8 36 -23 58.5
t-34 35.5t-39.5 17.5t-38.5 4.5q-52 0 -81.5 -26t-29.5 -67q0 -21 8 -35t23 -24t35.5 -17.5t45.5 -14.5q33 -10 65.5 -21.5t58.5 -29.5t42 -44.5t16 -67.5q0 -32 -11 -59t-34.5 -46.5t-61 -30.5t-90.5 -11q-81 0 -139 31l-21 -17l-10 10v109z" />
    <glyph glyph-name="t" unicode="t" horiz-adv-x="384" 
d="M18 488q54 13 91.5 48.5t60.5 78.5l13 -13v-102h164v-20h-164v-351q0 -47 20.5 -75t62.5 -28q23 0 43 9t37 26l11 -11q-24 -25 -57.5 -40t-78.5 -15q-72 0 -107 38t-35 96v351h-61v8z" />
    <glyph glyph-name="u" unicode="u" horiz-adv-x="607" 
d="M588 20v-11l-151 -12l-13 13l3 57l-3 3q-38 -38 -88.5 -56.5t-98.5 -18.5q-79 0 -118.5 44t-39.5 114v314l-60 13v11l151 16l13 -14v-323q0 -61 24 -101t80 -40q35 0 72 16t65 47v375l-60 13v11l150 16l14 -14v-460z" />
    <glyph glyph-name="v" unicode="v" horiz-adv-x="601" 
d="M70 471l-59 19v10h228v-10l-61 -19l164 -363l162 363l-83 19v10h169v-10l-64 -19l-212 -471h-29z" />
    <glyph glyph-name="w" unicode="w" horiz-adv-x="899" 
d="M451 341l-143 -341h-36l-202 471l-59 19v10h222v-10l-55 -19l152 -372l110 268l-44 104l-55 19v10h223v-10l-61 -19l148 -372l148 372l-82 19v10h168v-10l-63 -19l-192 -471h-37z" />
    <glyph glyph-name="x" unicode="x" horiz-adv-x="585" 
d="M257 227l-152 -198l80 -19v-10h-169v10l66 19l162 214l-166 228l-57 19v10h225v-10l-60 -19l137 -186l142 186l-80 19v10h169v-10l-65 -19l-153 -202l177 -240l57 -19v-10h-226v10l61 19z" />
    <glyph glyph-name="y" unicode="y" horiz-adv-x="601" 
d="M70 471l-59 19v10h228v-10l-61 -19l164 -363l162 363l-83 19v10h169v-10l-64 -19l-212 -471q-23 -50 -42.5 -87.5t-39 -63t-40.5 -38.5t-47 -13q-13 0 -28 3.5t-28.5 11.5t-22.5 22.5t-9 35.5q0 27 14 41t37 14q24 0 39 -14.5t15 -40.5v-40q6 -3 11 -3q15 0 29 13
t28.5 35t28.5 52t29 63z" />
    <glyph glyph-name="z" unicode="z" horiz-adv-x="483" 
d="M36 15l298 468h-239l-32 -92h-17v109h394v-15l-297 -468h253l32 92h17v-109h-409v15z" />
    <glyph glyph-name="braceleft" unicode="{" horiz-adv-x="371" 
d="M97 275q64 -20 101.5 -81t37.5 -154q0 -115 27 -172.5t71 -57.5v-15q-44 0 -80 17t-62 48.5t-40.5 76.5t-14.5 101q0 114 -27 171.5t-71 57.5v16q44 0 71 57.5t27 171.5q0 56 14.5 101t40.5 76.5t62 48.5t80 17v-15q-44 0 -71 -57.5t-27 -172.5q0 -94 -37.5 -154.5
t-101.5 -80.5z" />
    <glyph glyph-name="bar" unicode="|" horiz-adv-x="189" 
d="M79 -200v950h31v-950h-31z" />
    <glyph glyph-name="braceright" unicode="}" horiz-adv-x="371" 
d="M276 275q-64 20 -101.5 80.5t-37.5 154.5q0 115 -27 172.5t-71 57.5v15q44 0 80 -17t62 -48.5t40.5 -76.5t14.5 -101q0 -114 27 -171.5t71 -57.5v-16q-44 0 -71 -57.5t-27 -171.5q0 -56 -14.5 -101t-40.5 -76.5t-62 -48.5t-80 -17v15q44 0 71 57.5t27 172.5
q0 93 37.5 154t101.5 81z" />
    <glyph glyph-name="asciitilde" unicode="~" horiz-adv-x="469" 
d="M31 255q29 29 51.5 48.5t39.5 31.5t31 17t26 5q18 0 34.5 -8t33 -17.5t34 -17.5t37.5 -8q24 0 53.5 13.5t54.5 38.5l12 -11q-45 -46 -85 -75.5t-69 -29.5q-17 0 -33.5 8t-33.5 17.5t-35.5 17.5t-38.5 8q-21 0 -47 -11.5t-53 -38.5z" />
    <glyph glyph-name="exclamdown" unicode="&#xa1;" horiz-adv-x="212" 
d="M118 500q7 -115 13.5 -197t12 -139t10.5 -92.5t8 -57t5 -33.5t2 -21q0 -27 -18 -45.5t-45 -18.5t-45 18.5t-18 45.5q0 10 2 21.5t5 33t8 57t10.5 92.5t12 139t13.5 197h24zM45 630q0 26 17.5 43.5t43.5 17.5t43.5 -17.5t17.5 -43.5t-17.5 -44t-43.5 -18t-43.5 18
t-17.5 44z" />
    <glyph glyph-name="cent" unicode="&#xa2;" horiz-adv-x="555" 
d="M269 -50v46q-58 3 -101 22.5t-71.5 52.5t-43 78t-14.5 99q0 112 59 180t171 75v47h23v-46h1q39 0 77 -8.5t68 -24.5t48 -40.5t18 -55.5q0 -32 -18 -48t-44 -16q-28 0 -45 17.5t-17 48.5v86q-43 26 -85 26h-3v-461q18 -3 40 -3q87 0 147 60l11 -12q-37 -37 -84.5 -57.5
t-113.5 -20.5v-45h-23zM142 265q0 -91 31 -151t96 -80v453q-62 -11 -94.5 -70t-32.5 -152z" />
    <glyph glyph-name="sterling" unicode="&#xa3;" horiz-adv-x="566" 
d="M18 350l61 12v122q0 101 58.5 160.5t167.5 59.5q37 0 73.5 -8.5t65 -24.5t46 -40.5t17.5 -55.5q0 -32 -18 -48t-44 -16q-28 0 -45.5 17.5t-17.5 48.5v86q-18 14 -35 20t-37 6q-60 0 -93.5 -51t-33.5 -138v-138h203v-20h-203q0 -63 -12 -132t-37 -132q23 14 42 19.5
t36 5.5q23 0 44.5 -8t43 -17.5t43.5 -17.5t48 -8q31 0 69.5 13.5t70.5 37.5l12 -11q-57 -45 -107.5 -75t-87.5 -30q-23 0 -44.5 8t-43.5 17.5t-45.5 17.5t-50.5 8t-60.5 -11.5t-68.5 -38.5l-12 12q16 12 29.5 23t26.5 20v299h-61v8z" />
    <glyph glyph-name="currency" unicode="&#xa4;" horiz-adv-x="512" 
d="M87 300q0 34 9 61.5t26 49.5l-70 71l22 22l70 -70q44 38 112 38t113 -37l69 69l22 -22l-69 -69q37 -45 37 -113q0 -67 -38 -113l70 -69l-22 -22l-70 70q-22 -17 -50 -27t-62 -10q-67 0 -111 38l-71 -71l-22 22l71 71q-36 44 -36 111zM120 300q0 -60 37.5 -98t98.5 -38
q31 0 56.5 10t43.5 28t28 43t10 55q0 63 -37.5 101t-100.5 38q-61 0 -98.5 -38t-37.5 -101z" />
    <glyph glyph-name="yen" unicode="&#xa5;" horiz-adv-x="724" 
d="M169 267h135v37l-234 367l-62 19v10h241v-10l-66 -19l218 -345l221 345l-84 19v10h178v-10l-71 -19l-234 -367v-37h135v-31h-135v-89h135v-31h-135v-87l62 -19v-10h-234v10l65 19v87h-135v31h135v89h-135v31z" />
    <glyph glyph-name="brokenbar" unicode="&#xa6;" horiz-adv-x="189" 
d="M110 325h-31v425h31v-425zM79 -200v425h31v-425h-31z" />
    <glyph glyph-name="section" unicode="&#xa7;" horiz-adv-x="507" 
d="M86 442q-22 18 -34.5 42t-12.5 57q0 74 58.5 118.5t162.5 44.5q45 0 83.5 -10.5t66 -29t43 -44t15.5 -54.5q0 -33 -18 -49t-44 -16q-28 0 -45 17.5t-17 49.5v94q-21 14 -38.5 20.5t-40.5 6.5q-32 0 -55.5 -11t-39 -29t-23.5 -41t-8 -47q0 -45 24 -72.5t60 -45.5
t78.5 -31.5t78.5 -31t60 -44t24 -70.5q0 -23 -9.5 -50.5t-31.5 -58.5q23 -19 35.5 -42.5t12.5 -56.5q0 -75 -60.5 -119t-164.5 -44q-45 0 -83.5 10.5t-66.5 29t-44 44t-16 54.5q0 33 17.5 49t43.5 16q28 0 45.5 -17.5t17.5 -49.5v-94q21 -14 39.5 -20.5t41.5 -6.5
q31 0 55.5 11t41.5 29t25.5 41t8.5 48q0 45 -24.5 72t-61 44.5t-79 30.5t-79 30t-61 42.5t-24.5 69.5q0 24 9 54t34 60zM406 169q13 32 13 55q0 44 -34 71t-83 47t-103.5 39t-96.5 48q-6 -15 -9.5 -30.5t-3.5 -29.5q0 -29 16 -49.5t41.5 -36.5t59 -28.5t69 -25t69.5 -27
t62 -33.5z" />
    <glyph glyph-name="dieresis" unicode="&#xa8;" 
d="M-45 623q0 28 18 46t46 18t46 -18t18 -46t-18 -46t-46 -18t-46 18t-18 46zM179 623q0 28 18.5 46t45.5 18q28 0 46.5 -18t18.5 -46t-18.5 -46t-46.5 -18q-27 0 -45.5 18t-18.5 46z" />
    <glyph glyph-name="copyright" unicode="&#xa9;" horiz-adv-x="796" 
d="M43 350q0 73 28 138t76 113t112.5 76t138.5 28q73 0 138 -28t113 -76t76 -113t28 -138q0 -74 -28 -138.5t-76 -112.5t-113 -76t-138 -28q-74 0 -138.5 28t-112.5 76t-76 112.5t-28 138.5zM79 350q0 -66 25 -124t68.5 -101.5t101.5 -68.5t124 -25t124 25t101.5 68.5
t68.5 101.5t25 124t-25 124t-68.5 101.5t-101.5 68.5t-124 25t-124 -25t-101.5 -68.5t-68.5 -101.5t-25 -124zM534 223q-49 -51 -130 -51q-80 0 -127 47.5t-47 130.5t47 130.5t125 47.5q28 0 54.5 -6.5t46.5 -21.5l25 13l5 -5v-71h-9q-6 25 -19 41t-29 24t-32.5 11t-28.5 3
q-55 0 -86.5 -40t-31.5 -123q0 -73 31 -117.5t99 -44.5q27 0 54 8.5t47 29.5z" />
    <glyph glyph-name="ordfeminine" unicode="&#xaa;" horiz-adv-x="289" 
d="M184 482q-17 -17 -40 -26t-49 -9q-35 0 -51 15.5t-16 42.5q0 22 10.5 35t30.5 22t49 14.5t66 12.5v47q0 26 -12.5 42t-35.5 16q-15 0 -33 -10v-41q0 -18 -9.5 -28t-24.5 -10q-14 0 -24 9t-10 26q0 16 9 27.5t23.5 19t32.5 11t37 3.5q54 0 81.5 -22t27.5 -54v-152
q0 -11 11 -11q4 0 8.5 1t7.5 4l4 -4q-8 -8 -21.5 -11t-30.5 -3t-27.5 6.5t-12.5 24.5zM184 581q-24 -4 -41.5 -7.5t-29.5 -10t-17.5 -18.5t-5.5 -33q0 -44 37 -44q15 0 30 7t27 19v87z" />
    <glyph glyph-name="guillemotleft" unicode="&#xab;" horiz-adv-x="411" 
d="M37 288l161 154l11 -10l-97 -152l97 -152l-11 -10l-161 154v16zM192 288l161 154l10 -10l-97 -152l97 -152l-10 -10l-161 154v16z" />
    <glyph glyph-name="logicalnot" unicode="&#xac;" horiz-adv-x="503" 
d="M38 365h427v-130h-31v100h-396v30z" />
    <glyph glyph-name="uni00AD" unicode="&#xad;" horiz-adv-x="303" 
d="M38 315h227v-30h-227v30z" />
    <glyph glyph-name="registered" unicode="&#xae;" horiz-adv-x="796" 
d="M43 350q0 73 28 138t76 113t112.5 76t138.5 28q73 0 138 -28t113 -76t76 -113t28 -138q0 -74 -28 -138.5t-76 -112.5t-113 -76t-138 -28q-74 0 -138.5 28t-112.5 76t-76 112.5t-28 138.5zM79 350q0 -66 25 -124t68.5 -101.5t101.5 -68.5t124 -25t124 25t101.5 68.5
t68.5 101.5t25 124t-25 124t-68.5 101.5t-101.5 68.5t-124 25t-124 -25t-101.5 -68.5t-68.5 -101.5t-25 -124zM532 440q0 -36 -23.5 -60t-65.5 -31q13 -4 21.5 -14t15.5 -22l63 -114l30 -8v-6h-88l-89 161h-51v-146l33 -9v-6h-129v6l33 9v322l-33 9v4h155q57 0 92.5 -25
t35.5 -70zM345 524v-167h52q30 0 50 20.5t20 63.5t-20 63t-50 20h-52z" />
    <glyph glyph-name="macron" unicode="&#xaf;" horiz-adv-x="303" 
d="M27 625h248v-30h-248v30z" />
    <glyph glyph-name="degree" unicode="&#xb0;" horiz-adv-x="259" 
d="M34 609q0 44 26 70t68 26q44 0 70.5 -26t26.5 -70q0 -42 -26.5 -68.5t-70.5 -26.5q-42 0 -68 26.5t-26 68.5zM71 609q0 -28 16 -45t42 -17t42.5 17t16.5 45t-16.5 45.5t-42.5 17.5t-42 -17.5t-16 -45.5z" />
    <glyph glyph-name="plusminus" unicode="&#xb1;" horiz-adv-x="453" 
d="M38 365h173v173h31v-173h173v-30h-173v-174h-31v174h-173v30zM38 80h377v-30h-377v30z" />
    <glyph glyph-name="uni00B2" unicode="&#xb2;" horiz-adv-x="276" 
d="M21 372q32 30 62 59.5t53.5 60t37.5 63t14 69.5q0 70 -59 70q-11 0 -19.5 -2.5t-18.5 -9.5v-50q0 -18 -9.5 -28t-25.5 -10q-15 0 -25 9t-10 27q0 32 32.5 52t79.5 20q55 0 86.5 -22t31.5 -67q0 -32 -16 -61.5t-43 -57t-61 -53.5t-70 -51h165l19 48h9v-88h-233v22z" />
    <glyph glyph-name="uni00B3" unicode="&#xb3;" horiz-adv-x="309" 
d="M106 635q0 -18 -9.5 -28t-25.5 -10q-15 0 -25 9.5t-10 26.5q0 18 11.5 31.5t28.5 22t38 12.5t41 4q52 0 82.5 -23.5t30.5 -65.5q0 -33 -21.5 -55t-59.5 -30q43 -7 68.5 -29.5t25.5 -59.5q0 -43 -34 -68t-91 -25q-21 0 -43 4t-39.5 12.5t-29 22t-11.5 31.5q0 17 10 26
t25 9q16 0 25.5 -10t9.5 -28v-46q10 -6 20.5 -8.5t21.5 -2.5q32 0 53 20.5t21 62.5q0 45 -25.5 64.5t-66.5 19.5h-21v10h21q35 0 56 19t21 62q0 40 -16.5 59t-42.5 19q-9 0 -19 -2.5t-20 -8.5v-47z" />
    <glyph glyph-name="acute" unicode="&#xb4;" horiz-adv-x="277" 
d="M179 704l57 -58l-185 -94l-10 11z" />
    <glyph glyph-name="mu" unicode="&#xb5;" horiz-adv-x="607" 
d="M19 480v11l151 16l13 -14v-323q0 -61 24 -101t80 -40q35 0 72 16t65 47v375l-60 13v11l150 16l14 -14v-460l60 -13v-11l-151 -12l-13 13l3 57l-3 3q-35 -38 -83.5 -56.5t-93.5 -18.5q-35 0 -61.5 11.5t-43.5 31.5q9 -38 16 -62.5t12.5 -39.5t8.5 -23.5t3 -14.5
q0 -23 -14 -37.5t-37 -14.5t-37.5 14.5t-14.5 37.5v569z" />
    <glyph glyph-name="paragraph" unicode="&#xb6;" horiz-adv-x="493" 
d="M342 210q-65 0 -119 17t-93 48.5t-60.5 77t-21.5 102.5t21.5 102.5t60.5 77t93 48.5t119 17h132v-10l-60 -19v-631q0 -84 -40.5 -141.5t-113.5 -103.5l-11 11q51 53 72 108.5t21 125.5v170z" />
    <glyph glyph-name="periodcentered" unicode="&#xb7;" horiz-adv-x="201" 
d="M39 300q0 26 17.5 44t43.5 18q27 0 44.5 -18t17.5 -44t-17.5 -43.5t-44.5 -17.5q-26 0 -43.5 17.5t-17.5 43.5z" />
    <glyph glyph-name="cedilla" unicode="&#xb8;" horiz-adv-x="185" 
d="M89 0h19l-29 -52q35 0 61.5 -9.5t26.5 -35.5q0 -14 -8 -30t-21.5 -33.5t-31 -35t-36.5 -35.5l-8 9q20 18 33.5 39.5t13.5 41.5q0 19 -17 26t-65 7z" />
    <glyph glyph-name="uni00B9" unicode="&#xb9;" horiz-adv-x="195" 
d="M26 356l42 9v315h-47v8l102 16l7 -8v-331l42 -9v-6h-146v6z" />
    <glyph glyph-name="ordmasculine" unicode="&#xba;" horiz-adv-x="302" 
d="M23 575q0 58 35.5 92.5t92.5 34.5t92.5 -34.5t35.5 -92.5q0 -59 -35.5 -93t-92.5 -34t-92.5 34t-35.5 93zM86 575q0 -61 18 -90.5t47 -29.5t46.5 29.5t17.5 90.5t-17.5 90.5t-46.5 29.5t-47 -29.5t-18 -90.5z" />
    <glyph glyph-name="guillemotright" unicode="&#xbb;" horiz-adv-x="411" 
d="M373 272l-161 -154l-10 10l97 152l-97 152l10 10l161 -154v-16zM219 272l-161 -154l-11 10l97 152l-97 152l11 10l161 -154v-16z" />
    <glyph glyph-name="onequarter" unicode="&#xbc;" horiz-adv-x="573" 
d="M419 6l30 9v60h-150v7q38 71 61.5 134.5t23.5 133.5h62q0 -38 -10 -72.5t-28 -66.5t-42.5 -63t-53.5 -63h137v114l55 55l7 -8v-161h35v-10h-35v-60l30 -9v-6h-122v6zM110 0l304 700h33l-304 -700h-33zM26 356l41 9v315h-46v8l101 16l7 -8v-331l42 -9v-6h-145v6z" />
    <glyph glyph-name="onehalf" unicode="&#xbd;" horiz-adv-x="616" 
d="M26 356l41 9v315h-46v8l101 16l7 -8v-331l42 -9v-6h-145v6zM110 0l304 700h33l-304 -700h-33zM358 22q32 30 61.5 59.5t52.5 60t37 63t14 69.5q0 70 -57 70q-11 0 -19.5 -2.5t-18.5 -9.5v-50q0 -18 -9.5 -28t-25.5 -10q-15 0 -24.5 9t-9.5 27q0 32 32 52t79 20
q54 0 85 -22t31 -67q0 -32 -16 -61.5t-42 -57t-59.5 -53.5t-69.5 -51h162l20 48h8v-88h-231v22z" />
    <glyph glyph-name="threequarters" unicode="&#xbe;" horiz-adv-x="652" 
d="M103 635q0 -18 -9.5 -28t-25.5 -10q-15 0 -24.5 9.5t-9.5 26.5q0 18 11 31.5t28.5 22t38 12.5t40.5 4q53 0 83 -23.5t30 -65.5q0 -33 -21 -55t-59 -30q43 -7 68.5 -29.5t25.5 -59.5q0 -43 -34.5 -68t-91.5 -25q-21 0 -42.5 4t-39 12.5t-29 22t-11.5 31.5q0 17 9.5 26
t24.5 9q16 0 25.5 -10t9.5 -28v-46q18 -11 42 -11q32 0 53 20.5t21 62.5q0 45 -25 64.5t-65 19.5h-22v10h22q35 0 55.5 19t20.5 62q0 40 -17 59t-43 19q-9 0 -19.5 -2.5t-19.5 -8.5v-47zM496 6l30 9v60h-151v7q39 71 62 134.5t23 133.5h62q0 -38 -10 -72.5t-28 -66.5
t-42.5 -63t-53.5 -63h138v114l54 55l7 -8v-161h35v-10h-35v-60l30 -9v-6h-121v6zM185 0l304 700h33l-304 -700h-33z" />
    <glyph glyph-name="questiondown" unicode="&#xbf;" horiz-adv-x="507" 
d="M268 500q7 -63 0 -106t-21 -74.5t-32 -56t-34.5 -51t-27.5 -59.5t-11 -80q0 -36 8.5 -65.5t24 -51t39 -33.5t53.5 -12q22 0 40.5 6.5t39.5 20.5v94q0 32 17.5 49.5t45.5 17.5q26 0 43.5 -16t17.5 -48q0 -30 -16 -55t-44 -44t-66 -29.5t-83 -10.5q-106 0 -166 52.5
t-60 147.5q0 48 15.5 81.5t38.5 60.5t50.5 50.5t50.5 52.5t38.5 66.5t15.5 92.5h23zM316 629q0 -26 -18 -43.5t-44 -17.5t-43.5 17.5t-17.5 43.5t17.5 44t43.5 18t44 -17.5t18 -44.5z" />
    <glyph glyph-name="Agrave" unicode="&#xc0;" horiz-adv-x="755" 
d="M683 29l64 -19v-10h-241v10l66 19l-84 203h-302l-88 -203l88 -19v-10h-178v10l68 19l293 671h33zM195 253h284l-138 337zM462 743l-11 -11l-185 95l57 57z" />
    <glyph glyph-name="Aacute" unicode="&#xc1;" horiz-adv-x="755" 
d="M683 29l64 -19v-10h-241v10l66 19l-84 203h-302l-88 -203l88 -19v-10h-178v10l68 19l293 671h33zM195 253h284l-138 337zM445 884l57 -57l-185 -95l-11 11z" />
    <glyph glyph-name="Acircumflex" unicode="&#xc2;" horiz-adv-x="755" 
d="M683 29l64 -19v-10h-241v10l66 19l-84 203h-302l-88 -203l88 -19v-10h-178v10l68 19l293 671h33zM195 253h284l-138 337zM391 884l135 -141l-10 -11l-132 78l-132 -78l-10 11l134 141h15z" />
    <glyph glyph-name="Atilde" unicode="&#xc3;" horiz-adv-x="755" 
d="M683 29l64 -19v-10h-241v10l66 19l-84 203h-302l-88 -203l88 -19v-10h-178v10l68 19l293 671h33zM195 253h284l-138 337zM215 770q24 24 42.5 41t33 27t26 14.5t22.5 4.5q15 0 28.5 -7t27.5 -16t28.5 -16t31.5 -7q20 0 44 12t44 33l12 -12q-38 -38 -71.5 -64t-57.5 -26
q-14 0 -27.5 7.5t-28 16t-29.5 16t-32 7.5t-38 -10.5t-44 -32.5z" />
    <glyph glyph-name="Adieresis" unicode="&#xc4;" horiz-adv-x="755" 
d="M683 29l64 -19v-10h-241v10l66 19l-84 203h-302l-88 -203l88 -19v-10h-178v10l68 19l293 671h33zM195 253h284l-138 337zM207 804q0 27 18.5 45.5t45.5 18.5q28 0 46.5 -18.5t18.5 -45.5q0 -28 -18.5 -46.5t-46.5 -18.5q-27 0 -45.5 18.5t-18.5 46.5zM432 804
q0 27 18 45.5t46 18.5q27 0 45.5 -18.5t18.5 -45.5q0 -28 -18.5 -46.5t-45.5 -18.5q-28 0 -46 18.5t-18 46.5z" />
    <glyph glyph-name="Aring" unicode="&#xc5;" horiz-adv-x="755" 
d="M683 29l64 -19v-10h-241v10l66 19l-84 203h-302l-88 -203l88 -19v-10h-178v10l68 19l293 671h33zM195 253h284l-138 337zM300 808q0 38 23.5 59.5t60.5 21.5t60.5 -21.5t23.5 -59.5t-23.5 -59.5t-60.5 -21.5t-60.5 21.5t-23.5 59.5zM339 808q0 -28 12.5 -44.5t32.5 -16.5
t32 16.5t12 44.5t-12 44.5t-32 16.5t-32.5 -16.5t-12.5 -44.5z" />
    <glyph glyph-name="AE" unicode="&#xc6;" horiz-adv-x="843" 
d="M394 232h-210l-86 -203l88 -19v-10h-178v10l68 19l285 671h420v-123h-16l-47 103h-299l53 -308h188l21 78h15v-177h-15l-21 78h-185l57 -331h196l47 102h16v-122h-426v8l64 16zM192 253h199l-57 337z" />
    <glyph glyph-name="Ccedilla" unicode="&#xc7;" horiz-adv-x="704" 
d="M385 -6q-77 1 -139 26t-106 71t-68 111.5t-24 147.5t24.5 148t69 112t107.5 71t140 25q57 0 112 -14.5t96 -45.5l42 25l10 -10v-138h-17q-11 52 -38 83.5t-60 48.5t-67 22.5t-58 5.5q-115 0 -181.5 -83t-66.5 -246q0 -74 16.5 -134.5t49.5 -103.5t83.5 -66.5t119.5 -23.5
q58 0 112.5 18t98.5 63l11 -12q-95 -97 -248 -101l-25 -46q35 0 61.5 -9.5t26.5 -35.5q0 -14 -8 -30t-21.5 -33.5t-31 -35t-36.5 -35.5l-7 9q19 18 32.5 39.5t13.5 41.5q0 19 -17 26t-65 7z" />
    <glyph glyph-name="Egrave" unicode="&#xc8;" horiz-adv-x="619" 
d="M504 20l47 102h16v-122h-548v8l65 16v652l-65 15v9h538v-123h-16l-47 103h-302v-308h244l21 78h15v-177h-15l-21 78h-244v-331h312zM387 743l-11 -11l-184 95l56 57z" />
    <glyph glyph-name="Eacute" unicode="&#xc9;" horiz-adv-x="619" 
d="M504 20l47 102h16v-122h-548v8l65 16v652l-65 15v9h538v-123h-16l-47 103h-302v-308h244l21 78h15v-177h-15l-21 78h-244v-331h312zM370 884l57 -57l-185 -95l-10 11z" />
    <glyph glyph-name="Ecircumflex" unicode="&#xca;" horiz-adv-x="619" 
d="M504 20l47 102h16v-122h-548v8l65 16v652l-65 15v9h538v-123h-16l-47 103h-302v-308h244l21 78h15v-177h-15l-21 78h-244v-331h312zM317 884l135 -141l-11 -11l-132 78l-131 -78l-11 11l135 141h15z" />
    <glyph glyph-name="Edieresis" unicode="&#xcb;" horiz-adv-x="619" 
d="M504 20l47 102h16v-122h-548v8l65 16v652l-65 15v9h538v-123h-16l-47 103h-302v-308h244l21 78h15v-177h-15l-21 78h-244v-331h312zM133 804q0 27 18.5 45.5t45.5 18.5q28 0 46.5 -18.5t18.5 -45.5q0 -28 -18.5 -46.5t-46.5 -18.5q-27 0 -45.5 18.5t-18.5 46.5zM358 804
q0 27 18 45.5t46 18.5q27 0 45.5 -18.5t18.5 -45.5q0 -28 -18.5 -46.5t-45.5 -18.5q-28 0 -46 18.5t-18 46.5z" />
    <glyph glyph-name="Igrave" unicode="&#xcc;" horiz-adv-x="276" 
d="M191 29l62 -19v-10h-233v10l65 19v642l-65 19v10h233v-10l-62 -19v-642zM216 743l-11 -11l-184 95l56 57z" />
    <glyph glyph-name="Iacute" unicode="&#xcd;" horiz-adv-x="276" 
d="M191 29l62 -19v-10h-233v10l65 19v642l-65 19v10h233v-10l-62 -19v-642zM199 884l57 -57l-185 -95l-10 11z" />
    <glyph glyph-name="Icircumflex" unicode="&#xce;" horiz-adv-x="276" 
d="M191 29l62 -19v-10h-233v10l65 19v642l-65 19v10h233v-10l-62 -19v-642zM146 884l134 -141l-10 -11l-132 78l-132 -78l-10 11l134 141h16z" />
    <glyph glyph-name="Idieresis" unicode="&#xcf;" horiz-adv-x="276" 
d="M191 29l62 -19v-10h-233v10l65 19v642l-65 19v10h233v-10l-62 -19v-642zM-17 804q0 27 18 45.5t46 18.5t46 -18.5t18 -45.5q0 -28 -18 -46.5t-46 -18.5t-46 18.5t-18 46.5zM165 804q0 27 18 45.5t46 18.5t46 -18.5t18 -45.5q0 -28 -18 -46.5t-46 -18.5t-46 18.5t-18 46.5
z" />
    <glyph glyph-name="Eth" unicode="&#xd0;" horiz-adv-x="726" 
d="M21 355l63 12v309l-65 15v9h319q75 0 137.5 -24t107.5 -69t70 -110t25 -147q0 -83 -25 -148t-70 -110t-107.5 -68.5t-137.5 -23.5h-319v8l65 16v322h-63v9zM192 680v-313h171v-21h-171v-326h146q49 0 91 20.5t72 61.5t47 102.5t17 144.5t-17 145t-47 103.5t-72 62
t-91 20.5h-146z" />
    <glyph glyph-name="Ntilde" unicode="&#xd1;" horiz-adv-x="697" 
d="M84 27v644l-65 19v10h178l395 -550v523l-65 18v9h151v-9l-65 -18v-673h-31l-477 662v-635l65 -19v-8h-151v8zM179 770q49 49 76.5 68t47.5 19q15 0 29 -7t28 -16t28.5 -16t31.5 -7q19 0 43 12t44 33l12 -12q-38 -38 -71 -64t-57 -26q-14 0 -27.5 7.5t-28 16t-29.5 16
t-32 7.5q-18 0 -39 -10.5t-43 -32.5z" />
    <glyph glyph-name="Ograve" unicode="&#xd2;" horiz-adv-x="769" 
d="M48 350q0 82 24.5 147.5t69 112t106.5 71.5t137 25q74 0 136 -25t106.5 -71.5t69.5 -112t25 -147.5q0 -83 -25 -148.5t-69.5 -112t-106.5 -71t-136 -24.5q-75 0 -137 24.5t-106.5 71t-69 112t-24.5 148.5zM161 349q0 -84 16.5 -148t46.5 -106.5t71 -64t90 -21.5t90 21.5
t70.5 64t46 106.5t16.5 148q0 85 -16.5 149t-46 107t-70.5 64.5t-90 21.5t-90 -21.5t-71 -64.5t-46.5 -107t-16.5 -149zM462 743l-11 -11l-185 95l57 57z" />
    <glyph glyph-name="Oacute" unicode="&#xd3;" horiz-adv-x="769" 
d="M48 350q0 82 24.5 147.5t69 112t106.5 71.5t137 25q74 0 136 -25t106.5 -71.5t69.5 -112t25 -147.5q0 -83 -25 -148.5t-69.5 -112t-106.5 -71t-136 -24.5q-75 0 -137 24.5t-106.5 71t-69 112t-24.5 148.5zM161 349q0 -84 16.5 -148t46.5 -106.5t71 -64t90 -21.5t90 21.5
t70.5 64t46 106.5t16.5 148q0 85 -16.5 149t-46 107t-70.5 64.5t-90 21.5t-90 -21.5t-71 -64.5t-46.5 -107t-16.5 -149zM445 884l57 -57l-185 -95l-11 11z" />
    <glyph glyph-name="Ocircumflex" unicode="&#xd4;" horiz-adv-x="769" 
d="M48 350q0 82 24.5 147.5t69 112t106.5 71.5t137 25q74 0 136 -25t106.5 -71.5t69.5 -112t25 -147.5q0 -83 -25 -148.5t-69.5 -112t-106.5 -71t-136 -24.5q-75 0 -137 24.5t-106.5 71t-69 112t-24.5 148.5zM161 349q0 -84 16.5 -148t46.5 -106.5t71 -64t90 -21.5t90 21.5
t70.5 64t46 106.5t16.5 148q0 85 -16.5 149t-46 107t-70.5 64.5t-90 21.5t-90 -21.5t-71 -64.5t-46.5 -107t-16.5 -149zM392 884l135 -141l-11 -11l-132 78l-131 -78l-11 11l135 141h15z" />
    <glyph glyph-name="Otilde" unicode="&#xd5;" horiz-adv-x="769" 
d="M48 350q0 82 24.5 147.5t69 112t106.5 71.5t137 25q74 0 136 -25t106.5 -71.5t69.5 -112t25 -147.5q0 -83 -25 -148.5t-69.5 -112t-106.5 -71t-136 -24.5q-75 0 -137 24.5t-106.5 71t-69 112t-24.5 148.5zM161 349q0 -84 16.5 -148t46.5 -106.5t71 -64t90 -21.5t90 21.5
t70.5 64t46 106.5t16.5 148q0 85 -16.5 149t-46 107t-70.5 64.5t-90 21.5t-90 -21.5t-71 -64.5t-46.5 -107t-16.5 -149zM216 770q24 24 42.5 41t33 27t26 14.5t22.5 4.5q15 0 28.5 -7t27.5 -16t28.5 -16t31.5 -7q20 0 44 12t44 33l12 -12q-38 -38 -71.5 -64t-57.5 -26
q-14 0 -27.5 7.5t-28 16t-29.5 16t-32 7.5q-38 0 -82 -43z" />
    <glyph glyph-name="Odieresis" unicode="&#xd6;" horiz-adv-x="769" 
d="M48 350q0 82 24.5 147.5t69 112t106.5 71.5t137 25q74 0 136 -25t106.5 -71.5t69.5 -112t25 -147.5q0 -83 -25 -148.5t-69.5 -112t-106.5 -71t-136 -24.5q-75 0 -137 24.5t-106.5 71t-69 112t-24.5 148.5zM161 349q0 -84 16.5 -148t46.5 -106.5t71 -64t90 -21.5t90 21.5
t70.5 64t46 106.5t16.5 148q0 85 -16.5 149t-46 107t-70.5 64.5t-90 21.5t-90 -21.5t-71 -64.5t-46.5 -107t-16.5 -149zM208 804q0 27 18.5 45.5t45.5 18.5q28 0 46.5 -18.5t18.5 -45.5q0 -28 -18.5 -46.5t-46.5 -18.5q-27 0 -45.5 18.5t-18.5 46.5zM432 804q0 27 18.5 45.5
t46.5 18.5q27 0 45.5 -18.5t18.5 -45.5q0 -28 -18.5 -46.5t-45.5 -18.5q-28 0 -46.5 18.5t-18.5 46.5z" />
    <glyph glyph-name="multiply" unicode="&#xd7;" horiz-adv-x="453" 
d="M74 474l152 -153l153 153l22 -21l-153 -153l153 -153l-22 -21l-153 153l-152 -153l-22 21l153 153l-153 153z" />
    <glyph glyph-name="Oslash" unicode="&#xd8;" horiz-adv-x="769" 
d="M48 0l87 96q-42 46 -64.5 110t-22.5 144q0 82 24.5 147.5t69 112t106.5 71.5t137 25q69 0 127 -21.5t103 -62.5l71 78h36l-88 -97q42 -46 65 -110t23 -143q0 -83 -25 -148.5t-69.5 -112t-106.5 -71t-136 -24.5q-70 0 -128.5 21.5t-102.5 62.5l-71 -78h-35zM608 349
q0 58 -8 106t-23 87l-375 -411q30 -61 76.5 -91.5t106.5 -30.5q49 0 90 21.5t70.5 64t46 106.5t16.5 148zM161 349q0 -58 8 -106t22 -86l375 411q-30 61 -76.5 92t-104.5 31q-49 0 -90 -21.5t-71 -64.5t-46.5 -107t-16.5 -149z" />
    <glyph glyph-name="Ugrave" unicode="&#xd9;" horiz-adv-x="719" 
d="M634 260q0 -62 -20 -111.5t-56 -84t-86.5 -52.5t-111.5 -18t-112 18.5t-87.5 53t-56.5 83.5t-20 111v411l-65 19v10h238v-10l-65 -19v-411q0 -56 15.5 -98t43.5 -71t66 -43.5t83 -14.5q47 0 86 15.5t67.5 44.5t44.5 71.5t16 95.5v413l-65 18v9h150v-9l-65 -18v-413z
M450 743l-10 -11l-185 95l57 57z" />
    <glyph glyph-name="Uacute" unicode="&#xda;" horiz-adv-x="719" 
d="M634 260q0 -62 -20 -111.5t-56 -84t-86.5 -52.5t-111.5 -18t-112 18.5t-87.5 53t-56.5 83.5t-20 111v411l-65 19v10h238v-10l-65 -19v-411q0 -56 15.5 -98t43.5 -71t66 -43.5t83 -14.5q47 0 86 15.5t67.5 44.5t44.5 71.5t16 95.5v413l-65 18v9h150v-9l-65 -18v-413z
M434 884l57 -57l-185 -95l-10 11z" />
    <glyph glyph-name="Ucircumflex" unicode="&#xdb;" horiz-adv-x="719" 
d="M634 260q0 -62 -20 -111.5t-56 -84t-86.5 -52.5t-111.5 -18t-112 18.5t-87.5 53t-56.5 83.5t-20 111v411l-65 19v10h238v-10l-65 -19v-411q0 -56 15.5 -98t43.5 -71t66 -43.5t83 -14.5q47 0 86 15.5t67.5 44.5t44.5 71.5t16 95.5v413l-65 18v9h150v-9l-65 -18v-413z
M381 884l134 -141l-10 -11l-132 78l-132 -78l-10 11l134 141h16z" />
    <glyph glyph-name="Udieresis" unicode="&#xdc;" horiz-adv-x="719" 
d="M634 260q0 -62 -20 -111.5t-56 -84t-86.5 -52.5t-111.5 -18t-112 18.5t-87.5 53t-56.5 83.5t-20 111v411l-65 19v10h238v-10l-65 -19v-411q0 -56 15.5 -98t43.5 -71t66 -43.5t83 -14.5q47 0 86 15.5t67.5 44.5t44.5 71.5t16 95.5v413l-65 18v9h150v-9l-65 -18v-413z
M197 804q0 27 18 45.5t46 18.5t46 -18.5t18 -45.5q0 -28 -18 -46.5t-46 -18.5t-46 18.5t-18 46.5zM421 804q0 27 18.5 45.5t45.5 18.5q28 0 46.5 -18.5t18.5 -45.5q0 -28 -18.5 -46.5t-46.5 -18.5q-27 0 -45.5 18.5t-18.5 46.5z" />
    <glyph glyph-name="Yacute" unicode="&#xdd;" horiz-adv-x="724" 
d="M401 326l221 345l-84 19v10h178v-10l-71 -19l-234 -367v-275l62 -19v-10h-234v10l65 19v275l-234 367l-62 19v10h241v-10l-66 -19zM425 884l57 -57l-185 -95l-10 11z" />
    <glyph glyph-name="Thorn" unicode="&#xde;" horiz-adv-x="616" 
d="M192 560h109q59 0 108.5 -13.5t85 -39.5t55 -63t19.5 -83t-19.5 -83t-55 -62.5t-85 -39t-108.5 -13.5h-81l-13 14v6h81q75 0 123 44.5t48 133.5t-48 134t-123 45h-96v-511l100 -19v-10h-273v10l65 19v642l-65 19v10h234v-10l-61 -19v-111z" />
    <glyph glyph-name="germandbls" unicode="&#xdf;" horiz-adv-x="643" 
d="M277 128h20q7 -36 20 -59t30.5 -36t36.5 -18t38 -5q50 0 80 27t30 72q0 22 -7 37t-21.5 26.5t-35.5 20.5t-48 18q-28 10 -54 21t-46 28t-32 42t-12 64q0 52 19.5 83.5t43 55t43 47t19.5 60.5q0 42 -28 69.5t-84 27.5q-57 0 -81.5 -33.5t-24.5 -101.5v-545l60 -19v-10
h-224v10l60 19v451h-60v8l60 19v67q0 78 51 114t140 36q50 0 83 -10t52 -26t26.5 -36.5t7.5 -42.5q0 -35 -14.5 -58t-32 -44t-32 -43.5t-14.5 -55.5q0 -41 25.5 -61.5t72.5 -36.5q26 -10 54 -22.5t51 -31.5t38 -47t15 -69q0 -31 -9.5 -57.5t-30.5 -46t-53.5 -30.5t-78.5 -11
q-72 0 -122 31l-21 -17l-10 10v109z" />
    <glyph glyph-name="agrave" unicode="&#xe0;" horiz-adv-x="546" 
d="M363 63q-35 -32 -81 -50.5t-98 -18.5q-70 0 -102.5 31.5t-32.5 84.5q0 44 21.5 71t62 44t98.5 28t132 23v94q0 52 -26.5 84.5t-77.5 32.5q-40 0 -74 -23v-81q0 -31 -17.5 -48.5t-43.5 -17.5t-43 16t-17 47q0 30 16.5 52.5t44.5 38.5t63 24t73 8q50 0 88.5 -11.5t64.5 -32
t39.5 -48.5t13.5 -60v-305q0 -14 6 -19.5t18 -5.5q8 0 17.5 2.5t15.5 8.5l7 -7q-14 -14 -37.5 -20.5t-53.5 -6.5q-32 0 -51 13.5t-23 48.5zM363 261q-53 -8 -92 -15.5t-65 -21t-38.5 -37.5t-12.5 -64q0 -47 22.5 -70.5t60.5 -23.5q34 0 67 15.5t58 41.5v175zM339 563
l-11 -11l-185 94l57 58z" />
    <glyph glyph-name="aacute" unicode="&#xe1;" horiz-adv-x="546" 
d="M363 63q-35 -32 -81 -50.5t-98 -18.5q-70 0 -102.5 31.5t-32.5 84.5q0 44 21.5 71t62 44t98.5 28t132 23v94q0 52 -26.5 84.5t-77.5 32.5q-40 0 -74 -23v-81q0 -31 -17.5 -48.5t-43.5 -17.5t-43 16t-17 47q0 30 16.5 52.5t44.5 38.5t63 24t73 8q50 0 88.5 -11.5t64.5 -32
t39.5 -48.5t13.5 -60v-305q0 -14 6 -19.5t18 -5.5q8 0 17.5 2.5t15.5 8.5l7 -7q-14 -14 -37.5 -20.5t-53.5 -6.5q-32 0 -51 13.5t-23 48.5zM363 261q-53 -8 -92 -15.5t-65 -21t-38.5 -37.5t-12.5 -64q0 -47 22.5 -70.5t60.5 -23.5q34 0 67 15.5t58 41.5v175zM322 704l57 -58
l-185 -94l-11 11z" />
    <glyph glyph-name="acircumflex" unicode="&#xe2;" horiz-adv-x="546" 
d="M363 63q-35 -32 -81 -50.5t-98 -18.5q-70 0 -102.5 31.5t-32.5 84.5q0 44 21.5 71t62 44t98.5 28t132 23v94q0 52 -26.5 84.5t-77.5 32.5q-40 0 -74 -23v-81q0 -31 -17.5 -48.5t-43.5 -17.5t-43 16t-17 47q0 30 16.5 52.5t44.5 38.5t63 24t73 8q50 0 88.5 -11.5t64.5 -32
t39.5 -48.5t13.5 -60v-305q0 -14 6 -19.5t18 -5.5q8 0 17.5 2.5t15.5 8.5l7 -7q-14 -14 -37.5 -20.5t-53.5 -6.5q-32 0 -51 13.5t-23 48.5zM363 261q-53 -8 -92 -15.5t-65 -21t-38.5 -37.5t-12.5 -64q0 -47 22.5 -70.5t60.5 -23.5q34 0 67 15.5t58 41.5v175zM268 704
l135 -141l-11 -11l-132 77l-131 -77l-11 11l135 141h15z" />
    <glyph glyph-name="atilde" unicode="&#xe3;" horiz-adv-x="546" 
d="M363 63q-35 -32 -81 -50.5t-98 -18.5q-70 0 -102.5 31.5t-32.5 84.5q0 44 21.5 71t62 44t98.5 28t132 23v94q0 52 -26.5 84.5t-77.5 32.5q-40 0 -74 -23v-81q0 -31 -17.5 -48.5t-43.5 -17.5t-43 16t-17 47q0 30 16.5 52.5t44.5 38.5t63 24t73 8q50 0 88.5 -11.5t64.5 -32
t39.5 -48.5t13.5 -60v-305q0 -14 6 -19.5t18 -5.5q8 0 17.5 2.5t15.5 8.5l7 -7q-14 -14 -37.5 -20.5t-53.5 -6.5q-32 0 -51 13.5t-23 48.5zM363 261q-53 -8 -92 -15.5t-65 -21t-38.5 -37.5t-12.5 -64q0 -47 22.5 -70.5t60.5 -23.5q34 0 67 15.5t58 41.5v175zM92 589
q49 49 76.5 68t47.5 19q15 0 29 -7t27.5 -16t28 -16t31.5 -7q20 0 44 12.5t44 32.5l12 -12q-38 -38 -71 -63.5t-57 -25.5q-14 0 -28 7t-28.5 16t-29.5 16t-32 7t-38 -10t-44 -33z" />
    <glyph glyph-name="adieresis" unicode="&#xe4;" horiz-adv-x="546" 
d="M363 63q-35 -32 -81 -50.5t-98 -18.5q-70 0 -102.5 31.5t-32.5 84.5q0 44 21.5 71t62 44t98.5 28t132 23v94q0 52 -26.5 84.5t-77.5 32.5q-40 0 -74 -23v-81q0 -31 -17.5 -48.5t-43.5 -17.5t-43 16t-17 47q0 30 16.5 52.5t44.5 38.5t63 24t73 8q50 0 88.5 -11.5t64.5 -32
t39.5 -48.5t13.5 -60v-305q0 -14 6 -19.5t18 -5.5q8 0 17.5 2.5t15.5 8.5l7 -7q-14 -14 -37.5 -20.5t-53.5 -6.5q-32 0 -51 13.5t-23 48.5zM363 261q-53 -8 -92 -15.5t-65 -21t-38.5 -37.5t-12.5 -64q0 -47 22.5 -70.5t60.5 -23.5q34 0 67 15.5t58 41.5v175zM88 623
q0 28 18.5 46t46.5 18q27 0 45.5 -18t18.5 -46t-18.5 -46t-45.5 -18q-28 0 -46.5 18t-18.5 46zM313 623q0 28 18 46t46 18t46 -18t18 -46t-18 -46t-46 -18t-46 18t-18 46z" />
    <glyph glyph-name="aring" unicode="&#xe5;" horiz-adv-x="546" 
d="M363 63q-35 -32 -81 -50.5t-98 -18.5q-70 0 -102.5 31.5t-32.5 84.5q0 44 21.5 71t62 44t98.5 28t132 23v94q0 52 -26.5 84.5t-77.5 32.5q-40 0 -74 -23v-81q0 -31 -17.5 -48.5t-43.5 -17.5t-43 16t-17 47q0 30 16.5 52.5t44.5 38.5t63 24t73 8q50 0 88.5 -11.5t64.5 -32
t39.5 -48.5t13.5 -60v-305q0 -14 6 -19.5t18 -5.5q8 0 17.5 2.5t15.5 8.5l7 -7q-14 -14 -37.5 -20.5t-53.5 -6.5q-32 0 -51 13.5t-23 48.5zM363 261q-53 -8 -92 -15.5t-65 -21t-38.5 -37.5t-12.5 -64q0 -47 22.5 -70.5t60.5 -23.5q34 0 67 15.5t58 41.5v175zM177 628
q0 37 23 58.5t60 21.5q38 0 61.5 -21.5t23.5 -58.5q0 -38 -23.5 -60t-61.5 -22q-37 0 -60 22t-23 60zM216 628q0 -29 12 -45.5t32 -16.5t32.5 16.5t12.5 45.5q0 28 -12.5 44.5t-32.5 16.5t-32 -16.5t-12 -44.5z" />
    <glyph glyph-name="ae" unicode="&#xe6;" horiz-adv-x="826" 
d="M363 63q-35 -32 -80.5 -50.5t-99.5 -18.5q-69 0 -101.5 29.5t-32.5 80.5q0 41 20.5 66.5t60.5 42.5t98.5 28t134.5 23v106q0 52 -26.5 84.5t-77.5 32.5q-40 0 -74 -23v-81q0 -31 -17.5 -48.5t-43.5 -17.5t-43 16t-17 47q0 30 17 52.5t44.5 38.5t62.5 24t72 8
q50 0 86 -13.5t60 -36.5q63 51 152 51q49 0 90 -14.5t71 -41t46.5 -63.5t16.5 -82q0 -9 -1 -19.5t-4 -20.5l-14 -13h-305v-154q23 -34 59.5 -52t89.5 -18q43 0 79.5 13.5t68.5 45.5l11 -12q-38 -38 -86 -58t-117 -20q-66 0 -116 18t-84 50zM363 249q-55 -8 -94.5 -16
t-64.5 -21t-37 -35t-12 -59q0 -45 22.5 -67t60.5 -22q34 0 67 15t58 41v164zM458 267l223 13q0 105 -31.5 157t-87.5 52q-32 0 -62.5 -20t-51.5 -65q10 -24 10 -53v-84z" />
    <glyph glyph-name="ccedilla" unicode="&#xe7;" horiz-adv-x="555" 
d="M282 -5q-61 1 -106.5 20t-76 52.5t-45.5 79t-15 101.5q0 118 65 187t189 69q39 0 77 -8.5t68 -24.5t48 -40.5t18 -55.5q0 -32 -18 -48t-44 -16q-28 0 -45 17.5t-17 48.5v86q-42 26 -85 26q-71 0 -110 -61t-39 -163q0 -112 46 -176t140 -64q87 0 147 60l11 -12
q-35 -35 -81 -55.5t-108 -22.5l-26 -47q35 0 61.5 -9.5t26.5 -35.5q0 -14 -8 -30t-21.5 -33.5t-31 -35t-36.5 -35.5l-7 9q19 18 32.5 39.5t13.5 41.5q0 19 -17 26t-65 7z" />
    <glyph glyph-name="egrave" unicode="&#xe8;" horiz-adv-x="558" 
d="M146 250q0 -106 48 -165t146 -59q42 0 78.5 13.5t68.5 45.5l11 -12q-37 -37 -86 -57.5t-115 -20.5q-65 0 -113.5 19t-80.5 52.5t-48 79t-16 98.5q0 60 19 108t52.5 81.5t79.5 52t100 18.5q49 0 90 -14.5t71 -41t46.5 -63.5t16.5 -82q0 -9 -1 -19.5t-4 -20.5l-14 -13h-349
zM294 489q-27 0 -53 -13t-46.5 -40.5t-34 -70t-14.5 -100.5l266 15q0 105 -31 157t-87 52zM368 563l-10 -11l-185 94l57 58z" />
    <glyph glyph-name="eacute" unicode="&#xe9;" horiz-adv-x="558" 
d="M146 250q0 -106 48 -165t146 -59q42 0 78.5 13.5t68.5 45.5l11 -12q-37 -37 -86 -57.5t-115 -20.5q-65 0 -113.5 19t-80.5 52.5t-48 79t-16 98.5q0 60 19 108t52.5 81.5t79.5 52t100 18.5q49 0 90 -14.5t71 -41t46.5 -63.5t16.5 -82q0 -9 -1 -19.5t-4 -20.5l-14 -13h-349
zM294 489q-27 0 -53 -13t-46.5 -40.5t-34 -70t-14.5 -100.5l266 15q0 105 -31 157t-87 52zM351 704l57 -58l-185 -94l-11 11z" />
    <glyph glyph-name="ecircumflex" unicode="&#xea;" horiz-adv-x="558" 
d="M146 250q0 -106 48 -165t146 -59q42 0 78.5 13.5t68.5 45.5l11 -12q-37 -37 -86 -57.5t-115 -20.5q-65 0 -113.5 19t-80.5 52.5t-48 79t-16 98.5q0 60 19 108t52.5 81.5t79.5 52t100 18.5q49 0 90 -14.5t71 -41t46.5 -63.5t16.5 -82q0 -9 -1 -19.5t-4 -20.5l-14 -13h-349
zM294 489q-27 0 -53 -13t-46.5 -40.5t-34 -70t-14.5 -100.5l266 15q0 105 -31 157t-87 52zM296 704l135 -141l-10 -11l-132 77l-132 -77l-10 11l134 141h15z" />
    <glyph glyph-name="edieresis" unicode="&#xeb;" horiz-adv-x="558" 
d="M146 250q0 -106 48 -165t146 -59q42 0 78.5 13.5t68.5 45.5l11 -12q-37 -37 -86 -57.5t-115 -20.5q-65 0 -113.5 19t-80.5 52.5t-48 79t-16 98.5q0 60 19 108t52.5 81.5t79.5 52t100 18.5q49 0 90 -14.5t71 -41t46.5 -63.5t16.5 -82q0 -9 -1 -19.5t-4 -20.5l-14 -13h-349
zM294 489q-27 0 -53 -13t-46.5 -40.5t-34 -70t-14.5 -100.5l266 15q0 105 -31 157t-87 52zM112 623q0 28 18 46t46 18t46 -18t18 -46t-18 -46t-46 -18t-46 18t-18 46zM336 623q0 28 18.5 46t45.5 18q28 0 46.5 -18t18.5 -46t-18.5 -46t-46.5 -18q-27 0 -45.5 18t-18.5 46z
" />
    <glyph glyph-name="igrave" unicode="&#xec;" 
d="M209 563l-10 -11l-185 94l57 58zM19 10l60 19v438l-60 13v11l151 16l13 -14v-464l60 -19v-10h-224v10z" />
    <glyph glyph-name="iacute" unicode="&#xed;" 
d="M192 704l57 -58l-185 -94l-10 11zM19 10l60 19v438l-60 13v11l151 16l13 -14v-464l60 -19v-10h-224v10z" />
    <glyph glyph-name="icircumflex" unicode="&#xee;" 
d="M19 10l60 19v438l-60 13v11l151 16l13 -14v-464l60 -19v-10h-224v10zM139 704l134 -141l-10 -11l-132 77l-132 -77l-10 11l134 141h16z" />
    <glyph glyph-name="idieresis" unicode="&#xef;" 
d="M19 10l60 19v438l-60 13v11l151 16l13 -14v-464l60 -19v-10h-224v10zM-20 623q0 28 18 46t46 18q27 0 45.5 -18t18.5 -46t-18.5 -46t-45.5 -18q-28 0 -46 18t-18 46zM144 623q0 28 18.5 46t45.5 18q28 0 46.5 -18t18.5 -46t-18.5 -46t-46.5 -18q-27 0 -45.5 18t-18.5 46z
" />
    <glyph glyph-name="eth" unicode="&#xf0;" horiz-adv-x="585" 
d="M348 632q-29 18 -59.5 31.5t-60.5 23t-58.5 15.5t-51.5 8l17 17q60 -8 123 -20.5t120 -44.5l66 66l22 -22l-61 -61q30 -21 56 -50.5t44.5 -69t29 -91t10.5 -116.5q0 -165 -66 -244t-184 -79q-57 0 -103.5 17.5t-79.5 50.5t-51 79.5t-18 104.5q0 59 18 106.5t51 81
t78.5 51.5t100.5 18q69 0 118.5 -28t72.5 -73h4q0 72 -31.5 124t-79.5 88l-66 -66l-22 22zM435 249q0 119 -40.5 179.5t-103.5 60.5t-102.5 -60t-39.5 -180q0 -118 39.5 -178.5t102.5 -60.5q64 0 104 60.5t40 178.5z" />
    <glyph glyph-name="ntilde" unicode="&#xf1;" horiz-adv-x="610" 
d="M183 29l53 -19v-10h-217v10l60 19v438l-60 13v11l151 16l13 -14l-3 -61l3 -3q19 18 43 32t50 23.5t52.5 14.5t50.5 5q79 0 115.5 -47.5t36.5 -124.5v-303l60 -19v-10h-217v10l53 19v286q0 33 -5.5 61t-18 48.5t-32 32.5t-47.5 12q-38 0 -76.5 -17t-64.5 -45v-378z
M137 589q49 49 76 68t48 19q15 0 28.5 -7t27.5 -16t28.5 -16t31.5 -7q19 0 43 12.5t45 32.5l12 -12q-38 -38 -71.5 -63.5t-57.5 -25.5q-14 0 -27.5 7t-28 16t-29.5 16t-32 7q-18 0 -38.5 -10t-43.5 -33z" />
    <glyph glyph-name="ograve" unicode="&#xf2;" horiz-adv-x="583" 
d="M39 249q0 58 18.5 105t52 80.5t80 51.5t102.5 18t102.5 -18t79.5 -51.5t51.5 -80.5t18.5 -105q0 -59 -18.5 -106t-51.5 -80t-79.5 -50.5t-102.5 -17.5t-102.5 17.5t-80 50.5t-52 80t-18.5 106zM146 249q0 -118 40.5 -178.5t105.5 -60.5q66 0 106 60.5t40 178.5
q0 119 -40 179.5t-106 60.5q-65 0 -105.5 -60.5t-40.5 -179.5zM369 563l-11 -11l-184 94l56 58z" />
    <glyph glyph-name="oacute" unicode="&#xf3;" horiz-adv-x="583" 
d="M39 249q0 58 18.5 105t52 80.5t80 51.5t102.5 18t102.5 -18t79.5 -51.5t51.5 -80.5t18.5 -105q0 -59 -18.5 -106t-51.5 -80t-79.5 -50.5t-102.5 -17.5t-102.5 17.5t-80 50.5t-52 80t-18.5 106zM146 249q0 -118 40.5 -178.5t105.5 -60.5q66 0 106 60.5t40 178.5
q0 119 -40 179.5t-106 60.5q-65 0 -105.5 -60.5t-40.5 -179.5zM352 704l57 -58l-185 -94l-10 11z" />
    <glyph glyph-name="ocircumflex" unicode="&#xf4;" horiz-adv-x="583" 
d="M39 249q0 58 18.5 105t52 80.5t80 51.5t102.5 18t102.5 -18t79.5 -51.5t51.5 -80.5t18.5 -105q0 -59 -18.5 -106t-51.5 -80t-79.5 -50.5t-102.5 -17.5t-102.5 17.5t-80 50.5t-52 80t-18.5 106zM146 249q0 -118 40.5 -178.5t105.5 -60.5q66 0 106 60.5t40 178.5
q0 119 -40 179.5t-106 60.5q-65 0 -105.5 -60.5t-40.5 -179.5zM299 704l135 -141l-11 -11l-132 77l-131 -77l-11 11l135 141h15z" />
    <glyph glyph-name="otilde" unicode="&#xf5;" horiz-adv-x="583" 
d="M39 249q0 58 18.5 105t52 80.5t80 51.5t102.5 18t102.5 -18t79.5 -51.5t51.5 -80.5t18.5 -105q0 -59 -18.5 -106t-51.5 -80t-79.5 -50.5t-102.5 -17.5t-102.5 17.5t-80 50.5t-52 80t-18.5 106zM146 249q0 -118 40.5 -178.5t105.5 -60.5q66 0 106 60.5t40 178.5
q0 119 -40 179.5t-106 60.5q-65 0 -105.5 -60.5t-40.5 -179.5zM123 589q49 49 76.5 68t47.5 19q15 0 28.5 -7t27.5 -16t28.5 -16t31.5 -7q20 0 44 12.5t44 32.5l12 -12q-38 -38 -71.5 -63.5t-56.5 -25.5q-14 0 -28 7t-28.5 16t-29.5 16t-32 7t-38 -10t-44 -33z" />
    <glyph glyph-name="odieresis" unicode="&#xf6;" horiz-adv-x="583" 
d="M39 249q0 58 18.5 105t52 80.5t80 51.5t102.5 18t102.5 -18t79.5 -51.5t51.5 -80.5t18.5 -105q0 -59 -18.5 -106t-51.5 -80t-79.5 -50.5t-102.5 -17.5t-102.5 17.5t-80 50.5t-52 80t-18.5 106zM146 249q0 -118 40.5 -178.5t105.5 -60.5q66 0 106 60.5t40 178.5
q0 119 -40 179.5t-106 60.5q-65 0 -105.5 -60.5t-40.5 -179.5zM115 623q0 28 18.5 46t46.5 18q27 0 45.5 -18t18.5 -46t-18.5 -46t-45.5 -18q-28 0 -46.5 18t-18.5 46zM340 623q0 28 18 46t46 18t46 -18t18 -46t-18 -46t-46 -18t-46 18t-18 46z" />
    <glyph glyph-name="divide" unicode="&#xf7;" horiz-adv-x="453" 
d="M38 322h377v-31h-377v31zM171 164q0 24 16 40t39 16t39 -16t16 -40q0 -23 -16 -39t-39 -16t-39 16t-16 39zM171 448q0 24 16 40t39 16t39 -16t16 -40q0 -23 -16 -39t-39 -16t-39 16t-16 39z" />
    <glyph glyph-name="oslash" unicode="&#xf8;" horiz-adv-x="583" 
d="M39 0l64 69q-31 32 -47.5 77.5t-16.5 102.5q0 58 18.5 105t52 80.5t80 51.5t102.5 18q50 0 92 -14.5t74 -40.5l48 51h38l-66 -70q32 -33 49 -78.5t17 -102.5q0 -59 -18.5 -106t-51.5 -80t-79.5 -50.5t-102.5 -17.5q-102 0 -168 55l-46 -50h-39zM438 249q0 71 -15 121
l-252 -270q19 -45 50 -67.5t71 -22.5q66 0 106 60.5t40 178.5zM146 249q0 -70 15 -119l251 269q-38 90 -120 90q-65 0 -105.5 -60.5t-40.5 -179.5z" />
    <glyph glyph-name="ugrave" unicode="&#xf9;" horiz-adv-x="607" 
d="M588 20v-11l-151 -12l-13 13l3 57l-3 3q-38 -38 -88.5 -56.5t-98.5 -18.5q-79 0 -118.5 44t-39.5 114v314l-60 13v11l151 16l13 -14v-323q0 -61 24 -101t80 -40q35 0 72 16t65 47v375l-60 13v11l150 16l14 -14v-460zM376 563l-11 -11l-185 94l57 58z" />
    <glyph glyph-name="uacute" unicode="&#xfa;" horiz-adv-x="607" 
d="M588 20v-11l-151 -12l-13 13l3 57l-3 3q-38 -38 -88.5 -56.5t-98.5 -18.5q-79 0 -118.5 44t-39.5 114v314l-60 13v11l151 16l13 -14v-323q0 -61 24 -101t80 -40q35 0 72 16t65 47v375l-60 13v11l150 16l14 -14v-460zM357 704l57 -58l-185 -94l-10 11z" />
    <glyph glyph-name="ucircumflex" unicode="&#xfb;" horiz-adv-x="607" 
d="M588 20v-11l-151 -12l-13 13l3 57l-3 3q-38 -38 -88.5 -56.5t-98.5 -18.5q-79 0 -118.5 44t-39.5 114v314l-60 13v11l151 16l13 -14v-323q0 -61 24 -101t80 -40q35 0 72 16t65 47v375l-60 13v11l150 16l14 -14v-460zM306 704l134 -141l-10 -11l-132 77l-132 -77l-10 11
l135 141h15z" />
    <glyph glyph-name="udieresis" unicode="&#xfc;" horiz-adv-x="607" 
d="M588 20v-11l-151 -12l-13 13l3 57l-3 3q-38 -38 -88.5 -56.5t-98.5 -18.5q-79 0 -118.5 44t-39.5 114v314l-60 13v11l151 16l13 -14v-323q0 -61 24 -101t80 -40q35 0 72 16t65 47v375l-60 13v11l150 16l14 -14v-460zM119 623q0 28 18 46t46 18t46 -18t18 -46t-18 -46
t-46 -18t-46 18t-18 46zM343 623q0 28 18.5 46t45.5 18q28 0 46.5 -18t18.5 -46t-18.5 -46t-46.5 -18q-27 0 -45.5 18t-18.5 46z" />
    <glyph glyph-name="yacute" unicode="&#xfd;" horiz-adv-x="601" 
d="M70 471l-59 19v10h228v-10l-61 -19l164 -363l162 363l-83 19v10h169v-10l-64 -19l-212 -471q-23 -50 -42.5 -87.5t-39 -63t-40.5 -38.5t-47 -13q-13 0 -28 3.5t-28.5 11.5t-22.5 22.5t-9 35.5q0 27 14 41t37 14q24 0 39 -14.5t15 -40.5v-40q6 -3 11 -3q15 0 29 13
t28.5 35t28.5 52t29 63zM379 704l57 -58l-185 -94l-11 11z" />
    <glyph glyph-name="thorn" unicode="&#xfe;" horiz-adv-x="582" 
d="M19 -190l60 19v857l-60 13v12l151 15l13 -13v-213l-3 -62l3 -3q30 32 71.5 50.5t92.5 18.5q50 0 87 -18t61 -50t36 -76.5t12 -98.5q0 -128 -64 -197t-179 -69q-39 0 -67.5 8t-49.5 19v-193l90 -19v-10h-254v10zM183 37q51 -27 98 -27q75 0 115.5 61.5t40.5 173.5
q0 50 -10 91.5t-28 71t-44 45.5t-58 16q-67 0 -114 -56v-376z" />
    <glyph glyph-name="ydieresis" unicode="&#xff;" horiz-adv-x="601" 
d="M70 471l-59 19v10h228v-10l-61 -19l164 -363l162 363l-83 19v10h169v-10l-64 -19l-212 -471q-23 -50 -42.5 -87.5t-39 -63t-40.5 -38.5t-47 -13q-13 0 -28 3.5t-28.5 11.5t-22.5 22.5t-9 35.5q0 27 14 41t37 14q24 0 39 -14.5t15 -40.5v-40q6 -3 11 -3q15 0 29 13
t28.5 35t28.5 52t29 63zM131 623q0 28 18 46t46 18t46 -18t18 -46t-18 -46t-46 -18t-46 18t-18 46zM355 623q0 28 18.5 46t45.5 18q28 0 46.5 -18t18.5 -46t-18.5 -46t-46.5 -18q-27 0 -45.5 18t-18.5 46z" />
    <glyph glyph-name="dotlessi" unicode="&#x131;" 
d="M19 10l60 19v438l-60 13v11l151 16l13 -14v-464l60 -19v-10h-224v10z" />
    <glyph glyph-name="OE" unicode="&#x152;" horiz-adv-x="999" 
d="M884 20l46 102h17v-122h-493q-33 -6 -69 -6q-75 0 -137 24.5t-106.5 71t-69 112t-24.5 148.5q0 82 24.5 147.5t69 112t106.5 71.5t137 25q35 0 68 -6h484v-123h-17l-46 103h-280v-308h221l21 78h16v-177h-16l-21 78h-221v-331h290zM385 9q29 0 56 12t50 39v579
q-23 27 -50 39.5t-56 12.5q-49 0 -90 -21.5t-71 -64.5t-46.5 -107t-16.5 -149q0 -84 16.5 -148t46.5 -106.5t71 -64t90 -21.5z" />
    <glyph glyph-name="oe" unicode="&#x153;" horiz-adv-x="940" 
d="M528 250q0 -106 48 -165t145 -59q43 0 79.5 13.5t68.5 45.5l11 -12q-38 -37 -86.5 -57.5t-114.5 -20.5q-72 0 -120.5 24t-77.5 65q-31 -43 -79.5 -66t-109.5 -23q-56 0 -102.5 17.5t-80 50.5t-52 80t-18.5 106q0 58 18.5 105t52 80.5t80 51.5t102.5 18q63 0 112 -24.5
t79 -69.5q32 45 80.5 69.5t108.5 24.5q49 0 90 -14.5t70.5 -41t46 -63.5t16.5 -82q0 -9 -1 -19.5t-4 -20.5l-13 -13h-349zM292 10q51 0 87.5 39t50.5 118q-9 36 -9 77q0 21 2.5 41.5t7.5 39.5q-13 82 -49 123t-90 41q-65 0 -105.5 -60.5t-40.5 -179.5q0 -118 40.5 -178.5
t105.5 -60.5zM676 489q-27 0 -53 -13t-46.5 -40.5t-34 -70t-14.5 -100.5l266 15q0 105 -31 157t-87 52z" />
    <glyph glyph-name="Scaron" unicode="&#x160;" horiz-adv-x="589" 
d="M55 163h18q12 -49 36 -79.5t53 -47t60 -22t57 -5.5q83 0 130 40t47 112q0 35 -11.5 57.5t-34 38.5t-55 27t-74.5 23t-82.5 26t-72 35.5t-50.5 55t-19 84.5q0 41 13.5 77t42 63t71.5 42.5t103 15.5q51 0 92 -12t76 -35l42 29l10 -10v-142h-18q-11 49 -33 79t-49 47t-55 23
t-50 6q-74 0 -117 -39t-43 -102q0 -33 12 -54t33.5 -36t51.5 -25.5t67 -21.5q44 -14 86.5 -30t75.5 -40t53 -59t20 -87q0 -43 -14.5 -80t-45.5 -64.5t-78.5 -43t-113.5 -15.5q-54 0 -98.5 12t-82.5 35l-43 -30l-10 10v142zM280 732l-134 141l10 11l132 -77l132 77l10 -11
l-134 -141h-16z" />
    <glyph glyph-name="scaron" unicode="&#x161;" horiz-adv-x="457" 
d="M49 128h21q8 -36 23.5 -59t35.5 -36t43 -18t45 -5q58 0 93.5 26.5t35.5 74.5q0 23 -9 38t-25.5 25.5t-40.5 17.5t-53 15q-31 8 -60.5 17.5t-53 26t-38 42t-14.5 65.5q0 31 10 58t31.5 46.5t55 30.5t80.5 11q35 0 68 -8t60 -22l21 17l10 -10v-108h-20q-8 36 -23 58.5
t-34 35.5t-39.5 17.5t-38.5 4.5q-52 0 -81.5 -26t-29.5 -67q0 -21 8 -35t23 -24t35.5 -17.5t45.5 -14.5q33 -10 65.5 -21.5t58.5 -29.5t42 -44.5t16 -67.5q0 -32 -11 -59t-34.5 -46.5t-61 -30.5t-90.5 -11q-81 0 -139 31l-21 -17l-10 10v109zM222 552l-134 141l10 11
l132 -78l132 78l10 -11l-134 -141h-16z" />
    <glyph glyph-name="Ydieresis" unicode="&#x178;" horiz-adv-x="724" 
d="M401 326l221 345l-84 19v10h178v-10l-71 -19l-234 -367v-275l62 -19v-10h-234v10l65 19v275l-234 367l-62 19v10h241v-10l-66 -19zM185 804q0 27 18.5 45.5t45.5 18.5q28 0 46.5 -18.5t18.5 -45.5q0 -28 -18.5 -46.5t-46.5 -18.5q-27 0 -45.5 18.5t-18.5 46.5zM410 804
q0 27 18 45.5t46 18.5q27 0 45.5 -18.5t18.5 -45.5q0 -28 -18.5 -46.5t-45.5 -18.5q-28 0 -46 18.5t-18 46.5z" />
    <glyph glyph-name="Zcaron" unicode="&#x17d;" horiz-adv-x="613" 
d="M41 15l415 665h-342l-48 -103h-17v123h519v-15l-413 -665h357l48 102h17v-122h-536v15zM299 732l-135 141l10 11l132 -77l132 77l10 -11l-134 -141h-15z" />
    <glyph glyph-name="zcaron" unicode="&#x17e;" horiz-adv-x="483" 
d="M36 15l298 468h-239l-32 -92h-17v109h394v-15l-297 -468h253l32 92h17v-109h-409v15zM233 552l-134 141l10 11l132 -78l132 78l10 -11l-134 -141h-16z" />
    <glyph glyph-name="florin" unicode="&#x192;" horiz-adv-x="382" 
d="M-60 -184q32 0 56 48.5t46 151.5l98 464h-75l2 8l80 19l14 67q15 69 66.5 109.5t139.5 40.5q26 0 50 -5t41.5 -15.5t26.5 -27t4 -39.5q-5 -24 -22 -39t-40 -15q-24 0 -38 17.5t-7 46.5l11 54q-5 3 -11.5 5.5t-15.5 2.5q-34 0 -61 -36.5t-40 -98.5l-16 -74h162l-5 -20
h-162l-98 -464q-23 -107 -79.5 -164t-141.5 -57q-53 0 -71.5 20.5t-12.5 47.5q5 25 24 40.5t42 15.5q24 0 36 -16.5t6 -43.5l-9 -43v0z" />
    <glyph glyph-name="uni0237" unicode="&#x237;" 
d="M79 467l-60 13v11l151 16l13 -14v-477q0 -76 -40.5 -127.5t-113.5 -93.5l-11 11q32 47 46.5 97t14.5 113v451z" />
    <glyph glyph-name="circumflex" unicode="&#x2c6;" horiz-adv-x="366" 
d="M191 704l134 -141l-10 -11l-132 77l-132 -77l-10 11l134 141h16z" />
    <glyph glyph-name="caron" unicode="&#x2c7;" horiz-adv-x="366" 
d="M175 552l-134 141l10 11l132 -78l132 78l10 -11l-134 -141h-16z" />
    <glyph glyph-name="tilde" unicode="&#x2dc;" horiz-adv-x="412" 
d="M38 589q49 49 76 68t48 19q15 0 28.5 -7t27.5 -16t28.5 -16t31.5 -7q19 0 43 12.5t44 32.5l13 -12q-38 -38 -71.5 -63.5t-57.5 -25.5q-14 0 -27.5 7t-28 16t-29.5 16t-32 7q-18 0 -39 -10t-43 -33z" />
    <glyph glyph-name="endash" unicode="&#x2013;" horiz-adv-x="503" 
d="M38 303h427v-30h-427v30z" />
    <glyph glyph-name="emdash" unicode="&#x2014;" horiz-adv-x="703" 
d="M38 303h627v-30h-627v30z" />
    <glyph glyph-name="quoteleft" unicode="&#x2018;" horiz-adv-x="201" 
d="M150 693q-22 -22 -37.5 -49.5t-15.5 -42.5q0 -6 4 -12q26 0 43.5 -16.5t17.5 -42.5t-17.5 -43t-43.5 -17q-24 0 -43 16.5t-19 51.5q0 25 10.5 49t25.5 45.5t32 40t31 32.5z" />
    <glyph glyph-name="quoteright" unicode="&#x2019;" horiz-adv-x="201" 
d="M51 482q22 22 37.5 49.5t15.5 42.5q0 8 -4 11q-26 0 -43.5 17t-17.5 43t17.5 43t43.5 17q24 0 43 -16.5t19 -51.5q0 -25 -10.5 -49t-25.5 -45.5t-32 -40t-31 -32.5z" />
    <glyph glyph-name="quotesinglbase" unicode="&#x201a;" horiz-adv-x="201" 
d="M51 -104q22 22 37.5 49.5t15.5 43.5q0 8 -4 11q-26 0 -43.5 16.5t-17.5 42.5t17.5 43.5t43.5 17.5q24 0 43 -16.5t19 -51.5q0 -25 -10.5 -49t-25.5 -46t-32 -40.5t-31 -32.5z" />
    <glyph glyph-name="quotedblleft" unicode="&#x201c;" horiz-adv-x="362" 
d="M311 693q-22 -22 -37.5 -49.5t-15.5 -42.5q0 -6 4 -12q26 0 43.5 -16.5t17.5 -42.5t-17.5 -43t-43.5 -17q-24 0 -43 16.5t-19 51.5q0 25 10.5 49t25.5 45.5t32 40t31 32.5zM150 693q-22 -22 -37.5 -49.5t-15.5 -42.5q0 -6 4 -12q26 0 43.5 -16.5t17.5 -42.5t-17.5 -43
t-43.5 -17q-24 0 -43 16.5t-19 51.5q0 25 10.5 49t25.5 45.5t32 40t31 32.5z" />
    <glyph glyph-name="quotedblright" unicode="&#x201d;" horiz-adv-x="362" 
d="M51 482q22 22 37.5 49.5t15.5 42.5q0 8 -4 11q-26 0 -43.5 17t-17.5 43t17.5 43t43.5 17q24 0 43 -16.5t19 -51.5q0 -25 -10.5 -49t-25.5 -45.5t-32 -40t-31 -32.5zM212 482q22 22 37.5 49.5t15.5 42.5q0 8 -4 11q-26 0 -43.5 17t-17.5 43t17.5 43t43.5 17q24 0 43 -16.5
t19 -51.5q0 -25 -10.5 -49t-25.5 -45.5t-32 -40t-31 -32.5z" />
    <glyph glyph-name="quotedblbase" unicode="&#x201e;" horiz-adv-x="362" 
d="M51 -104q22 22 37.5 49.5t15.5 43.5q0 8 -4 11q-26 0 -43.5 16.5t-17.5 42.5t17.5 43.5t43.5 17.5q24 0 43 -16.5t19 -51.5q0 -25 -10.5 -49t-25.5 -46t-32 -40.5t-31 -32.5zM212 -104q22 22 37.5 49.5t15.5 43.5q0 8 -4 11q-26 0 -43.5 16.5t-17.5 42.5t17.5 43.5
t43.5 17.5q24 0 43 -16.5t19 -51.5q0 -25 -10.5 -49t-25.5 -46t-32 -40.5t-31 -32.5z" />
    <glyph glyph-name="dagger" unicode="&#x2020;" horiz-adv-x="506" 
d="M242 499q-3 41 -8 68.5t-9.5 46t-7.5 30t-3 20.5q0 17 11 28.5t28 11.5t28 -11.5t11 -28.5q0 -9 -3.5 -20.5t-8 -30t-9 -46t-7.5 -68.5q41 3 68.5 7.5t46 9t30 8t20.5 3.5q17 0 28.5 -11t11.5 -28t-11.5 -28t-28.5 -11q-9 0 -20.5 3t-30 7.5t-46 9.5t-68.5 8
q3 -137 7.5 -228t9 -151.5t8 -97t3.5 -64.5q0 -17 -11 -28.5t-28 -11.5t-28 11.5t-11 28.5q0 28 3 64.5t7.5 97t9.5 151.5t8 228q-41 -3 -68.5 -8t-46 -9.5t-30 -7.5t-20.5 -3q-17 0 -28 11t-11 28t11 28t28 11q9 0 20.5 -3.5t30 -8t46 -9t68.5 -7.5z" />
    <glyph glyph-name="daggerdbl" unicode="&#x2021;" horiz-adv-x="506" 
d="M242 499q-3 41 -8 68.5t-9.5 46t-7.5 30t-3 20.5q0 17 11 28.5t28 11.5t28 -11.5t11 -28.5q0 -9 -3.5 -20.5t-8 -30t-9 -46t-7.5 -68.5q41 3 68.5 7.5t46 9t30 8t20.5 3.5q17 0 28.5 -11t11.5 -28t-11.5 -28t-28.5 -11q-9 0 -20.5 3t-30 7.5t-46 9.5t-68.5 8v-234
q41 3 68.5 7.5t46 9t30 8t20.5 3.5q17 0 28.5 -11t11.5 -28t-11.5 -28t-28.5 -11q-9 0 -20.5 3.5t-30 8t-46 9.5t-68.5 8q3 -72 7.5 -120.5t9 -80.5t8 -51.5t3.5 -33.5q0 -17 -11 -28.5t-28 -11.5t-28 11.5t-11 28.5q0 14 3 33.5t7.5 51.5t9.5 80.5t8 120.5q-41 -3 -68.5 -8
t-46 -9.5t-30 -8t-20.5 -3.5q-17 0 -28 11t-11 28t11 28t28 11q9 0 20.5 -3.5t30 -8t46 -9t68.5 -7.5v234q-41 -3 -68.5 -8t-46 -9.5t-30 -7.5t-20.5 -3q-17 0 -28 11t-11 28t11 28t28 11q9 0 20.5 -3.5t30 -8t46 -9t68.5 -7.5z" />
    <glyph glyph-name="bullet" unicode="&#x2022;" horiz-adv-x="238" 
d="M31 300q0 38 25.5 63t62.5 25q38 0 63 -25t25 -63t-25 -63t-63 -25q-37 0 -62.5 25t-25.5 63z" />
    <glyph glyph-name="ellipsis" unicode="&#x2026;" horiz-adv-x="599" 
d="M39 58q0 26 17.5 44t43.5 18q27 0 44.5 -18t17.5 -44t-17.5 -44t-44.5 -18q-26 0 -43.5 18t-17.5 44zM238 58q0 26 17.5 44t43.5 18t44 -18t18 -44t-18 -44t-44 -18t-43.5 18t-17.5 44zM437 58q0 26 17.5 44t43.5 18t44 -18t18 -44t-18 -44t-44 -18t-43.5 18t-17.5 44z
" />
    <glyph glyph-name="perthousand" unicode="&#x2030;" horiz-adv-x="1069" 
d="M44 525q0 84 41 132.5t106 48.5t105.5 -48.5t40.5 -132.5q0 -85 -40.5 -133t-105.5 -48t-106 48t-41 133zM114 525q0 -83 21.5 -124.5t55.5 -41.5t55.5 41.5t21.5 124.5t-21.5 124.5t-55.5 41.5t-55.5 -41.5t-21.5 -124.5zM139 0l416 700h39l-416 -700h-39zM395 175
q0 84 41 132.5t106 48.5t105.5 -48.5t40.5 -132.5q0 -85 -40.5 -133t-105.5 -48t-106 48t-41 133zM465 175q0 -83 21.5 -124.5t55.5 -41.5t55.5 41.5t21.5 124.5t-21.5 124.5t-55.5 41.5t-55.5 -41.5t-21.5 -124.5zM731 175q0 84 41 132.5t106 48.5t105.5 -48.5t40.5 -132.5
q0 -85 -40.5 -133t-105.5 -48t-106 48t-41 133zM801 175q0 -83 21.5 -124.5t55.5 -41.5t55.5 41.5t21.5 124.5t-21.5 124.5t-55.5 41.5t-55.5 -41.5t-21.5 -124.5z" />
    <glyph glyph-name="guilsinglleft" unicode="&#x2039;" horiz-adv-x="256" 
d="M37 288l161 154l11 -10l-97 -152l97 -152l-11 -10l-161 154v16z" />
    <glyph glyph-name="guilsinglright" unicode="&#x203a;" horiz-adv-x="256" 
d="M219 272l-161 -154l-11 10l97 152l-97 152l11 10l161 -154v-16z" />
    <glyph glyph-name="Euro" unicode="&#x20ac;" horiz-adv-x="704" 
d="M28 427h26q10 65 38.5 116.5t72 87.5t100 55.5t124.5 19.5q59 0 115.5 -14.5t99.5 -45.5h45v-123h-17q-11 52 -38 83.5t-60 48.5t-67 22.5t-58 5.5q-102 0 -166 -64.5t-78 -191.5h353v-31h-356q-1 -11 -1 -21v-21v-26.5t2 -24.5h355v-30h-352q8 -57 28.5 -102.5t53 -77.5
t78 -49.5t104.5 -17.5q58 0 112.5 18t98.5 63l11 -12q-99 -101 -259 -101q-69 0 -127 19t-101.5 55t-72 87.5t-38.5 117.5h-26v30h22q-1 11 -1.5 23t-0.5 24q0 11 0.5 23t1.5 23h-22v31z" />
    <glyph glyph-name="trademark" unicode="&#x2122;" horiz-adv-x="811" 
d="M205 689v-324l32 -9v-6h-128v6l32 9v324h-87l-26 -53h-8v64h306v-64h-8l-26 53h-87zM767 365l30 -9v-6h-126v6l31 9l-19 283l-125 -298h-20l-127 299l-20 -285l30 -10v-4h-74v4l32 10l23 320l-32 10v6h84l121 -285l119 285h81v-6l-31 -10z" />
    </font>
</defs>
</svg>
