<?xml version="1.0" standalone="no"?>
<!DOCTYPE svg PUBLIC "-//W3C//DTD SVG 1.1//EN" "http://www.w3.org/Graphics/SVG/1.1/DTD/svg11.dtd" >
<svg xmlns="http://www.w3.org/2000/svg" xmlns:xlink="http://www.w3.org/1999/xlink" version="1.1">
<metadata></metadata>
<defs>
<font id="danzzamedium" horiz-adv-x="1306" >
<font-face units-per-em="2048" ascent="1638" descent="-410" />
<missing-glyph horiz-adv-x="471" />
<glyph horiz-adv-x="0" />
<glyph horiz-adv-x="682" />
<glyph unicode="&#xd;" horiz-adv-x="1228" />
<glyph unicode=" "  horiz-adv-x="471" />
<glyph unicode="&#x09;" horiz-adv-x="471" />
<glyph unicode="&#xa0;" horiz-adv-x="471" />
<glyph unicode="!" horiz-adv-x="630" d="M172 113q0 59 42 101t101 42q60 0 103 -42t43 -101q0 -60 -43 -102t-103 -42q-59 0 -101 42t-42 102zM176 1444h281l-49 -1000h-183z" />
<glyph unicode="&#x22;" horiz-adv-x="802" d="M72 1444h258l-49 -631h-160zM473 1444h258l-49 -631h-160z" />
<glyph unicode="#" horiz-adv-x="1572" d="M72 385l26 186h267l53 308h-264l26 184h269l63 381h219l-63 -381h350l63 381h219l-63 -381h264l-24 -184h-271l-51 -308h264l-24 -186h-271l-63 -385h-221l65 385h-350l-63 -385h-222l66 385h-264zM586 571h350l51 308h-350z" />
<glyph unicode="$" horiz-adv-x="1308" d="M61 410l215 75q49 -156 162.5 -232.5t263.5 -76.5q129 0 213 59.5t84 157.5q0 58 -29 101.5t-78.5 70.5t-113.5 48t-134.5 39.5t-141 39t-134.5 52.5t-113.5 74.5t-78.5 110t-29 154.5q0 150 118 257.5t306 129.5v203h209v-211q146 -27 258 -116.5t174 -237.5l-213 -76 q-106 236 -354 236q-111 0 -183.5 -51.5t-72.5 -133.5q0 -52 29 -90t78.5 -61.5t113.5 -42.5t135 -36.5t142 -38.5t135 -54.5t113.5 -78t78.5 -115t29 -160.5q0 -177 -130 -294t-333 -139v-202h-209v206q-176 26 -312 130t-198 303z" />
<glyph unicode="%" horiz-adv-x="1560" d="M78 1071q0 52 7.5 101t28.5 101.5t54 91.5t89 64t128 25q73 0 129.5 -25t89.5 -63.5t54 -91.5t28.5 -102t7.5 -101t-7.5 -101t-28.5 -102t-54 -91.5t-89.5 -63.5t-129.5 -25q-72 0 -128 25t-89 64t-54 91.5t-28.5 101.5t-7.5 101zM248 1071q0 -112 34 -177t103 -65 q71 0 105 64.5t34 177.5t-34 178.5t-105 65.5q-69 0 -103 -65.5t-34 -178.5zM293 0l792 1444h185l-793 -1444h-184zM866 371q0 52 7.5 101t28.5 101.5t54 91.5t89.5 64t128.5 25q73 0 129.5 -25t89.5 -63.5t54 -91.5t28.5 -102t7.5 -101t-7.5 -100.5t-28.5 -101.5t-54 -91.5 t-89.5 -64t-129.5 -25.5q-72 0 -128.5 25.5t-89.5 64t-54 91.5t-28.5 102t-7.5 100zM1036 371q0 -112 34.5 -177t103.5 -65q71 0 105 64.5t34 177.5t-34 178t-105 65q-69 0 -103.5 -65.5t-34.5 -177.5z" />
<glyph unicode="&#x26;" horiz-adv-x="1478" d="M78 373q0 122 73 228.5t226 186.5q-93 101 -126.5 177.5t-33.5 152.5q0 148 113.5 252.5t298.5 104.5q183 0 299 -102t116 -257q0 -242 -325 -393l280 -303q81 99 133.5 236t86.5 335l200 -43q-72 -438 -276 -686l243 -262h-284l-109 119q-198 -150 -440 -150 q-211 0 -343 117t-132 287zM324 387q0 -92 69 -153.5t180 -61.5q155 0 277 102l-332 363q-194 -95 -194 -250zM434 1116q0 -14 1.5 -27t6.5 -26.5t8.5 -23.5t13.5 -25t15.5 -23t20.5 -26.5t22 -26.5t27 -31t29 -33q137 58 192 114.5t55 125.5q0 72 -55 120t-141 48 t-140.5 -48t-54.5 -118z" />
<glyph unicode="'" horiz-adv-x="401" d="M72 1444h258l-49 -631h-160z" />
<glyph unicode="(" horiz-adv-x="876" d="M205 721q0 251 89.5 483t266.5 422h264q-196 -186 -296.5 -420t-100.5 -485t100.5 -485t296.5 -420h-264q-177 190 -266.5 422t-89.5 483z" />
<glyph unicode=")" horiz-adv-x="876" d="M51 -184q196 186 297 420t101 485t-101 485t-297 420h264q177 -190 267 -422.5t90 -482.5t-90 -482.5t-267 -422.5h-264z" />
<glyph unicode="*" horiz-adv-x="849" d="M66 967l202 108l-202 109l88 151l192 -123l-8 232h176l-8 -230l192 121l88 -151l-202 -109l202 -108l-88 -152l-192 121l8 -229h-176l8 229l-192 -121z" />
<glyph unicode="+" horiz-adv-x="1388" d="M164 639v197h434v432h197v-432h430v-197h-430v-432h-197v432h-434z" />
<glyph unicode="," horiz-adv-x="518" d="M20 -289l121 582h234l-189 -582h-166z" />
<glyph unicode="-" horiz-adv-x="1007" d="M164 436v174h680v-174h-680z" />
<glyph unicode="." horiz-adv-x="452" d="M76 121q0 62 44 105.5t107 43.5q62 0 106 -44t44 -105q0 -63 -44 -107.5t-106 -44.5q-63 0 -107 44.5t-44 107.5z" />
<glyph unicode="/" horiz-adv-x="817" d="M-41 -244l684 1932h215l-680 -1932h-219z" />
<glyph unicode="0" horiz-adv-x="1271" d="M82 721q0 75 7.5 147t26.5 147.5t47 141.5t72.5 125.5t100.5 101.5t133 66.5t168 24.5q105 0 191.5 -32.5t145.5 -90t102 -129.5t67.5 -159t35.5 -171t11 -172q0 -107 -15.5 -206.5t-55 -201t-100 -176t-159 -121.5t-223.5 -47q-91 0 -168 24.5t-133 66.5t-100.5 101 t-72.5 124.5t-47 141.5t-26.5 147.5t-7.5 146.5zM330 721q0 -107 16.5 -200t50.5 -172.5t96 -126t144 -46.5t143 46.5t95 126t50.5 172.5t16.5 200t-16.5 201t-50.5 173.5t-95 126t-143 46.5t-144 -46.5t-96 -126t-50.5 -173t-16.5 -201.5z" />
<glyph unicode="1" horiz-adv-x="710" d="M66 995v252l294 197h205v-1444h-243v1165z" />
<glyph unicode="2" horiz-adv-x="1112" d="M68 0q-7 73 2.5 140.5t28 120.5t56 108.5t72 94.5t92 89t99 82t108.5 82q18 13 27 20q143 106 195.5 168.5t52.5 149.5q0 90 -64.5 151.5t-175.5 61.5q-73 0 -128.5 -30t-81.5 -77.5t-32.5 -106t17.5 -114.5l-242 -45q-43 157 5.5 290.5t172 211.5t291.5 78q98 0 180 -25 t136.5 -66.5t92.5 -96.5t55 -113.5t17 -118.5q0 -51 -11 -97t-37 -89t-49.5 -74t-69 -71.5t-72 -62t-81.5 -63.5q-3 -2 -4.5 -3.5t-4 -3t-4.5 -3.5q-13 -9 -52 -37.5t-54 -40t-48.5 -37.5t-49 -41t-41.5 -40t-38.5 -44t-27.5 -43.5t-22 -48.5t-9 -49h686v-207h-987z" />
<glyph unicode="3" horiz-adv-x="1163" d="M51 414l236 49q3 -126 81 -206.5t205 -80.5q128 0 203.5 79.5t75.5 190.5q0 116 -78.5 192.5t-206.5 76.5q-53 0 -92 -10l-80 163l350 369h-618v207h924v-168l-365 -383q193 -31 301.5 -157.5t108.5 -289.5q0 -66 -19.5 -131.5t-61.5 -128t-102 -111t-148.5 -77.5 t-193.5 -29q-114 0 -210 37t-160.5 99.5t-103 142t-46.5 166.5z" />
<glyph unicode="4" horiz-adv-x="1206" d="M66 317v203l643 924h268v-920h199v-207h-199v-317h-232v317h-679zM311 524h432v617z" />
<glyph unicode="5" horiz-adv-x="1167" d="M57 393l232 56q6 -115 84.5 -194t204.5 -79q128 0 207 82t79 205q0 125 -74.5 206t-201.5 81q-85 0 -153.5 -38.5t-112.5 -101.5l-224 90l97 744h821v-207h-637l-51 -389q60 46 141.5 72t163.5 26q213 0 344 -137t131 -340q0 -97 -35 -185.5t-99.5 -159.5t-167.5 -113 t-228 -42q-113 0 -208 35.5t-158.5 96t-103 135t-51.5 157.5z" />
<glyph unicode="6" horiz-adv-x="1173" d="M82 449q0 106 31.5 193.5t97.5 209.5l313 592h260l-286 -541q58 27 137 27q111 0 203.5 -39.5t152 -105t92.5 -149t33 -173.5q0 -74 -21 -145t-64.5 -134t-104 -111t-145 -76t-181.5 -28q-119 0 -219 41.5t-164 110t-99.5 153.5t-35.5 175zM326 455q0 -114 74.5 -196.5 t199.5 -82.5q124 0 198 83t74 196q0 114 -73.5 197t-196.5 83q-125 0 -200.5 -83.5t-75.5 -196.5z" />
<glyph unicode="7" horiz-adv-x="1028" d="M10 1063v381h1008v-178l-500 -1266h-254l490 1237h-510v-174h-234z" />
<glyph unicode="8" horiz-adv-x="1228" d="M78 399q0 70 22 131.5t60.5 106.5t79.5 76.5t88 54.5q-195 132 -195 326q0 70 29.5 136t86 121.5t151.5 89.5t214 34t213.5 -34t151 -89.5t86 -121.5t29.5 -136q0 -194 -195 -326q47 -23 88 -54.5t79.5 -76.5t60.5 -106.5t22 -131.5q0 -65 -19 -126.5t-61.5 -117 t-104 -96.5t-151.5 -65.5t-199 -24.5q-136 0 -242 37t-168.5 99t-94 136.5t-31.5 157.5zM322 420q0 -108 78 -176t214 -68q135 0 213 68t78 176t-80 176t-211 68t-211.5 -68t-80.5 -176zM375 1071q0 -84 65.5 -146.5t173.5 -62.5q106 0 172 62.5t66 146.5q0 85 -66.5 141 t-171.5 56q-106 0 -172.5 -55.5t-66.5 -141.5z" />
<glyph unicode="9" horiz-adv-x="1183" d="M68 981q0 93 34.5 180.5t98 158t164 113t221.5 42.5q95 0 179 -27t144.5 -74t104.5 -108t66 -130.5t22 -140.5q0 -105 -32 -195t-97 -208l-320 -592h-262l289 532q-53 -22 -119 -22q-114 0 -209 39.5t-156 105.5t-94.5 150t-33.5 176zM311 989q0 -114 74 -197t197 -83 q125 0 200.5 83.5t75.5 196.5t-74 196t-198 83q-125 0 -200 -83t-75 -196z" />
<glyph unicode=":" horiz-adv-x="452" d="M76 121q0 62 44 105.5t107 43.5q62 0 106 -44t44 -105q0 -63 -44 -107.5t-106 -44.5q-63 0 -107 44.5t-44 107.5zM76 762q0 62 44 105.5t107 43.5q62 0 106 -44t44 -105q0 -63 -44 -107.5t-106 -44.5q-63 0 -107 44.5t-44 107.5z" />
<glyph unicode=";" horiz-adv-x="532" d="M0 -289l121 582h233l-188 -582h-166zM88 762q0 62 44.5 105.5t107.5 43.5q62 0 105.5 -43.5t43.5 -105.5q0 -63 -43.5 -107.5t-105.5 -44.5q-63 0 -107.5 44.5t-44.5 107.5z" />
<glyph unicode="&#x3c;" horiz-adv-x="1310" d="M164 676v209l983 362v-207l-703 -260l703 -260v-207z" />
<glyph unicode="=" horiz-adv-x="1398" d="M164 387v199h1071v-199h-1071zM164 885v198h1071v-198h-1071z" />
<glyph unicode="&#x3e;" horiz-adv-x="1310" d="M164 313v207l702 260l-702 260v207l983 -362v-209z" />
<glyph unicode="?" horiz-adv-x="1024" d="M47 1079q5 80 37.5 150.5t89 125.5t142.5 87.5t190 32.5q110 0 199.5 -32.5t145 -86t85 -118t29.5 -132.5q0 -69 -23 -126t-59.5 -96.5t-79.5 -76t-85 -72.5t-75 -76t-49 -96t-8 -125h-213q-10 80 4 147.5t43 113.5t67 85.5t77.5 73t73 66t54.5 73.5t21 88 q0 76 -56.5 129.5t-156.5 53.5q-106 0 -167 -66.5t-59 -159.5zM338 113q0 59 42 101t101 42q60 0 103 -42t43 -101q0 -60 -43 -102t-103 -42q-59 0 -101 42t-42 102z" />
<glyph unicode="@" horiz-adv-x="1955" d="M78 471q0 142 42 275t122 243.5t188.5 193.5t249.5 129t297 46q197 0 366.5 -71t285 -191.5t181.5 -281.5t66 -339q0 -118 -31 -211t-84 -149.5t-118.5 -85.5t-137.5 -29q-91 0 -164.5 48.5t-105.5 119.5q-60 -79 -151 -118.5t-177 -39.5q-185 0 -306.5 129.5 t-121.5 319.5q0 191 120.5 320.5t307.5 129.5q81 0 162.5 -36t134.5 -105l29 115h160v-547q0 -67 30 -108.5t84 -41.5q74 0 116 77t42 204q0 144 -48 271t-135 222t-217.5 150t-287.5 55q-155 0 -285.5 -55.5t-218 -150t-136 -221t-48.5 -267.5q0 -142 48 -268t135 -220.5 t218.5 -150t288.5 -55.5q193 0 346 86l84 -176q-198 -103 -434 -103q-194 0 -363 71t-285 191t-182.5 282.5t-66.5 342.5zM688 459q0 -118 67.5 -195.5t184.5 -77.5q106 0 175 80t69 193t-69 193.5t-175 80.5q-117 0 -184.5 -77.5t-67.5 -196.5z" />
<glyph unicode="A" horiz-adv-x="1437" d="M0 0l616 1444h203l619 -1444h-264l-134 332h-645l-131 -332h-264zM477 539h484l-242 602z" />
<glyph unicode="B" horiz-adv-x="1396" d="M164 0v1444h610q201 0 320.5 -105t119.5 -266q0 -93 -45.5 -169.5t-115.5 -125.5q118 -45 192 -140.5t74 -221.5q0 -177 -134 -296.5t-349 -119.5h-672zM408 207h401q123 0 194.5 57.5t71.5 163.5t-70.5 163.5t-193.5 57.5h-403v-442zM408 856h356q97 0 155 53.5 t58 137.5q0 86 -58 138t-161 52h-350v-381z" />
<glyph unicode="C" horiz-adv-x="1587" d="M78 721q0 153 54 290t150 240t238.5 163.5t310.5 60.5q238 0 421.5 -126.5t256.5 -361.5l-223 -61q-52 160 -172.5 245.5t-284.5 85.5q-223 0 -363 -149.5t-140 -386.5q0 -235 140.5 -385t362.5 -150q164 0 284.5 86t172.5 246l223 -61q-73 -235 -256.5 -361.5 t-421.5 -126.5q-168 0 -310.5 60.5t-238.5 163t-150 239.5t-54 289z" />
<glyph unicode="D" horiz-adv-x="1509" d="M164 0v1444h541q168 0 307 -60t229 -161t139.5 -230t49.5 -270t-49.5 -270.5t-139.5 -230.5t-229.5 -161.5t-306.5 -60.5h-541zM408 207h278q220 0 359 139t139 377t-139 376t-359 138h-278v-1030z" />
<glyph unicode="E" d="M164 0v1444h1028v-207h-784v-381h647v-207h-647v-442h784v-207h-1028z" />
<glyph unicode="F" horiz-adv-x="1263" d="M164 0v1444h1028v-207h-784v-381h647v-207h-647v-649h-244z" />
<glyph unicode="G" horiz-adv-x="1660" d="M78 721q0 153 54 290t150 240t238.5 163.5t310.5 60.5q144 0 269.5 -46t228 -144.5t160.5 -242.5l-219 -73q-59 141 -174.5 214.5t-266.5 73.5q-223 0 -363 -149.5t-140 -386.5q0 -235 140 -385t361 -150q193 0 314.5 108t150.5 281h-530v207h733v-786h-160l-41 186 q-79 -105 -203 -159t-266 -54q-133 0 -251 39t-208 109t-155 163.5t-99 206.5t-34 234z" />
<glyph unicode="H" horiz-adv-x="1533" d="M164 0v1444h244v-604h718v604h244v-1444h-244v633h-718v-633h-244z" />
<glyph unicode="I" horiz-adv-x="571" d="M164 0v1444h244v-1444h-244z" />
<glyph unicode="J" horiz-adv-x="743" d="M61 12l50 187q51 -18 94 -18q46 0 82 21q69 41 69 144v891h-235v207h479v-1110q0 -134 -70.5 -231t-190.5 -125q-37 -9 -78 -9q-91 0 -200 43z" />
<glyph unicode="K" horiz-adv-x="1413" d="M164 0v1444h244v-633l587 633h303l-530 -576l614 -868h-292l-486 688l-196 -211v-477h-244z" />
<glyph unicode="L" horiz-adv-x="1161" d="M164 0v1444h244v-1237h702v-207h-946z" />
<glyph unicode="M" horiz-adv-x="1869" d="M164 0v1444h205l567 -1079l565 1079h205v-1444h-244v907l-473 -907h-108l-473 907v-907h-244z" />
<glyph unicode="N" horiz-adv-x="1548" d="M164 0v1444h205l770 -1020v1020h243v-1444h-204l-770 1020v-1020h-244z" />
<glyph unicode="O" horiz-adv-x="1673" d="M78 721q0 152 54.5 289.5t151.5 240.5t240.5 163.5t311.5 60.5t311.5 -60.5t240 -163.5t151 -240.5t54.5 -289.5t-54.5 -289t-151 -239.5t-240 -163t-311.5 -60.5t-311.5 60.5t-240.5 163t-151.5 239.5t-54.5 289zM326 721q0 -234 144.5 -384.5t365.5 -150.5 q222 0 367 150.5t145 384.5q0 235 -145 385.5t-367 150.5q-221 0 -365.5 -150.5t-144.5 -385.5z" />
<glyph unicode="P" horiz-adv-x="1441" d="M164 0v1444h739q114 0 203.5 -33.5t145 -90.5t84 -130t28.5 -156q0 -82 -28.5 -154.5t-84 -130t-145 -91t-203.5 -33.5h-495v-625h-244zM408 831h485q106 0 166.5 56.5t60.5 146.5q0 91 -60 147t-167 56h-485v-406z" />
<glyph unicode="Q" horiz-adv-x="1673" d="M78 721q0 152 54.5 289.5t151.5 240.5t240.5 163.5t311.5 60.5t311.5 -60.5t240 -163.5t151 -240.5t54.5 -289.5q0 -160 -60.5 -303t-170.5 -246l166 -229l-170 -123l-166 231q-158 -82 -356 -82q-168 0 -311.5 60.5t-240.5 163t-151.5 239.5t-54.5 289zM326 721 q0 -234 144.5 -384.5t365.5 -150.5q125 0 223 52l-348 481h258l252 -350q127 147 127 352q0 235 -145 385.5t-367 150.5q-221 0 -365.5 -150.5t-144.5 -385.5z" />
<glyph unicode="R" horiz-adv-x="1486" d="M164 0v1444h627q114 0 203.5 -33.5t144.5 -90.5t83.5 -130t28.5 -156q0 -130 -73 -225.5t-211 -142.5l440 -666h-283l-413 625h-303v-625h-244zM408 831h374q106 0 166 56.5t60 146.5q0 91 -59.5 147t-166.5 56h-374v-406z" />
<glyph unicode="S" d="M61 410l215 75q49 -156 162.5 -232.5t263.5 -76.5q129 0 213 59.5t84 157.5q0 58 -29 101.5t-78.5 70.5t-113.5 48t-134.5 39.5t-141 39t-134.5 52.5t-113.5 74.5t-78.5 110t-29 154.5q0 167 143.5 279.5t360.5 112.5q190 0 338 -94t223 -273l-213 -76q-106 236 -354 236 q-111 0 -183.5 -51.5t-72.5 -133.5q0 -52 29 -90t78.5 -61.5t113.5 -42.5t135 -36.5t142 -38.5t135 -54.5t113.5 -78t78.5 -115t29 -160.5q0 -130 -73.5 -230.5t-197.5 -153.5t-278 -53q-78 0 -150.5 13t-148 45t-137 80.5t-114 126t-83.5 176.5z" />
<glyph unicode="T" horiz-adv-x="1140" d="M35 1237v207h1073v-207h-416v-1237h-243v1237h-414z" />
<glyph unicode="U" horiz-adv-x="1542" d="M164 549v895h244v-877q0 -180 90.5 -285.5t271.5 -105.5q182 0 272.5 105.5t90.5 285.5v877h243v-895q0 -85 -19 -164.5t-65 -156t-113.5 -133.5t-173 -91.5t-235.5 -34.5t-235 34.5t-173 91.5t-113.5 133.5t-65 156t-19.5 164.5z" />
<glyph unicode="V" horiz-adv-x="1443" d="M20 1444h265l438 -1086l436 1086h264l-600 -1444h-202z" />
<glyph unicode="W" horiz-adv-x="2009" d="M20 1444h259l335 -1016l340 1016h101l340 -1016l336 1016h258l-486 -1444h-205l-292 897l-295 -897h-205z" />
<glyph unicode="X" horiz-adv-x="1458" d="M20 0l564 750l-523 694h295l373 -494l375 494h295l-522 -694l561 -750h-293l-416 549l-416 -549h-293z" />
<glyph unicode="Y" horiz-adv-x="1425" d="M20 1444h293l400 -592l401 592h291l-569 -826v-618h-244v618z" />
<glyph unicode="Z" d="M78 0v176l794 1061h-768v207h1082v-176l-795 -1061h826v-207h-1139z" />
<glyph unicode="[" horiz-adv-x="686" d="M205 -184v1810h430v-194h-211v-1422h211v-194h-430z" />
<glyph unicode="\" horiz-adv-x="817" d="M0 1688h215l684 -1932h-219z" />
<glyph unicode="]" horiz-adv-x="686" d="M51 10h211v1422h-211v194h430v-1810h-430v194z" />
<glyph unicode="^" horiz-adv-x="1122" d="M102 920l338 524h242l338 -524h-242l-217 340l-219 -340h-240z" />
<glyph unicode="_" horiz-adv-x="1142" d="M0 0v164h1143v-164h-1143z" />
<glyph unicode="`" horiz-adv-x="591" d="M102 1419h254l133 -356h-165z" />
<glyph unicode="a" horiz-adv-x="1222" d="M68 465q0 135 60.5 248.5t169.5 180.5t243 67q89 0 177.5 -40.5t147.5 -115.5l33 125h176v-930h-176l-33 123q-59 -74 -147.5 -114t-177.5 -40q-203 0 -338 144t-135 352zM303 465q0 -127 75 -213t197 -86q120 0 194.5 85.5t74.5 213.5q0 127 -75 213t-194 86 q-122 0 -197 -86.5t-75 -212.5z" />
<glyph unicode="b" horiz-adv-x="1220" d="M143 0v1444h234v-615q61 62 142.5 97t162.5 35q201 0 335 -143t134 -353q0 -139 -60.5 -252.5t-168 -178.5t-240.5 -65q-89 0 -178.5 39.5t-149.5 114.5l-32 -123h-179zM377 465q0 -129 77 -214t197 -85t193.5 86t73.5 213q0 125 -73.5 212t-193.5 87t-197 -85.5 t-77 -213.5z" />
<glyph unicode="c" horiz-adv-x="1097" d="M68 465q0 100 37 190.5t102 158t160.5 107.5t207.5 40q161 0 284.5 -88t168.5 -248l-215 -50q-25 87 -88.5 138t-155.5 51q-110 0 -188 -80t-78 -219q0 -140 77.5 -219.5t188.5 -79.5q92 0 155.5 49.5t88.5 136.5l215 -47q-45 -160 -168.5 -248t-284.5 -88 q-149 0 -266 68t-179 180.5t-62 247.5z" />
<glyph unicode="d" horiz-adv-x="1220" d="M68 465q0 135 60.5 248.5t169.5 180.5t243 67q79 0 161.5 -35t139.5 -97v615h233v-1444h-176l-33 123q-59 -74 -147.5 -114t-177.5 -40q-203 0 -338 144t-135 352zM303 465q0 -126 75 -212.5t197 -86.5q119 0 194 86.5t75 212.5q0 125 -75 212t-194 87q-122 0 -197 -87.5 t-75 -211.5z" />
<glyph unicode="e" horiz-adv-x="1118" d="M68 465q0 134 63.5 247t181 181t265.5 68q67 0 133 -19t127.5 -59.5t108 -98t74.5 -140.5t28 -181l-5 -51h-739q9 -116 83.5 -185t182.5 -69q85 0 147 43t95 112l193 -92q-62 -119 -175.5 -185.5t-248.5 -66.5q-151 0 -270 68t-181.5 180.5t-62.5 247.5zM319 565h494 q-11 97 -76.5 158t-163.5 61q-101 0 -171.5 -62.5t-82.5 -156.5z" />
<glyph unicode="f" horiz-adv-x="837" d="M20 733v197h230v196q0 85 27 153.5t74.5 111.5t108.5 65q53 20 112 20q11 0 22 -1q71 -4 143 -33l80 -33l-72 -188l-65 24q-37 13 -69 13q-40 0 -71 -21q-57 -38 -57 -115v-192h316v-197h-316v-733h-233v733h-230z" />
<glyph unicode="g" horiz-adv-x="1214" d="M68 -66l219 37q6 -131 83.5 -200.5t198.5 -69.5q60 0 108.5 17t79 44.5t50.5 65.5t28.5 76.5t8.5 79.5v159q-58 -60 -139 -92.5t-162 -32.5q-203 0 -337 134t-134 337t134.5 337.5t336.5 134.5q89 0 177.5 -39t147.5 -113l33 121h176v-918q0 -99 -30.5 -188t-91 -161.5 t-162 -115.5t-232.5 -43q-96 0 -180 27.5t-150.5 79.5t-109 135t-53.5 188zM305 489q0 -117 76.5 -195.5t196.5 -78.5q116 0 192 78t76 196q0 119 -75.5 197t-192.5 78q-120 0 -196.5 -78.5t-76.5 -196.5z" />
<glyph unicode="h" horiz-adv-x="1243" d="M143 0v1444h234v-619q60 62 144 99t181 37q185 0 298.5 -120.5t113.5 -310.5v-530h-233v506q0 120 -61.5 189t-172.5 69q-110 0 -190 -80.5t-80 -206.5v-477h-234z" />
<glyph unicode="i" horiz-adv-x="559" d="M143 1206q0 59 40 99.5t100 40.5q58 0 98.5 -40.5t40.5 -99.5q0 -60 -40 -99.5t-99 -39.5q-60 0 -100 39.5t-40 99.5zM168 0v930h233v-930h-233z" />
<glyph unicode="j" horiz-adv-x="577" d="M-139 -432l69 188l66 -24q37 -13 69 -13q40 0 71 21q57 38 57 115v1075h233v-1080q0 -85 -27 -153.5t-74.5 -111.5t-108.5 -65q-52 -19 -111 -19q-11 0 -22 1q-72 4 -144 33zM170 1206q0 59 39.5 99.5t99.5 40.5q59 0 99.5 -41t40.5 -99q0 -60 -40.5 -99.5t-99.5 -39.5 q-60 0 -99.5 39.5t-39.5 99.5z" />
<glyph unicode="k" horiz-adv-x="1150" d="M143 0v1444h234v-922l401 408h275l-355 -369l439 -561h-271l-317 401l-172 -172v-229h-234z" />
<glyph unicode="l" horiz-adv-x="520" d="M143 0v1444h234v-1444h-234z" />
<glyph unicode="m" horiz-adv-x="1859" d="M143 0v930h179l32 -121q64 72 148 112t176 40q113 0 195.5 -51t125.5 -138q62 88 158.5 138.5t194.5 50.5q175 0 277 -110.5t102 -303.5v-547h-234v535q0 110 -52.5 169.5t-150.5 59.5q-100 0 -170.5 -73t-70.5 -193v-498h-234v535q0 111 -51.5 170t-149.5 59 q-101 0 -171 -73t-70 -193v-498h-234z" />
<glyph unicode="n" horiz-adv-x="1243" d="M143 0v930h179l32 -125q146 156 348 156q185 0 298.5 -120.5t113.5 -310.5v-530h-233v506q0 120 -61.5 189t-172.5 69q-110 0 -190 -80.5t-80 -206.5v-477h-234z" />
<glyph unicode="o" horiz-adv-x="1153" d="M68 465q0 136 62 248.5t178.5 180t266.5 67.5t267 -67.5t179 -180t62 -248.5q0 -137 -62 -249.5t-179 -179.5t-267 -67t-266.5 67t-178.5 179.5t-62 249.5zM303 465q0 -130 77 -214.5t198 -84.5q119 0 195.5 84.5t76.5 214.5q0 129 -76.5 214t-195.5 85q-121 0 -198 -85 t-77 -214z" />
<glyph unicode="p" horiz-adv-x="1220" d="M143 -440v1370h179l32 -125q60 76 149 116t179 40q133 0 240.5 -65t168 -178.5t60.5 -252.5q0 -210 -134 -353t-335 -143q-82 0 -163.5 34t-141.5 97v-540h-234zM377 465q0 -128 77 -213.5t197 -85.5t193.5 86t73.5 213t-73.5 213t-193.5 86t-197 -85.5t-77 -213.5z" />
<glyph unicode="q" horiz-adv-x="1212" d="M68 465q0 208 135 352t338 144q89 0 177.5 -40.5t147.5 -115.5l33 125h176v-1370h-233v540q-57 -62 -139 -96.5t-162 -34.5q-203 0 -338 144t-135 352zM303 465q0 -126 75 -212.5t197 -86.5q119 0 194 86.5t75 212.5t-75 212.5t-194 86.5q-122 0 -197 -86.5t-75 -212.5z " />
<glyph unicode="r" horiz-adv-x="835" d="M143 0v930h179l30 -117q74 101 196 133q47 12 93 12q76 0 154 -32l-72 -197q-65 25 -122 25q-27 0 -51 -6q-77 -18 -125 -85t-48 -163v-500h-234z" />
<glyph unicode="s" horiz-adv-x="946" d="M57 240l183 77q35 -80 107.5 -132t164.5 -52q68 0 113 31t45 80q0 60 -48.5 89.5t-164.5 59.5q-170 45 -259 117.5t-89 187.5q0 112 102.5 187.5t265.5 75.5q137 0 242.5 -58.5t165.5 -163.5l-174 -73q-37 63 -97.5 101t-132.5 38q-61 0 -103 -24.5t-42 -65.5 q0 -18 7 -33t24.5 -27.5t32.5 -21t47.5 -19t51 -16t60.5 -16.5q180 -49 262 -122t82 -200q0 -121 -110 -206t-289 -85q-142 0 -266.5 70t-180.5 201z" />
<glyph unicode="t" horiz-adv-x="901" d="M27 733v197h229v295h233v-295h326v-197h-326v-409q1 -78 57 -116q32 -22 73 -22q31 0 67 13l66 24l71 -188l-80 -31q-71 -30 -143 -34q-11 -1 -23 -1q-59 1 -111 19q-62 22 -109 64.5t-74 111t-27 153.5v416h-229z" />
<glyph unicode="u" horiz-adv-x="1257" d="M143 397v533h234v-508q0 -120 61 -188t172 -68q110 0 190.5 80t80.5 205v479h233v-930h-178l-33 123q-147 -154 -350 -154q-183 0 -296.5 119.5t-113.5 308.5z" />
<glyph unicode="v" horiz-adv-x="1095" d="M20 930h256l271 -619l272 619h256l-438 -930h-178z" />
<glyph unicode="w" horiz-adv-x="1511" d="M20 930h236l213 -584l213 584h149l213 -584l213 584h234l-340 -930h-190l-205 563l-205 -563h-191z" />
<glyph unicode="x" horiz-adv-x="1021" d="M20 0l359 473l-342 457h262l213 -275l211 275h262l-342 -455l358 -475h-264l-227 295l-225 -295h-265z" />
<glyph unicode="y" horiz-adv-x="1120" d="M20 930h259l296 -611l275 611h250l-649 -1370h-244l244 520z" />
<glyph unicode="z" horiz-adv-x="962" d="M41 0v152l530 581h-501v197h823v-150l-531 -583h560v-197h-881z" />
<glyph unicode="{" horiz-adv-x="858" d="M205 614v213q115 0 169 47t54 166v271q0 152 76.5 233.5t230.5 81.5h72v-194h-29q-131 0 -131 -150v-303q0 -200 -182 -254v-8q182 -54 182 -254v-303q0 -150 131 -150h29v-194h-72q-154 0 -230.5 81.5t-76.5 233.5v270q0 121 -54 167t-169 46z" />
<glyph unicode="|" horiz-adv-x="428" d="M92 -260v1964h244v-1964h-244z" />
<glyph unicode="}" horiz-adv-x="858" d="M51 10h29q131 0 131 150v303q0 200 182 254v8q-182 54 -182 254v303q0 150 -131 150h-29v194h72q154 0 230.5 -81.5t76.5 -233.5v-271q0 -119 54 -166t169 -47v-213q-115 0 -169 -46t-54 -167v-270q0 -152 -76.5 -233.5t-230.5 -81.5h-72v194z" />
<glyph unicode="~" horiz-adv-x="1517" d="M172 715.5q17 82.5 62.5 138t108 83.5t136.5 28q61 0 118 -20.5t97.5 -51.5t83 -67.5t77.5 -67.5t79 -51.5t88 -20.5q53 0 88 25t47.5 63t12 79.5t-12.5 78.5h186q18 -104 1 -185.5t-61 -138t-110 -86.5t-145 -30q-75 0 -141 28.5t-113.5 69.5t-91.5 82t-95 69.5 t-104 28.5q-49 0 -83 -23t-46.5 -59t-15 -79.5t11.5 -84.5h-176q-19 109 -2 191.5z" />
<glyph unicode="&#xa1;" horiz-adv-x="630" d="M172 891q0 60 42 101.5t101 41.5q60 0 103 -41.5t43 -101.5q0 -59 -43 -101t-103 -42q-59 0 -101 42t-42 101zM176 -440l49 999h183l49 -999h-281z" />
<glyph unicode="&#xa2;" horiz-adv-x="1097" d="M68 465q0 177 105.5 311t281.5 172v215h207v-209q133 -22 230 -107t136 -222l-215 -47q-25 87 -88.5 136.5t-155.5 49.5q-111 0 -188.5 -79.5t-77.5 -219.5q0 -139 78 -219t188 -80q92 0 155.5 50.5t88.5 137.5l215 -49q-39 -138 -136 -223t-230 -107v-208h-207v215 q-176 38 -281.5 172.5t-105.5 310.5z" />
<glyph unicode="&#xa3;" horiz-adv-x="1363" d="M133 0v162q284 72 205 477h-186v178h151q-73 317 72 502q57 73 149.5 114.5t208.5 41.5q203 0 321 -112t132 -290l-225 -37q-6 116 -70 174t-156 58q-85 0 -143 -49.5t-70 -128.5q-22 -100 19 -273h344v-178h-316q16 -84 17 -151t-23.5 -141.5t-79.5 -135.5v-4h748v-207 h-1098z" />
<glyph unicode="&#xa4;" horiz-adv-x="1286" d="M78 61l133 134q-76 121 -76 270q0 140 72 262l-129 129l149 150l129 -129q124 84 287 84q160 0 289 -82l125 127l151 -150l-129 -129q74 -120 74 -262q0 -153 -78 -272l133 -132l-151 -149l-133 135q-124 -78 -281 -78q-159 0 -278 80l-138 -137zM371 465 q0 -130 76.5 -214.5t197.5 -84.5q119 0 196 84.5t77 214.5q0 128 -77 213.5t-196 85.5q-120 0 -197 -85t-77 -214z" />
<glyph unicode="&#xa5;" horiz-adv-x="1425" d="M20 1444h293l398 -590h4l399 590h291l-408 -590h181v-154h-285l-57 -82v-59h342v-151h-342v-408h-244v408h-424v151h424v59l-57 82h-367v154h260z" />
<glyph unicode="&#xa6;" horiz-adv-x="428" d="M92 -260v878h244v-878h-244zM92 825v879h244v-879h-244z" />
<glyph unicode="&#xa7;" d="M61 573q0 186 144 304q-58 86 -58 206q0 167 143.5 279.5t360.5 112.5q190 0 338 -94t223 -273l-213 -76q-106 236 -354 236q-111 0 -183.5 -51.5t-72.5 -133.5q0 -52 29 -90t78.5 -61.5t113.5 -42.5t135 -36.5t142 -38.5t135 -54.5t113.5 -78t78.5 -115t29 -160.5 q0 -186 -143 -304q57 -85 57 -206q0 -167 -142.5 -279.5t-359.5 -112.5q-192 0 -340 94t-221 273l213 76q103 -236 355 -236q111 0 183.5 51.5t72.5 133.5q0 52 -29.5 90t-79 61.5t-113.5 42.5t-135 36.5t-142.5 38.5t-135.5 54.5t-113.5 78t-79 115t-29.5 160.5zM305 586 q0 -70 39.5 -118t110.5 -76t145 -47.5t168 -46.5t156 -58q75 62 75 153q0 59 -29.5 103t-75.5 69t-113 47.5t-130.5 37.5t-139 38.5t-128.5 50.5q-78 -59 -78 -153z" />
<glyph unicode="&#xa8;" horiz-adv-x="905" d="M102 1229q0 57 41.5 98t98.5 41t98 -41t41 -98t-41 -97t-98 -40t-98.5 40t-41.5 97zM524 1229q0 57 41.5 98t98.5 41t98 -41t41 -98t-41 -97t-98 -40t-98.5 40t-41.5 97z" />
<glyph unicode="&#xa9;" horiz-adv-x="1660" d="M78 721q0 153 59.5 292.5t160 240t239.5 160t292 59.5t292.5 -59.5t240 -160t160 -240t59.5 -292.5t-59.5 -292.5t-160 -240t-240 -160t-292.5 -59.5t-292 59.5t-239.5 160t-160 240t-59.5 292.5zM209 721q0 -169 83 -312t226 -226t311 -83q169 0 312 83t226 226t83 312 t-83 312t-226 225.5t-312 82.5q-126 0 -241 -49t-198 -131.5t-132 -197.5t-49 -242zM467 717q0 160 105 271.5t274 111.5q122 0 214.5 -64t129.5 -184l-125 -37q-25 77 -82.5 119.5t-136.5 42.5q-107 0 -173.5 -72.5t-66.5 -187.5q0 -113 66.5 -184.5t173.5 -71.5 q79 0 136.5 42.5t82.5 119.5l125 -39q-37 -119 -129.5 -182.5t-214.5 -63.5q-169 0 -274 110.5t-105 268.5z" />
<glyph unicode="&#xaa;" horiz-adv-x="964" d="M68 1098q0 154 102.5 261t257.5 107q65 0 128 -30t106 -86l24 94h131v-692h-131l-24 92q-43 -56 -106.5 -86.5t-127.5 -30.5q-155 0 -257.5 107.5t-102.5 263.5zM250 1098q0 -92 54 -154.5t142 -62.5q87 0 140 62.5t53 154.5q0 91 -53 153t-140 62q-88 0 -142 -62 t-54 -153z" />
<glyph unicode="&#xab;" horiz-adv-x="978" d="M61 403v164l461 346v-202l-307 -226l307 -225v-203zM487 403v164l461 346v-202l-307 -226l307 -225v-203z" />
<glyph unicode="&#xac;" horiz-adv-x="1388" d="M164 637v197h1061v-619h-203v422h-858z" />
<glyph unicode="&#xad;" horiz-adv-x="1007" d="M164 436v174h680v-174h-680z" />
<glyph unicode="&#xae;" horiz-adv-x="1660" d="M78 721q0 153 59.5 292.5t160 240t239.5 160t292 59.5t292.5 -59.5t240 -160t160 -240t59.5 -292.5t-59.5 -292.5t-160 -240t-240 -160t-292.5 -59.5t-292 59.5t-239.5 160t-160 240t-59.5 292.5zM209 721q0 -169 83 -312t226 -226t311 -83q169 0 312 83t226 226t83 312 t-83 312t-226 225.5t-312 82.5q-126 0 -241 -49t-198 -131.5t-132 -197.5t-49 -242zM559 356v727h318q113 0 174 -60t61 -149q0 -64 -39 -114.5t-108 -75.5l231 -328h-156l-219 310h-127v-310h-135zM696 780h174q51 0 80 25.5t29 68.5t-29 68t-80 25h-174v-187z" />
<glyph unicode="&#xaf;" horiz-adv-x="890" d="M51 1139v170h737v-170h-737z" />
<glyph unicode="&#xb0;" horiz-adv-x="704" d="M72 1155q0 119 78 201t202 82q125 0 203 -82t78 -201t-78 -201t-203 -82q-124 0 -202 82t-78 201zM233 1155q0 -58 32.5 -96.5t86.5 -38.5t86.5 38.5t32.5 96.5q0 57 -32.5 95t-86.5 38t-86.5 -38t-32.5 -95z" />
<glyph unicode="&#xb1;" horiz-adv-x="1388" d="M164 0v197h1061v-197h-1061zM164 754v196h434v432h197v-432h430v-196h-430v-432h-197v432h-434z" />
<glyph unicode="&#xb2;" horiz-adv-x="729" d="M66 584q-11 149 50.5 250.5t202.5 195.5q12 7 38 23t35.5 22.5t28 19.5t26 21.5t17 21.5t12.5 26.5t3 29.5q0 46 -30 73t-82 27q-71 0 -101 -49t-6 -110l-178 -31q-46 147 53 258q85 92 234 92q78 0 138 -23.5t93.5 -61.5t50.5 -81t17 -88q0 -60 -25 -108.5t-63.5 -79.5 t-84.5 -62.5t-86.5 -57.5t-71.5 -65t-38 -84h375v-159h-608z" />
<glyph unicode="&#xb3;" horiz-adv-x="753" d="M51 819l172 45q6 -55 44.5 -93t97.5 -38q64 0 100.5 37.5t36.5 93.5q0 55 -36 92t-99 37q-35 0 -66 -14l-53 115l176 190h-334v160h569v-111l-192 -213q97 -24 157 -93.5t60 -166.5q0 -120 -89.5 -203.5t-227.5 -83.5q-126 0 -211 71t-105 175z" />
<glyph unicode="&#xb4;" horiz-adv-x="591" d="M102 1063l134 356h253l-221 -356h-166z" />
<glyph unicode="&#xb6;" horiz-adv-x="1581" d="M78 1063q0 162 114 271.5t300 109.5h968v-207h-221v-1667h-233v1667h-283v-1667h-231v1112q-187 0 -300.5 109t-113.5 272zM289 1061q0 -76 51.5 -127t134.5 -51h19v354h-19q-83 0 -134.5 -51t-51.5 -125z" />
<glyph unicode="&#xb7;" horiz-adv-x="630" d="M164 717q0 63 44 107t107 44q62 0 106 -44t44 -107t-44 -107.5t-106 -44.5q-63 0 -107 44.5t-44 107.5z" />
<glyph unicode="&#xb8;" horiz-adv-x="460" d="M102 -346l86 346h170l-41 -346h-215z" />
<glyph unicode="&#xb9;" horiz-adv-x="563" d="M66 1120v193l204 131h148v-860h-187v643z" />
<glyph unicode="&#xba;" horiz-adv-x="892" d="M68 1098q0 155 105 261.5t273 106.5q167 0 272 -107t105 -261q0 -157 -105 -264t-272 -107q-168 0 -273 107t-105 264zM250 1098q0 -95 55.5 -156t143.5 -61q86 0 140 61.5t54 155.5q0 91 -54.5 152t-139.5 61q-88 0 -143.5 -61t-55.5 -152z" />
<glyph unicode="&#xbb;" horiz-adv-x="978" d="M31 57v203l307 225l-307 226v202l461 -346v-164zM457 57v203l307 225l-307 226v202l461 -346v-164z" />
<glyph unicode="&#xbc;" horiz-adv-x="1454" d="M66 1120v193l204 131h148v-860h-187v643zM248 0l792 1444h185l-793 -1444h-184zM752 170v133l331 557h222v-530h118v-160h-118v-170h-179v170h-374zM928 330h196v315z" />
<glyph unicode="&#xbd;" horiz-adv-x="1550" d="M66 1120v193l204 131h148v-860h-187v643zM248 0l792 1444h185l-793 -1444h-184zM887 0q-8 101 20 181.5t84 141t150 123.5q11 7 37.5 23t35.5 22.5t28 19.5t26 21.5t16.5 21.5t12.5 26.5t3 29.5q0 46 -30 73.5t-82 27.5q-71 0 -101 -49.5t-6 -110.5l-178 -31 q-46 147 53 258q85 92 234 92q78 0 138 -23.5t93.5 -61.5t50.5 -81t17 -88q0 -52 -18.5 -95t-49 -73t-67.5 -56.5t-75.5 -50.5t-71.5 -49t-57 -59t-30 -73h375v-160h-608z" />
<glyph unicode="&#xbe;" horiz-adv-x="1673" d="M51 819l172 45q6 -55 44.5 -93t97.5 -38q64 0 100.5 37.5t36.5 93.5q0 55 -36 92t-99 37q-35 0 -66 -14l-53 115l176 190h-334v160h569v-111l-192 -213q97 -24 157 -93.5t60 -166.5q0 -120 -89.5 -203.5t-227.5 -83.5q-126 0 -211 71t-105 175zM463 0l792 1444h185 l-793 -1444h-184zM971 170v133l332 557h221v-530h118v-160h-118v-170h-178v170h-375zM1147 330h196v315z" />
<glyph unicode="&#xbf;" horiz-adv-x="1030" d="M63 -127q0 69 23 126t59.5 96.5t79.5 76t85 72.5t75 76t49 96t8 125h213q10 -80 -4 -147.5t-43 -113.5t-67 -85.5t-77.5 -73t-73 -66t-54.5 -73.5t-21 -88q0 -76 56.5 -129.5t156.5 -53.5q106 0 167 66.5t59 159.5l227 -37q-5 -80 -37.5 -150.5t-89 -125.5t-142.5 -87.5 t-190 -32.5q-110 0 -199.5 32.5t-145 86t-85 118t-29.5 132.5zM401 866q0 60 43 102t103 42q59 0 101 -42t42 -102q0 -58 -42 -100.5t-101 -42.5q-60 0 -103 42t-43 101z" />
<glyph unicode="&#xc0;" horiz-adv-x="1437" d="M0 0l616 1444h203l619 -1444h-264l-134 332h-645l-131 -332h-264zM385 1862h264l139 -332h-165zM477 539h484l-242 602z" />
<glyph unicode="&#xc1;" horiz-adv-x="1437" d="M0 0l616 1444h203l619 -1444h-264l-134 332h-645l-131 -332h-264zM477 539h484l-242 602zM645 1530l139 332h265l-238 -332h-166z" />
<glyph unicode="&#xc2;" horiz-adv-x="1437" d="M0 0l616 1444h203l619 -1444h-264l-134 332h-645l-131 -332h-264zM389 1530l203 332h252l203 -332h-168l-162 196l-160 -196h-168zM477 539h484l-242 602z" />
<glyph unicode="&#xc3;" horiz-adv-x="1437" d="M0 0l616 1444h203l619 -1444h-264l-134 332h-645l-131 -332h-264zM317 1583q-20 137 44 219t171 82q51 0 96 -18.5t77.5 -45t62 -53t62 -45t65.5 -18.5q31 0 51.5 14t28 36t10.5 47.5t-2 49.5h133q21 -138 -43 -220.5t-174 -82.5q-52 0 -97.5 18.5t-78 45t-61 53.5 t-59.5 45.5t-62 18.5q-57 0 -78.5 -43.5t-9.5 -102.5h-136zM477 539h484l-242 602z" />
<glyph unicode="&#xc4;" horiz-adv-x="1437" d="M0 0l616 1444h203l619 -1444h-264l-134 332h-645l-131 -332h-264zM346 1694q0 61 44 104t106 43q61 0 105 -43t44 -104q0 -60 -44.5 -103t-104.5 -43q-62 0 -106 43t-44 103zM477 539h484l-242 602zM795 1694q0 61 43.5 104t105.5 43q60 0 104 -43t44 -104 q0 -60 -44 -103t-104 -43q-61 0 -105 43t-44 103z" />
<glyph unicode="&#xc5;" horiz-adv-x="1437" d="M0 0l610 1430q-73 31 -116 96t-43 149q0 113 77 190t191 77q113 0 190.5 -77.5t77.5 -189.5q0 -83 -44.5 -150t-117.5 -98l613 -1427h-264l-134 332h-645l-131 -332h-264zM477 539h484l-242 602zM600 1673q0 -50 34 -84.5t85 -34.5t85 34.5t34 84.5q0 51 -34 86t-85 35 t-85 -35t-34 -86z" />
<glyph unicode="&#xc6;" horiz-adv-x="2236" d="M0 0l918 1444h1204v-207h-785v-381h648v-207h-648v-442h785v-207h-1069v340h-566l-217 -340h-270zM612 539h439v688z" />
<glyph unicode="&#xc7;" horiz-adv-x="1587" d="M78 721q0 153 54 290t150 240t238.5 163.5t310.5 60.5q238 0 421.5 -126.5t256.5 -361.5l-223 -61q-52 160 -172.5 245.5t-284.5 85.5q-223 0 -363 -149.5t-140 -386.5q0 -235 140.5 -385t362.5 -150q164 0 284.5 86t172.5 246l223 -61q-66 -212 -224 -337t-367 -147 l-37 -319h-215l79 319q-200 20 -353.5 127t-233.5 269t-80 352z" />
<glyph unicode="&#xc8;" d="M164 0v1444h1028v-207h-784v-381h647v-207h-647v-442h784v-207h-1028zM373 1862h264l139 -332h-166z" />
<glyph unicode="&#xc9;" d="M164 0v1444h1028v-207h-784v-381h647v-207h-647v-442h784v-207h-1028zM563 1530l139 332h265l-238 -332h-166z" />
<glyph unicode="&#xca;" d="M164 0v1444h1028v-207h-784v-381h647v-207h-647v-442h784v-207h-1028zM350 1530l203 332h252l203 -332h-168l-162 196l-160 -196h-168z" />
<glyph unicode="&#xcb;" d="M164 0v1444h1028v-207h-784v-381h647v-207h-647v-442h784v-207h-1028zM305 1694q0 61 44 104t106 43q61 0 105 -43t44 -104q0 -60 -44.5 -103t-104.5 -43q-62 0 -106 43t-44 103zM754 1694q0 61 43.5 104t105.5 43q60 0 104 -43t44 -104q0 -60 -44 -103t-104 -43 q-61 0 -105 43t-44 103z" />
<glyph unicode="&#xcc;" horiz-adv-x="571" d="M-37 1862h264l140 -332h-166zM164 0v1444h244v-1444h-244z" />
<glyph unicode="&#xcd;" horiz-adv-x="571" d="M164 0v1444h244v-1444h-244zM201 1530l139 332h264l-237 -332h-166z" />
<glyph unicode="&#xce;" horiz-adv-x="571" d="M-43 1530l203 332h252l202 -332h-168l-161 196l-160 -196h-168zM164 0v1444h244v-1444h-244z" />
<glyph unicode="&#xcf;" horiz-adv-x="573" d="M-86 1694q0 61 43.5 104t105.5 43q61 0 105.5 -43t44.5 -104q0 -60 -45 -103t-105 -43q-61 0 -105 43t-44 103zM166 0v1444h244v-1444h-244zM362 1694q0 61 44 104t106 43q60 0 103.5 -43t43.5 -104q0 -60 -43.5 -103t-103.5 -43q-62 0 -106 43t-44 103z" />
<glyph unicode="&#xd0;" horiz-adv-x="1609" d="M0 637v190h264v617h541q168 0 307 -60t229 -161t139.5 -230t49.5 -270t-49.5 -270.5t-139.5 -230.5t-229.5 -161.5t-306.5 -60.5h-541v637h-264zM508 207h278q220 0 359 139t139 377t-139 376t-359 138h-278v-410h330v-190h-330v-430z" />
<glyph unicode="&#xd1;" horiz-adv-x="1548" d="M164 0v1444h205l770 -1020v1020h243v-1444h-204l-770 1020v-1020h-244zM373 1583q-20 137 44 219t171 82q51 0 96 -18.5t77 -45t61.5 -53t62 -45t65.5 -18.5q31 0 51.5 14t28 36t10.5 47.5t-2 49.5h133q21 -138 -43 -220.5t-174 -82.5q-52 0 -97.5 18.5t-78 45t-61 53.5 t-59.5 45.5t-62 18.5q-57 0 -78.5 -43.5t-9.5 -102.5h-135z" />
<glyph unicode="&#xd2;" horiz-adv-x="1673" d="M78 721q0 152 54.5 289.5t151.5 240.5t240.5 163.5t311.5 60.5t311.5 -60.5t240 -163.5t151 -240.5t54.5 -289.5t-54.5 -289t-151 -239.5t-240 -163t-311.5 -60.5t-311.5 60.5t-240.5 163t-151.5 239.5t-54.5 289zM326 721q0 -234 144.5 -384.5t365.5 -150.5 q222 0 367 150.5t145 384.5q0 235 -145 385.5t-367 150.5q-221 0 -365.5 -150.5t-144.5 -385.5zM510 1862h264l139 -332h-165z" />
<glyph unicode="&#xd3;" horiz-adv-x="1673" d="M78 721q0 152 54.5 289.5t151.5 240.5t240.5 163.5t311.5 60.5t311.5 -60.5t240 -163.5t151 -240.5t54.5 -289.5t-54.5 -289t-151 -239.5t-240 -163t-311.5 -60.5t-311.5 60.5t-240.5 163t-151.5 239.5t-54.5 289zM326 721q0 -234 144.5 -384.5t365.5 -150.5 q222 0 367 150.5t145 384.5q0 235 -145 385.5t-367 150.5q-221 0 -365.5 -150.5t-144.5 -385.5zM760 1530l139 332h264l-237 -332h-166z" />
<glyph unicode="&#xd4;" horiz-adv-x="1673" d="M78 721q0 152 54.5 289.5t151.5 240.5t240.5 163.5t311.5 60.5t311.5 -60.5t240 -163.5t151 -240.5t54.5 -289.5t-54.5 -289t-151 -239.5t-240 -163t-311.5 -60.5t-311.5 60.5t-240.5 163t-151.5 239.5t-54.5 289zM326 721q0 -234 144.5 -384.5t365.5 -150.5 q222 0 367 150.5t145 384.5q0 235 -145 385.5t-367 150.5q-221 0 -365.5 -150.5t-144.5 -385.5zM508 1530l203 332h252l202 -332h-168l-161 196l-160 -196h-168z" />
<glyph unicode="&#xd5;" horiz-adv-x="1673" d="M78 721q0 152 54.5 289.5t151.5 240.5t240.5 163.5t311.5 60.5t311.5 -60.5t240 -163.5t151 -240.5t54.5 -289.5t-54.5 -289t-151 -239.5t-240 -163t-311.5 -60.5t-311.5 60.5t-240.5 163t-151.5 239.5t-54.5 289zM326 721q0 -234 144.5 -384.5t365.5 -150.5 q222 0 367 150.5t145 384.5q0 235 -145 385.5t-367 150.5q-221 0 -365.5 -150.5t-144.5 -385.5zM436 1583q-20 137 44 219t171 82q51 0 96 -18.5t77.5 -45t62 -53t62 -45t65.5 -18.5q31 0 51.5 14t28 36t10.5 47.5t-2 49.5h133q21 -138 -43 -220.5t-174 -82.5 q-52 0 -98 18.5t-78 45t-61 53.5t-60 45.5t-62 18.5q-57 0 -78.5 -43.5t-9.5 -102.5h-135z" />
<glyph unicode="&#xd6;" horiz-adv-x="1673" d="M78 721q0 152 54.5 289.5t151.5 240.5t240.5 163.5t311.5 60.5t311.5 -60.5t240 -163.5t151 -240.5t54.5 -289.5t-54.5 -289t-151 -239.5t-240 -163t-311.5 -60.5t-311.5 60.5t-240.5 163t-151.5 239.5t-54.5 289zM326 721q0 -234 144.5 -384.5t365.5 -150.5 q222 0 367 150.5t145 384.5q0 235 -145 385.5t-367 150.5q-221 0 -365.5 -150.5t-144.5 -385.5zM463 1694q0 61 43.5 104t105.5 43q61 0 105.5 -43t44.5 -104q0 -60 -45 -103t-105 -43q-61 0 -105 43t-44 103zM911 1694q0 61 44 104t106 43q60 0 103.5 -43t43.5 -104 q0 -60 -43.5 -103t-103.5 -43q-62 0 -106 43t-44 103z" />
<glyph unicode="&#xd7;" horiz-adv-x="1273" d="M164 403l334 336l-334 332l139 139l334 -331l334 331l139 -137l-334 -334l334 -336l-139 -139l-334 336l-334 -336z" />
<glyph unicode="&#xd8;" horiz-adv-x="1757" d="M94 0l203 227q-85 100 -130.5 227.5t-45.5 266.5q0 152 54.5 289.5t151.5 240.5t240.5 163.5t311.5 60.5q237 0 419 -117l78 86h287l-203 -227q85 -100 130.5 -227.5t45.5 -268.5q0 -152 -54.5 -289t-151 -239.5t-240 -163t-311.5 -60.5q-236 0 -424 119l-80 -88h-281z M369 721q0 -175 88 -313l690 778q-115 71 -268 71q-221 0 -365.5 -150.5t-144.5 -385.5zM608 260q120 -74 271 -74q222 0 367 150.5t145 384.5q0 180 -91 317z" />
<glyph unicode="&#xd9;" horiz-adv-x="1542" d="M164 549v895h244v-877q0 -180 90.5 -285.5t271.5 -105.5q182 0 272.5 105.5t90.5 285.5v877h243v-895q0 -85 -19 -164.5t-65 -156t-113.5 -133.5t-173 -91.5t-235.5 -34.5t-235 34.5t-173 91.5t-113.5 133.5t-65 156t-19.5 164.5zM453 1862h264l139 -332h-166z" />
<glyph unicode="&#xda;" horiz-adv-x="1542" d="M164 549v895h244v-877q0 -180 90.5 -285.5t271.5 -105.5q182 0 272.5 105.5t90.5 285.5v877h243v-895q0 -85 -19 -164.5t-65 -156t-113.5 -133.5t-173 -91.5t-235.5 -34.5t-235 34.5t-173 91.5t-113.5 133.5t-65 156t-19.5 164.5zM672 1530l139 332h264l-237 -332h-166z " />
<glyph unicode="&#xdb;" horiz-adv-x="1542" d="M164 549v895h244v-877q0 -180 90.5 -285.5t271.5 -105.5q182 0 272.5 105.5t90.5 285.5v877h243v-895q0 -85 -19 -164.5t-65 -156t-113.5 -133.5t-173 -91.5t-235.5 -34.5t-235 34.5t-173 91.5t-113.5 133.5t-65 156t-19.5 164.5zM442 1530l203 332h252l203 -332h-168 l-162 196l-160 -196h-168z" />
<glyph unicode="&#xdc;" horiz-adv-x="1542" d="M164 549v895h244v-877q0 -180 90.5 -285.5t271.5 -105.5q182 0 272.5 105.5t90.5 285.5v877h243v-895q0 -85 -19 -164.5t-65 -156t-113.5 -133.5t-173 -91.5t-235.5 -34.5t-235 34.5t-173 91.5t-113.5 133.5t-65 156t-19.5 164.5zM397 1694q0 61 44 104t106 43 q61 0 105 -43t44 -104q0 -60 -44.5 -103t-104.5 -43q-62 0 -106 43t-44 103zM846 1694q0 61 43.5 104t105.5 43q60 0 104 -43t44 -104q0 -60 -44 -103t-104 -43q-61 0 -105 43t-44 103z" />
<glyph unicode="&#xdd;" horiz-adv-x="1425" d="M20 1444h293l400 -592l401 592h291l-569 -826v-618h-244v618zM616 1530l140 332h264l-238 -332h-166z" />
<glyph unicode="&#xde;" horiz-adv-x="1441" d="M164 0v1444h244v-311h495q114 0 203.5 -33.5t145 -90.5t84 -130t28.5 -156t-28.5 -156t-84 -130t-145 -90.5t-203.5 -33.5h-495v-313h-244zM408 520h485q107 0 167 56t60 147t-60 147t-167 56h-485v-406z" />
<glyph unicode="&#xdf;" horiz-adv-x="1277" d="M158 0v1032q0 88 30.5 167t88 141t149 98.5t205.5 36.5q101 0 186 -31.5t139.5 -84t84.5 -119t30 -138.5q0 -88 -41 -164t-121 -129q134 -42 217.5 -148t83.5 -245q0 -92 -30.5 -172t-88.5 -142t-149.5 -97.5t-204.5 -35.5q-80 0 -150 22.5t-114 51.5l86 186 q32 -25 80 -40t92 -15q116 0 180 72.5t64 173.5q0 114 -76 184t-199 70h-137v198h64q102 0 158.5 60.5t56.5 144.5q0 85 -57 142t-156 57q-106 0 -171 -67t-65 -160v-1049h-235z" />
<glyph unicode="&#xe0;" horiz-adv-x="1222" d="M68 465q0 135 60.5 248.5t169.5 180.5t243 67q89 0 177.5 -40.5t147.5 -115.5l33 125h176v-930h-176l-33 123q-59 -74 -147.5 -114t-177.5 -40q-203 0 -338 144t-135 352zM303 465q0 -127 75 -213t197 -86q120 0 194.5 85.5t74.5 213.5q0 127 -75 213t-194 86 q-122 0 -197 -86.5t-75 -212.5zM319 1419h254l134 -356h-166z" />
<glyph unicode="&#xe1;" horiz-adv-x="1222" d="M68 465q0 135 60.5 248.5t169.5 180.5t243 67q89 0 177.5 -40.5t147.5 -115.5l33 125h176v-930h-176l-33 123q-59 -74 -147.5 -114t-177.5 -40q-203 0 -338 144t-135 352zM303 465q0 -127 75 -213t197 -86q120 0 194.5 85.5t74.5 213.5q0 127 -75 213t-194 86 q-122 0 -197 -86.5t-75 -212.5zM514 1063l133 356h254l-221 -356h-166z" />
<glyph unicode="&#xe2;" horiz-adv-x="1222" d="M68 465q0 135 60.5 248.5t169.5 180.5t243 67q89 0 177.5 -40.5t147.5 -115.5l33 125h176v-930h-176l-33 123q-59 -74 -147.5 -114t-177.5 -40q-203 0 -338 144t-135 352zM272 1063l203 356h252l203 -356h-168l-162 221l-160 -221h-168zM303 465q0 -127 75 -213t197 -86 q120 0 194.5 85.5t74.5 213.5q0 127 -75 213t-194 86q-122 0 -197 -86.5t-75 -212.5z" />
<glyph unicode="&#xe3;" horiz-adv-x="1222" d="M68 465q0 135 60.5 248.5t169.5 180.5t243 67q89 0 177.5 -40.5t147.5 -115.5l33 125h176v-930h-176l-33 123q-59 -74 -147.5 -114t-177.5 -40q-203 0 -338 144t-135 352zM203 1100q-20 137 44 219t171 82q51 0 96 -18.5t77 -45t61.5 -53t62 -45t65.5 -18.5q31 0 51.5 14 t28 36t10.5 47.5t-2 49.5h133q21 -138 -43 -220.5t-174 -82.5q-52 0 -97.5 18.5t-78 45t-61 53t-59.5 45t-62 18.5q-57 0 -78.5 -43t-9.5 -102h-135zM303 465q0 -127 75 -213t197 -86q120 0 194.5 85.5t74.5 213.5q0 127 -75 213t-194 86q-122 0 -197 -86.5t-75 -212.5z" />
<glyph unicode="&#xe4;" horiz-adv-x="1222" d="M68 465q0 135 60.5 248.5t169.5 180.5t243 67q89 0 177.5 -40.5t147.5 -115.5l33 125h176v-930h-176l-33 123q-59 -74 -147.5 -114t-177.5 -40q-203 0 -338 144t-135 352zM248 1229q0 57 41 98t98 41t98 -41t41 -98t-41 -97t-98 -40t-98 40t-41 97zM303 465 q0 -127 75 -213t197 -86q120 0 194.5 85.5t74.5 213.5q0 127 -75 213t-194 86q-122 0 -197 -86.5t-75 -212.5zM670 1229q0 57 41 98t98 41t98 -41t41 -98t-41 -97t-98 -40t-98 40t-41 97z" />
<glyph unicode="&#xe5;" horiz-adv-x="1222" d="M68 465q0 135 60.5 248.5t169.5 180.5t243 67q89 0 177.5 -40.5t147.5 -115.5l33 125h176v-930h-176l-33 123q-59 -74 -147.5 -114t-177.5 -40q-203 0 -338 144t-135 352zM303 465q0 -127 75 -213t197 -86q120 0 194.5 85.5t74.5 213.5q0 127 -75 213t-194 86 q-122 0 -197 -86.5t-75 -212.5zM340 1311q0 113 77 189.5t191 76.5q113 0 191 -77t78 -189q0 -114 -78 -191.5t-191 -77.5q-114 0 -191 77.5t-77 191.5zM489 1311q0 -51 34 -86t85 -35t85 35t34 86q0 50 -34 84.5t-85 34.5t-85 -34.5t-34 -84.5z" />
<glyph unicode="&#xe6;" horiz-adv-x="1806" d="M68 266q0 130 100.5 214.5t273.5 84.5h342q-6 100 -65.5 159.5t-157.5 59.5q-82 0 -140 -40t-85 -111l-195 88q51 115 160.5 177.5t245.5 62.5q105 0 200.5 -42.5t153.5 -123.5q64 78 158.5 122t210.5 44q64 0 129 -19t126 -59.5t108 -97.5t75.5 -140.5t28.5 -181.5 l-2 -51h-742q9 -116 84.5 -185t182.5 -69q90 0 154 47.5t97 122.5l193 -88q-56 -123 -172 -197t-262 -74q-126 0 -229.5 56.5t-166.5 152.5q-67 -93 -174 -151t-247 -58q-170 0 -277.5 83t-107.5 214zM297 276q0 -55 47 -92t133 -37q72 0 131.5 26.5t95 67.5t56 85t24.5 86 h-297q-93 0 -141.5 -37t-48.5 -99zM1008 565h493q-11 97 -77 158t-164 61q-100 0 -169 -62t-83 -157z" />
<glyph unicode="&#xe7;" horiz-adv-x="1097" d="M68 465q0 100 37 190.5t102 158t160.5 107.5t207.5 40q161 0 284.5 -88t168.5 -248l-215 -50q-25 87 -88.5 138t-155.5 51q-110 0 -188 -80t-78 -219q0 -140 77.5 -219.5t188.5 -79.5q92 0 155.5 49.5t88.5 136.5l215 -47q-39 -136 -135 -221t-225 -107l-39 -323h-215 l80 321q-191 27 -308.5 165t-117.5 325z" />
<glyph unicode="&#xe8;" horiz-adv-x="1118" d="M68 465q0 134 63.5 247t181 181t265.5 68q67 0 133 -19t127.5 -59.5t108 -98t74.5 -140.5t28 -181l-5 -51h-739q9 -116 83.5 -185t182.5 -69q85 0 147 43t95 112l193 -92q-62 -119 -175.5 -185.5t-248.5 -66.5q-151 0 -270 68t-181.5 180.5t-62.5 247.5zM281 1419h254 l133 -356h-166zM319 565h494q-11 97 -76.5 158t-163.5 61q-101 0 -171.5 -62.5t-82.5 -156.5z" />
<glyph unicode="&#xe9;" horiz-adv-x="1118" d="M68 465q0 134 63.5 247t181 181t265.5 68q67 0 133 -19t127.5 -59.5t108 -98t74.5 -140.5t28 -181l-5 -51h-739q9 -116 83.5 -185t182.5 -69q85 0 147 43t95 112l193 -92q-62 -119 -175.5 -185.5t-248.5 -66.5q-151 0 -270 68t-181.5 180.5t-62.5 247.5zM319 565h494 q-11 97 -76.5 158t-163.5 61q-101 0 -171.5 -62.5t-82.5 -156.5zM494 1063l133 356h254l-222 -356h-165z" />
<glyph unicode="&#xea;" horiz-adv-x="1118" d="M68 465q0 134 63.5 247t181 181t265.5 68q67 0 133 -19t127.5 -59.5t108 -98t74.5 -140.5t28 -181l-5 -51h-739q9 -116 83.5 -185t182.5 -69q85 0 147 43t95 112l193 -92q-62 -119 -175.5 -185.5t-248.5 -66.5q-151 0 -270 68t-181.5 180.5t-62.5 247.5zM233 1063 l203 356h252l203 -356h-168l-162 221l-160 -221h-168zM319 565h494q-11 97 -76.5 158t-163.5 61q-101 0 -171.5 -62.5t-82.5 -156.5z" />
<glyph unicode="&#xeb;" horiz-adv-x="1118" d="M68 465q0 134 63.5 247t181 181t265.5 68q67 0 133 -19t127.5 -59.5t108 -98t74.5 -140.5t28 -181l-5 -51h-739q9 -116 83.5 -185t182.5 -69q85 0 147 43t95 112l193 -92q-62 -119 -175.5 -185.5t-248.5 -66.5q-151 0 -270 68t-181.5 180.5t-62.5 247.5zM209 1229 q0 57 41 98t98 41t98 -41t41 -98t-41 -97t-98 -40t-98 40t-41 97zM319 565h494q-11 97 -76.5 158t-163.5 61q-101 0 -171.5 -62.5t-82.5 -156.5zM631 1229q0 57 41 98t98 41t98 -41t41 -98t-41 -97t-98 -40t-98 40t-41 97z" />
<glyph unicode="&#xec;" horiz-adv-x="520" d="M-45 1419h254l133 -356h-166zM143 0v930h234v-930h-234z" />
<glyph unicode="&#xed;" horiz-adv-x="520" d="M143 0v930h234v-930h-234zM176 1063l133 356h254l-221 -356h-166z" />
<glyph unicode="&#xee;" horiz-adv-x="520" d="M-70 1063l203 356h252l203 -356h-168l-162 221l-160 -221h-168zM143 0v930h234v-930h-234z" />
<glyph unicode="&#xef;" horiz-adv-x="520" d="M-90 1229q0 57 41 98t98 41t98 -41t41 -98t-41 -97t-98 -40t-98 40t-41 97zM143 0v930h234v-930h-234zM332 1229q0 57 41 98t98 41t98 -41t41 -98t-41 -97t-98 -40t-98 40t-41 97z" />
<glyph unicode="&#xf0;" horiz-adv-x="1130" d="M61 463q0 93 35 177.5t96.5 148t153 100.5t197.5 37q113 0 198 -60q-64 139 -178 262l-272 -141l-60 113l244 125q-121 118 -285 219h287q96 -66 166 -133l236 121l57 -113l-199 -102q154 -160 243 -350.5t89 -387.5q0 -106 -35.5 -199t-100 -162t-160 -109t-208.5 -40 q-118 0 -215.5 42t-159.5 111.5t-95.5 157.5t-33.5 183zM305 455q0 -114 70 -196.5t190 -82.5t190 82.5t70 196.5t-71 197t-191 83t-189 -82.5t-69 -197.5z" />
<glyph unicode="&#xf1;" horiz-adv-x="1243" d="M143 0v930h179l32 -125q146 156 348 156q185 0 298.5 -120.5t113.5 -310.5v-530h-233v506q0 120 -61.5 189t-172.5 69q-110 0 -190 -80.5t-80 -206.5v-477h-234zM219 1100q-20 137 44 219t171 82q51 0 96 -18.5t77.5 -45t62 -53t62 -45t65.5 -18.5q31 0 51.5 14t28 36 t10.5 47.5t-2 49.5h133q21 -138 -43 -220.5t-174 -82.5q-52 0 -98 18.5t-78 45t-61 53t-60 45t-62 18.5q-57 0 -78.5 -43t-9.5 -102h-135z" />
<glyph unicode="&#xf2;" horiz-adv-x="1153" d="M68 465q0 136 62 248.5t178.5 180t266.5 67.5t267 -67.5t179 -180t62 -248.5q0 -137 -62 -249.5t-179 -179.5t-267 -67t-266.5 67t-178.5 179.5t-62 249.5zM285 1419h254l133 -356h-166zM303 465q0 -130 77 -214.5t198 -84.5q119 0 195.5 84.5t76.5 214.5 q0 129 -76.5 214t-195.5 85q-121 0 -198 -85t-77 -214z" />
<glyph unicode="&#xf3;" horiz-adv-x="1153" d="M68 465q0 136 62 248.5t178.5 180t266.5 67.5t267 -67.5t179 -180t62 -248.5q0 -137 -62 -249.5t-179 -179.5t-267 -67t-266.5 67t-178.5 179.5t-62 249.5zM303 465q0 -130 77 -214.5t198 -84.5q119 0 195.5 84.5t76.5 214.5q0 129 -76.5 214t-195.5 85q-121 0 -198 -85 t-77 -214zM510 1063l133 356h254l-221 -356h-166z" />
<glyph unicode="&#xf4;" horiz-adv-x="1153" d="M68 465q0 136 62 248.5t178.5 180t266.5 67.5t267 -67.5t179 -180t62 -248.5q0 -137 -62 -249.5t-179 -179.5t-267 -67t-266.5 67t-178.5 179.5t-62 249.5zM248 1063l203 356h251l203 -356h-168l-162 221l-159 -221h-168zM303 465q0 -130 77 -214.5t198 -84.5 q119 0 195.5 84.5t76.5 214.5q0 129 -76.5 214t-195.5 85q-121 0 -198 -85t-77 -214z" />
<glyph unicode="&#xf5;" horiz-adv-x="1153" d="M68 465q0 136 62 248.5t178.5 180t266.5 67.5t267 -67.5t179 -180t62 -248.5q0 -137 -62 -249.5t-179 -179.5t-267 -67t-266.5 67t-178.5 179.5t-62 249.5zM176 1100q-20 137 44 219t171 82q51 0 96 -18.5t77.5 -45t62 -53t62 -45t65.5 -18.5q31 0 51.5 14t28 36 t10.5 47.5t-2 49.5h133q21 -138 -43 -220.5t-174 -82.5q-52 0 -98 18.5t-78 45t-61 53t-60 45t-62 18.5q-57 0 -78.5 -43t-9.5 -102h-135zM303 465q0 -130 77 -214.5t198 -84.5q119 0 195.5 84.5t76.5 214.5q0 129 -76.5 214t-195.5 85q-121 0 -198 -85t-77 -214z" />
<glyph unicode="&#xf6;" horiz-adv-x="1153" d="M68 465q0 136 62 248.5t178.5 180t266.5 67.5t267 -67.5t179 -180t62 -248.5q0 -137 -62 -249.5t-179 -179.5t-267 -67t-266.5 67t-178.5 179.5t-62 249.5zM227 1229q0 57 41.5 98t98.5 41t98 -41t41 -98t-41 -97t-98 -40t-98.5 40t-41.5 97zM303 465q0 -130 77 -214.5 t198 -84.5q119 0 195.5 84.5t76.5 214.5q0 129 -76.5 214t-195.5 85q-121 0 -198 -85t-77 -214zM649 1229q0 57 41 98t98 41t98.5 -41t41.5 -98t-41.5 -97t-98.5 -40t-98 40t-41 97z" />
<glyph unicode="&#xf7;" horiz-adv-x="1388" d="M164 637v197h1061v-197h-1061zM557 297q0 57 40.5 97t96.5 40q57 0 98.5 -40t41.5 -97t-41.5 -97t-98.5 -40q-56 0 -96.5 40t-40.5 97zM557 1176q0 56 40.5 96.5t96.5 40.5q57 0 98.5 -40.5t41.5 -96.5q0 -57 -41.5 -98.5t-98.5 -41.5q-56 0 -96.5 41.5t-40.5 98.5z" />
<glyph unicode="&#xf8;" horiz-adv-x="1153" d="M68 465q0 136 62 248.5t178.5 180t266.5 67.5q117 0 213 -41l101 161l106 -63l-98 -160q89 -69 137.5 -171t48.5 -222q0 -137 -62 -249.5t-179 -179.5t-267 -67q-115 0 -202 37l-105 -168l-108 66l100 164q-91 68 -141.5 171.5t-50.5 225.5zM303 465q0 -128 74 -211 l303 489q-46 21 -102 21q-121 0 -198 -85t-77 -214zM481 182q46 -16 97 -16q119 0 195.5 84.5t76.5 214.5q0 123 -70 205z" />
<glyph unicode="&#xf9;" horiz-adv-x="1257" d="M143 397v533h234v-508q0 -120 61 -188t172 -68q110 0 190.5 80t80.5 205v479h233v-930h-178l-33 123q-147 -154 -350 -154q-183 0 -296.5 119.5t-113.5 308.5zM332 1419h254l133 -356h-166z" />
<glyph unicode="&#xfa;" horiz-adv-x="1257" d="M143 397v533h234v-508q0 -120 61 -188t172 -68q110 0 190.5 80t80.5 205v479h233v-930h-178l-33 123q-147 -154 -350 -154q-183 0 -296.5 119.5t-113.5 308.5zM516 1063l133 356h254l-221 -356h-166z" />
<glyph unicode="&#xfb;" horiz-adv-x="1257" d="M143 397v533h234v-508q0 -120 61 -188t172 -68q110 0 190.5 80t80.5 205v479h233v-930h-178l-33 123q-147 -154 -350 -154q-183 0 -296.5 119.5t-113.5 308.5zM301 1063l203 356h252l202 -356h-167l-162 221l-160 -221h-168z" />
<glyph unicode="&#xfc;" horiz-adv-x="1257" d="M143 397v533h234v-508q0 -120 61 -188t172 -68q110 0 190.5 80t80.5 205v479h233v-930h-178l-33 123q-147 -154 -350 -154q-183 0 -296.5 119.5t-113.5 308.5zM279 1229q0 57 41 98t98 41t98 -41t41 -98t-41 -97t-98 -40t-98 40t-41 97zM700 1229q0 57 41.5 98t98.5 41 t98 -41t41 -98t-41 -97t-98 -40t-98.5 40t-41.5 97z" />
<glyph unicode="&#xfd;" horiz-adv-x="1120" d="M20 930h259l296 -611l275 611h250l-649 -1370h-244l244 520zM473 1063l133 356h254l-221 -356h-166z" />
<glyph unicode="&#xfe;" horiz-adv-x="1218" d="M143 -440v1884h234v-615q60 63 142 97.5t163 34.5q201 0 335 -143t134 -353t-134 -353t-335 -143q-82 0 -163.5 34t-141.5 97v-540h-234zM377 465q0 -128 77 -213.5t197 -85.5t193.5 86t73.5 213q0 126 -73.5 211.5t-193.5 85.5t-197 -85t-77 -212z" />
<glyph unicode="&#xff;" horiz-adv-x="1120" d="M20 930h259l296 -611l275 611h250l-649 -1370h-244l244 520zM209 1229q0 57 41 98t98 41t98 -41t41 -98t-41 -97t-98 -40t-98 40t-41 97zM631 1229q0 57 41 98t98 41t98 -41t41 -98t-41 -97t-98 -40t-98 40t-41 97z" />
<glyph unicode="&#x10c;" horiz-adv-x="1587" d="M78 721q0 153 54 290t150 240t238.5 163.5t310.5 60.5q238 0 421.5 -126.5t256.5 -361.5l-223 -61q-52 160 -172.5 245.5t-284.5 85.5q-223 0 -363 -149.5t-140 -386.5q0 -235 140.5 -385t362.5 -150q164 0 284.5 86t172.5 246l223 -61q-73 -235 -256.5 -361.5 t-421.5 -126.5q-168 0 -310.5 60.5t-238.5 163t-150 239.5t-54 289zM502 1862h168l159 -197l162 197h168l-203 -332h-251z" />
<glyph unicode="&#x10d;" horiz-adv-x="1097" d="M68 465q0 100 37 190.5t102 158t160.5 107.5t207.5 40q161 0 284.5 -88t168.5 -248l-215 -50q-25 87 -88.5 138t-155.5 51q-110 0 -188 -80t-78 -219q0 -140 77.5 -219.5t188.5 -79.5q92 0 155.5 49.5t88.5 136.5l215 -47q-45 -160 -168.5 -248t-284.5 -88 q-149 0 -266 68t-179 180.5t-62 247.5zM238 1419h168l159 -221l162 221h168l-203 -356h-252z" />
<glyph unicode="&#x10e;" horiz-adv-x="1509" d="M164 0v1444h541q168 0 307 -60t229 -161t139.5 -230t49.5 -270t-49.5 -270.5t-139.5 -230.5t-229.5 -161.5t-306.5 -60.5h-541zM340 1862h168l160 -197l161 197h168l-202 -332h-252zM408 207h278q220 0 359 139t139 377t-139 376t-359 138h-278v-1030z" />
<glyph unicode="&#x10f;" horiz-adv-x="1458" d="M68 465q0 135 60.5 248.5t169.5 180.5t243 67q79 0 161.5 -35t139.5 -97v615h233v-1444h-176l-33 123q-59 -74 -147.5 -114t-177.5 -40q-203 0 -338 144t-135 352zM303 465q0 -126 75 -212.5t197 -86.5q119 0 194 86.5t75 212.5q0 125 -75 212t-194 87q-122 0 -197 -87.5 t-75 -211.5zM1174 1006l51 438h233l-127 -438h-157z" />
<glyph unicode="&#x11a;" d="M164 0v1444h1028v-207h-784v-381h647v-207h-647v-442h784v-207h-1028zM350 1862h168l160 -197l162 197h168l-203 -332h-252z" />
<glyph unicode="&#x11b;" horiz-adv-x="1118" d="M68 465q0 134 63.5 247t181 181t265.5 68q67 0 133 -19t127.5 -59.5t108 -98t74.5 -140.5t28 -181l-5 -51h-739q9 -116 83.5 -185t182.5 -69q85 0 147 43t95 112l193 -92q-62 -119 -175.5 -185.5t-248.5 -66.5q-151 0 -270 68t-181.5 180.5t-62.5 247.5zM238 1419h168 l159 -221l162 221h168l-203 -356h-252zM319 565h494q-11 97 -76.5 158t-163.5 61q-101 0 -171.5 -62.5t-82.5 -156.5z" />
<glyph unicode="&#x147;" horiz-adv-x="1548" d="M164 0v1444h205l770 -1020v1020h243v-1444h-204l-770 1020v-1020h-244zM444 1862h168l160 -197l162 197h168l-203 -332h-252z" />
<glyph unicode="&#x148;" horiz-adv-x="1243" d="M143 0v930h179l32 -125q146 156 348 156q185 0 298.5 -120.5t113.5 -310.5v-530h-233v506q0 120 -61.5 189t-172.5 69q-110 0 -190 -80.5t-80 -206.5v-477h-234zM301 1419h168l160 -221l162 221h167l-202 -356h-252z" />
<glyph unicode="&#x152;" horiz-adv-x="2490" d="M78 721q0 152 54.5 289.5t151.5 240.5t240.5 163.5t311.5 60.5q158 0 289 -58.5t223 -161.5v189h1026v-207h-783v-381h647v-207h-647v-442h783v-207h-1026v188q-92 -103 -223 -161t-289 -58q-168 0 -311.5 60.5t-240.5 163t-151.5 239.5t-54.5 289zM326 721 q0 -234 144.5 -384.5t365.5 -150.5q222 0 367 150.5t145 384.5q0 235 -145 385.5t-367 150.5q-221 0 -365.5 -150.5t-144.5 -385.5z" />
<glyph unicode="&#x153;" horiz-adv-x="1898" d="M68 465q0 136 62 248.5t178.5 180t266.5 67.5q122 0 223 -46t171 -127q70 81 170 127t221 46q67 0 133 -19t127.5 -59.5t108 -98t74.5 -140.5t28 -181l-4 -51h-740q9 -116 84 -185t183 -69q85 0 146.5 43t94.5 112l193 -92q-62 -119 -175.5 -185.5t-248.5 -66.5 q-248 0 -395 170q-69 -80 -170 -125t-224 -45q-150 0 -266.5 67t-178.5 179.5t-62 249.5zM303 465q0 -130 77 -214.5t198 -84.5q119 0 195.5 84.5t76.5 214.5q0 129 -76.5 214t-195.5 85q-121 0 -198 -85t-77 -214zM1102 565h493q-11 98 -76 158.5t-163 60.5 q-101 0 -171.5 -62.5t-82.5 -156.5z" />
<glyph unicode="&#x158;" horiz-adv-x="1486" d="M164 0v1444h627q114 0 203.5 -33.5t144.5 -90.5t83.5 -130t28.5 -156q0 -130 -73 -225.5t-211 -142.5l440 -666h-283l-413 625h-303v-625h-244zM281 1862h168l159 -197l162 197h168l-203 -332h-252zM408 831h374q106 0 166 56.5t60 146.5q0 91 -59.5 147t-166.5 56h-374 v-406z" />
<glyph unicode="&#x159;" horiz-adv-x="835" d="M90 1419h168l160 -221l162 221h168l-203 -356h-252zM143 0v930h179l30 -117q73 101 195.5 133t247.5 -20l-72 -197q-96 37 -173 19.5t-125 -85t-48 -163.5v-500h-234z" />
<glyph unicode="&#x160;" d="M61 410l215 75q49 -156 162.5 -232.5t263.5 -76.5q129 0 213 59.5t84 157.5q0 58 -29 101.5t-78.5 70.5t-113.5 48t-134.5 39.5t-141 39t-134.5 52.5t-113.5 74.5t-78.5 110t-29 154.5q0 167 143.5 279.5t360.5 112.5q190 0 338 -94t223 -273l-213 -76q-106 236 -354 236 q-111 0 -183.5 -51.5t-72.5 -133.5q0 -52 29 -90t78.5 -61.5t113.5 -42.5t135 -36.5t142 -38.5t135 -54.5t113.5 -78t78.5 -115t29 -160.5q0 -130 -73.5 -230.5t-197.5 -153.5t-278 -53q-78 0 -150.5 13t-148 45t-137 80.5t-114 126t-83.5 176.5zM330 1862h168l159 -197 l162 197h168l-203 -332h-252z" />
<glyph unicode="&#x161;" horiz-adv-x="946" d="M57 240l183 77q35 -80 107.5 -132t164.5 -52q68 0 113 31t45 80q0 60 -48.5 89.5t-164.5 59.5q-170 45 -259 117.5t-89 187.5q0 112 102.5 187.5t265.5 75.5q137 0 242.5 -58.5t165.5 -163.5l-174 -73q-37 63 -97.5 101t-132.5 38q-61 0 -103 -24.5t-42 -65.5 q0 -18 7 -33t24.5 -27.5t32.5 -21t47.5 -19t51 -16t60.5 -16.5q180 -49 262 -122t82 -200q0 -121 -110 -206t-289 -85q-142 0 -266.5 70t-180.5 201zM154 1419h168l159 -221l162 221h168l-203 -356h-252z" />
<glyph unicode="&#x164;" horiz-adv-x="1140" d="M35 1237v207h1073v-207h-416v-1237h-243v1237h-414zM242 1862h168l159 -197l162 197h168l-203 -332h-252z" />
<glyph unicode="&#x165;" horiz-adv-x="978" d="M27 733v197h229v295h233v-295h326v-197h-326v-409q0 -77 56.5 -115.5t140.5 -9.5l66 24l71 -188l-80 -31q-72 -30 -143.5 -34t-133 17.5t-109 64.5t-74.5 111.5t-27 153.5v416h-229zM584 1049l51 395h227l-127 -395h-151z" />
<glyph unicode="&#x16e;" horiz-adv-x="1542" d="M164 549v895h244v-877q0 -180 90.5 -285.5t271.5 -105.5q182 0 272.5 105.5t90.5 285.5v877h243v-895q0 -85 -19 -164.5t-65 -156t-113.5 -133.5t-173 -91.5t-235.5 -34.5t-235 34.5t-173 91.5t-113.5 133.5t-65 156t-19.5 164.5zM502 1751q0 113 77 189.5t191 76.5 q113 0 190.5 -77t77.5 -189q0 -114 -77.5 -191t-190.5 -77q-114 0 -191 77t-77 191zM651 1749q0 -50 34 -84.5t85 -34.5t85 34.5t34 84.5q0 51 -34 86t-85 35t-85 -35t-34 -86z" />
<glyph unicode="&#x16f;" horiz-adv-x="1257" d="M143 397v533h234v-508q0 -120 61 -188t172 -68q110 0 190.5 80t80.5 205v479h233v-930h-178l-33 123q-147 -154 -350 -154q-183 0 -296.5 119.5t-113.5 308.5zM360 1311q0 113 77.5 189.5t191.5 76.5q113 0 190.5 -77t77.5 -189q0 -114 -77.5 -191.5t-190.5 -77.5 q-114 0 -191.5 77.5t-77.5 191.5zM510 1311q0 -51 34 -86t85 -35t85 35t34 86q0 50 -34 84.5t-85 34.5t-85 -34.5t-34 -84.5z" />
<glyph unicode="&#x178;" horiz-adv-x="1425" d="M20 1444h293l400 -592l401 592h291l-569 -826v-618h-244v618zM340 1694q0 61 43.5 104t105.5 43q61 0 105.5 -43t44.5 -104q0 -60 -45 -103t-105 -43q-61 0 -105 43t-44 103zM788 1694q0 61 44 104t106 43q60 0 103.5 -43t43.5 -104q0 -60 -43.5 -103t-103.5 -43 q-62 0 -106 43t-44 103z" />
<glyph unicode="&#x17d;" d="M78 0v176l794 1061h-768v207h1082v-176l-795 -1061h826v-207h-1139zM301 1862h168l160 -197l162 197h167l-202 -332h-252z" />
<glyph unicode="&#x17e;" horiz-adv-x="962" d="M41 0v152l530 581h-501v197h823v-150l-531 -583h560v-197h-881zM154 1419h168l159 -221l162 221h168l-203 -356h-252z" />
<glyph unicode="&#x2c6;" horiz-adv-x="862" d="M102 1063l203 356h252l203 -356h-168l-162 221l-160 -221h-168z" />
<glyph unicode="&#x2da;" horiz-adv-x="741" d="M102 1311q0 113 77.5 189.5t191.5 76.5q113 0 190.5 -77t77.5 -189q0 -114 -77.5 -191.5t-190.5 -77.5q-114 0 -191.5 77.5t-77.5 191.5zM252 1311q0 -51 34 -86t85 -35t84.5 35t33.5 86q0 50 -33.5 84.5t-84.5 34.5t-85 -34.5t-34 -84.5z" />
<glyph unicode="&#x2dc;" horiz-adv-x="1011" d="M106 1100q-20 137 44 219t172 82q51 0 96 -18.5t77 -45t61.5 -53t62 -45t65.5 -18.5q31 0 51.5 14t28 36t10.5 47.5t-2 49.5h133q21 -138 -43 -220.5t-174 -82.5q-52 0 -97.5 18.5t-78 45t-61 53t-59.5 45t-62 18.5q-57 0 -78.5 -43t-9.5 -102h-136z" />
<glyph unicode="&#x2000;" horiz-adv-x="1008" />
<glyph unicode="&#x2001;" horiz-adv-x="2017" />
<glyph unicode="&#x2002;" horiz-adv-x="1008" />
<glyph unicode="&#x2003;" horiz-adv-x="2017" />
<glyph unicode="&#x2004;" horiz-adv-x="672" />
<glyph unicode="&#x2005;" horiz-adv-x="504" />
<glyph unicode="&#x2006;" horiz-adv-x="336" />
<glyph unicode="&#x2007;" horiz-adv-x="336" />
<glyph unicode="&#x2008;" horiz-adv-x="252" />
<glyph unicode="&#x2009;" horiz-adv-x="403" />
<glyph unicode="&#x200a;" horiz-adv-x="112" />
<glyph unicode="&#x2010;" horiz-adv-x="1007" d="M164 436v174h680v-174h-680z" />
<glyph unicode="&#x2011;" horiz-adv-x="1007" d="M164 436v174h680v-174h-680z" />
<glyph unicode="&#x2012;" horiz-adv-x="1007" d="M164 436v174h680v-174h-680z" />
<glyph unicode="&#x2013;" horiz-adv-x="1259" d="M164 436v174h932v-174h-932z" />
<glyph unicode="&#x2014;" horiz-adv-x="2166" d="M164 436v174h1839v-174h-1839z" />
<glyph unicode="&#x2018;" horiz-adv-x="471" d="M82 1085l158 549h170l-76 -549h-252z" />
<glyph unicode="&#x2019;" horiz-adv-x="471" d="M72 1079l75 549h252l-157 -549h-170z" />
<glyph unicode="&#x201a;" horiz-adv-x="471" d="M72 -193l75 547h252l-157 -547h-170z" />
<glyph unicode="&#x201c;" horiz-adv-x="849" d="M82 1085l158 549h170l-76 -549h-252zM461 1085l157 549h170l-75 -549h-252z" />
<glyph unicode="&#x201d;" horiz-adv-x="849" d="M61 1079l76 549h252l-158 -549h-170zM440 1079l76 549h252l-158 -549h-170z" />
<glyph unicode="&#x201e;" horiz-adv-x="849" d="M51 -190l76 548h252l-158 -548h-170zM430 -190l76 548h252l-158 -548h-170z" />
<glyph unicode="&#x2022;" horiz-adv-x="755" d="M164 596q0 88 62.5 151.5t150.5 63.5q89 0 152 -63.5t63 -151.5t-63 -150.5t-152 -62.5q-88 0 -150.5 62.5t-62.5 150.5z" />
<glyph unicode="&#x2026;" horiz-adv-x="1368" d="M76 121q0 62 44 105.5t107 43.5q62 0 106 -44t44 -105q0 -63 -44 -107.5t-106 -44.5q-63 0 -107 44.5t-44 107.5zM535 121q0 62 44 105.5t107 43.5q62 0 106 -44t44 -105q0 -63 -44 -107.5t-106 -44.5q-63 0 -107 44.5t-44 107.5zM991 121q0 62 44.5 105.5t107.5 43.5 q61 0 105 -44t44 -105q0 -63 -43.5 -107.5t-105.5 -44.5q-63 0 -107.5 44.5t-44.5 107.5z" />
<glyph unicode="&#x202f;" horiz-adv-x="403" />
<glyph unicode="&#x2039;" horiz-adv-x="573" d="M51 403v164l481 346v-200l-325 -228l325 -227v-201z" />
<glyph unicode="&#x203a;" horiz-adv-x="573" d="M41 57v201l326 227l-326 228v200l481 -346v-164z" />
<glyph unicode="&#x205f;" horiz-adv-x="504" />
<glyph unicode="&#x20ac;" horiz-adv-x="1425" d="M0 496v153h143q-2 25 -2 72t2 72h-143v153h168q57 236 223 382.5t402 146.5q190 0 335 -97.5t220 -290.5l-211 -94q-98 264 -344 264q-139 0 -236 -82t-139 -229h463v-153h-490q-2 -23 -2 -72t2 -72h408v-153h-381q42 -147 139 -228.5t236 -81.5q246 0 344 265l211 -95 q-74 -193 -219.5 -290t-335.5 -97q-237 0 -402.5 145.5t-222.5 381.5h-168z" />
<glyph unicode="&#x2122;" horiz-adv-x="1746" d="M164 1331v113h555v-113h-213v-614h-131v614h-211zM815 717v727h129l254 -514l258 514h127v-727h-135v459l-223 -459h-54l-223 459v-459h-133z" />
<glyph unicode="&#x25fc;" horiz-adv-x="931" d="M0 0v932h932v-932h-932z" />
</font>
</defs>
</svg>
